<svg id="Layer_1" x="0px" y="0px" viewBox="0 0 200 200" xml:space="preserve" width="30px"><style type="text/css">
	.beanst0{fill:#010101;}
</style><path class="beanst0" d="M95.3,174.8c0.8,0.2,1.6,0.2,2.5,0.2c4.1,0,7.8-1.9,9.6-4.9c6.6-11.1,10-23.2,9.9-35.5 c-0.4-15.2-6.2-27.9-12.6-41.5c-6.4-12-10.7-24.7-12.8-37.7c-1.8-13,1.6-26.2,9.6-37.6c0.6-0.8,0.8-1.9,0.5-2.8 c-0.6-2.1-3.1-3.5-5.8-3.1c-33.4,6.2-55,38.1-55,81.5C41.2,136.3,62.5,168.2,95.3,174.8z M97.4,15.2c0.3,0,0.6,0.1,0.7,0.2 c0.2,0.2,0.2,0.5,0,0.7C89.6,28.2,86,42.1,88,55.8c2.2,13.3,6.6,26.2,13.1,38.6c6.1,13.2,12.2,25.7,12.2,40.3 c0.1,11.7-3,23.4-9.3,34c-1.4,2.3-4.5,3.4-7.5,2.9c-31-6.2-51-36.8-51-78C45.5,51.8,65.8,21,97.4,15.2z"></path><path class="beanst0" d="M175.6,93.5c0-41.7-20.5-73.4-52.1-80.7c-4.4-1-9.1,0.3-11.8,3.3c-10,11.2-14.5,25.1-12.6,38.9 c2.1,12.5,6.3,24.6,12.4,36.1c6.3,13.4,12.9,27.2,13.1,43.5c0,12.1-3.1,24-9.1,35c-0.7,1.3-0.5,2.9,0.7,4c0.9,0.9,2.2,1.4,3.6,1.4 c0.4,0,0.7-0.1,1.1-0.2C154.2,168.5,175.6,136.5,175.6,93.5z M119.5,171.5c-0.1-0.2-0.1-0.4,0-0.6c6.2-11.5,9.3-23.9,9.2-36.4 c-0.4-16.9-7.1-31.1-13.4-44.8c-6-11.2-10.2-23.1-12.2-35.2c-1.8-13,2.4-25.9,11.8-36.4c1.3-1.5,3.4-2.4,5.7-2.4 c0.6,0,1.2,0.1,1.7,0.2c29.9,6.9,49.3,37.4,49.3,77.6c0,41.5-20.2,72.1-51.4,78.2C120,171.7,119.7,171.7,119.5,171.5z"></path></svg>
