<svg id="Layer_1" x="0px" y="0px" viewBox="0 0 200 200" xml:space="preserve" width="30px"><style type="text/css">
	.packst0{fill:#010101;}
</style><g><path class="packst0st0" d="M175,111.4l-6.2-63.2L105.5,42L25,122.4l69.4,69.4L175,111.4z M107.1,46.5l57.5,5.7l5.7,57.5l-75.9,75.6 l-63-63L107.1,46.5z"></path><path class="packst0st0" d="M123.8,110c4.5,0.1,8.7-1.6,11.9-4.8c3.3-3.2,5.1-7.6,5.1-12.2c-0.2-9.3-7.7-16.8-17-17 c-4.6,0-8.9,1.8-12.2,5.1c-3.2,3.2-4.9,7.4-4.8,11.9c-0.2,9.1,6.9,16.7,16.1,17C123.3,110,123.5,110,123.8,110z M115.1,84.3 c2.2-2.4,5.4-3.8,8.7-3.7c6.8,0.1,12.2,5.6,12.4,12.4c0.1,3.3-1.2,6.5-3.7,8.7c-2.3,2.4-5.4,3.8-8.7,3.7 c-6.8-0.1-12.2-5.6-12.4-12.4C111.4,89.7,112.7,86.6,115.1,84.3z"></path></g></svg>
