<svg xmlns="http://www.w3.org/2000/svg" width="20px" viewBox="0 0 289 353"><path fill="#91001C" d="M264.7,208.8c-11.8-7.8-25.9-9.8-39.9-10.2c-1.9-36.6-12-74.8-28.7-108.2c-13.8-27.6-30.4-48.4-46-57.9 c8.6-11.5,13.2-22,13.5-22.5c1.5-3.4,0.3-7.5-2.7-9.2s-6.6-0.3-8.1,3c0,0,0,0.1,0,0.1c-4.6,9.7-10.4,18.6-17.3,26.3 c-14,15.5-27.9,23.2-28,23.3c-3,1.6-4.3,5.7-2.8,9.1c1.4,3.4,5,4.9,8,3.2l0,0c0.5-0.3,10-5.5,21.7-16.2c-0.5,28.5-6.4,58-17.3,84.4 c-12.2,29.9-29.4,52.7-48.3,64.4c-15.4,0.2-31.4,1.7-44.4,10.3C8.2,219.5,0,239.3,0,267.6v0.7c0.3,6.8,2.3,30.9,15.6,52.5 C28.3,341.5,47,352.7,69.8,353H70c22.8-0.3,41.5-11.5,54.2-32.2c13.2-21.6,15.3-45.6,15.6-52.5v-0.7c0-28.3-8.2-48.1-24.3-58.8 c-8.1-5.4-17.3-8-26.8-9.2c34.2-31.4,57.8-93.3,57.7-153.9c12.9,8.8,27.4,27.5,39.4,51.4c15.6,31.3,25.1,67.1,27.1,101.4 c-13.8,0.5-27.7,2.5-39.2,10.2c-16.1,10.7-24.3,30.5-24.3,58.8v0.7c0.3,6.8,2.3,30.9,15.6,52.5c12.7,20.8,31.5,31.9,54.3,32.2h0.2 c22.8-0.3,41.5-11.5,54.2-32.2c13.2-21.6,15.3-45.6,15.6-52.5v-0.7C289,239.3,280.8,219.5,264.7,208.8L264.7,208.8z M127.8,267.5 v0.2c-1.1,24.5-14.7,70.9-57.9,71.6c-43.2-0.7-56.8-47.1-57.9-71.6v-0.2c0-50.1,28-55,56.9-55.4c0.7,0.2,1.5,0.2,2.2,0 C100,212.5,127.8,217.6,127.8,267.5z M277,267.7c-1.1,24.5-14.7,70.9-57.9,71.6c-43.2-0.7-56.8-47.1-57.9-71.6v-0.2 c0-50,27.9-55,56.8-55.4c0.4,0.1,0.8,0.1,1.3,0.1c0.3,0,0.6-0.1,0.9-0.1c28.9,0.3,56.8,5.3,56.9,55.4L277,267.7z"></path></svg>
