<svg xmlns="http://www.w3.org/2000/svg" width="20px" viewBox="0 0 289 353"><path fill="#FF9C7E" d="M197.3,10c-3.7-2.2-7.5-4.4-11.3-6.3L179,0.1L0.1,315l6.4,4.5c3.3,2.3,6.7,4.6,10.2,6.6 c85.5,52.9,195.9,25.3,246.5-61.6s22.2-200.1-63.3-253C199,11,198.1,10.5,197.3,10L197.3,10z M171.1,55.8 c25.3,15.2,44.7,38.8,55.1,66.8l-114.4,29.6l55.9-98.4C168.8,54.5,170,55.1,171.1,55.8z M126.4,297.5c-28.8,4.2-58.3-1.9-83.4-17.2 c-1-0.6-1.9-1.2-2.8-1.8L96,180.1L126.4,297.5z M113.6,182.5l97.8,62.4c-16.7,24.1-41,41.4-68.8,49.2L113.6,182.5z M220,230.6 l-99-63.2l110.2-28.5C238.6,169.9,234.6,202.6,220,230.6z M269.2,191.2c-11.3,91.4-93,155.3-182.5,142.6 C64.9,330.7,44,323.2,25,311.6c-0.9-0.6-1.9-1.1-2.8-1.7l9.6-16.9c0.9,0.6,1.9,1.2,2.8,1.8c68.6,42.3,157.1,20.2,197.6-49.5 s17.7-160.5-50.9-202.8c-0.6-0.4-1.3-0.8-1.9-1.2c-1.1-0.7-2.3-1.4-3.4-2l9.6-16.8c1.2,0.7,2.3,1.3,3.5,2 C245.8,59,277.4,124.6,269.2,191.2L269.2,191.2z"></path></svg>
