<svg xmlns="http://www.w3.org/2000/svg" width="20px" viewBox="0 0 289 353"><g><path fill="#B72367" d="M279.2,107.9c-2.8-7.3-9.1-13.6-17.3-17.2c-7.3-3.2-19.2-5.6-35.7-0.3c-3.5-6.4-10.3-11.2-18.1-12.3 c-3.5-0.5-9.7-0.6-16.6,3.1c0.9-4.8,0.4-9.4-0.9-13.1c-2.5-7.1-8-12.3-14.8-14.3c0.7-14.8-4.5-37.1-28.8-43.9 c-9.9-2.8-18.7-2-26.2,2.2C113,4.4,102.5,1.1,92,3.3C78.6,6.2,68.6,16.8,65.8,31.1c0,0.1-1,6.7-1,12.8c-7.6,2.1-13.2,7.5-15.8,15.3 c-3.6,10.8-0.6,23.9,7.4,34.3c-4.8,2.6-8.5,6.5-10.6,11.3c-3.9,9.2-1.7,20.7,6.3,32.5c1.3,2,2.9,4.1,4.5,6.4 c11.3,15.8,28.4,39.7,18,58c0,0,0,0,0,0L5.5,323.9c-0.8,1.4-1,3-0.6,4.6c0.1,0.5,3.4,12,15,18.5c11.2,6.4,23.9,4.4,24.4,4.3 c0.2,0,0.4-0.1,0.6-0.1c1.5-0.4,2.8-1.4,3.6-2.8l69.3-122.2c10.3-18.2,39.6-15.9,59-14.3c2.8,0.2,5.5,0.4,7.8,0.6 c14.2,0.8,25.3-3.2,31.1-11.3c3.1-4.2,4.5-9.4,4.2-14.9c13,1.5,25.8-2.6,33.2-11.3c5.4-6.3,7.1-13.8,5-21.5 c5-3.1,10.1-7.4,10.9-8.1C280.2,134.6,284,120.6,279.2,107.9z M62.1,130.5c-5.6-8.3-7.5-15.7-5.2-21c1.7-3.9,5.7-6.5,11.3-7.4 c2.3-0.4,4.2-2.1,4.8-4.3c0.6-2.3-0.1-4.7-1.9-6.2c-10.4-8.7-13.2-20.9-10.7-28.6c1.2-3.5,4-7.7,11.1-8.1c3.3-0.2,5.8-3,5.7-6.3 c0-0.5-0.1-1-0.2-1.4c-0.1-2.8,0.4-12.1,0.6-13.7c2.2-11.3,10.2-16.9,16.9-18.3c6.2-1.3,12.2,0.4,16.9,4.6 c-6.5,7.8-9.5,17.6-10.8,23c-8.3,2.7-13.8,7.4-16.2,14c-3.7,10.1,1.2,21.6,5,28.3c-19.9,12.4-17.8,29.2-5.9,59.9 c3.6,9.3,4,18.5,3,26.1c-4.7-12.9-13.3-24.9-20.1-34.4C64.9,134.5,63.4,132.4,62.1,130.5z M260.8,136.7c-3.8,3.7-9.7,7.2-11.5,8.1 c-0.5,0.1-0.9,0.3-1.3,0.5c-2.9,1.5-4.1,5.2-2.5,8.1c3.3,6.3,1.1,10.9-1.2,13.7c-5.2,6.1-17.2,9.9-30,5.5c-2.2-0.8-4.7-0.2-6.3,1.5 c-1.6,1.7-2.1,4.2-1.2,6.4c2.1,5.3,1.9,10.1-0.6,13.5c-3.3,4.6-10.7,6.9-20.7,6.3c-2.3-0.1-4.8-0.3-7.6-0.6 c-22.4-1.8-56.3-4.5-70.4,20.4L39.7,339.6c-3.3,0.1-8.9-0.3-13.9-3.1c-4.7-2.7-7.3-6.7-8.4-9.2l73.5-129.6 c0.6-1.1,15.3-27.6,3.9-57.1c-13.6-34.9-9.4-40.6,5.8-48c1.6-0.8,2.8-2.3,3.2-4s0-3.6-1-5c-2.7-3.6-9.8-15.4-7.1-22.7 c1.3-3.5,5.1-6,11.4-7.4c2.4-0.6,4.3-2.6,4.6-5.1c0-0.2,2.6-18.1,13.6-25.2c5-3.2,10.9-3.8,18.3-1.8c24.5,6.9,19.8,35.2,19.6,36.4 c-0.3,1.8,0.2,3.6,1.3,4.9c1.2,1.4,2.9,2.2,4.6,2.1c4.6,0,8.5,2.7,10.1,7.2c1.8,5,0.6,12.7-8,19.5c-2.6,2-3,5.8-1,8.4 c0,0,1.8,2.3,2.7,6.1c0,0.2,0.1,0.5,0.2,0.7c0.2,0.7,0.3,1.5,0.4,2.3c0.8,7.4-2.6,14.9-9.9,22.3c-5.5,5.5-11.4,11.1-17.5,16.9 c-9.7,9.1-19.7,18.6-28,27.9c-0.3,0.3-7.1,7.2-11.2,17.5c-1.2,3.1,0.3,6.6,3.3,7.8c3.1,1.2,6.6-0.3,7.8-3.3 c3.2-8,8.6-13.5,8.8-13.7c8.2-9.2,18.1-18.4,27.6-27.4c3.6-3.4,7.2-6.8,10.7-10.2l-1.2,7.9c-4.1,2.8-8.2,5.8-12.4,9.1 c-2.1,1.6-2.5,4.6-0.9,6.7c1.2,1.6,3.2,2.2,5.1,1.7c0.6-0.2,1.1-0.4,1.6-0.8c3.9-3,7.7-5.8,11.5-8.5l13.6,11.7 c1.3,1.1,2.9,1.4,4.4,1c0.9-0.2,1.7-0.7,2.3-1.5c1.7-2,1.5-5-0.5-6.7l-11.6-10c9-5.8,17.5-10.5,25.3-14.4l11.1,9.1 c1.2,1,2.9,1.3,4.3,0.9c0.9-0.3,1.8-0.8,2.4-1.6c1.7-2,1.4-5-0.7-6.7l-7.6-6.2c18.4-8.3,30.6-11.2,30.8-11.2 c2.6-0.6,4.2-3.1,3.6-5.7c-0.6-2.6-3.1-4.2-5.7-3.6c-0.9,0.2-13.4,3.1-32,11.5l0.6-5.9c0.3-2.6-1.6-5-4.2-5.2 c-2.6-0.3-5,1.6-5.2,4.2l-1.2,11.7c-7.3,3.7-15.4,8.1-23.8,13.5l1.5-9.3c0.1-0.9,0-1.7-0.3-2.5c9.1-11,10.4-21.2,9.7-28 c-0.1-0.7-0.2-1.4-0.3-2c5.8-11.2,13.5-17,21.2-15.8c5.8,0.9,9.8,5.3,10.4,9c0.3,1.8,1.4,3.4,3,4.3c1.6,0.9,3.5,1,5.2,0.3 c15.7-6.4,26.2-4.6,32.2-1.9c5.2,2.3,9.3,6.2,10.9,10.4C271,120.4,268.4,129.3,260.8,136.7z M119,153.1c-2.4-1-3.6-3.8-2.6-6.2 c2.9-7.1,5.4-13.9,7.4-20.4L109,114.1c-2-1.7-2.3-4.7-0.6-6.7c1.7-2,4.7-2.3,6.7-0.6l11.7,9.7c3.2-11.7,5.1-22.2,6.3-31.3 l-11.5-9.2c-2.1-1.6-2.4-4.6-0.8-6.7c1.6-2.1,4.6-2.4,6.7-0.8l6.7,5.3c1.1-16-0.3-25.4-0.3-25.6c-0.4-2.6,1.4-5,4-5.5 c2.6-0.4,5,1.4,5.5,4c0.1,0.9,1.8,11.7,0.4,29.7l6.1-1.9c2.6-0.8,5.2,0.6,6,3.1c0.8,2.5-0.6,5.2-3.1,6l-10.1,3.2 c-1.1,8.6-2.9,18.4-5.7,29.2l6.7-3.2c2.4-1.2,5.2-0.1,6.4,2.2c1.1,2.4,0.1,5.2-2.2,6.4l-14.4,6.9c-2.2,7.1-4.9,14.5-8.1,22.3 c-0.6,1.4-1.8,2.4-3.1,2.8C121.1,153.5,120.1,153.5,119,153.1z M95.1,216.2c1.7,1,2.3,3.1,1.3,4.8L36.6,326.6 c-0.5,0.8-1.3,1.4-2.1,1.7c-0.9,0.2-1.8,0.1-2.7-0.3c-1.7-1-2.3-3.1-1.3-4.8l59.9-105.6C91.3,215.8,93.4,215.2,95.1,216.2z"></path></g></svg>
