<svg id="dak-logo" data-name="dak-logo" xmlns="http://www.w3.org/2000/svg" viewBox="0 0 364.95 51.15">
  <defs>
    <style>
      .cls-1 {
        fill: #231f20;
        stroke-width: 0px;
      }
    </style>
  </defs>
  <g id="Laag_1" data-name="Laag 1">
    <g>
      <g>
        <path class="cls-1" d="M21.6.38h0s0,0,0,0H0v50.39h21.6c13.91,0,25.2-11.28,25.2-25.2S35.51.38,21.6.38ZM21.6,43.57h0s-14.4,0-14.4,0V7.58h14.4c9.92,0,18,8.07,18,18s-8.07,18-18,18Z"/>
        <path class="cls-1" d="M79.91.38l-22.96,50.39h7.91l6.56-14.4h28.63l6.56,14.4h7.91L91.55.38h-11.65ZM74.69,29.18l11.04-24.21,11.04,24.21h-22.07Z"/>
        <polygon class="cls-1" points="166.52 50.77 176.36 50.77 151.22 23.82 176.35 .38 165.8 .38 136.77 27.45 136.77 .38 129.58 .38 129.58 50.77 136.77 50.77 136.77 37.29 145.96 28.73 166.52 50.77"/>
      </g>
      <g>
        <path class="cls-1" d="M229.11,0c-5.76,0-10.43,4.67-10.43,10.43s4.67,10.43,10.43,10.43,10.43-4.67,10.43-10.43-4.67-10.43-10.43-10.43ZM229.11,18.69c-4.55,0-8.26-3.7-8.26-8.26s3.7-8.26,8.26-8.26,8.26,3.7,8.26,8.26-3.7,8.26-8.26,8.26Z"/>
        <polygon class="cls-1" points="258.86 2.5 258.86 .33 244.6 .33 244.6 20.54 246.78 20.54 246.78 11.52 258.86 11.52 258.86 9.34 246.78 9.34 246.78 2.5 258.86 2.5"/>
        <polygon class="cls-1" points="279.83 2.5 279.83 .33 265.56 .33 265.56 20.54 267.74 20.54 267.74 11.52 279.83 11.52 279.83 9.34 267.74 9.34 267.74 2.5 279.83 2.5"/>
        <polygon class="cls-1" points="300.83 2.5 300.83 .33 286.56 .33 286.56 20.54 300.83 20.54 300.83 18.36 288.74 18.36 288.74 11.52 300.83 11.52 300.83 9.34 288.74 9.34 288.74 2.5 300.83 2.5"/>
        <polygon class="cls-1" points="321.83 2.5 321.83 .33 307.57 .33 307.57 20.54 321.83 20.54 321.83 18.36 309.74 18.36 309.74 11.52 321.83 11.52 321.83 9.34 309.74 9.34 309.74 2.5 321.83 2.5"/>
        <path class="cls-1" d="M203.76,18.69c-4.55,0-8.26-3.7-8.26-8.26s3.7-8.26,8.26-8.26c3.35,0,6.24,2.01,7.53,4.89h2.34c-1.4-4.11-5.28-7.06-9.87-7.06-5.76,0-10.43,4.67-10.43,10.43s4.67,10.43,10.43,10.43c4.58,0,8.46-2.96,9.87-7.06h-2.34c-1.29,2.88-4.18,4.89-7.53,4.89Z"/>
      </g>
      <g>
        <path class="cls-1" d="M225.7,30.29c-5.76,0-10.43,4.67-10.43,10.43s4.67,10.43,10.43,10.43,10.43-4.67,10.43-10.43-4.67-10.43-10.43-10.43ZM225.7,48.98c-4.55,0-8.26-3.7-8.26-8.26s3.7-8.26,8.26-8.26,8.26,3.7,8.26,8.26-3.7,8.26-8.26,8.26Z"/>
        <polygon class="cls-1" points="301.58 30.56 293.36 30.56 291.18 30.56 282.96 30.56 282.96 32.74 291.18 32.74 291.18 50.77 293.36 50.77 293.36 32.74 301.58 32.74 301.58 30.56"/>
        <path class="cls-1" d="M206.29,41.49c2.29-.79,3.93-2.54,3.93-5.09,0-3.22-2.61-5.83-5.83-5.83h-10.08v20.21h2.18v-8.96h7.57l3.76,8.96h2.38l-3.91-9.29ZM196.48,39.63v-6.9h7.9c2.02,0,3.66,1.64,3.66,3.66s-1.64,3.24-3.66,3.24h0s-7.9,0-7.9,0Z"/>
        <path class="cls-1" d="M340.13,41.49c2.29-.79,3.93-2.54,3.93-5.09,0-3.22-2.61-5.83-5.83-5.83h-10.08v20.21h2.18v-8.96h7.57l3.76,8.96h2.38l-3.91-9.29ZM330.33,39.63v-6.9h7.9c2.02,0,3.66,1.64,3.66,3.66s-1.64,3.24-3.66,3.24h0s-7.9,0-7.9,0Z"/>
        <polygon class="cls-1" points="321.83 32.74 321.83 30.56 307.57 30.56 307.57 50.77 321.83 50.77 321.83 48.6 309.74 48.6 309.74 41.75 321.83 41.75 321.83 39.58 309.74 39.58 309.74 32.74 321.83 32.74"/>
        <path class="cls-1" d="M243.56,45.12h11.09l2.51,5.65h2.38l-8.99-20.21h-2.9l-8.99,20.21h2.38l2.51-5.65ZM249.1,32.66l4.58,10.29h-9.15l4.58-10.29Z"/>
        <path class="cls-1" d="M349.11,44.22h2.18c.13,3.07,2.42,4.87,5.97,4.87s5.35-1.52,5.35-4.09c0-5.99-12.97-.48-12.97-9.11,0-3.25,2.99-5.61,7.44-5.61s7.62,2.59,7.62,6.32h-2.2c-.23-2.69-2.24-4.27-5.49-4.27s-5.02,1.45-5.02,3.91c0,5.58,12.97.46,12.97,8.78,0,3.45-2.74,6.12-7.79,6.12s-8.05-2.54-8.05-6.93"/>
        <path class="cls-1" d="M263.33,44.22h2.18c.13,3.07,2.42,4.87,5.97,4.87s5.35-1.52,5.35-4.09c0-5.99-12.97-.48-12.97-9.11,0-3.25,2.99-5.61,7.44-5.61s7.62,2.59,7.62,6.32h-2.2c-.23-2.69-2.24-4.27-5.49-4.27s-5.02,1.45-5.02,3.91c0,5.58,12.97.46,12.97,8.78,0,3.45-2.74,6.12-7.79,6.12s-8.05-2.54-8.05-6.93"/>
      </g>
    </g>
  </g>
</svg>
