<svg id="dak-logo" data-name="dak-logo" xmlns="http://www.w3.org/2000/svg" width="250px" height="24px" viewBox="0 0 467.05 44.96"><defs><clipPath id="clip-path" transform="translate(-56.44 -205.28)"><rect class="cls-1" x="56.44" y="205.28" width="145.68" height="43.91"></rect></clipPath></defs><path class="cls-2" d="M76,240.83c8.71,0,14.46-5.23,14.46-13.59S84.67,213.65,76,213.65H66.72v27.18ZM56.44,205.28h20c14.29,0,24.22,8.72,24.22,22s-9.93,22-24.22,22h-20Z" transform="translate(-56.44 -205.28)"></path><g class="cls-3"><path class="cls-2" d="M131,205.28h0l-7.14,7.32h0l7.49,18.47H115.86l-8.54,8.54h27.54L139,250.24h11.85Z" transform="translate(-56.44 -205.28)"></path></g><g class="cls-3"><polygon class="cls-2" points="119.89 26.66 113.97 32.76 113.97 43.91 103.86 43.91 103.86 0 113.97 0 113.97 20.56 133.31 0 144.63 0 126.51 19.52 145.68 43.91 133.83 43.91 119.89 26.66"></polygon></g><path class="cls-4" d="M221.09,229.21a9.86,9.86,0,0,1,10.11-9.83,9.68,9.68,0,0,1,7.1,2.73l-1.36,1.37a7.62,7.62,0,0,0-5.74-2.19,7.93,7.93,0,1,0,0,15.85,7.62,7.62,0,0,0,5.74-2.19l1.36,1.37c-1.64,1.91-4.1,2.73-7.1,2.73C225.19,238.77,221.09,234.68,221.09,229.21Z" transform="translate(-56.44 -205.28)"></path><path class="cls-4" d="M242.67,229.21a9.86,9.86,0,0,1,10.11-9.83c5.74,0,10.11,4.1,10.11,9.83s-4.37,9.84-10.11,9.84C247,238.77,242.67,234.68,242.67,229.21Zm18.3,0a7.92,7.92,0,1,0-15.84,0,7.76,7.76,0,0,0,7.92,7.93A7.93,7.93,0,0,0,261,229.21Z" transform="translate(-56.44 -205.28)"></path><path class="cls-4" d="M271.9,221.29v7.38h9.84v1.64H271.9v8.19H270V219.38H283.1V221H271.9Z" transform="translate(-56.44 -205.28)"></path><path class="cls-4" d="M291.84,221.29v7.38h9.84v1.64h-9.84v8.19h-1.91V219.38H303V221h-11.2Z" transform="translate(-56.44 -205.28)"></path><path class="cls-4" d="M323,236.86v1.64H309.6V219.38h13.11V221h-11.2v6.83h9.84v1.64h-9.84v7.37Z" transform="translate(-56.44 -205.28)"></path><path class="cls-4" d="M343.75,236.86v1.64H330.36V219.38h13.11V221h-11.2v6.83h9.84v1.64h-9.84v7.37Z" transform="translate(-56.44 -205.28)"></path><path class="cls-4" d="M373.8,238.77l-4.38-6H362.6v6h-1.92V219.65h7.11c4.91,0,7.92,2.46,7.92,6.56a5.93,5.93,0,0,1-4.37,6l4.64,6.55Zm0-12.56c0-3-1.92-4.92-5.74-4.92h-5.19v9.56h5.19C371.61,230.85,373.8,229.21,373.8,226.21Z" transform="translate(-56.44 -205.28)"></path><path class="cls-4" d="M381.44,229.21a9.86,9.86,0,0,1,10.11-9.83c5.74,0,10.11,4.1,10.11,9.83s-4.37,9.84-10.11,9.84C385.54,238.77,381.44,234.68,381.44,229.21Zm18,0a7.92,7.92,0,1,0-15.84,0,7.76,7.76,0,0,0,7.92,7.93A7.93,7.93,0,0,0,399.47,229.21Z" transform="translate(-56.44 -205.28)"></path><path class="cls-4" d="M420.23,233.58H409.58l-2.18,5.19h-2.19L414,219.65h1.91l8.75,19.12h-2.19Zm-.82-1.63-4.64-10.39L410.13,232Z" transform="translate(-56.44 -205.28)"></path><path class="cls-4" d="M428.43,236.32l.82-1.64a9.24,9.24,0,0,0,6.28,2.18c3.55,0,5.19-1.36,5.19-3.28,0-5.19-11.74-1.91-11.74-9,0-2.73,2.18-5.19,7.1-5.19a11.05,11.05,0,0,1,6,1.64l-.55,1.64a9.59,9.59,0,0,0-5.19-1.64c-3.55,0-4.92,1.64-4.92,3.55,0,5.19,11.75,2.19,11.75,9,0,2.74-2.18,5.19-7.1,5.19C432.8,238.77,429.8,237.68,428.43,236.32Z" transform="translate(-56.44 -205.28)"></path><path class="cls-4" d="M453,221.29h-6.56v-1.64H462v1.64H455.2v17.48h-1.91L453,221.29Z" transform="translate(-56.44 -205.28)"></path><path class="cls-4" d="M481.15,236.86v1.64H467.77V219.38h13.11V221h-11.2v6.83h9.83v1.64h-9.83v7.37Z" transform="translate(-56.44 -205.28)"></path><path class="cls-4" d="M501.37,238.77l-4.37-6h-6.83v6h-1.92V219.65h7.11c4.91,0,7.92,2.46,7.92,6.56a5.93,5.93,0,0,1-4.37,6l4.64,6.55Zm0-12.56c0-3-1.92-4.92-5.74-4.92h-5.19v9.56h5.19C499.18,230.85,501.37,229.21,501.37,226.21Z" transform="translate(-56.44 -205.28)"></path><path class="cls-4" d="M508.74,236.32l.82-1.64a9.26,9.26,0,0,0,6.28,2.18c3.56,0,5.2-1.36,5.2-3.28,0-5.19-11.75-1.91-11.75-9,0-2.73,2.18-5.19,7.1-5.19a11,11,0,0,1,6,1.64l-.55,1.64a9.57,9.57,0,0,0-5.19-1.64c-3.55,0-4.91,1.64-4.91,3.55,0,5.19,11.74,2.19,11.74,9,0,2.74-2.18,5.19-7.1,5.19C513.11,238.77,510.11,237.68,508.74,236.32Z" transform="translate(-56.44 -205.28)"></path></svg>
