<svg xmlns="http://www.w3.org/2000/svg" viewBox="0 0 211.2 449.6">
<g>
	<path d="M210,333c0-11.2-15.3-18.3-35.2-22.7l-18.2-53.1C172.7,244,183,224,183,201.6c0-29.5-17.8-55.7-44.9-66.7
		v-32.6c0-3.8-3.1-6.8-6.8-6.8h-1.2V70.2L174,35.9h0c3.8,0,6.8-3,6.8-6.8v-22c0-3.8-3-6.8-6.8-6.8H47.9c-3.8,0-6.8,3-6.8,6.8v22
		c0,3.8,3,6.8,6.8,6.8h0l43.9,34.3v10.9H81.2v-2.3c0-0.2-0.1-0.4-0.1-0.6c1.4-1.6,2.3-3.6,2.3-5.8c0-4.9-4-8.9-8.9-8.9
		c-4.9,0-8.9,4-8.9,8.9c0,2.2,0.9,4.2,2.3,5.8c0,0.2-0.1,0.4-0.1,0.7v9.1c0,3.8,3,6.8,6.8,6.8h17.4v0.7h-1.2c-3.8,0-6.8,3-6.8,6.8
		v32.6c-27,11-44.9,37.2-44.9,66.7c0,5.5,0.7,10.9,1.9,16l-34.1,0c-3.8,0-6.8,3-6.8,6.8v12.1c0,3.8,3,6.8,6.8,6.8
		c3.8,0,6.8-3.1,6.8-6.8v-5.3h31.9c4.6,10.1,11.4,19,19.9,26l-18.2,53.1c-19.9,4.3-35.2,11.5-35.2,22.7c0,0.2,0.1,0.4,0.1,0.6
		c0,0.2-0.1,0.3-0.1,0.5v86.4c0,22.6,62.3,28.7,99.1,28.7c36.8,0,99-6,99-28.7v-86.4c0-0.2-0.1-0.3-0.1-0.5
		C209.9,333.4,210,333.2,210,333L210,333z M124.5,109v70.8H97.4l0-70.8L124.5,109z M54.7,13.9h112.5v8.4H54.7V13.9z M151.9,35.9
		L121,60.1h-20L70,35.9H151.9z M105.5,73.7h11v21.7h-11V73.7z M111,217.6H54.8c-1.5-5.1-2.3-10.5-2.3-16c0-22,12.2-41.8,31.3-51.7
		v36.8c0,3.8,3.1,6.8,6.8,6.8h40.7c3.8,0,6.8-3,6.8-6.8v-36.8c19,10,31.3,29.7,31.3,51.7c0,32.2-26.2,58.4-58.4,58.4
		c-21.4,0-40.1-11.6-50.3-28.8H111c3.8,0,6.8-3.1,6.8-6.8S114.7,217.6,111,217.6L111,217.6z M77,265c10.1,5.5,21.7,8.6,34,8.6
		c12.3,0,23.8-3.1,34-8.6l14.6,42.5c-16.6-2.4-34.5-3.3-48.6-3.3c-14.1,0-31.9,0.9-48.6,3.3L77,265z M111,317.9
		c50.9,0,81.4,9.4,85.3,15.1c-3.9,5.6-34.4,15.1-85.3,15.1c-34,0-58.9-4.2-72.8-8.7c-0.1-0.1-0.3-0.1-0.5-0.1
		c-6.6-2.2-10.7-4.4-12-6.2C29.6,327.4,60.1,317.9,111,317.9L111,317.9z M111,435.6c-52.2,0-83-10-85.5-15.1v-71.8
		c1,0.5,2,1,3.1,1.4v36.4c0,3.8,3,6.8,6.8,6.8c3.8,0,6.8-3,6.8-6.8v-31.9c21,5.3,48.7,7.2,68.8,7.2c26.2,0,65.1-3.1,85.5-13
		l0.1,71.4C194,425.7,163.2,435.6,111,435.6L111,435.6z"/>
	<path d="M118,201.6c0,3.9-3.2,7.1-7.1,7.1c-3.9,0-7.1-3.2-7.1-7.1c0-3.9,3.2-7.1,7.1-7.1
		C114.9,194.5,118,197.7,118,201.6"/>
	<path d="M35.4,397.1c-3.8,0-6.8,3-6.8,6.8v6.4c0,3.8,3,6.8,6.8,6.8c3.8,0,6.8-3.1,6.8-6.8v-6.4
		C42.2,400.2,39.2,397.1,35.4,397.1z"/>
</g>
</svg>
