<?xml version="1.0" encoding="utf-8"?>
<!-- Generator: Adobe Illustrator 26.0.2, SVG Export Plug-In . SVG Version: 6.00 Build 0)  -->
<svg version="1.1" id="Layer_1" xmlns="http://www.w3.org/2000/svg" xmlns:xlink="http://www.w3.org/1999/xlink" x="0px" y="0px"
	 viewBox="0 0 536.7 314.8" style="enable-background:new 0 0 536.7 314.8;" xml:space="preserve">
<g>
	<path d="M411.7,58.1v-0.6c0-0.6,0-0.6-0.6-1.1c0-0.6-0.6-0.6-0.6-1.1c0,0,0-0.6-0.6-0.6c-0.6-0.6-0.6-1.1-1.1-1.1
		L358.5,3.2c-1.7-1.7-4.5-2.8-6.7-2.8H214c-2.8,0-5,1.1-6.7,2.8l-50.4,50.4c-0.6,0.6-0.6,1.1-1.1,1.1l-0.6,0.6
		c0,0.6-0.6,0.6-0.6,1.1c0,0.6,0,0.6-0.6,1.1v0.6v1.7v211.1c0,5,4.5,9.5,9.5,9.5h35.8c1.1,0,1.7,0,2.8-0.6
		c2.8,17.9,18.5,31.9,37.5,31.9c18.5,0,34.2-13.4,37-31.4h1.7h146.2c3.4,17.9,18.5,31.4,37,31.4s34.2-13.4,37-31.4h28.6
		c5,0,9.5-4.5,9.5-9.5v-99.1c0-25.2-7.3-46.5-20.7-61c-12.9-14-30.8-21.3-51-21.3h-52.6V59.8C411.7,59.2,411.7,58.7,411.7,58.1
		L411.7,58.1z M290.8,19.5h57.1l31.4,31.4h-88.5V19.5z M217.4,19.5h53.8v31.4H186L217.4,19.5z M238.7,293.3
		c-10.1,0-18.5-8.4-18.5-18.5c0-10.1,8.4-18.5,18.5-18.5c10.1,0,18.5,8.4,18.5,18.5C257.1,284.9,248.8,293.3,238.7,293.3z M392.1,99
		v163H277.3c-1.1,0-2.2,0-2.8,0.6c-5-15.1-19-25.8-35.8-25.8s-30.8,11.2-35.8,25.8c-1.1-0.6-2.8-1.1-3.9-1.1h-25.8V69.3h219.5
		l0,29.7L392.1,99z M460.4,293.3c-10.1,0-18.5-8.4-18.5-18.5c0-10.1,8.4-18.5,18.5-18.5c10.1,0,18.5,8.4,18.5,18.5
		S470.5,293.3,460.4,293.3z M464.4,108.5c32.5,0,52.6,24.1,52.6,63.3v89.6h-20.7c-5-14.6-19-25.2-35.8-25.2
		c-16.2,0-30.2,10.6-35.3,25.2h-12.9V108.5L464.4,108.5z M52.2,104h73.4c5,0,9.5,4.5,9.5,9.5c0,5-4.5,9.5-9.5,9.5H52.2
		c-5,0-9.5-4.5-9.5-9.5C42.7,108.5,47.2,104,52.2,104z M1.8,165.6c0-5,4.5-9.5,9.5-9.5H125c5,0,9.5,4.5,9.5,9.5c0,5-4.5,9.5-9.5,9.5
		H11.3C6.3,175.2,1.8,171.2,1.8,165.6z M135.1,217.7c0,5-4.5,9.5-9.5,9.5H52.2c-5,0-9.5-4.5-9.5-9.5c0-5,4.5-9.5,9.5-9.5h73.4
		C131.2,208.2,135.1,212.1,135.1,217.7z M220.2,166.8c0-5,4.5-9.5,9.5-9.5h73.9l-12.9-12.9c-3.9-3.9-3.9-10.1,0-13.4
		c3.9-3.9,10.1-3.9,13.4,0l29.1,29.1c0.6,0.6,0.6,1.1,1.1,1.1c0,0,0,0.6,0.6,0.6c0,0.6,0.6,0.6,0.6,1.1c0,0.6,0,0.6,0.6,1.1v0.6v1.7
		v1.7v0.6c0,0.6,0,0.6-0.6,1.1c0,0.6-0.6,0.6-0.6,1.1c0,0,0,0.6-0.6,0.6c-0.6,0.6-0.6,1.1-1.1,1.1l-30.8,30.8
		c-1.7,1.7-4.5,2.8-6.7,2.8s-5-1.1-6.7-2.8c-3.9-3.9-3.9-10.1,0-13.4l14.6-14.6l-73.9,0C224.7,176.3,220.2,171.8,220.2,166.8
		L220.2,166.8z"/>
</g>
</svg>
