<svg xmlns="http://www.w3.org/2000/svg" width="20px" viewBox="0 0 289 353">
        <g>
            <path fill="#54370A" d="M53.7,21.3C59.4,6.1,76.4-2,91.8,3.3c1.6,0.5,3.1,1.2,4.6,2l0,0l56.3,30.6c48.1,26.2,84.9,68.4,103.9,119.1
                l0,0l15.6,41.8c20.3,54.2-8.5,115.1-64.3,136l0,0l-23.4,8.8c-55.8,20.9-117.5-6.2-137.8-60.4l0,0l-15.6-41.8
                c-19-50.7-18.9-106.7,0.3-158l0,0L53.7,21.3z M72.2,30.2L50.7,87.9c-17.5,46.9-17.5,97.9-0.2,144.2l0,0l15.6,41.8
                c16.4,43.8,66.2,65.7,111.4,48.8l0,0l9.3-3.5c12-27.1,15.3-60,9.6-98.7c-5.9-39.9-24-74-54.7-102.4c-4.1-3.8-4.2-10.2-0.2-14.2
                c4-4.1,10.5-4.3,14.6-0.5c34,31.5,54.3,69.6,60.8,114c5,34.2,3.6,64.7-4.4,91.4c37.5-20.3,55.5-64.7,40.5-104.7l0,0l-15.6-41.8
                c-17.3-46.3-50.9-84.8-94.8-108.7l0,0L96.7,28.7c7.2,12.6,9.5,27.2,6.5,43.5l-0.5,2.4c-1.7,8.1-6.1,26.9-7.1,31.7l-0.1,0.5
                c-8.6,41.3-6.2,70.9,14,98.3c3.3,4.5,2.2,10.8-2.4,14.1c-4.6,3.3-11.1,2.4-14.4-2.1c-23.8-32.2-27-66.5-17.9-111.4l0.5-2.6
                c1-4.8,6.6-28.7,7.6-34.1C85.8,53.5,82.3,40.8,72.2,30.2z"/>
        </g>
      </svg>
