<svg xmlns="http://www.w3.org/2000/svg" width="20px" viewBox="0 0 289 353"><path fill="#A00440" d="M102.6,353c12.9,0,25.6-2.4,37.6-7.1c2.8-1.1,5.9-1.1,8.6,0c12,4.7,24.7,7.1,37.6,7.1 c58.3,0,102.8-110.4,102.8-165.6c0-56.7-46.1-102.8-102.8-102.8c-10.6,0-21.1,1.6-31.2,4.8c1.4-17.4,7.5-34.1,17.8-48.3 c9.2-12.7,18.6-19.3,18.6-19.3c2.7-2,3.3-5.9,1.2-8.6c-1.9-2.5-5.4-3.2-8.1-1.5c-1.1,0.7-15.6,10.8-27.3,30.6 c-13.3-34.1-51.7-51-85.8-37.8c-3.6,1.4-7,3.1-10.3,5c-2.1,1.3-3.2,3.6-2.9,6c4.4,36.3,37.5,62.1,73.8,57.7 c4.6-0.6,9.2-1.6,13.6-3.2c-1.9,7.4-3,15-3.3,22.6c-12.7-5.4-26.3-8.1-40-8.1C45.9,84.6-0.2,130.7-0.2,187.4 C-0.2,242.6,44.3,353,102.6,353z M100.7,56.1c-15.2-7.4-26-21.4-29.4-37.9c26.6-13.5,59.1-2.8,72.6,23.8c2.2,4.3,3.8,9,4.8,13.7 C133.6,63.3,115.8,63.4,100.7,56.1z M12.1,187.4c0-50,40.6-90.5,90.6-90.5c12.1,0,24.1,2.4,35.2,7.2c4,1.7,8.5,1.8,12.5,0.2 c0.2-0.1,0.4-0.1,0.6-0.2c46.1-19.5,99.2,2.1,118.6,48.2c4.7,11.1,7.1,23.1,7.1,35.2c0,26.6-11.1,65.6-27.6,96.9 c-18.9,35.9-41.8,56.4-62.9,56.4c-11.3,0-22.5-2.1-33.1-6.2c-5.7-2.2-11.9-2.2-17.6,0c-10.5,4.1-21.8,6.3-33.1,6.2 c-21.1,0-44-20.6-62.9-56.4C23.2,253,12.1,214,12.1,187.4z"></path></svg>
