<svg xmlns="http://www.w3.org/2000/svg" width="20px" viewBox="0 0 289 353">
<g>
	<path fill="#E2C744" d="M268.5,196.8c-9.4-13.3-23.6-23.4-40.2-29c4.6-29.5,4-59.4-2.5-86.3c-6-25-18.8-48.4-36.6-66.6
		C184,9.6,175.8,2.3,165.7,1.1c-13.1-1.5-25.9,7.6-29.2,20.9c-2.4,10.2,0.5,21,3.2,31c1.1,4.4,2.3,8.4,2.9,11.9
		c2,13.7,2.7,27.4,2.3,40.8c-0.4,13.3-1.9,25.9-4.1,38.3c-18.3-8.5-42.5-12.6-64.2-2.7c-25.3,11.4-40.3,42.7-42,67.9
		c-1.2,16.8,3.7,30.2,13.3,36.4c8.1,5.3,15.5,6.2,21.7,4.7c12.9-3.1,22-17.2,28.1-26.9c2.1-3.5,4.3-6.6,6.3-9.1
		c5-6.2,12.2-11.5,21.6-16.1C111.5,231.2,87,268.9,43.2,286c-11.3,4.4-25.1,11-31.6,23.1c-4.3,8-4.2,16.2,0.5,23.7
		c4.3,6.9,12.2,12.6,20.9,15.1c18.3,5.5,36.4,5.1,53.7,1c27.4-6.6,52-22.4,68.7-38.3c20.8-20.5,38.3-45.6,51.4-73.5
		c1,2.7,1.7,5.9,2.4,8.7c0.4,3.2,0.8,7.4,1.2,11.6c1.2,17.2,3.3,46.5,32.9,46c1.6-0.1,3.5-0.2,5.1-0.6c8.9-2.2,17.2-9.8,23.4-22.1
		C282.7,258.5,285.4,221.1,268.5,196.8L268.5,196.8z M242.9,288.2c-13,0.2-16-8.1-17.4-31.8c-0.2-4.9-0.6-9.4-1.2-13.3
		c-1.6-9.5-5.2-18.9-11.1-28.4c-8.8-14.7-20.9-27-29.2-34.6c9.5-2.6,22.2-2.7,34.3,0.3c16.3,4,29.9,13,38.3,25.1
		c13.4,18.9,11.3,49.8,2.1,68.6C253.7,283,247.8,288.3,242.9,288.2L242.9,288.2z M37.2,333.1c0,0-0.3,0.1-0.4-0.2L37.2,333.1
		c0.5-0.5,0.8-0.5,1.5-0.7c21.6-4.9,56.9-17,86.6-44c0,0,0.3-0.1,0.2-0.4c1.6-1.4,3.2-2.8,4.5-4.4c0.2-0.4,0.5-0.5,1.1-0.9l3.9-3.9
		c0.5-0.5,0.8-0.8,1.2-1.6c1-1.2,2.3-2.5,3.3-3.8c0.5-0.8,1-1.2,1.5-2l3-3.7c0.5-0.8,1.2-1.6,1.7-2.4c1-1.2,1.7-2.4,2.4-3.6
		c0.8-0.8,1.2-1.9,1.9-2.8c0.7-1.2,1.4-2.3,2.4-3.6l4-6.6c0.7-1.2,1.1-2.2,1.8-3.4s1.4-2.3,1.7-3.7c0.7-1.2,1-2.6,1.7-3.7
		c0.7-1.2,1-2.6,1.7-3.7s1-2.6,1.6-4s1-2.6,1.6-4c0.3-1.4,0.9-2.9,1.3-4c0.3-1.4,0.9-2.9,1.3-4.3c0.3-1.4,0.9-2.9,1.3-4.3
		c0.3-1.4,0.9-2.9,1.3-4.3c0.3-1.4,0.6-2.8,0.9-4.5c0.3-1.4,0.6-3.1,0.9-4.5c0.3-1.4,0.6-3.1,0.9-4.5c0.1-1,0.5-1.8,0.6-2.8
		c0.5,0.6,1.2,1,1.7,1.6c0.4,0.2,0.5,0.6,0.8,0.8c0.5,0.6,1.2,1,1.7,1.6c0.4,0.2,0.8,0.8,1.2,1l1.4,1.7c0.5,0.6,0.9,1.1,1.3,1.3
		c0.5,0.6,0.9,1.1,1.3,1.3c0.5,0.6,0.9,1.1,1.7,1.6c0.5,0.6,0.9,1.1,1.3,1.3c0.5,0.6,1,1.4,1.8,1.9c0.5,0.6,0.9,1.1,1.3,1.3
		c0.5,0.9,1,1.4,1.8,2.2c0.5,0.6,0.9,1.1,1.1,1.7c0.5,0.9,1,1.4,1.5,2.3c0.5,0.6,0.9,1.1,1.1,1.7c0.5,0.9,1,1.4,1.5,2.3l0.1,0.3
		c-12.5,30.8-30.7,58.3-52.9,79.5C120.7,322.2,78,345.4,37.2,333.1L37.2,333.1z M24.6,315.9c4.3-8,15.8-13,23.8-16.3
		c54.4-21.7,82.1-70.6,95.6-109.3l0.6-0.1l8.3-2l0.3-0.1c1.2-0.3,2.5-0.6,3.8-0.6l0.3-0.1c1.2-0.3,2.5-0.3,3.5-0.5
		C146.1,295,48.5,316.1,23.3,319.9C23.4,318.9,23.7,317.5,24.6,315.9L24.6,315.9z M84.7,214.6c-12.1,18.8-18.6,24.3-29,17.6
		c-4.6-2.9-7-11.5-6.3-22.3c1.3-20.2,13.3-46.2,33.4-55c2.9-1.4,5.6-2.3,8.7-3.1c18.2-4.4,37.9,1.8,51.3,9.8
		c5.4,3.3,10.2,7.1,13.8,11.2c-5.6,1-12.8,2.4-20.4,4.6c-19.7,6.1-34.6,14.9-44.1,26.8C89.3,206.8,87,210.7,84.7,214.6L84.7,214.6z
		 M157.2,62.3c-0.7-4.4-1.9-9.1-3.3-13.7c-2.3-8.4-4.7-17-3-23.4c1.3-5.6,7.1-10,12.7-9.3c5.4,0.7,11.1,5.6,14.6,9.4
		c15.9,16,27.5,37,32.5,59.3c5.9,24.7,6.6,51.9,2.5,79.4c-1-0.1-2.4-0.4-3.4-0.5c-0.3,0.1-0.7-0.2-0.7-0.2c-1.3,0-2.7-0.3-4-0.4
		c-0.3,0.1-0.7-0.2-1.3,0c-1-0.1-2-0.2-2.9,0c-0.3,0.1-1-0.1-1.3,0c-1-0.1-1.6,0.1-2.6,0c-0.6,0.1-1-0.1-1.6,0.1
		c-0.6,0.1-1.6,0.1-2.2,0.2c-0.6,0.1-0.9,0.2-1.6,0.1c-0.6,0.1-1.6,0.1-2.2,0.2l-1.5,0.4c-0.6,0.1-1.2,0.3-2.2,0.2l-1.5,0.4
		l-1.8,0.4l-0.6,0.1L181,165c-1.2,0.3-2.5,0.6-3.9,1.3l-0.9,0.2c-1.5,0.4-2.7,1-4.2,1.7l-0.3,0.1c-1-1.4-2-2.8-3.3-4.2
		c-0.5-0.6-0.8-0.8-1.3-1.3c-0.8-0.8-1.8-1.9-2.6-2.7c-0.5-0.6-0.9-1.1-1.3-1.3c-0.8-0.8-2.1-1.8-2.9-2.6c-0.5-0.6-0.8-0.8-1.6-1.3
		c-1.2-1-2.8-2.3-4.4-3.2l-0.4-0.2c2.7-14.5,4.6-29.5,5-45.5C160.4,91.6,159.5,76.9,157.2,62.3L157.2,62.3z"/>
</g>
</svg>
