<svg xmlns="http://www.w3.org/2000/svg" width="20px" viewBox="0 0 289 353">
      <path fill="#360866" d="M282.7,154.5c-8.6-17.4-25.5-29.1-44.9-31.7c-3-21.6-17.9-39.6-39.2-46.8c-2.1-0.7-4.2-1.3-6.3-1.8l0,0
        c18-18.1,17.8-47.4,17.8-48.7l-0.1-6.4h-6.4c-1.3,0-31,0.4-49,18.5c-2.9,2.9-5.3,6.2-7.3,9.5V0h-13v47.8c-2.1-3.5-4.6-6.9-7.6-10
        c-18-18.1-47.7-18.5-49-18.5h-6.4l-0.1,6.4c0,1.2-0.1,30.6,17.8,48.7c0.6,0.6,1.3,1.2,1.9,1.8c-2.8,0.9-5.5,1.9-8.1,3.1
        c-17.6,8.5-29.5,25.1-32.1,44.3c-21.9,3-40.2,17.7-47.5,38.7c-6.4,18.4-3,38.6,8.9,54c-12.1,15.3-15.3,34.1-8.8,52l0.3,0.8
        c0.6,1.7,1.4,4,2.2,5.7l0.7,1.5c1,2.1,2.2,4,3.4,5.9l0.5,0.8c1.1,1.6,2.2,3.1,3.8,4.9l0.4,0.5c11.4,13.8,25.1,17.3,36.2,19
        c3.3,19.2,16.2,36.9,33.5,45c8.1,3.8,16.7,5.7,25.3,5.7c12.4,0,24.7-3.9,35.1-11.5c18.2,11.8,43.4,14,61.8,5.1
        c17.6-8.5,29.6-25.2,32.2-44.3c21.9-3,40.2-17.7,47.5-38.6c6.4-18.5,2.9-38.7-8.9-54C290.1,197.3,292.5,174.3,282.7,154.5z
        M163.9,46.7c9.6-9.6,24.2-12.9,32.9-14c-1,8.5-4.1,23-13.7,32.7c-9.6,9.6-24,12.6-32.2,13.4C151.6,70.5,154.3,56.4,163.9,46.7z
        M84.6,32.6c8.6,1.1,23.3,4.5,32.8,14c9.6,9.6,12.3,23.8,13,32.1c-8.3-0.9-22.6-3.8-32.2-13.4C88.7,55.7,85.6,41.2,84.6,32.6z
        M273.6,264.6c-6.2,17.7-22.4,29.7-41.5,30.5l-6,0.2l-0.2,5.9c-0.6,16.7-10.4,31.7-25.4,38.9c-15.4,7.5-37.9,4.6-52.3-6.7l-4.3-3.3
        l-4.1,3.6c-13.9,12.2-33.6,14.9-50.2,7.1c-14.5-6.8-25.5-23.1-26.8-39.6l-0.4-5.2l-5.2-0.7c-12.7-1.7-23.2-3.9-32.3-14.5l-0.7-0.8
        c-1.2-1.3-2.2-2.8-3.6-4.8c-0.7-1.1-1.4-2.2-2.2-3.6l-0.7-1.4c-0.7-1.4-1.5-3.8-2-5.4l-0.3-0.8c-5.6-15.2-2.1-30.7,9.9-43.7l4-4.3
        l-4-4.3C13.8,199.4,10,182,15.5,166.2c6.2-17.7,22.4-29.7,41.5-30.5l6-0.3l0.2-5.9c0.6-16.7,10.4-31.6,25.4-38.9
        c5.9-2.9,12.2-4.4,18.7-4.5c13.2,5.4,26.1,5.8,29.5,5.8l3.9-0.1l3.9,0.1c3.4,0,16.5-0.4,29.8-5.9c6.7-0.8,13.5,0,20,2.2
        c18,6.1,30.1,22.1,31,40.9l0.3,5.9l6,0.2c17,0.6,32.1,10.2,39.5,25c8.3,16.7,5.4,36.5-7.3,50.3l-4,4.3l4.1,4.3
        C275.3,231.3,279,248.8,273.6,264.6z"/>
    </svg>
