<svg xmlns="http://www.w3.org/2000/svg" xmlns:xlink="http://www.w3.org/1999/xlink" width="20px" viewBox="0 0 289 353">
<path fill="#19327F" d="M144.2,71.9c4.2,0,7.5-3.2,7.5-7.1l0,0V21.9c-0.1-3.9-3.6-7-7.7-6.9c-4,0.1-7.2,3.1-7.3,6.9v42.9
	C136.6,68.7,140,71.9,144.2,71.9L144.2,71.9z M167.1,71.4l6.7,0.4c1.3,0.1,2.7,0.1,4,0.1c35.9,0,65-27.5,65-61.3
	c0-1.3,0-2.5-0.1-3.7l-0.4-6.3l-6.7-0.4c-35.8-2.1-66.7,23.7-69,57.5c-0.2,2.5-0.2,5,0,7.6L167.1,71.4z M196.5,28.4
	c8.3-7.8,19.2-12.6,30.8-13.5c-2,22.7-21.1,40.7-45.2,42.6C183.2,46.5,188.2,36.2,196.5,28.4L196.5,28.4z M246.6,120.7
	c-56.4-53.2-147.7-53.1-204.1,0s-56.4,139.3,0,192.5s147.7,53.1,204.1,0c27.1-25.5,42.2-60.1,42.2-96.2
	C288.9,180.8,273.8,146.2,246.6,120.7z M144,338.4c-71,0-128.7-54.4-128.7-121.3S73,95.8,144,95.8s128.7,54.4,128.7,121.3
	S214.9,338.4,144,338.4L144,338.4z"/>
</svg>
