<svg xmlns="http://www.w3.org/2000/svg" viewBox="0 0 289 353" width="20px">
<path fill="#D68B8B" d="M256.4,77.4c-9.7,3-20.1,2.2-29.1-2.4c-9-4.6-15.7-12.4-18.6-21.9c-3-9.5-2-19.8,2.7-28.6
	c4.7-8.9,12.8-15.5,22.5-18.6c9.7-3,20.1-2.2,29.1,2.4c9,4.6,15.7,12.4,18.6,21.9c3,9.5,2,19.8-2.8,28.6
	C274.1,67.6,266,74.3,256.4,77.4L256.4,77.4z M237.8,18.3L237.8,18.3c-6.3,2-11.6,6.3-14.7,12.1c-3.1,5.8-3.7,12.5-1.8,18.7
	c1.9,6.2,6.3,11.3,12.2,14.3c5.8,3,12.7,3.5,19,1.5c6.3-2,11.6-6.3,14.7-12.1c3.1-5.8,3.7-12.5,1.8-18.7c-2-6.2-6.3-11.3-12.2-14.3
	C250.9,16.9,244.1,16.3,237.8,18.3L237.8,18.3z"/>
<path fill="#D68B8B" d="M130.5,351.7c-5.5,1.7-11.4,1.2-16.4-1.3c-5.1-2.6-8.8-7-10.5-12.4c-1.7-5.4-1.1-11.2,1.6-16.2
	c2.7-5,7.3-8.8,12.7-10.5c5.5-1.7,11.4-1.2,16.4,1.3c5.1,2.6,8.8,7,10.5,12.4c1.7,5.4,1.1,11.2-1.6,16.2
	C140.5,346.2,135.9,349.9,130.5,351.7L130.5,351.7z M121.7,323.7c-3.2,1-5.5,3.8-5.8,7.1c-0.3,3.3,1.4,6.4,4.4,7.9
	c3,1.5,6.6,1.1,9.2-1c2.6-2.1,3.6-5.6,2.6-8.7C130.7,324.7,126.1,322.3,121.7,323.7L121.7,323.7z"/>
<path fill="#D68B8B" d="M225.7,266.6c-21.9,6.9-45.5,5-65.8-5.3c-20.2-10.3-35.4-28.1-42.1-49.6c-6.7-21.4-4.5-44.7,6.2-64.8
	c10.7-20,29-35.1,50.9-42c21.9-6.9,45.5-5,65.8,5.3c20.2,10.3,35.4,28.1,42.1,49.6c6.7,21.4,4.5,44.7-6.2,64.7
	S247.5,259.7,225.7,266.6L225.7,266.6z M178.8,117.3c-18.5,5.8-34,18.6-43.1,35.5c-9.1,16.9-10.9,36.7-5.2,54.8
	c5.7,18.1,18.5,33.2,35.6,41.9c17.1,8.7,37.1,10.3,55.7,4.5s34-18.6,43.1-35.5c9.1-16.9,11-36.7,5.3-54.8
	c-5.7-18.1-18.5-33.2-35.7-41.9C217.3,113.2,197.3,111.5,178.8,117.3L178.8,117.3z"/>
<path fill="#D68B8B" d="M75.6,149.7c-13.5,4.2-28,3-40.5-3.3c-12.5-6.3-21.8-17.3-25.9-30.5c-4.1-13.2-2.8-27.5,3.8-39.9
	c6.6-12.3,17.9-21.6,31.3-25.9c13.5-4.2,28-3,40.5,3.3c12.5,6.3,21.8,17.3,25.9,30.5c4.1,13.2,2.7,27.5-3.8,39.8
	C100.4,136.2,89.1,145.5,75.6,149.7L75.6,149.7z M48.3,62.7C38.2,65.8,29.7,72.8,24.8,82c-4.9,9.2-6,20-2.9,29.9
	c3.1,9.9,10.1,18.1,19.4,22.9c9.3,4.8,20.3,5.6,30.4,2.5c10.1-3.2,18.5-10.1,23.5-19.4c4.9-9.2,6-20,2.9-29.9
	C95,78.1,88,69.9,78.6,65.1C69.3,60.4,58.4,59.5,48.3,62.7L48.3,62.7z"/>
<path fill="#D68B8B" d="M158.4,203.5c-3.5,1.1-7.2-0.8-8.3-4.2c-3.9-12.3-2.6-25.8,3.6-37.3c6.2-11.5,16.7-20.2,29.3-24.2
	c3.5-1.1,7.2,0.8,8.3,4.2c1.1,3.4-0.9,7.1-4.4,8.2c-9.2,2.9-16.9,9.3-21.5,17.7c-4.5,8.4-5.5,18.3-2.6,27.3
	C163.8,198.7,161.9,202.4,158.4,203.5z"/>
<path fill="#D68B8B" d="M41.5,112.6c-3.5,1.1-7.2-0.8-8.3-4.2c-2.2-7-1.5-14.6,2-21.1c3.5-6.5,9.4-11.4,16.6-13.7
	c3.5-1.1,7.2,0.8,8.3,4.2c1.1,3.4-0.9,7.1-4.4,8.2c-3.8,1.2-6.9,3.8-8.7,7.2s-2.2,7.4-1.1,11.1C46.9,107.8,45,111.5,41.5,112.6
	L41.5,112.6z"/>
<path fill="#D68B8B" d="M236.5,52.9c-3.5,1.1-7.2-0.8-8.3-4.2c-1.5-4.9-1-10.3,1.4-14.9c2.5-4.6,6.7-8.1,11.7-9.7
	c3.5-1.1,7.2,0.8,8.3,4.2c1.1,3.4-0.9,7.1-4.4,8.2c-3.5,1.1-5.5,4.8-4.4,8.2C241.9,48.1,240,51.8,236.5,52.9L236.5,52.9z"/>
<path fill="#D68B8B" d="M63.7,290c-9.7,3-20.1,2.2-29.1-2.4c-9-4.6-15.7-12.4-18.6-21.9s-2-19.8,2.7-28.6c4.7-8.9,12.8-15.5,22.5-18.6
	c9.7-3,20.1-2.2,29.1,2.4c9,4.6,15.7,12.4,18.6,21.9c3,9.5,2,19.8-2.8,28.6C81.4,280.2,73.3,286.9,63.7,290L63.7,290z M45.1,230.9
	c-6.3,2-11.6,6.3-14.7,12.1c-3.1,5.8-3.7,12.5-1.8,18.7c1.9,6.2,6.3,11.3,12.2,14.3c5.8,3,12.7,3.5,19,1.5c6.3-2,11.6-6.3,14.7-12.1
	c3.1-5.8,3.7-12.5,1.8-18.7c-1.9-6.2-6.3-11.3-12.2-14.3C58.2,229.5,51.4,228.9,45.1,230.9z"/>
<path fill="#D68B8B" d="M43.8,265.5c-3.5,1.1-7.2-0.8-8.3-4.2c-1.5-4.9-1-10.3,1.4-14.9c2.5-4.6,6.7-8.1,11.7-9.7
	c3.5-1.1,7.2,0.8,8.3,4.2c1.1,3.4-0.9,7.1-4.4,8.2c-3.5,1.1-5.5,4.8-4.4,8.2C49.2,260.7,47.3,264.4,43.8,265.5L43.8,265.5z"/>
</svg>
