<svg xmlns="http://www.w3.org/2000/svg" viewBox="0 0 289 353" width="20px">
<path fill="#9B298E" d="M244.5,29.4c-31-26.7-71.9-35.3-109.2-23C98,18.7,68.9,50.3,57.6,90.9c-11.4,40.6-3.6,85.1,20.9,119L6,308.1
	c-3.7,5-5.3,11.4-4.6,17.9c0.7,6.4,3.7,12.4,8.3,16.5l4.9,4.3c4.7,4.1,10.6,6.1,16.5,5.4c5.9-0.6,11.3-3.8,15-8.8l72.4-98.2
	c35.5,18.9,76.9,17.8,110.7-3c33.9-20.8,55.9-58.5,59-101C291.3,98.7,274.9,56.9,244.5,29.4L244.5,29.4z M103.4,235.8l-70.6,95.8
	c-0.9,1.2-2.2,2-3.6,2.2c-1.4,0.2-2.9-0.3-4-1.3l-4.9-4.2l0,0c-2.3-2.1-2.7-5.8-0.9-8.3L90,224L103.4,235.8z M250.9,200.2
	c-10.5,14.4-24.3,25.5-40,32.3c-41.5-3.5-74.1-26.2-89.5-63.1c-12.2-29-11.1-62.1,2.6-80.7l0,0c13.2-17.9,34.3-26.6,55.4-22.9
	c21.1,3.8,38.9,19.5,46.8,41.2c7.9,21.7,4.6,46.1-8.6,64.1c-5.7,7.3-13.8,11.7-22.5,12.5c-8.8,0.7-17.5-2.4-24.4-8.6
	c-7.8-6.9-31.9-31.4-13.2-57c2.8-3.8,6.9-6.2,11.4-6.7c4.5-0.5,9,1,12.6,4.1c3.5,3.1,5.8,7.6,6.4,12.5c0.5,4.9-0.8,9.8-3.6,13.6
	c-1.4,1.9-2.1,4.4-1.8,6.8c0.3,2.5,1.4,4.7,3.2,6.3c3.7,3.2,9,2.7,11.9-1.3c7.6-10.3,9.4-24.2,4.9-36.6
	c-4.5-12.4-14.7-21.4-26.7-23.6c-12.1-2.2-24.1,2.8-31.7,13.1c-18.7,25.3-12.4,57.9,16,83c10.4,9.5,23.7,14.1,37,12.9
	c13.3-1.2,25.5-8.2,34-19.3c17.1-23.1,21.3-54.5,11.3-82.5c-10.1-28-33-48.3-60.2-53.2c-27.1-4.9-54.4,6.2-71.4,29.3
	c-17.8,24.1-19.7,64.3-4.7,100c12.3,29.4,34.8,52.4,62.5,63.8c-22.2-0.7-43.7-9.4-61.1-24.7c-21.2-18.8-34.9-45.8-38-75.2
	c-3.1-29.4,4.6-58.7,21.4-81.5c16.8-22.8,41.4-37.2,68.3-40.1c26.9-2.9,54,6,75.2,24.7c21.3,18.7,35,45.7,38.2,75.1
	c3.2,29.4-4.5,58.7-21.2,81.5L250.9,200.2z"/>
</svg>
