<svg xmlns="http://www.w3.org/2000/svg" width="20px" viewBox="0 0 289 353"><path fill="#215B0B" d="M237.9,277.7c-19.5-29.5-43-46.7-70-51.1c-25.8-4.2-53.9,3.2-83.4,22.1c-3.1,2-6.1,4-8.9,6l33.9-48 c72.8-42.6,104.7-25.7,132.8-10.7c7.2,3.8,14,7.5,21.2,10c1.7,0.6,3.5,0.2,4.5-1.1c1-1.3,1-3.1,0-4.6c-17-25.7-37.5-40.7-61.1-44.5 c-22.5-3.7-46.9,2.8-72.6,19.2c-1.7,1.1-3.3,2.2-4.9,3.2l46.5-65.9c0,0,0-0.1,0-0.1c40.8-44.2,68.2-37.8,90.4-32.5 c6.7,1.6,13,3.1,19.2,3.2c1.7,0,3.1-0.9,3.6-2.4c0.5-1.5,0-3.3-1.4-4.5c-18.5-17-37.2-24.7-55.6-22.9c-41.3,4.2-65.6,55.2-66.6,57.4 c-0.2,0.4-0.3,0.8-0.3,1.3l-8.3,11.8c0.5-1.8,1-3.7,1.4-5.7c6.9-29.7,4.8-54.9-6.2-74.8C140.7,22.1,119.7,7.8,89.8,0.4 C88,0,86.3,0.6,85.4,2.1c-0.8,1.4-0.6,3.3,0.7,4.7c4.5,5.3,9.8,10,15.4,15c24.1,21.6,51.5,46,35.4,130.3l-38.3,54.2 c0.9-3.3,1.9-6.8,2.7-10.4c7.9-34.2,5.5-63.1-7.1-86C81,85.9,56.9,69.4,22.6,61c-1.8-0.4-3.5,0.2-4.4,1.6c-0.8,1.4-0.6,3.3,0.6,4.7 c5.3,6.2,11.5,11.7,18,17.6c27.9,25,59.5,53.4,40.9,151L1.2,344.3c-1.2,1.8-0.6,4.4,1.4,5.8s4.7,1.2,5.9-0.6l46-65.2 c87.4-51.2,124.8-30.2,157.8-11.7c7,3.9,13.7,7.7,20.6,10.6c1.8,0.8,3.7,0.4,4.8-0.8C238.9,281.2,238.9,279.3,237.9,277.7z M206.7,163.9c9.8,1.6,19,5.5,27.7,11.6c6.4,4.5,12.4,10.2,18.1,17.1c-2.2-1.1-4.5-2.3-6.8-3.6c-23.8-12.7-52.4-27.9-104.9-7.5 C158.8,170.1,182.6,159.9,206.7,163.9z M106.9,16.1c-1.2-1.1-2.4-2.2-3.6-3.2c19.3,7.2,33.2,18.3,41.4,33.2 c11.7,21.3,10.2,47,5.5,67.8C152,56.4,127.4,34.4,106.9,16.1z M42.3,79.2c-2.3-2.1-4.6-4.2-6.8-6.2c24.1,8.4,41.3,21.7,51.2,39.8 c15,27.2,11.4,60.6,4.8,85.7C95.8,127.2,66.5,101,42.3,79.2z M234.3,61.3c12-1.2,24.4,2.6,37,11.3c-1.3-0.3-2.6-0.6-3.9-0.9 c-18.1-4.3-41.2-9.7-71.5,11C205.9,72.2,218.9,62.8,234.3,61.3z M216,265.7c-28.7-16.1-63.5-35.6-130.5-7c21.4-14.5,51.6-29,82.1-24 c11.4,1.9,22.2,6.4,32.3,13.5c7.6,5.4,14.8,12.2,21.6,20.5C219.7,267.7,217.9,266.7,216,265.7z"></path></svg>
