<svg xmlns="http://www.w3.org/2000/svg" width="20px" viewBox="0 0 289 353"><path fill="#BC8E19" d="M289.2,53.5c0.4-2.4-0.5-4.8-2.4-6.3L228.8,2c-1.9-1.5-4.5-1.8-6.6-0.7c-2.2,1-3.6,3.2-3.7,5.7l-1.8,51.8 l-8.9-6.9c-10.3-8-24.9-6-32.7,4.4L39,239c-7.8,10.4-5.7,25.4,4.5,33.4l8.9,6.9L4.1,294.8c-2.3,0.7-4,2.7-4.4,5.1 c-0.4,2.4,0.5,4.8,2.4,6.3l57.9,45.2c1.4,1.1,3.1,1.5,4.7,1.3c0.6-0.1,1.3-0.3,1.9-0.6c2.2-1,3.6-3.2,3.7-5.7l1.8-51.8l8.9,6.9 c5.1,4,11.4,5.5,17.3,4.7c5.9-0.8,11.5-3.9,15.4-9.1l136.1-182.7c7.8-10.4,5.7-25.4-4.5-33.4l-8.9-6.9l48.4-15.5 C287.1,57.9,288.8,55.9,289.2,53.5z M58,333.4l-38.2-29.8l39.7-12.7L58,333.4z M239.7,106.5L103.5,289.3c-3.5,4.7-10.1,5.6-14.7,2 L51.3,262c-4.6-3.6-5.5-10.4-2-15.1L185.4,64.2c1.8-2.4,4.3-3.7,6.9-4.1c2.7-0.4,5.5,0.3,7.8,2.1l37.5,29.3 C242.3,95.1,243.2,101.8,239.7,106.5z M229.5,62.6l1.5-42.5l38.2,29.8L229.5,62.6z"></path></svg>
