<svg xmlns="http://www.w3.org/2000/svg" width="20px" viewBox="0 0 289 353">
<path fill="#244208" d="M68.6,89.7c-7.2-5.2-22.2-17.3-22.3-17.3c-0.4-0.2-19.6-6.7-19.6-6.7c-2.8-1-4.2-4-3.3-6.8l3.5-9.9l0,0
	c0.4-1.3,1.4-2.3,2.6-2.9c1.3-0.6,2.8-0.7,4.2-0.1L52.1,52l0,0c1,0.3,2.1,0.3,3.1,0c120.4-0.4,185,56.9,207.3,81.6L57,59.4
	c-1.3-0.5-2.7-0.4-4,0.2c-1.3,0.6-2.2,1.7-2.7,3c-0.9,2.7,0.4,5.7,3.1,6.7l205.8,74.4c-20.4,3.1-62.2,5.4-113.8-13
	c5.5,5.2,10.7,10.6,15.6,16.4c48.3,13.6,86.1,9.8,103.9,6.5c-4.9,5.9-11.1,10.6-18.1,13.8c-17.2,8.2-40.4,10.6-65.5,7.4
	c2.3,3.7,4.5,7.4,6.5,11.2c24.1,2,46.5-1,63.5-9.1c14.9-7.1,25.2-17.7,29.7-30.8c6.4-18.3,1.1-39.8-14.9-60.5
	c-17.5-22.6-46.8-42.6-80.2-54.6C131.6,11.1,77.4,15.4,52.1,41L37,36c-3.9-1.4-8.3-1.2-12,0.6s-6.7,5-8.1,9l-3.5,9.9
	c-1.8,5.1-0.8,10.7,2.5,14.9c1.9,2.4,4.4,4.2,7.3,5.3l15.2,5l0,0c0.4,3.4,1.1,6.8,2,10.1c3.3-0.8,6.6-1.3,10-1.6
	C56.4,88.6,62.5,88.8,68.6,89.7L68.6,89.7z M182.4,40.6C214,52,241.5,70.7,257.9,91.8c10.1,13,15.3,26.1,15.4,38.1
	c-19.8-23.7-82.5-84.6-205.4-88.1C92.8,25.5,138,24.5,182.4,40.6L182.4,40.6z"/>
<path fill="#244208" d="M203.1,316.7c0.9-4.3-0.1-8.7-2.7-12.3l-9.7-12.6c16.4-31.4,4.4-83.6-30.1-128.7l-0.9-1.2
	C117.2,107,57.6,84,24.2,109.5c-33.3,25.4-26.3,90.8,15.7,145.8l0.9,1.2c34.1,44,82.7,69.4,117.4,61.8l9.2,11.9
	c2.3,3.3,5.8,5.5,9.8,6.1c4,0.6,8-0.4,11.2-2.8l8.3-6.4C200.1,324.5,202.4,320.8,203.1,316.7L203.1,316.7z M182.1,325.2
	c-2.5,1.9-5,0.4-6.5-1.5l-11.2-14.5c-1.3-1.7-3.5-2.4-5.6-1.8c-30.9,9-77.1-15.1-109.7-57.2l-0.9-1.1
	C9.7,198.6,1.8,139.8,30.5,117.9c28.3-21.6,82.6,1,120.9,50.4l0.9,1.2c33.1,43.4,44.5,92.7,27.7,120.1c-1.1,1.9-1,4.2,0.3,6
	l11.8,15.3c0.8,1.2,1,2.6,0.7,3.9c-0.3,1.6-1.2,3.1-2.4,4.1L182.1,325.2z"/>
<path fill="#244208" d="M144,175.8c-35.1-45.3-81.7-66-106.1-47.1s-16,69.2,19.1,114.5c35.1,45.3,81.7,66,106.1,47.1
	S179.1,221.1,144,175.8z M135.7,182.2c28.2,36.4,38.5,78.3,24.7,96L48.9,134.3C69.5,125.4,107.5,145.8,135.7,182.2L135.7,182.2z
	 M65.3,236.8c-28.2-36.4-38.5-78.3-24.7-96l111.5,143.9C131.5,293.6,93.5,273.2,65.3,236.8L65.3,236.8z"/>
<path fill="#244208" d="M70.3,153.4c1.8,2.3,5.1,2.7,7.4,0.9l4.1-3.2c2.3-1.8,2.7-5.1,0.9-7.4c-1.8-2.3-5.1-2.7-7.4-0.9l-4.1,3.2
	C68.9,147.8,68.5,151.1,70.3,153.4z"/>
<path fill="#244208" d="M83.1,169.9c1.8,2.3,5.1,2.7,7.4,0.9l4.1-3.2c2.3-1.8,2.7-5.1,0.9-7.4c-1.8-2.3-5.1-2.7-7.4-0.9l-4.1,3.2
	C81.7,164.4,81.3,167.7,83.1,169.9z"/>
<path fill="#244208" d="M95.9,186.5c1.8,2.3,5.1,2.7,7.4,0.9l4.1-3.2c2.3-1.8,2.7-5.1,0.9-7.4c-1.8-2.3-5.1-2.7-7.4-0.9l-4.1,3.2
	C94.6,180.9,94.2,184.2,95.9,186.5z"/>
<path fill="#244208" d="M108.8,203.1c1.8,2.3,5.1,2.7,7.4,0.9l4.1-3.2c2.3-1.8,2.7-5.1,0.9-7.4c-1.8-2.3-5.1-2.7-7.4-0.9l-4.1,3.2
	C107.4,197.5,107,200.8,108.8,203.1z"/>
<path fill="#244208" d="M121.6,219.7c1.8,2.3,5.1,2.7,7.4,0.9l4.1-3.2c2.3-1.8,2.7-5.1,0.9-7.4c-1.8-2.3-5.1-2.7-7.4-0.9l-4.1,3.2
	C120.2,214.1,119.8,217.4,121.6,219.7z"/>
<path fill="#244208" d="M134.4,236.2c1.8,2.3,5.1,2.7,7.4,0.9l4.1-3.2c2.3-1.8,2.7-5.1,0.9-7.4c-1.8-2.3-5.1-2.7-7.4-0.9l-4.1,3.2
	C133.1,230.7,132.7,233.9,134.4,236.2z"/>
<path fill="#244208" d="M147.3,252.8c1.8,2.3,5.1,2.7,7.4,0.9l4.1-3.2c2.3-1.8,2.7-5.1,0.9-7.4c-1.8-2.3-5.1-2.7-7.4-0.9l-4.1,3.2
	C145.9,247.2,145.5,250.5,147.3,252.8z"/>
<path fill="#244208" d="M53.7,166.2c-1.8-2.3-5.1-2.7-7.4-0.9l-4.1,3.2c-2.3,1.8-2.7,5.1-0.9,7.4c1.8,2.3,5.1,2.7,7.4,0.9l4.1-3.2
	C55,171.8,55.5,168.5,53.7,166.2z"/>
<path fill="#244208" d="M66.5,182.8c-1.8-2.3-5.1-2.7-7.4-0.9l-4.1,3.2c-2.3,1.8-2.7,5.1-0.9,7.4c1.8,2.3,5.1,2.7,7.4,0.9l4.1-3.2
	C67.9,188.4,68.3,185.1,66.5,182.8z"/>
<path fill="#244208" d="M79.4,199.4c-1.8-2.3-5.1-2.7-7.4-0.9l-4.1,3.2c-2.3,1.8-2.7,5.1-0.9,7.4c1.8,2.3,5.1,2.7,7.4,0.9l4.1-3.2
	C80.7,204.9,81.1,201.6,79.4,199.4z"/>
<path fill="#244208" d="M92.2,215.9c-1.8-2.3-5.1-2.7-7.4-0.9l-4.1,3.2c-2.3,1.8-2.7,5.1-0.9,7.4c1.8,2.3,5.1,2.7,7.4,0.9l4.1-3.2
	C93.5,221.5,94,218.2,92.2,215.9z"/>
<path fill="#244208" d="M105,232.5c-1.8-2.3-5.1-2.7-7.4-0.9l-4.1,3.2c-2.3,1.8-2.7,5.1-0.9,7.4c1.8,2.3,5.1,2.7,7.4,0.9l4.1-3.2
	C106.4,238.1,106.8,234.8,105,232.5z"/>
<path fill="#244208" d="M117.9,249.1c-1.8-2.3-5.1-2.7-7.4-0.9l-4.1,3.2c-2.3,1.8-2.7,5.1-0.9,7.4s5.1,2.7,7.4,0.9l4.1-3.2
	C119.2,254.6,119.6,251.4,117.9,249.1z"/>
<path fill="#244208" d="M130.7,265.6c-1.8-2.3-5.1-2.7-7.4-0.9l-4.1,3.2c-2.3,1.8-2.7,5.1-0.9,7.4c1.8,2.3,5.1,2.7,7.4,0.9l4.1-3.2
	C132.1,271.2,132.5,267.9,130.7,265.6z"/>
</svg>
