<svg xmlns="http://www.w3.org/2000/svg" xmlns:xlink="http://www.w3.org/1999/xlink" width="20px" viewBox="0 0 289 353">
<path fill="#4C3214" d="M278.6,124l-117.8-59c-10.3-5-22.3-5-32.5,0L10.4,124c-5.5,2.7-9,8.4-9,14.5v79.1c0,6.3,3.6,12,9.3,14.6
	l116.7,55.5c3.9,1.9,8.1,3.2,12.4,3.7v0.3h4.5h4.1v-0.3c4.3-0.7,8.5-1.9,12.4-3.6l117.2-55.7c5.7-2.7,9.3-8.4,9.3-14.6v-79.1
	C287.5,132.3,284.1,126.7,278.6,124z M131.3,279.7L14.5,224.2c-2.6-1.2-4.2-3.8-4.1-6.6V173h0.4l116.7,55.7c1.3,0.6,2.5,1.1,3.8,1.6
	l1.1,0.4l2.8,0.8l1.1,0.2c1.1,0.3,2.2,0.5,3.4,0.6h0.5v50.2C137.1,282.1,134.1,281.1,131.3,279.7z M278.6,217.6
	c0,2.8-1.6,5.4-4.1,6.6l-116.6,55.5c-2.9,1.3-5.9,2.2-9,2.8v-50.1c1.2-0.2,2.3-0.4,3.5-0.7l1-0.2c1-0.2,2-0.5,3-0.8l1.1-0.4
	c1.3-0.5,2.7-1,4.1-1.5l50.9-24.3c3.9,5.8,11.6,7.6,17.6,4.1c2.5,3.5,6.5,5.6,10.8,5.7c7.9,0,14.5-7.6,16.1-18.5
	c0.3-1.7,0.4-3.4,0.4-5.1c0-2.4-0.2-4.8-0.7-7.2l21.5-10.2h0.4V217.6z M274.5,165.2l-28.7,13.6l1.5,3.9c0.9,2.6,1.4,5.3,1.3,8
	c0,1.3-0.1,2.6-0.3,3.8c-1,7.1-4.6,11.2-7.4,11.2c-2,0-4.1-2.1-5.7-5.5l-3-7l-4.6,5.8c-0.9,1.4-2.5,2.4-4.1,2.6
	c-1.9,0-3.9-1.8-5.4-4.8l-1.9-3.9l-58.3,27.8c-4.2,1.9-8.8,3-13.4,3.2c-4.6,0-9.1-1-13.1-3.1L14.5,165.2c-2.6-1.2-4.2-3.8-4.1-6.6
	v-20.1c0-2.8,1.6-5.4,4.1-6.6L132.2,73c7.8-3.9,16.9-3.9,24.6,0l117.8,58.9c2.5,1.2,4.2,3.8,4.1,6.6v20.1
	C278.7,161.4,277.1,164,274.5,165.2L274.5,165.2z"/>
</svg>
