<svg xmlns="http://www.w3.org/2000/svg" width="20px" viewBox="0 0 289 353"><path fill="#BA6424" d="M73.1,22c-26.9,0-48.8,21.9-48.8,48.8s21.9,48.8,48.8,48.8c16.3,0,30.7-8.1,39.6-20.4c0,0,0,0,0,0 c0,0,0-0.1,0.1-0.1c5.7-8,9.1-17.7,9.1-28.2C121.9,43.9,100,22,73.1,22z M107.5,94.6c-6.8,6.9-15.8,10.7-25.3,10.7 c-9.6,0-18.7-3.9-25.5-10.9c-11.1-11.4-11.1-30,0-41.4c4.1-4.3,9.6-6.6,15.4-6.6c5.8,0,11.3,2.3,15.4,6.6c6.6,6.8,6.6,17.9,0,24.7 c-4.8,5-13.2,5-18,0c-3.8-3.9-3.8-10.2,0-14.1c2.6-2.7,7.1-2.7,9.7,0c1.3,1.4,3.5,1.4,4.9,0.1c1.4-1.3,1.4-3.5,0.1-4.9 c-2.6-2.7-6.1-4.2-9.8-4.2c-3.7,0-7.2,1.5-9.8,4.2c-6.4,6.6-6.4,17.2,0,23.8c3.7,3.8,8.7,6,14,6s10.2-2.1,14-6 c9.2-9.5,9.2-24.9,0-34.4c-5.5-5.6-12.7-8.7-20.4-8.7c-7.7,0-15,3.1-20.4,8.7c-13.7,14.1-13.7,37,0,51.1 c7.6,7.8,17.5,12.3,28.1,12.9c-2.2,0.4-4.5,0.6-6.8,0.6c-23.1,0-41.9-18.8-41.9-41.9C31.2,47.7,50,29,73.1,29S115,47.7,115,70.8 C115,79.6,112.2,87.8,107.5,94.6z"></path><path fill="#BA6424" d="M72.8,3.6C35.8,3.6,5.6,33.8,5.6,70.8c0,37.1,30.2,67.2,67.2,67.2S140,107.9,140,70.8 C140,33.8,109.9,3.6,72.8,3.6z M72.8,131.1c-33.2,0-60.3-27-60.3-60.3s27-60.3,60.3-60.3s60.3,27,60.3,60.3S106.1,131.1,72.8,131.1z "></path><path fill="#BA6424" d="M216.8,22C189.9,22,168,43.9,168,70.8s21.9,48.8,48.8,48.8c16.3,0,30.7-8.1,39.6-20.4c0,0,0,0,0,0 c0,0,0-0.1,0.1-0.1c5.7-8,9.1-17.7,9.1-28.2C265.7,43.9,243.8,22,216.8,22z M251.3,94.6c-6.8,6.9-15.8,10.7-25.3,10.7 c-9.6,0-18.7-3.9-25.5-10.9c-11.1-11.4-11.1-30,0-41.4c4.1-4.3,9.6-6.6,15.4-6.6c5.8,0,11.3,2.3,15.4,6.6c6.6,6.8,6.6,17.9,0,24.7 c-2.4,2.5-5.6,3.8-9,3.8l0,0c-3.4,0-6.6-1.4-9-3.8c-3.8-3.9-3.8-10.2,0-14.1c2.6-2.7,7.1-2.7,9.7,0c1.3,1.4,3.5,1.4,4.9,0.1 c1.4-1.3,1.4-3.5,0.1-4.9c-2.6-2.7-6.1-4.2-9.8-4.2s-7.2,1.5-9.8,4.2c-6.4,6.6-6.4,17.2,0,23.8c3.7,3.8,8.7,6,14,6l0,0 c5.3,0,10.2-2.1,14-6c9.2-9.5,9.2-24.9,0-34.4c-5.5-5.6-12.7-8.7-20.4-8.7c-7.7,0-15,3.1-20.4,8.7c-13.7,14.1-13.7,37,0,51.1 c7.6,7.8,17.5,12.3,28.1,12.9c-2.2,0.4-4.5,0.6-6.8,0.6c-23.1,0-41.9-18.8-41.9-41.9c0-23.1,18.8-41.9,41.9-41.9 c23.1,0,41.9,18.8,41.9,41.9C258.7,79.6,256,87.8,251.3,94.6z"></path><path fill="#BA6424" d="M216.6,3.6c-37.1,0-67.2,30.2-67.2,67.2c0,37.1,30.2,67.2,67.2,67.2c37.1,0,67.2-30.2,67.2-67.2 C283.8,33.8,253.6,3.6,216.6,3.6z M216.6,131.1c-33.2,0-60.3-27-60.3-60.3s27-60.3,60.3-60.3s60.3,27,60.3,60.3 S249.8,131.1,216.6,131.1z"></path><path fill="#BA6424" d="M73.1,232.7c-26.9,0-48.8,21.9-48.8,48.8c0,26.9,21.9,48.8,48.8,48.8c16.3,0,30.7-8.1,39.6-20.4c0,0,0,0,0,0 c0,0,0-0.1,0.1-0.1c5.7-8,9.1-17.7,9.1-28.2C121.9,254.6,100,232.7,73.1,232.7z M107.5,305.3c-6.8,6.9-15.8,10.7-25.3,10.7 c-9.6,0-18.7-3.9-25.5-10.9c-11.1-11.4-11.1-30,0-41.4c4.1-4.3,9.6-6.6,15.4-6.6c5.8,0,11.3,2.3,15.4,6.6c6.6,6.8,6.6,17.9,0,24.7 c-4.8,5-13.2,5-18,0c-3.8-3.9-3.8-10.2,0-14.1c2.6-2.7,7.1-2.7,9.7,0c1.3,1.4,3.5,1.4,4.9,0.1c1.4-1.3,1.4-3.5,0.1-4.9 c-2.6-2.7-6.1-4.2-9.8-4.2c-3.7,0-7.2,1.5-9.8,4.2c-6.4,6.6-6.4,17.2,0,23.8c3.7,3.8,8.7,6,14,6s10.2-2.1,14-6 c9.2-9.5,9.2-24.9,0-34.4c-5.5-5.6-12.7-8.7-20.4-8.7c-7.7,0-15,3.1-20.4,8.7c-13.7,14.1-13.7,37,0,51.1 c7.6,7.8,17.5,12.3,28.1,12.9c-2.2,0.4-4.5,0.6-6.8,0.6c-23.1,0-41.9-18.8-41.9-41.9c0-23.1,18.8-41.9,41.9-41.9 s41.9,18.8,41.9,41.9C115,290.4,112.2,298.5,107.5,305.3z"></path><path fill="#BA6424" d="M72.8,214.3c-37.1,0-67.2,30.2-67.2,67.2c0,37.1,30.2,67.2,67.2,67.2s67.2-30.2,67.2-67.2 C140,244.5,109.9,214.3,72.8,214.3z M72.8,341.8c-33.2,0-60.3-27-60.3-60.3s27-60.3,60.3-60.3s60.3,27,60.3,60.3 S106.1,341.8,72.8,341.8z"></path><path fill="#BA6424" d="M216.8,232.7c-26.9,0-48.8,21.9-48.8,48.8c0,26.9,21.9,48.8,48.8,48.8c16.3,0,30.7-8.1,39.6-20.4c0,0,0,0,0,0 c0,0,0-0.1,0.1-0.1c5.7-8,9.1-17.7,9.1-28.2C265.7,254.6,243.8,232.7,216.8,232.7z M251.3,305.3c-6.8,6.9-15.8,10.7-25.3,10.7 c-9.6,0-18.7-3.9-25.5-10.9c-11.1-11.4-11.1-30,0-41.4c4.1-4.3,9.6-6.6,15.4-6.6c5.8,0,11.3,2.3,15.4,6.6c6.6,6.8,6.6,17.9,0,24.7 c-2.4,2.5-5.6,3.8-9,3.8l0,0c-3.4,0-6.6-1.4-9-3.8c-3.8-3.9-3.8-10.2,0-14.1c2.6-2.7,7.1-2.7,9.7,0c1.3,1.4,3.5,1.4,4.9,0.1 c1.4-1.3,1.4-3.5,0.1-4.9c-2.6-2.7-6.1-4.2-9.8-4.2s-7.2,1.5-9.8,4.2c-6.4,6.6-6.4,17.2,0,23.8c3.7,3.8,8.7,6,14,6l0,0 c5.3,0,10.2-2.1,14-6c9.2-9.5,9.2-24.9,0-34.4c-5.5-5.6-12.7-8.7-20.4-8.7c-7.7,0-15,3.1-20.4,8.7c-13.7,14.1-13.7,37,0,51.1 c7.6,7.8,17.5,12.3,28.1,12.9c-2.2,0.4-4.5,0.6-6.8,0.6c-23.1,0-41.9-18.8-41.9-41.9c0-23.1,18.8-41.9,41.9-41.9 c23.1,0,41.9,18.8,41.9,41.9C258.7,290.4,256,298.5,251.3,305.3z"></path><path fill="#BA6424" d="M216.6,214.3c-37.1,0-67.2,30.2-67.2,67.2c0,37.1,30.2,67.2,67.2,67.2c37.1,0,67.2-30.2,67.2-67.2 C283.8,244.5,253.6,214.3,216.6,214.3z M216.6,341.8c-33.2,0-60.3-27-60.3-60.3s27-60.3,60.3-60.3s60.3,27,60.3,60.3 S249.8,341.8,216.6,341.8z"></path></svg>
