<svg xmlns="http://www.w3.org/2000/svg" xmlns:xlink="http://www.w3.org/1999/xlink" width="20px" viewBox="0 0 289 353">
<path fill="#684116" d="M228,100.4c-3-1.8-6.7-2.2-10-0.8C230.5,59,207.8,16,167.2,3.4S83.5,13.7,71,54.2c-4.6,14.8-4.6,30.6,0,45.4
	c-5.8-2.3-12.3,0.5-14.6,6.3c-0.7,1.8-0.9,3.7-0.7,5.6c4.5,29.8,24,55.6,51.2,68.3v134.4c0,20.6,17,37.3,37.6,37.3
	s37.6-16.7,37.6-37.3V179.9c27.2-12.7,46.7-38.6,51.2-68.3C233.9,107.1,231.8,102.7,228,100.4z M144.5,11.1
	c36.3,0,65.8,29.4,65.8,65.8c0,12.4-3.5,24.6-10.2,35.1l-10.8,7.7l-34.2-21.1c-6.5-4.1-14.8-4.1-21.3,0l-34.2,21.1L88.9,112
	c-19.4-30.7-10.2-71.3,20.5-90.7C119.9,14.7,132.1,11.1,144.5,11.1z M174.2,171.1c-2,0.9-3.3,2.9-3.3,5.1v138
	c0,14.4-12,26.2-26.5,26.2c-14.4,0-26.5-11.7-26.5-26.2v-138c0.1-2.2-1.2-4.3-3.3-5.1C89.2,160.5,71,137.3,66.8,110l26.4,18.8
	c3.7,2.6,8.5,2.8,12.3,0.4l34.2-21.1c2.9-1.8,6.6-1.8,9.6,0l34.2,21.1c3.8,2.4,8.7,2.2,12.3-0.4l26.4-18.8
	C218,137.3,199.8,160.5,174.2,171.1z"/>
</svg>
