<svg xmlns="http://www.w3.org/2000/svg" width="20px" viewBox="0 0 289 353">
<g>
	<path fill="#A0896A" d="M276.3,189.6c-9.8,0.6-19.5-3.2-26.5-10.3c-8.4-8.7-11.9-20.9-9.2-32.8c0.7-3.3-0.2-6.8-2.5-9.4
		c-2.3-2.5-5.7-3.7-9-3.1c-14.4,2.4-29.2-2.5-39.6-13.1c-5.9-6.1-10.1-13.7-12.1-22.1c-0.6-2.8-2.4-5.1-4.8-6.5
		c-2.4-1.4-5.3-1.8-7.9-1c-12,3.6-25,0.2-33.9-9c-7.1-7.3-10.8-17.4-10-27.7c0.3-3.3-1.1-6.5-3.5-8.6c-2.5-2.2-5.8-3-8.9-2.2
		c-24.8,6.1-47.9,19.4-66,37.9c-55.4,56.6-54.8,149.6,1.4,207.3c37.6,38.6,92.3,53.2,142.8,38l0,0c22.4-6.7,43-19.2,59.5-36.1
		c23.5-24,37.9-55.9,40.7-90c0.2-3-0.8-5.9-2.9-8.1C282.1,190.6,279.2,189.4,276.3,189.6L276.3,189.6z M232.1,276.2
		c-14.3,14.6-32,25.3-51.2,31.1l0,0c-43.5,13-90.6,0.5-123-32.7C9.6,224.9,9,144.9,56.8,96.1c12.7-13,28.2-23,45.2-29.1
		c2,11,7.2,21.3,15.1,29.4c11.8,12.1,28,17.9,44.2,16.2c3.3,8.4,8.2,16,14.5,22.5c11.9,12.2,27.8,19.2,44.2,19.8
		c0.2,14.3,5.8,28.1,16,38.6c8.2,8.4,18.7,13.9,29.9,15.8C261.7,234.6,249.9,258.1,232.1,276.2L232.1,276.2z"/>
	<path fill="#A0896A" d="M84.9,187.8c2.8,9.4-2.3,19.3-11.5,22c-9.2,2.7-18.9-2.7-21.7-12.1c-2.8-9.4,2.3-19.3,11.5-22
		C72.3,172.9,82.1,178.3,84.9,187.8"/>
	<path fill="#A0896A" d="M139.2,250.3c2.3,7.8-1.9,16-9.5,18.3c-7.6,2.3-15.7-2.2-18-10c-2.3-7.8,1.9-16,9.5-18.3
		C128.8,237.9,136.8,242.4,139.2,250.3"/>
	<path fill="#A0896A" d="M135.5,173.4c-7.6,2.3-11.9,10.5-9.5,18.3c2.3,7.8,10.4,12.3,18,10.1c7.6-2.3,11.9-10.5,9.5-18.3
		C151.2,175.6,143.1,171.1,135.5,173.4z"/>
	<path fill="#A0896A" d="M246.8,65.7c1.6,5.2-1.3,10.6-6.3,12.1c-5,1.5-10.4-1.5-11.9-6.6c-1.6-5.2,1.3-10.6,6.3-12.1
		C239.9,57.6,245.2,60.5,246.8,65.7"/>
	<path fill="#A0896A" d="M251.3,21.6c1.6,5.2-1.3,10.6-6.3,12.1c-5,1.5-10.4-1.5-11.9-6.6c-1.6-5.2,1.3-10.6,6.3-12.1
		C244.4,13.4,249.7,16.4,251.3,21.6"/>
	<path fill="#A0896A" d="M184.3,64c1.6,5.2-1.3,10.6-6.3,12.1c-5,1.5-10.4-1.5-11.9-6.6c-1.6-5.2,1.3-10.6,6.3-12.1
		C177.5,55.9,182.8,58.9,184.3,64"/>
	<path fill="#A0896A" d="M118.1,130c2.3,7.8-1.9,16-9.5,18.3c-7.6,2.3-15.7-2.2-18-10c-2.3-7.8,1.9-16,9.5-18.3
		C107.7,117.6,115.8,122.1,118.1,130"/>
	<path fill="#A0896A" d="M195,227.4c2.3,7.8-1.9,16-9.5,18.3c-7.6,2.3-15.7-2.2-18-10c-2.3-7.8,1.9-16,9.5-18.3
		C184.5,215.1,192.6,219.6,195,227.4"/>
</g>
</svg>
