<svg xmlns="http://www.w3.org/2000/svg" width="20px" viewBox="0 0 289 353">
<g>
	<path fill="#E24824" d="M239.2,110.3l-13.6-18.9l0,0c-0.7-0.9-1.7-1.4-2.8-1.4h-60l-7.8-71.4c0-0.1,0-0.3,0-0.4
		c-0.7-2.9-2.8-5.4-5.5-6.6l-15.6-6.6c-2-0.9-4.3-1-6.4-0.3L51.7,25c-0.9,0.3-1.7,0.9-2.1,1.7c-0.5,0.8-0.5,1.8-0.3,2.7L52.7,41h0
		c0.6,1.8,2.4,2.8,4.2,2.3L129.5,24l7.6,3.2l6.5,62.7H86.4c-1.1,0-2.2,0.5-2.8,1.4l-13.6,19c-0.8,1.1-0.9,2.5-0.3,3.6
		c0.6,1.2,1.8,1.9,3.1,1.9h8.5l14.3,229.6h0c0.1,1.8,1.6,3.3,3.5,3.3h111.2c1.8,0,3.4-1.4,3.5-3.3L228,115.9h8.5h0
		c1.3,0,2.5-0.7,3.1-1.9C240.1,112.8,240,111.4,239.2,110.3L239.2,110.3z M143.8,24.4c-0.1-1.3-0.9-2.4-2.1-2.9l-10.5-4.5v0
		c-0.7-0.3-1.5-0.3-2.3,0L58.5,35.7L57,30.8l72.3-19.4c0.6-0.2,1.2-0.2,1.8,0l15.4,6.6h0c0.7,0.3,1.3,1,1.5,1.7l7.8,70.4h-5.2
		L143.8,24.4z M94.2,206.6c6.4-3.2,13-5.9,19.9-8c14.6-4.2,29.5-7.4,44.6-9.8c20.5-3.7,41.8-7.5,58.1-14.9l-4.2,67.2
		c-14.4,4.1-29,7.3-43.7,9.5c-15.3,2.4-30.4,5.8-45.3,10c-8.8,2.7-17.2,6.3-25.3,10.7L94.2,206.6z M206.9,341.8H102.4l-4-62.4
		c8.6-5.1,17.7-9.2,27.3-12.2c14.6-4.2,29.5-7.4,44.6-9.8c14.3-2.3,28.5-5.4,42.5-9.2L206.9,341.8z M217.9,165.5
		c-16,8.4-37.6,12.3-60.4,16.5v0c-15.3,2.4-30.4,5.8-45.3,10c-6.4,2-12.6,4.5-18.6,7.4l-5.3-83.5h132.7L217.9,165.5z M224.6,108.9
		h-7.6v-6c0-1.9-1.6-3.5-3.5-3.5c-1.9,0-3.5,1.6-3.5,3.5v6l-6.1,0v-6c0-1.9-1.6-3.5-3.5-3.5c-1.9,0-3.5,1.6-3.5,3.5v6l-6.2,0v-6
		c0-1.9-1.6-3.5-3.5-3.5c-1.9,0-3.5,1.6-3.5,3.5v6l-6.1,0v-6c0-1.9-1.6-3.5-3.5-3.5s-3.5,1.6-3.5,3.5v6l-6.1,0v-6
		c0-1.9-1.6-3.5-3.5-3.5c-1.9,0-3.5,1.6-3.5,3.5v6l-6.2,0v-6c0-1.9-1.6-3.5-3.5-3.5c-1.9,0-3.5,1.6-3.5,3.5v6l-6.1,0v-6
		c0-1.9-1.6-3.5-3.5-3.5c-1.9,0-3.5,1.6-3.5,3.5v6l-6.1,0v-6c0-1.9-1.6-3.5-3.5-3.5c-1.9,0-3.5,1.6-3.5,3.5v6l-6.1,0v-6
		c0-1.9-1.6-3.5-3.5-3.5c-1.9,0-3.5,1.6-3.5,3.5v6l-6,0v-6c0-1.9-1.6-3.5-3.5-3.5c-1.9,0-3.5,1.6-3.5,3.5v6l-12.6,0L88.2,97h133
		l8.6,11.9L224.6,108.9z"/>
</g>
</svg>
