<svg xmlns="http://www.w3.org/2000/svg" width="20px" viewBox="0 0 289 353">
<path fill="#87721B" d="M258.2,20.8L192,14.3c-2.2-3.3-4.8-5.8-8-7.9c-6.1-4-13.3-5-20-3.7c-14,3.2-28.5,8.8-42.5,17.1
	c-14.1,8.3-25.8,17.9-35.6,28.8c-0.2,0.3-0.9,0.9-1,1.2c-11.8-4.7-25.3-2.5-34.9,6.3c-12.5,12.1-23.4,26.8-32.2,44.2
	c-8.8,17.4-14.2,34.9-16.5,52.1c-1.4,13,4.7,25.5,15.6,31.9c-0.2,0.3-0.5,1-0.3,1.5c-3.1,13.8-3.7,29.4-2.1,45.7
	c1.6,16.3,5.3,31,11.4,44.4c2.7,6.5,8,11.3,14.8,13.9c3.6,1.4,7.5,2.1,11.1,1.8l44.4,49.5c10,11.5,25.9,14.8,40,8.2
	c7.4-3.6,13-8.8,16.3-15.3c3.1-6.1,4.3-12.8,3.3-20.2l-8.6-64.4c2.9-2.4,5.2-5.1,6.7-8.2c2.2-4.4,3.3-9.9,2.8-14.9l-2-17.3
	c0.2-0.3-0.2-0.5-0.3-1c9.3-2.2,17-8.1,21.5-17l7.9-15.7c4.5-8.9,4.7-18.6,1-27.4c0.2-0.3,0.5-0.2,1-0.3L201,139
	c4.8-2.7,8.1-6.6,10.3-11.1c1.6-3.1,2.6-6.8,2.6-10.3l57-31.2c6.5-3.6,11.2-8.5,14.3-14.7c3.5-6.8,4.3-14.5,2.7-22.2
	C285.1,33.1,273.3,22.4,258.2,20.8L258.2,20.8z M144.1,315.2c1.5,12.3-5.6,20.3-13.3,23.7c-7.4,3.6-18.2,3.7-26.3-5.6l-40.9-45.5
	l72.2-32.5L144.1,315.2z M143.4,209.7l2,17.3c0.5,6.7-3.1,13-9.1,15.5l-79.6,36.1c-3.9,1.9-8.2,1.8-12.2,0.3
	c-3.9-1.6-6.8-4.3-8.5-7.7c-5.4-12.2-9-25.5-10.3-40.8c-1.5-14.9-0.9-28.8,1.9-41.9c0.3,0.2,0.7,0.3,1.2,0.2l112.4,19.5
	c0.7,0.3,1.2,0.2,2.1,0.2C143,208.7,143.2,209.2,143.4,209.7L143.4,209.7z M173.7,169.3l-7.9,15.7c-4.3,8.5-13.4,12.9-23,11.5
	L30.2,177.4c-11.5-1.9-19.1-12.2-17.7-23.5c2-15.7,7.3-32.3,15.5-48.4s18.3-30.2,29.8-41.1c8.3-7.8,21.1-7.8,29.4,0.3l82.1,79.3
	C176.3,150.5,178,160.8,173.7,169.3z M195.1,127.8l-15.1,8.7c-0.5,0.2-1,0.3-1.2,0.7c-0.5-0.7-0.9-0.9-1.4-1.5L95.3,56.3
	c-0.3-0.2-0.7-0.3-0.9-0.9c8.8-9.7,19.8-18.7,32.6-26.4C140,21.4,153,16,166,13.2c3.9-1,7.9-0.3,11.3,2.3c3.6,2.2,6,6,7,10l18.3,86
	C204.1,117.8,201.1,124.4,195.1,127.8L195.1,127.8z M277.1,50.5c1.5,8.1-0.4,18.7-11.2,24.8l-52.9,29l-16.6-77.4l60.6,5.8
	C269.3,33.7,275.6,42.4,277.1,50.5L277.1,50.5z"/>
</svg>
