<svg xmlns="http://www.w3.org/2000/svg" width="20px" viewBox="0 0 289 353">
<g>
	<path fill="#CE0B92" d="M274.3,283.2c0,0-6,9.7-17.1,10.7c-4.7,0.4-9.9,2.2-14.3,4.1c14.1-21.5,22.5-47.7,22.5-76.1
		c0-21-4.6-40.8-12.7-58.4c20-21.8,10.5-60.2,10.5-60.2s-2.3,14.4-11.1,21.8c-5,4.2-8.8,12-11.1,17.9c-17.8-25.6-44-43.8-74.2-49.9
		c2.9-8.3,5.5-20.2,5.5-36.2c0-35.9-14.1-55.9-14.1-55.9c2.3,7.9,0.5,18.5-7,28.7c-7.4,10.2-8.9,28.3-8.9,28.3
		c0-18.4-16.9-35.5-16.9-35.5c1.4,7-0.9,19.9-7,36.6c-4.6,12.9,3.1,27.3,6.9,33.3c-31.3,5.5-58.7,24.1-77,50.5
		c-7-17.8-24.3-31.7-24.3-31.7S30,127,30,140.9c0,7.2,3.8,14.9,7.6,20.7C28.9,179.7,24,200.2,24,221.9c0,25.8,6.9,49.9,18.9,70.2
		c-13.6-5-28.4-5.1-28.4-5.1c15.6,24.9,34.8,28.6,45.7,28.3c21.8,23.3,51.6,37.6,84.5,37.6c33,0,62.9-14.4,84.7-37.8
		C281,312.8,274.3,283.2,274.3,283.2L274.3,283.2z M144.6,332.5c-55.3,0-100.4-49.6-100.4-110.5c0-60.9,45-110.5,100.4-110.5
		C200,111.4,245,161,245,221.9C245,282.9,200,332.5,144.6,332.5L144.6,332.5z"/>
	<path fill="#CE0B92" d="M116.2,157.1c0,7-3,12.7-6.7,12.7c-3.7,0-6.7-5.7-6.7-12.7c0-7,3-12.7,6.7-12.7
		C113.2,144.3,116.2,150,116.2,157.1"/>
	<path fill="#CE0B92" d="M184.8,157.1c0,7-3,12.7-6.7,12.7c-3.7,0-6.7-5.7-6.7-12.7c0-7,3-12.7,6.7-12.7
		C181.8,144.3,184.8,150,184.8,157.1"/>
	<path fill="#CE0B92" d="M75.9,221.9c0,7-3,12.8-6.7,12.8s-6.7-5.7-6.7-12.8c0-7,3-12.8,6.7-12.8S75.9,214.9,75.9,221.9"/>
	<path fill="#CE0B92" d="M99.6,277.5c0,7-3,12.7-6.7,12.7s-6.7-5.7-6.7-12.7c0-7,3-12.7,6.7-12.7S99.6,270.4,99.6,277.5"/>
	<path fill="#CE0B92" d="M154.9,296.4c0,7-3,12.7-6.7,12.7c-3.7,0-6.7-5.7-6.7-12.7c0-7,3-12.7,6.7-12.7
		C151.9,283.6,154.9,289.3,154.9,296.4"/>
	<path fill="#CE0B92" d="M207.1,264.7c0,7-3,12.7-6.7,12.7c-3.7,0-6.7-5.7-6.7-12.7s3-12.7,6.7-12.7C204.1,252,207.1,257.7,207.1,264.7
		"/>
	<path fill="#CE0B92" d="M220.5,212.7c0,7-3,12.7-6.7,12.7c-3.7,0-6.7-5.7-6.7-12.7c0-7,3-12.7,6.7-12.7
		C217.5,200,220.5,205.7,220.5,212.7"/>
	<path fill="#CE0B92" d="M142.1,252c0,7-3,12.7-6.7,12.7c-3.7,0-6.7-5.7-6.7-12.7c0-7,3-12.7,6.7-12.7
		C139.1,239.2,142.1,244.9,142.1,252"/>
	<path fill="#CE0B92" d="M184.8,228.9c0,7-3,12.7-6.7,12.7c-3.7,0-6.7-5.7-6.7-12.7c0-7,3-12.7,6.7-12.7
		C181.8,216.1,184.8,221.8,184.8,228.9"/>
	<path fill="#CE0B92" d="M135.4,196.4c0,7-3,12.7-6.7,12.7c-3.7,0-6.7-5.7-6.7-12.7c0-7,3-12.7,6.7-12.7
		C132.4,183.7,135.4,189.4,135.4,196.4"/>
</g>
</svg>
