<svg xmlns="http://www.w3.org/2000/svg" xmlns:xlink="http://www.w3.org/1999/xlink" width="20px" viewBox="0 0 289 353">
<g>
	<path fill="#D37324" d="M259.1,51.8L106,34.3c-14.6-1.7-29.2,3-40.1,12.9L16.5,91.8c-10.6,9.7-16.7,23.4-16.7,37.8v136.9
		c0,6.9,2.5,13.5,7.1,18.7c4.6,5.2,10.8,8.5,17.7,9.4l193.1,24.3c5.3,0.6,10.6-0.2,15.4-2.4c4.8-2.2,8.9-5.8,11.8-10.2l39.7-61.2
		c3-4.6,4.6-9.9,4.6-15.4v-144c0-8.3-3.1-16.4-8.6-22.6C275.1,56.7,267.4,52.7,259.1,51.8L259.1,51.8z M10.9,266.5
		c0-94.6,0-137,0.2-140.3l28.7,3.7c4.3,0.8,8.2,3,11,6.3c2.8,3.3,4.5,7.5,4.7,11.8v44.5c0,8,4.2,15.3,11.1,19.3c6.9,4,15.4,4,22.3,0
		c6.9-4,11.1-11.3,11.1-19.3v-36.2c-0.2-4.7,1.8-9.3,5.4-12.5c3.6-3.1,8.4-4.5,13-3.7l11.5,1.5h0c4,0.5,7.8,2.5,10.5,5.6
		c2.7,3.1,4.2,7,4.2,11.1v20.2c0,8,4.2,15.3,11.1,19.3c6.9,4,15.4,4,22.3,0c6.9-4,11.1-11.3,11.1-19.3v-8.3
		c0-10.2,8.3-19.5,18.4-18.1c2.5,0.2,4.8,1.3,6.6,3.1c1.7,1.8,2.8,4.2,2.9,6.6v145.5l-191-24v0c-4.1-0.5-7.9-2.6-10.7-5.7
		C12.4,274.7,10.9,270.7,10.9,266.5L10.9,266.5z M228,306.5V162c-0.1-5.2-2.1-10.2-5.6-14c-3.5-3.8-8.3-6.2-13.5-6.7
		c-16.8-2.2-31,12.1-31,29.1v8.3c0,4-2.1,7.7-5.6,9.6c-3.4,2-7.7,2-11.1,0c-3.4-2-5.6-5.7-5.6-9.6v-20.2c0-6.8-2.5-13.4-6.9-18.5
		c-4.5-5.1-10.7-8.4-17.4-9.3l-11.5-1.5c-7.9-1.2-15.9,1.1-21.9,6.4c-6,5.3-9.3,12.9-9.1,20.9v36.2c0,4-2.1,7.7-5.6,9.6
		c-3.4,2-7.7,2-11.1,0c-3.4-2-5.6-5.7-5.6-9.6v-44.5c-0.1-7.1-2.8-13.9-7.4-19.2c-4.6-5.3-11-8.9-18-10l-27.5-3.6
		c2.2-5.8,5.8-11.1,10.4-15.3l49.3-44.5h0c8.5-7.7,19.9-11.4,31.3-10.1L257.9,63v0c5.8,0.7,11.1,3.5,14.8,8l-21.3,27.6
		c-4.5,6-6.7,16.1-6.7,30v157.6C236.8,297.2,235.7,303.2,228,306.5L228,306.5z M278.1,229.5L278.1,229.5c0,3.3-1,6.6-2.8,9.4
		L255.8,269V128.6c0-11.1,1.6-19.5,4.5-23.5l17.6-22.7c0.2,1.1,0.2,2.1,0.3,3.2L278.1,229.5z"/>
</g>
</svg>
