<svg xmlns="http://www.w3.org/2000/svg" width="20px" viewBox="0 0 289 353">
<style type="text/css">
	.st0ef{fill:none;stroke:#D4DD83;stroke-width:13.0388;stroke-miterlimit:6.054;}
	.st1ef{fill-rule:evenodd;clip-rule:evenodd;fill:#D4DD83;}
</style>
<g>
	<path class="st0ef" d="M159.7,192.8c-7.6,23.6-15.1,46-13.8,70.9c1.2,21.2,6.2,44.8,24.9,57.2c8.7,1.2,11.2-10,12.4-16.2
		c1.2-10-2.5-19.9-10-26.1c-6.2-3.7-13.7-2.5-21.2,0c-6.2,2.5-12.4,7.5-17.4,11.2c-19.9,17.4-36.1,38.6-50.2,61.3"/>
	<path class="st1ef" d="M157.5,15.8c-19.5-23-51.8-3.5-49.4,29.9c-2.2-1.1-5.7-2.2-9.2-2.2c-14.9-2.2-34.5,2.2-39.1,18.4
		c-2.2,8.1,0,16.1,4.6,21.9c-31,12.7-21.9,48.3,13.8,55.1c-1.1,2.2-2.2,4.6-3.5,6.8c-8.1,12.7-13.8,32.2,0,43.7
		c8.1,6.8,16.1,6.8,25.3,3.5c0,10.3,3.5,19.5,13.8,25.3c14.9,6.8,32.2-4.6,40.2-17.3c1.1-1.1,2.2-2.2,3.5-4.6
		c1.1,1.1,2.2,2.2,2.2,3.5c8.1,12.7,24.1,25.3,39.1,18.4c11.4-4.6,16.1-14.9,16.1-25.3c8.1,3.5,16.1,3.5,24.1-2.2
		c13.8-10.3,10.3-31,3.5-43.7c-2.2-3.5-3.5-5.7-5.7-8.1c34.5-6.8,43.7-42.6,13.8-55.1c4.6-5.7,6.8-13.8,4.6-21.9
		c-4.6-16.1-24.1-20.7-38-18.4c-3.5,0-6.8,1.1-10.3,2.2v-9.2c-2.2-13.8-11.4-29.9-28.7-31C168.9,5.4,162.1,8.9,157.5,15.8
		L157.5,15.8z M159.7,68.7c-3.5-88.5-68.9-41.4-18.4,12.7c-50.5-54-116.1-6.8-18.4,13.8c-97.7-20.7-72.4,56.4,6.8,21.9
		c-79.3,34.5-54,111.5,6.8,21.9c-61,89.7,19.5,89.7,23,0c-3.5,89.7,77,89.7,23,0c54,89.7,79.3,12.7,6.8-21.9
		c72.4,34.5,97.7-42.6,6.8-21.9c90.9-20.7,25.3-67.8-18.4-13.8C221.8,27.3,156.4-19.9,159.7,68.7L159.7,68.7z"/>
	<path class="st1ef" d="M183.9,106.6c0,13.3-10.8,24.1-24.1,24.1c-13.3,0-24.1-10.8-24.1-24.1s10.8-24.1,24.1-24.1
		C173.2,82.4,183.9,93.2,183.9,106.6"/>
</g>
</svg>
