<svg xmlns="http://www.w3.org/2000/svg" width="20px" viewBox="0 0 289 353">
<style type="text/css">
	.st0ef{fill-rule:evenodd;clip-rule:evenodd;fill:#E5EAD0;}
	.st1ef{fill:none;stroke:#DFE2CC;stroke-width:13.0388;stroke-miterlimit:6.054;}
</style>
<g>
	<path class="st0ef" d="M179.3,13.8c-15.7-18.5-41.6-2.8-39.7,24c-1.8-0.9-4.6-1.8-7.4-1.8c-12-1.8-27.7,1.8-31.4,14.8
		c-1.8,6.5,0,12.9,3.7,17.6c-24.9,10.2-17.6,38.8,11.1,44.3c-0.9,1.8-1.8,3.7-2.8,5.5c-6.5,10.2-11.1,25.9,0,35.1
		c6.5,5.5,12.9,5.5,20.3,2.8c0,8.3,2.8,15.7,11.1,20.3c12,5.5,25.9-3.7,32.3-13.9c0.9-0.9,1.8-1.8,2.8-3.7c0.9,0.9,1.8,1.8,1.8,2.8
		c6.5,10.2,19.4,20.3,31.4,14.8c9.2-3.7,12.9-12,12.9-20.3c6.5,2.8,12.9,2.8,19.4-1.8c11.1-8.3,8.3-24.9,2.8-35.1
		c-1.8-2.8-2.8-4.6-4.6-6.5c27.7-5.5,35.1-34.2,11.1-44.3c3.7-4.6,5.5-11.1,3.7-17.6c-3.7-12.9-19.4-16.6-30.5-14.8
		c-2.8,0-5.5,0.9-8.3,1.8v-7.4c-1.8-11.1-9.2-24-23.1-24.9C188.5,5.4,183,8.2,179.3,13.8L179.3,13.8z M181.1,56.3
		c-2.8-71.1-55.4-33.3-14.8,10.2c-40.6-43.4-93.3-5.5-14.8,11.1c-78.5-16.6-58.2,45.3,5.5,17.6c-63.7,27.7-43.4,89.6,5.5,17.6
		c-49,72.1,15.7,72.1,18.5,0c-2.8,72.1,61.9,72.1,18.5,0c43.4,72.1,63.7,10.2,5.5-17.6c58.2,27.7,78.5-34.2,5.5-17.6
		c73-16.6,20.3-54.5-14.8-11.1C231,23,178.4-14.9,181.1,56.3L181.1,56.3z"/>
	<path class="st0ef" d="M200.5,86.7c0,10.7-8.7,19.4-19.4,19.4c-10.7,0-19.4-8.7-19.4-19.4c0-10.7,8.7-19.4,19.4-19.4
		C191.9,67.3,200.5,76,200.5,86.7"/>
	<path class="st1ef" d="M181.1,156c-12.9,36-15.7,67.4,0,94.2c32.3,48,32.3-127.5-81.3,66.5c-14.8,23.1-38.8,24.9-79.4,26.8"/>
</g>
</svg>
