<svg xmlns="http://www.w3.org/2000/svg" width="20px" viewBox="0 0 289 353">
      <path fill="#BC6658" d="M151.2,42c-1.6-2.4-3.9-3.5-6.7-3.5c-2.7,0-5.1,1.2-6.7,3.5L61.8,161.2c-26.3,41.2-18.8,94.5,18,126.7
        c18.4,16.1,41.6,24.3,64.7,24.3s46.3-8.2,64.7-24.3c36.9-32.2,44.3-85.5,18-126.7L151.2,42z M198.7,276.1
        c-31,27.1-77.7,27.1-108.3,0c-31-27.1-37.3-71.8-15.3-106.3l69.4-109L214,169.4C235.9,204.3,229.7,249.1,198.7,276.1z M259.9,137.7
        L170,3.5c-1.6-2.4-3.9-3.5-6.7-3.5h-38c-2.7,0-5.1,1.2-6.7,3.5L29.2,137.7c-38,57.3-28.2,134.5,23.1,180
        c26.3,23.5,59.2,35.3,92.2,35.3s65.9-11.8,91.8-34.9C287.7,272.6,297.9,194.9,259.9,137.7z M226.1,306.3
        c-46.3,41.2-116.5,41.2-163.2,0c-45.5-40.4-54.1-109-20.4-159.6l87.1-131h29.8l87.1,131C280.3,197.3,271.6,265.9,226.1,306.3z
        M152.4,210.2c0,0.4,0,1.2,0,1.6c0,2-0.8,3.9-2.4,5.5c-1.6,1.6-3.5,2.4-5.5,2.4c-2,0-3.9-0.8-5.5-2.4c-1.6-1.6-2.4-3.5-2.4-5.5
        c0-0.4,0-1.2,0-1.6s0.4-1.2,0.4-1.6s0.4-0.8,0.8-1.2c0.4-0.4,0.4-0.8,0.8-1.2c2.7-2.7,8.2-2.7,11,0c0.4,0.4,0.8,0.8,0.8,1.2
        c0.4,0.4,0.4,0.8,0.8,1.2C151.6,209.1,152,209.8,152.4,210.2z M113.2,210.2c0,0.4,0,1.2,0,1.6c0,2-0.8,3.9-2.4,5.5
        c-1.6,1.6-3.5,2.4-5.5,2.4s-3.9-0.8-5.5-2.4c-1.6-1.6-2.4-3.5-2.4-5.5c0-0.4,0-1.2,0-1.6s0.4-1.2,0.4-1.6s0.4-0.8,0.8-1.2
        c0.4-0.4,0.4-0.8,0.8-1.2c2.7-2.7,8.2-2.7,11,0c0.4,0.4,0.8,0.8,0.8,1.2c0.4,0.4,0.4,0.8,0.8,1.2
        C112.8,209.1,112.8,209.8,113.2,210.2z M191.6,210.2c0,0.4,0,1.2,0,1.6c0,2-0.8,3.9-2.4,5.5c-1.6,1.6-3.5,2.4-5.5,2.4
        s-3.9-0.8-5.5-2.4c-1.6-1.6-2.4-3.5-2.4-5.5c0-0.4,0-1.2,0-1.6s0.4-0.8,0.4-1.6c0.4-0.4,0.4-0.8,0.8-1.2c0.4-0.4,0.8-0.8,0.8-1.2
        c2.7-3.1,8.2-3.1,11,0c0.4,0.4,0.8,0.8,0.8,1.2c0.4,0.4,0.4,0.8,0.8,1.2C191.2,209.4,191.2,209.8,191.6,210.2z M130.4,245.5
        c1.6,1.6,2.4,3.5,2.4,5.5c0,2-0.8,3.9-2.4,5.5c-1.6,1.6-3.5,2.4-5.5,2.4c-1.2,0-2,0-3.1-0.8c-0.8-0.4-2-0.8-2.7-1.6
        c-1.2-1.6-2-3.5-2-5.5c0-0.4,0-1.2,0-1.6c0-0.4,0.4-0.8,0.4-1.6c0-0.4,0.4-0.8,0.8-1.2c0.4-0.4,0.4-0.8,0.8-1.2
        C122.2,242.4,127.7,242.4,130.4,245.5z M169.7,245.5c1.6,1.6,2.4,3.5,2.4,5.5c0,2-0.8,3.9-2.4,5.5c-0.4,0.4-0.8,0.8-1.2,0.8
        c-0.4,0.4-0.8,0.4-1.2,0.8c-0.4,0-0.8,0.4-1.6,0.4c-0.4,0-1.2,0-1.6,0c-1.2,0-2,0-3.1-0.8c-0.8-0.4-2-0.8-2.4-1.6
        c-1.6-1.2-2.4-3.1-2.4-5.1c0-2,0.8-3.9,2.4-5.5c2-2,4.7-2.7,7.1-2c0.4,0,0.8,0.4,1.6,0.4c0.4,0.4,0.8,0.4,1.2,0.8
        C168.9,244.7,169.3,245.1,169.7,245.5z M130.4,167.1c1.6,1.6,2.4,3.5,2.4,5.5c0,2-0.8,3.9-2.4,5.5c-1.6,1.6-3.5,2.4-5.5,2.4
        c-2,0-3.9-0.8-5.5-2.4c-1.6-1.6-2.4-3.5-2.4-5.5c0-2,0.8-3.9,2.4-5.5C122.2,163.9,127.7,163.9,130.4,167.1z M169.7,167.1
        c1.6,1.6,2.4,3.5,2.4,5.5c0,0.4,0,1.2,0,1.6s-0.4,0.8-0.4,1.6c0,0.4-0.4,0.8-0.8,1.2c-0.4,0.4-0.8,0.8-0.8,1.2
        c-2,1.6-3.9,2.4-5.9,2.4c-2,0-3.9-0.8-5.5-2.4c-1.6-1.6-2.4-3.5-2.4-5.5c0-2,0.8-3.9,2.4-5.5c2-2,4.7-2.7,7.1-2
        c0.4,0,0.8,0.4,1.6,0.4c0.4,0,0.8,0.4,1.2,0.8C168.9,166.3,169.3,166.7,169.7,167.1z M152.4,131.8c0,0.4,0,1.2,0,1.6
        c0,2-0.8,3.9-2.4,5.5c-1.6,1.6-3.5,2.4-5.5,2.4c-2,0-3.9-0.8-5.5-2.4c-1.6-1.6-2.4-3.5-2.4-5.5c0-0.4,0-1.2,0-1.6s0.4-0.8,0.4-1.6
        c0-0.4,0.4-0.8,0.8-1.2c0.4-0.4,0.4-0.8,0.8-1.2c2.7-3.1,8.2-3.1,11,0c0.4,0.4,0.8,0.8,0.8,1.2c0.4,0.4,0.4,0.8,0.8,1.2
        C152,131,152,131.4,152.4,131.8z"/>
    </svg>
