<svg xmlns="http://www.w3.org/2000/svg" xmlns:xlink="http://www.w3.org/1999/xlink" width="20px" viewBox="0 0 289 353">
<g>
	<path fill="#CE3863" d="M104.5,110.6c-2.2-9.8-4.7-19.4-6.6-29.1C96.8,75.3,96,69.2,95.7,63c-0.1-3.2,0-6.4,0.5-9.7
		c0.6-7.6,3.4-14.8,8.4-20.6c4.9-5.8,11.5-9.9,18.8-11.7c15-4.7,31.3-3.7,45.7,2.8c6.6,2.6,12.1,7.1,16,12.9
		c3.9,5.8,6,12.7,5.9,19.7c0.2,10.1-0.9,20-3.4,29.8c-1.8,9.3-4.5,18.4-8.4,27c-0.6,1.4-1.1,2.9-1.5,4.5c2-1.1,3.1-1.8,4.2-2.5
		c4.6-3.2,9-6.6,13.6-9.8c8.8-6.3,19.4-9.6,30.3-9.7c10.8,0.1,21.4,3.4,30.2,9.7c18.2,11.7,30.3,30.9,32.6,52.4
		c3.6,33-14.9,55.9-43.2,62.9c-5.2,0.9-10.5,1.2-15.8,1c-2,0.1-3.9-0.1-5.9-0.1c-0.3,2.9,1.3,4.2,2.5,5.6l0,0
		c7.4,10.5,10,23.6,7.5,36c-1.5,10.8-6.1,20.8-13.4,28.9c-8.8,10-19.5,18.1-31.4,24.1c-10.1,5.1-21.3,7.4-32.6,6.7
		c-11.3-0.7-22.1-4.5-31.4-10.8c-5.4-3.6-9.7-8.7-12.3-14.6c-1-2.1-1.9-4.2-2.6-6.2c-2.6,0.3-3.1,2.3-4,3.6
		c-6,8.6-15.6,14-26.2,14.6c-11.9,1.5-23.8-1-34.2-6.9c-6.9-3.9-13.4-8.5-19.3-13.8c-10.1-9.2-16.5-22-17.6-35.6
		c-0.8-6.8,0-13.7,2.6-20c5.1-14.2,14.3-26.7,26.3-35.8c0.8-0.6,1.4-1.2,2-1.8c-0.7-2-2.3-1.7-3.6-2.2c-3.6-1.4-7.3-2.6-10.7-4.3
		l0,0c-9.9-4.8-17.2-13.9-19.8-24.7c-3-10.5-4.8-21.3-5.2-32.2c-0.1-9.5,1.9-18.9,5.8-27.5c5.2-11.4,14.2-20.6,25.5-26
		c9.1-4.5,19.4-5.8,29.3-3.8c9.9,2.1,18.9,7.3,25.5,14.9c4.8,5.9,9.2,12.1,13.9,18.2c0.9,1.1,1.8,2.1,2.8,3.2L104.5,110.6z
		 M141.9,188.4c-0.9,2.8-1.6,4.4-2.1,6.2c-3.4,11.6-7.2,23.1-10.3,34.8c-3,10.5-5.1,21.2-7.3,31.8l0,0c-1.8,9-1,18.4,2.1,27
		c1.4,4.9,4.5,9,8.6,12c13.5,9.3,30.6,11.1,45.6,4.8c12.9-5.2,24.2-13.9,32.7-24.9c5.7-6.9,8.9-15.6,8.7-24.5
		c-0.2-9-3.6-17.5-9.5-24.2c-2-2.2-4-4.3-6.1-6.4c-8.6-7.7-18.3-14-28.7-18.9c-11.9-4.7-23.2-10.7-33.7-17.9L141.9,188.4z
		 M150.8,173.5l32.3,19c1.3,0.7,2.5,1.5,3.9,2.2l0,0c1,0.5,2.1,1,3.2,1.4c10,3.2,20.1,6.5,30.2,9.6c5.4,1.6,11,2.1,16.7,1.6
		c8.2-0.6,16.1-3.9,22.5-9.1c6.4-5.3,10.9-12.5,13.1-20.4c2.8-9.7,2.3-20.1-1.3-29.4c-4.5-12.6-12.9-23.4-24-30.8
		c-5.3-3.8-11.5-6.2-18-6.8s-13,0.6-19,3.3c-10.3,4.6-19.4,11.5-26.3,20.4c-7.2,9.8-15.5,18.4-23.7,27.4
		C157,165.1,154.3,168.9,150.8,173.5L150.8,173.5z M123.7,189.2c-8.7,1.9-16,3.3-23.1,4.9c-11,2.4-21.8,5.2-32.8,7.4l0,0
		c-15.5,2-29.1,11.3-36.6,25c-0.7,1.3-1.5,2.4-2.3,3.7c-10,16.7-5.3,33.2,5.4,45.8l0,0c6.2,6.8,13.7,12.3,22.2,15.7
		c6.8,2.8,14.2,4,21.5,3.4c3.8-0.1,7.6-1.3,10.7-3.5c3.1-2.2,5.6-5.3,6.9-9c3.3-7.8,5.9-16,7.6-24.4c4-20.9,7.9-41.7,17.8-60.8
		C122.2,194.7,123.1,191.9,123.7,189.2L123.7,189.2z M139.5,158.2c3.1-3.5,5.6-7.4,7.3-11.8c4-7.7,7.6-15.2,11.3-22.7
		c6.3-11.6,11.2-23.9,14.7-36.6c2.3-9.4,3.5-19.1,3.7-28.9c0.3-4.6-0.9-9.1-3.4-13c-2.5-3.8-6.3-6.6-10.7-8
		c-12-5.2-25.6-5.6-37.8-0.9c-6.8,2.4-11.8,8.1-13.3,15.1c-1.4,6-1.6,12.3-0.6,18.4c1.8,13.4,4.7,26.7,9,39.5
		c4.5,13.1,9.8,25.8,14.9,38.7c1.1,3.1,2.7,6.1,4.5,9.8L139.5,158.2z M92.8,162.2c-2-0.9-3.8-2-5.5-2.7c-9.6-3.9-19.1-7.7-28.7-11.7
		l0,0c-2.2-0.8-4.3-2-6.2-3.2c-0.8-0.8-1.1-1.9-1-3c0.1-0.8,0.5-1.5,1.1-1.9c0.6-0.5,1.4-0.5,2.1-0.3c2.5,0.8,4.9,1.6,7.2,2.7
		l32.7,13.3c1.1,0.4,2.5,1.7,3.6-0.8c-1.7-1.2-3.2-2.6-4.9-3.7c-6.3-4.5-12.5-8.8-18.7-13.3l0,0c-1.4-1-2.6-2.3-3.5-3.7
		c-0.6-1-0.5-2.4,0.2-3.3c0.8-0.9,2.1-1.3,3.2-0.8c2.1,1,4.1,2.2,6,3.6c8.9,6.3,17.7,12.7,26.6,19c1.6,1.1,3.4,2,5.8,3.3l0,0
		c-0.3-1.2-0.6-2.3-1.1-3.4c-7-10.6-13.9-21.2-21.1-31.7c-4.8-7.1-9.9-13.9-15.4-20.7c-4.3-5.3-10.3-8.8-17-10.4
		c-6.6-1.5-13.6-0.7-19.7,2.3c-8.9,4.2-16,11.4-19.8,20.5c-2.5,6.3-3.8,12.9-3.9,19.8c0.3,10,1.9,20,4.9,29.5
		c1.3,4.7,4.1,9,7.8,12.1c3.8,3.2,8.3,5.3,13.1,5.9c2.8,0.7,5.9,0.9,8.8,0.6c15.4-2,30.7-4.1,46.3-6.5c0.8-0.2,2.4-0.1,2.2-2.3
		c-2.7-0.4-5.6-0.9-8.3-1.2c-10.2-1.1-20.5-2.2-30.7-3.5c-3.2-0.4-4.9-2.3-4.3-4.4c0.6-2,2.1-2.7,5.1-2.4c8.8,0.8,17.6,2,26.5,2.7
		c1.9,0.3,3.9,1.2,6.2-0.4L92.8,162.2z"/>
</g>
</svg>
