<svg xmlns="http://www.w3.org/2000/svg" xmlns:xlink="http://www.w3.org/1999/xlink" width="20px" viewBox="0 0 289 353">
<g>
	<path fill="#CE3863" d="M151.9,103c2.7-9.1,5.1-18.2,8.1-27.1c2-5.6,4.2-11,6.8-16.3c1.4-2.7,3-5.3,4.9-7.8c4-6,9.7-10.6,16.5-13.1
		c6.7-2.5,14.1-2.8,21-0.9c14.6,3.1,27.6,11.5,36.4,23.6c4.2,5.2,6.7,11.5,7.2,18.1c0.5,6.6-1,13.3-4.3,19
		c-4.5,8.4-10.1,16.1-16.7,23c-5.8,6.9-12.3,13.1-19.5,18.4c-1.2,0.9-2.3,1.9-3.3,3c2.2,0,3.4,0,4.6-0.1c5.3-0.5,10.5-1.3,15.8-1.8
		c10.2-1.1,20.5,1.1,29.5,6.1c8.9,5.1,16.1,12.8,20.4,22.1c9.6,18.1,10.6,39.6,2.5,58.4c-12.4,28.9-38.3,39.2-64.9,31.8
		c-4.7-1.7-9.2-3.9-13.5-6.5c-1.7-0.8-3.2-1.9-4.8-2.8c-1.6,2.2-0.9,4.1-0.5,5.8l0,0c1.2,12.1-2.7,24.1-10.6,33.2
		c-6.2,8.2-14.7,14.3-24.5,17.6c-11.9,4.2-24.5,5.9-37.1,5.3c-10.7-0.5-21-3.8-30-9.6c-9-5.8-16.2-14-20.9-23.5
		c-2.8-5.5-4-11.7-3.4-17.8c0.2-2.2,0.4-4.3,0.7-6.3c-2.3-1-3.6,0.5-5,1.1c-9,4.3-19.4,4.3-28.4-0.1c-10.5-4.3-19.2-11.9-25-21.6
		c-3.9-6.4-7.1-13.3-9.5-20.4c-4.1-12.3-3.4-25.8,2-37.6c2.5-6,6.4-11.3,11.5-15.3c10.8-9.4,24.2-15.4,38.4-17.3
		c0.9-0.1,1.7-0.3,2.5-0.6c0.4-2-1.1-2.5-1.9-3.5c-2.3-2.8-4.8-5.5-6.8-8.5l0,0c-5.9-8.6-7.7-19.5-4.9-29.6
		c2.4-10.1,5.9-19.8,10.7-29c4.3-7.9,10.3-14.7,17.6-20c9.6-7,21.3-10.4,33.1-9.6c9.6,0.5,18.7,4.2,25.9,10.5
		c7.2,6.3,12.2,14.8,14.1,24.2c1.2,7.1,2,14.3,3,21.5c0.2,1.3,0.5,2.6,0.8,3.9L151.9,103z M146.6,184.7c-2.1,1.9-3.4,2.9-4.6,4.1
		c-8.2,8-16.7,15.7-24.7,23.9c-7.4,7.3-14.1,15.1-20.8,22.9l0,0c-5.7,6.6-9.4,14.7-10.8,23.3c-1.1,4.7-0.5,9.5,1.5,13.9
		c6.8,13.9,20.1,23.4,35.4,25.2c13.1,1.7,26.4-0.2,38.6-5.3c7.9-3,14.6-8.7,18.6-16.2c4-7.5,5.2-16.1,3.4-24.4
		c-0.6-2.7-1.3-5.4-2.1-8.1c-3.5-10.3-8.6-20.1-14.9-29c-7.6-9.4-14.2-19.6-19.5-30.5L146.6,184.7z M160.9,176.5l17.8,30.7
		c0.7,1.2,1.4,2.4,2.2,3.6l0,0c0.6,0.9,1.3,1.8,2,2.7c6.8,7.3,13.6,14.7,20.5,22c3.7,3.8,8.1,6.9,13,9.1c7.1,3.3,15.1,4.3,22.8,2.9
		c7.7-1.4,14.8-5.2,20.3-10.8c6.8-6.7,11.2-15.5,12.6-24.9c2.1-12.5,0.2-25.3-5.5-36.6c-2.6-5.6-6.6-10.5-11.7-14
		c-5.1-3.5-11-5.6-17.2-6.1c-10.6-1-21.4,0.5-31.2,4.6c-10.5,4.7-21.4,8-32.3,11.6C169.9,172.4,165.9,174.3,160.9,176.5L160.9,176.5
		z M131.2,176.9c-8.1-2.5-14.7-4.7-21.4-6.7c-10.2-3.1-20.4-5.8-30.5-9.1l0,0c-13.7-5.6-29.3-4.2-41.8,3.6c-1.2,0.7-2.4,1.3-3.6,2
		c-16,9.1-19.8,24.9-16.8,40.3l0,0c1.9,8.5,5.6,16.5,11,23.3c4.3,5.5,9.9,9.9,16.2,12.8c3.2,1.7,6.9,2.5,10.5,2.1
		c3.6-0.4,7.1-1.8,9.9-4.2c6.4-4.9,12.3-10.5,17.6-16.6c13-15.4,25.9-30.8,43-41.9c2.1-1.8,4.1-3.7,5.9-5.7L131.2,176.9z
		 M158.7,158.6c4.2-1.4,8.1-3.5,11.5-6.3c6.9-4.5,13.3-9,19.9-13.5c10.6-6.6,20.4-14.5,29.2-23.4c6.3-6.7,11.8-14.1,16.5-22.1
		c2.4-3.6,3.5-7.9,3.2-12.3c-0.3-4.3-2.1-8.4-5.1-11.6c-7.5-9.9-18.5-16.5-30.8-18.3c-6.7-1.2-13.5,1.2-18,6.3
		c-3.9,4.3-7,9.4-9,14.9c-4.8,11.9-8.5,24.2-10.9,36.8c-2.4,12.9-3.9,25.9-5.7,38.9c-0.5,3.1-0.6,6.3-0.9,10.2L158.7,158.6z
		 M118.3,140.2c-1.2-1.7-2.2-3.4-3.3-4.8c-6.1-7.7-12.2-15.3-18.2-23l0,0c-1.4-1.7-2.6-3.6-3.6-5.5c-0.3-1,0-2.1,0.6-2.9
		c0.4-0.6,1.1-1,1.8-1c0.7-0.1,1.4,0.2,1.9,0.7c1.7,1.8,3.3,3.6,4.7,5.6l20.8,26.2c0.7,0.8,1.3,2.6,3.3,1c-0.8-1.8-1.4-3.6-2.3-5.3
		c-3.1-6.6-6.2-13.1-9.2-19.7l0,0c-0.7-1.5-1.1-3.1-1.2-4.7c0-1.1,0.7-2.2,1.7-2.6c1.1-0.4,2.3-0.1,3,0.8c1.3,1.8,2.4,3.7,3.3,5.8
		c4.4,9.3,8.7,18.7,13.1,28c0.8,1.6,1.9,3.2,3.3,5.4l0,0c0.3-1.1,0.6-2.2,0.7-3.3c-0.8-12-1.6-24-2.7-36c-0.7-8.1-1.7-16.1-3.1-24.3
		c-1.1-6.4-4.4-12.1-9.2-16.5c-4.8-4.3-10.9-6.9-17.3-7.3c-9.3-0.7-18.5,2-25.9,7.7c-5,4-9.2,8.9-12.4,14.5
		c-4.4,8.4-7.7,17.4-9.7,26.6c-1.1,4.5-0.8,9.3,0.8,13.6c1.6,4.4,4.4,8.2,8.1,11c2,1.9,4.4,3.5,7,4.6c13.7,5.5,27.3,10.9,41.2,16.2
		c0.8,0.2,2,1,2.9-0.9c-2-1.6-4.2-3.3-6.3-4.9c-7.9-5.7-15.9-11.4-23.7-17.2c-2.5-1.8-3-4.2-1.5-5.6c1.4-1.4,3-1.3,5.3,0.4
		c6.9,4.8,13.6,9.8,20.6,14.6c1.4,1.1,2.7,2.8,5.3,2.5L118.3,140.2z"/>
</g>
</svg>
