<svg xmlns="http://www.w3.org/2000/svg" xmlns:xlink="http://www.w3.org/1999/xlink" width="20px" viewBox="0 0 289 353">
<style type="text/css">
	.stgrandmarnier{fill-rule:evenodd;clip-rule:evenodd;}
</style>
<g>
	<path class="stgrandmarnier" fill="#660C0C" d="M245.2,60.6l-0.5-0.7c-12.3-20.4-49-24.5-100.2-24.5c-46.1,0-90.5,3-103.7,24.5c-0.6,0.8-1,1.6-1.3,2
		c-54.8,95.8-42.1,157.5-21.9,192.6c19.6,33.3,53.6,55.8,96.3,63.2h60.3v0c41.7-6.5,78.1-31.6,99.1-68.2
		C301,198.3,291.1,131.5,245.2,60.6L245.2,60.6z M53.2,74l2.7-4.6c6.1-10.7,35.9-16.2,88.7-16.2c18.7,0,75.7,0,84.8,16.1l1,1.4
		c22.5,34.6,35.6,68,39.1,98.5c-103,48.5-221.8,10.1-250.5-0.6C22.3,142.6,32.2,111.3,53.2,74L53.2,74z M171.8,299.9h-55.6
		c-37.1-6.5-66.7-26.1-83.2-54.5c-10-17.8-15.1-37.8-14.8-58.2c43.7,15.5,89.6,23.7,135.9,24.1c40.1,0.4,79.8-7.5,116.6-23.2
		c0,18.3-4.5,36.4-13,52.6C239.5,272.4,207.9,294.2,171.8,299.9L171.8,299.9z"/>
</g>
</svg>
