<svg xmlns="http://www.w3.org/2000/svg" width="20px" viewBox="0 0 289 353">
<g>
	<path fill="#CC8011" d="M6.2,12c-0.1,0.1-0.2,0.3-0.2,0.4c0,0.1,0.1,0.3,0.2,0.4C6.3,12.9,6.5,13,6.7,13c0.1,0,0.3-0.1,0.4-0.2
		c0.1-0.1,0.2-0.3,0.2-0.4c0-0.1-0.1-0.3-0.2-0.4C6.9,11.7,6.5,11.7,6.2,12z"/>
	<path fill="#CC8011" d="M7.8,12c-0.1,0.1-0.2,0.3-0.2,0.4c0,0.1,0.1,0.3,0.2,0.4C7.9,12.9,8.1,13,8.2,13s0.3-0.1,0.4-0.2
		c0.1-0.1,0.2-0.3,0.2-0.4c0-0.1-0.1-0.3-0.2-0.4C8.4,11.7,8,11.7,7.8,12z"/>
	<path fill="#CC8011" d="M8,11c0-0.1-0.1-0.3-0.2-0.4c-0.2-0.2-0.6-0.2-0.8,0c-0.1,0.1-0.2,0.3-0.2,0.4s0.1,0.3,0.2,0.4
		c0.1,0.1,0.3,0.2,0.4,0.2c0.1,0,0.3-0.1,0.4-0.2C8,11.3,8,11.2,8,11z"/>
	<path fill="#CC8011" d="M13,7.5C13,7.5,13,7.5,13,7.5L13,7.5l-0.1,0c-1-0.3-1.6-1.3-1.6-2.3l0.3-4.7c0-0.1,0-0.2-0.1-0.3
		C11.3,0,11.3,0,11.1,0H8.9C8.8,0,8.7,0,8.6,0.1C8.5,0.2,8.5,0.4,8.5,0.5l0.3,4.7c0,1-0.7,1.9-1.6,2.3L7,7.5
		c-3.4,1.3-5.8,4.6-5.8,8.2c0,4.8,3.9,8.8,8.8,8.8s8.8-3.9,8.8-8.8C18.8,12.1,16.5,8.8,13,7.5L13,7.5z M10.6,0.9l-0.2,3.8H9.6
		L9.4,0.9H10.6z M10,23.6c-4.3,0-7.9-3.5-7.9-7.9c0-3.3,2.1-6.3,5.1-7.4c0,0,0,0,0.1,0h0c1.2-0.4,2-1.4,2.2-2.7h0.8
		c0.2,1.2,1,2.3,2.2,2.7c0,0,0,0,0.1,0c3.2,1.1,5.2,4.1,5.2,7.4C17.9,20.1,14.4,23.6,10,23.6L10,23.6z"/>
</g>
</svg>
