<svg xmlns="http://www.w3.org/2000/svg" xmlns:xlink="http://www.w3.org/1999/xlink" width="20px" viewBox="0 0 289 353">
<g>
	<path fill="#CC8011" d="M89.9,172.9c-1.4,1.4-2.9,4.3-2.9,5.8s1.4,4.3,2.9,5.7c1.4,1.4,4.3,2.9,7.2,2.9c1.4,0,4.3-1.4,5.8-2.9
		c1.4-1.4,2.9-4.3,2.9-5.7c0-1.4-1.4-4.3-2.9-5.8C99.9,168.6,94.2,168.6,89.9,172.9z"/>
	<path fill="#CC8011" d="M112.9,172.9c-1.4,1.4-2.9,4.3-2.9,5.8s1.4,4.3,2.9,5.7c1.4,1.4,4.3,2.9,5.7,2.9c1.4,0,4.3-1.4,5.8-2.9
		c1.4-1.4,2.9-4.3,2.9-5.7c0-1.4-1.4-4.3-2.9-5.8C121.5,168.6,115.8,168.6,112.9,172.9z"/>
	<path fill="#CC8011" d="M115.8,158.5c0-1.4-1.4-4.3-2.9-5.8c-2.9-2.9-8.6-2.9-11.5,0c-1.4,1.4-2.9,4.3-2.9,5.8c0,1.4,1.4,4.3,2.9,5.8
		s4.3,2.9,5.8,2.9s4.3-1.4,5.8-2.9C115.8,162.8,115.8,161.4,115.8,158.5z"/>
	<path fill="#CC8011" d="M187.6,108.2L187.6,108.2L187.6,108.2h-1.4c-14.4-4.3-23-18.7-23-33.1l4.3-67.6c0-1.4,0-2.9-1.4-4.3
		c-2.9-2.9-2.9-2.9-5.7-2.9h-31.6c-1.4,0-2.9,0-4.3,1.4c-1.4,1.4-1.4,4.3-1.4,5.8l4.3,67.6c0,14.4-10.1,27.3-23,33.1h-2.9
		C52.5,126.9,18,174.3,18,226.1c0,69,56.1,126.5,126.5,126.5S271,296.5,271,226.1C271,174.3,237.9,126.9,187.6,108.2L187.6,108.2z
		 M153.1,13.3L150.3,68h-11.5l-2.9-54.6H153.1z M144.5,339.7c-61.8,0-113.6-50.3-113.6-113.6c0-47.4,30.2-90.6,73.3-106.4
		c0,0,0,0,1.4,0l0,0c17.3-5.8,28.8-20.1,31.6-38.8h11.5c2.9,17.2,14.4,33.1,31.6,38.8c0,0,0,0,1.4,0c46,15.8,74.7,58.9,74.7,106.4
		C258.1,289.3,207.8,339.7,144.5,339.7L144.5,339.7z"/>
</g>
</svg>
