<svg xmlns="http://www.w3.org/2000/svg" width="20px" viewBox="0 0 289 353">
<g>
	<path fill="#36C941" d="M145.1,33.2c78.2,0,142.7,64.5,142.7,144c0,78.2-64.5,142.7-142.7,142.7c-79.4,0-144-64.5-144-142.7
		C1.2,97.7,65.7,33.2,145.1,33.2z M145.1,53C213.4,53,268,108.9,268,177.1c0,68.3-54.6,122.9-122.9,122.9S21,245.4,21,177.1
		S76.9,53,145.1,53L145.1,53z"/>
</g>
<g>
	<path fill="#36C941" d="M129.3,208.5c-4.8-1.5-8.6-3.4-11.3-5.8l4.3-9.6c2.7,2.2,6.1,3.9,10,5.3c4,1.4,7.9,2,11.9,2
		c4.9,0,8.6-0.8,11.1-2.4c2.4-1.6,3.7-3.7,3.7-6.3c0-1.9-0.7-3.5-2-4.7c-1.4-1.2-3.1-2.2-5.2-2.9c-2.1-0.7-4.9-1.5-8.5-2.4
		c-5.1-1.2-9.2-2.4-12.3-3.6c-3.1-1.2-5.8-3.1-8.1-5.6c-2.2-2.6-3.4-6-3.4-10.4c0-3.7,1-7,3-10c2-3,5-5.4,9-7.2
		c4-1.8,8.9-2.7,14.7-2.7c4.1,0,8,0.5,12,1.5c3.9,1,7.3,2.5,10.1,4.4l-3.9,9.6c-2.9-1.7-5.9-3-9.1-3.9c-3.2-0.9-6.2-1.3-9.2-1.3
		c-4.9,0-8.5,0.8-10.9,2.5c-2.4,1.6-3.6,3.8-3.6,6.5c0,1.9,0.7,3.4,2,4.6c1.4,1.2,3.1,2.2,5.2,2.8c2.1,0.7,4.9,1.5,8.5,2.4
		c4.9,1.1,9,2.3,12.1,3.6c3.2,1.2,5.9,3.1,8.1,5.6c2.2,2.5,3.4,5.9,3.4,10.2c0,3.7-1,7-3,10c-2,3-5,5.3-9.1,7.1
		c-4,1.8-9,2.7-14.8,2.7C139,210.7,134.1,209.9,129.3,208.5z"/>
</g>
</svg>
