<svg xmlns="http://www.w3.org/2000/svg" width="20px" viewBox="0 0 289 353">
      <g>
        <path fill="#97AF3F" d="M233.6,170.2c-24.7-34.3-46.6-43.2-65.4-50.8c-17-6.9-32-12.9-45.3-31.8C104,87,99.3,91,88.3,106.1
          c7.5,21.6,3.5,37.5-1.1,55.5c-5.1,20-11,43.2,2.7,83.1C143.7,401,345.8,325.9,233.6,170.2L233.6,170.2z M110,184.9
          c14.8-9.3,16.8,36.3,29,59.7c12.1,23.4,42.9,47,33.4,51.9c-9.5,4.9-44.1-17.8-56.2-41.2C104,231.9,95.2,194.2,110,184.9L110,184.9z
          M33.2,20.2c-12.1-7-3.4-25.7,8.7-18.7c37.8,22,45.6,21.3,65.3,65c5.6-0.8,12-0.8,19.8-0.3c3.6-0.1,7.3,1.9,9.5,5.4
          c10.1,16.4,22.9,21.6,37.7,27.6c21.5,8.7,46.6,18.9,75.3,58.7C381.4,341,135.7,439.3,70.7,250.6c-16-46.5-9.2-73.2-3.3-96.2
          c3.1-12.2,5.9-23.2,3.4-35.8c-9.6,11.4-25.6,18.1-39,50.7c-5.5-3.8-80-105.5,20.3-138.5C45.7,27.3,39.4,23.9,33.2,20.2L33.2,20.2z
          M88.6,73.8c-6.1-13.4-10.9-21.7-16.1-27.7C76,61.6,78,73.5,78.8,83.1C82.1,79.3,85.2,76.3,88.6,73.8L88.6,73.8z M29.3,155.1
          c3-9-2.3-64.9,36.8-120.2C22.5,49.5,29.3,89,29.3,155.1L29.3,155.1z"/>
      </g>
    </svg>
