<svg xmlns="http://www.w3.org/2000/svg" xmlns:xlink="http://www.w3.org/1999/xlink" width="20px" viewBox="0 0 289 353">
<g>
	<path fill="#774A0E" d="M194.3,56.9c-21.9-8.7-38.6-27.9-45.8-50.8c0-2.2-2-3.8-4.1-3.8c-2,0-4.1,1.6-4.6,3.8
		c-6.6,23.5-23.4,42.1-44.7,50.8C39.7,78.8,2.6,136.1,2.6,199.5c0,86.8,68.1,157.3,151,151.8c71.2-4.9,129.6-68.8,132.7-145.3
		C288.8,139.9,251.7,79.9,194.3,56.9z M276.6,205.5c-2.5,65-47.3,120.2-105.2,133.3c54.4-31.7,44.7-60.6,44.2-61.7
		c-1-2.7-3.6-3.8-6.1-2.7c-2.5,1.1-3.6,3.8-2.5,6.6c0,0,6.6,21.8-40.2,49.2c13.7-22.9,13.7-49.2,13.2-50.3c0-2.7-2.5-4.9-4.6-4.9
		c-2.5,0-4.6,2.2-4.6,4.9c0,0.5,0,40.4-25.9,60.6C119,319.6,119,279.8,119,279.8c0-2.7-2-4.9-4.6-4.9c-2.5,0-4.6,2.2-4.6,4.9
		c0,1.6,0,28.4,14.2,51.3c-47.8-27.3-41.7-49.7-41.7-50.3c1-2.7-0.5-5.5-2.5-6.6c-2.5-1.1-5.1,0-6.1,2.7c-0.5,1.1-10.2,30,44.2,61.7
		c-60.5-13.7-105.7-71-105.7-139.3c0-56.3,31.5-110.9,86.4-133.8C89,81.5,83.4,97.9,81.9,114.3c-0.5,2.7,1.5,5.5,4.1,5.5
		c2.5,0,5.1-1.6,5.1-4.4c2-20.8,11.2-41.5,27.5-60.6c-1.5,9.3-1.5,20.2,2.5,33.9c0.5,2.7,3.6,4.4,6.1,3.3c2.5-0.5,4.1-3.8,3.1-6.6
		c-10.2-36,8.1-51.9,14.2-55.7c6.1,4.4,24.4,19.7,14.2,56.3c-0.5,2.7,0.5,5.5,3.1,6.6c2.5,0.5,5.1-0.5,6.1-3.3
		c3.6-13.7,4.1-24.6,2.5-33.9c12.2,13.7,24.9,36,27.5,60.6c0.5,2.7,2.5,4.9,5.1,4.4s4.6-2.7,4.1-5.5c-1.5-18-8.6-35-16.8-48.6
		C248.2,90.2,279.2,147,276.6,205.5z"/>
</g>
</svg>
