<svg xmlns="http://www.w3.org/2000/svg" width="20px" viewBox="0 0 289 353"><g><path fill="#5B4168" d="M133.5,352.3c-0.8,0.1-1.6,0.1-2.5,0c-5.8-0.1-10.7-4.9-12.1-11.7c-1.3-6.2-2.1-12.5-2.3-18.9 c0-14.1,1.4-28.2,4.2-41.9c-4.3,10.2-9.6,19.7-15.7,28.4c-3.1,4.4-6.8,8.3-10.9,11.4c-4.1,3.3-8.9,5.1-13.8,5.1 c-7.4-0.2-14.3-4.6-18.5-12c-2.3-3.8-4.1-7.9-5.6-12.3l-1.7-3.6c-0.6-1.5-1-3-1.3-4.5c-0.2-0.9-0.4-1.7-0.7-2.6 c-1.8-7.5-7-13.2-13.4-14.7c-7.4-1.8-14.2-6.1-19.5-12.5c-2.8-3.3-5.2-7-7.1-11.1c-3.5-6.3-2.6-14.8,2-19.9 c3.5-4.4,7.4-8.3,11.7-11.7c11.4-8.2,23.6-14.7,36.3-19.4L69,198l13.9-5.9l1-0.4l-3.7,0.3c-6.6,0.5-13.5,1.1-20.4,1.1 c-7,0.1-14-0.7-20.9-2.3c-6.5-1.6-13-3.6-19.3-6.1c-5.3-2.1-10.1-6-13.5-11.3c-6.5-9-7.4-22.1-2.1-32.1c2.1-4.1,4.5-8,7.3-11.6 l2-2.8c1-1.3,2-2.5,3.1-3.6c0.7-0.7,1.4-1.5,2-2.2c4.4-5.1,6.4-12.6,5.2-19.8c-0.7-5.9-0.8-11.8-0.3-17.7c0.5-6.9,2.5-13.5,5.8-19.2 c2.5-5.3,7.1-8.7,12.2-8.9c2.3,0.1,4.6,0.6,6.8,1.6c6.8,3.3,13.1,7.9,18.7,13.6c-0.6-1.9-1.1-3.8-1.5-5.7c-1.8-6.6-2-13.7-0.7-20.4 c3-13.7,11.8-21.4,24.6-21.7h0.6c3,0.1,5.9,0.4,8.9,1l4,0.6l2.2,0.4c1.2,0,2.4,0.4,3.6,0.5h1.1c5,0,9.8-2.8,12.9-7.6 c5.9-8.4,14-14.2,22.9-16.4c1.9-0.4,3.8-0.6,5.8-0.5c1.1,0,2.2,0,3.2,0c5.1,0.5,9.4,4.8,10.8,10.8c1.5,5.5,2.5,11.1,3,16.8 c0.9,14.1,0.2,28.2-2,42.1c-0.8,6.7-1.7,13.3-2.5,19.7c5.2-15.8,12.5-30.4,21.6-43.3c3.4-4.8,7.3-9.1,11.6-12.6 c4.1-3.4,9-5.2,14-5.4c7.8,0.2,15,5,19.2,12.8c2.1,3.9,3.9,8,5.2,12.3c0.4,1.3,0.9,2.5,1.4,3.7c0.5,1.5,1,3.1,1.3,4.7 c0.3,1,0.5,2,0.8,3.1c1.8,7.1,6.7,12.4,12.7,13.9c7.6,2,14.5,6.7,19.9,13.4c2.5,3.3,4.7,6.9,6.5,10.8c3,6.1,2.2,13.9-2,18.9 c-3.5,4.3-7.3,8.1-11.5,11.4c-10.2,7.4-21.2,13.2-32.6,17.3l-3,1.2l-8.5,3.4c4.7-0.6,9.4-0.8,13.8-0.8c11.6-0.1,23.1,1.9,34.2,6 c5.2,1.9,9.9,5.4,13.7,10.2c7.3,8.7,8.8,22.3,3.6,33c-1.9,4.1-4.1,8-6.7,11.6c-0.8,1.1-1.6,2.3-2.3,3.5c-0.8,1.2-2.2,3.3-3.3,5.1 c-1.1,1.8-3,4.3-4.2,6.5c-1.7,3.4-2.2,7.4-1.6,11.2l0.3,2.6c0.8,6.1,1.1,12.3,1.1,18.4c-0.2,7.9-2.5,15.5-6.5,21.8 c-2.5,4.3-6.4,6.9-10.7,7.1l0,0c-1.4,0-2.9-0.2-4.2-0.8c-4.8-1.8-9.5-4.2-14-7.2c-8-5.8-15.4-12.6-22.1-20.4 c4.4,9.3,7.8,19.3,10,29.6c0.7,3.6,1.1,7.3,1.1,11c1,15.3-8.6,28.7-21.3,29.9c-0.4,0-0.8,0.1-1.3,0.1c-0.8,0.1-1.7,0.1-2.5,0 c-2.9-0.2-5.8-0.6-8.7-1.2l-2.9-0.4c-1.4-0.2-2.8-0.6-4.2-1l-2.9-0.8c-1.2-0.2-2.4-0.4-3.6-0.4c-4.7-0.1-9.2,2.3-12.4,6.6 c-5.6,7.4-13,12.5-21.2,14.6C138.6,352.1,136.1,352.4,133.5,352.3z M146.6,192.7c-0.3,1.2-0.5,2.3-0.7,3.5l-2.4,16.5 c-1.3,9.3-2.6,18.5-4.2,27.7c-1.6,9.2-3.2,19.2-4.8,28.8c-1.4,8-2.8,16.1-4.2,24.2c-2.3,12.2-2.9,24.8-1.7,37.2c0.9,7.5,2.4,8,4.8,8 c1.4,0,2.8-0.3,4.2-0.7l1.6-0.5c5.7-1.9,10.9-5.6,14.9-10.9c5.2-6.7,12.4-10.4,20-10.2c1.7,0,3.3,0.2,5,0.5c1.2,0.2,2.4,0.5,3.6,0.9 c1.2,0.4,2.5,0.7,3.8,0.9l3,0.4c2.4,0.4,4.9,0.7,7.4,0.7c0.9,0,1.8,0,2.6,0c6.1-0.2,11-6.3,10.9-13.7c0-0.5,0-1.1-0.1-1.6 c-0.4-6.3-1.6-12.4-3.5-18.3c-5-14.9-11.8-28.8-20.2-41.2c-11.3-19-24.5-36.1-39.3-51.1C147,193.3,146.8,193,146.6,192.7z M132,185 c-2.8,1.1-5.5,2.1-8.2,3.3l-42.3,19.1l-21,9.4c-10.4,4.1-20.4,9.8-29.6,17c-2.6,2.2-5,4.6-7.2,7.2c-1.1,1.1-1.2,2.9-0.4,4.2 c0.8,1.8,1.8,3.6,2.9,5.1c4,5.5,9.4,9.3,15.3,10.8c11.1,2.6,19.9,12.7,22.8,25.8l0.6,2.4c0.3,1.4,0.7,2.8,1.2,4.1l0.8,2 c1.4,3.4,3,6.7,5,9.7c2.1,3.4,5.4,5.4,8.8,5.6c2.5-0.1,4.9-1.1,7-2.9c3.6-2.8,6.8-6.3,9.6-10.2c7-10.4,12.7-22.1,16.9-34.6 c1.1-3.1,2-6.3,3-9.4c1.2-4,2.5-8.1,3.9-12.1c6.2-18,10.3-36.9,12.4-56.2c0-0.3,0-0.7,0-1L132,185z M158.2,183.8 c0.8,1.1,1.6,2.1,2.5,3.1l10.4,11.3c5.7,6.2,11.3,12.3,16.9,18.6s11.6,13.2,17.4,19.9c5.8,6.7,11.8,13.7,17.9,20.4 c6.8,8.1,14.8,14.5,23.6,19c1.2,0.6,2.5,1,3.8,1.2c1.1,0,2.2-0.4,4.2-5.1c0.3-0.7,0.5-1.4,0.7-2.1c2.1-7.1,2.4-14.9,0.9-22.2 c-2-7.6-1.5-15.8,1.6-22.9c2.7-5.2,5.7-10,9.2-14.5l0.8-1c3.1-3.6,5.6-7.9,7.4-12.6c3-6.9,0.7-15.4-5-18.9c-0.1,0-0.1-0.1-0.2-0.1 c-3.6-2.4-7.4-4.1-11.4-5.1c-8.5-2.3-17.1-3.4-25.8-3.3c-5,0-10.2,0.4-15.9,1c-19.8,1.3-39.3,5.7-58.1,12.9L158.2,183.8z M144.7,171.6c-2.3,0-4.2,2.3-4.2,5.1s1.9,5.1,4.2,5.1c2.3,0,4.2-2.3,4.2-5.1S147,171.6,144.7,171.6z M41.6,69.7 c-0.9,0-2,0.3-3.7,4.1c-2.3,5.1-3.5,10.8-3.4,16.6c0,3.8,0.5,7.7,0.9,11.5v0.9c1,7.5-0.5,15.1-4.2,21.2c-1.6,2.5-3.3,4.9-5.2,7.2 c-1.1,1.4-2.3,2.9-3.3,4.4c-1.1,1.5-1.6,2.2-2.4,3.3c-2.3,2.9-4.4,6.1-6.1,9.6c-3.4,6.2-2.1,14.5,3,18.7c0.5,0.4,1,0.8,1.6,1.1 c4.7,3.1,9.6,5.4,14.8,6.9c9.3,2.6,18.8,3.8,28.3,3.7c3.6,0,7.4,0,11.6-0.4c18.8-0.5,37.4-3.7,55.6-9.7l1.3-0.5 c-0.6-1-1.3-2-2.1-2.9c-2.1-2.5-4.2-5.1-6.4-7.3c-3.3-3.6-6.7-7.4-9.9-11.2c-3.2-3.9-6.2-7.9-9.3-11.9c-2.2-2.9-4.2-5.8-6.6-8.6 l-6.1-7.7c-8.5-10.7-17.3-21.9-26.3-32.5c-5.4-6.5-11.7-11.7-18.7-15.3C43.9,70.1,42.7,69.8,41.6,69.7z M210.5,42.7 c-3.5,0.2-6.8,1.8-9.5,4.4c-2.3,2.1-4.5,4.5-6.4,7.1C188.3,62.8,183,72.5,179,83c-8.9,24-19,51.1-22.6,80.6c0,1.4-0.4,2.9-0.6,4.5 c1.3-0.4,2.5-0.8,3.6-1.3l13.1-5.8c7.2-3.3,14.5-6.5,21.8-9.6s15.5-6.5,23.3-9.7c7.8-3.2,15.1-6.2,22.7-9.4 c8.7-3.4,16.8-8.7,23.9-15.6c2.2-2.3,3.3-4,3.5-5.5c0.1-1.4-0.7-3.4-2.7-6.3l-0.8-1c-4.1-5.5-9.6-9.4-15.6-11.1 c-9.8-2.6-17.7-11.2-20.9-22.6c-0.3-1.1-0.6-2.3-0.9-3.5c-0.3-1.2-0.6-2.3-0.9-3.4s-0.7-2-1-3.1c-0.8-3-1.9-5.9-3.2-8.6 C219.7,46.5,215.4,43,210.5,42.7z M88.4,36.7c-4.1,0-7.9,2.1-10.7,5.7c-2.4,4.1-3.2,9.2-2.3,14.1c0.3,2.4,0.8,4.7,1.4,7.1 c3,10.7,7.3,20.8,12.9,29.9c6.2,10,12.7,19.5,19.7,28.7c10.1,14,21.3,26.8,33.4,38.2l0.9,0.8l0.3-2c0.6-3.9,1.1-7.5,1.6-11 c2.8-23.7,5.4-47.3,8.1-70.9l1.2-10.2c2-13,2.5-26.2,1.6-39.4c-0.4-3.5-1.1-6.9-1.9-10.2c-0.2-1.7-1.5-2.9-3-2.8 c-1.8,0-3.5,0.3-5.2,0.8c-6,1.8-11.3,5.9-15.3,11.6c-5.3,7.8-13.3,12.3-21.7,12.2c-1.1,0.1-2.2,0.1-3.3,0c-1.2-0.1-2.5-0.3-3.7-0.6 l-3.2-0.6l-2.8-0.4c-2.2-0.5-4.5-0.9-6.8-1.1L88.4,36.7z"></path><path fill="#5B4168" d="M133.5,353h-2.5c-6-0.1-11.2-5.1-12.7-12.2c-1.4-6.2-2.2-12.6-2.4-19c-0.1-12.7,1-25.3,3.3-37.7 c-4,8.7-8.7,17-14,24.6c-3.2,4.5-6.9,8.4-11,11.6c-4.2,3.3-9.1,5.1-14,5.1c-7.6-0.2-14.6-4.7-19-12.2c-2.3-3.9-4.2-8-5.7-12.4l0,0 c-0.5-1.2-0.9-2.4-1.4-3.5c-0.6-1.5-1-3.1-1.4-4.7c0-0.9-0.4-1.7-0.7-2.6c-1.8-7.3-6.8-12.9-13-14.4c-7.5-1.8-14.3-6.2-19.8-12.7 c-2.7-3.3-5.1-7-7-11c-3.5-6.5-2.6-15.1,2.1-20.4c3.6-4.4,7.5-8.4,11.8-11.8c11.4-8.4,23.7-15.1,36.4-19.9l6.3-2.7l11.4-4.8 c-6.6,0.6-13.5,1.1-20.2,1.1c-7.1,0.1-14.2-0.6-21.2-2.2c-6.6-1.6-13.1-3.7-19.5-6.1c-5.4-2.1-10.2-6.1-13.8-11.5 c-6.7-9.2-7.5-22.6-2.1-32.9c2.1-4.2,4.6-8.1,7.3-11.7l2-2.8c1-1.3,2-2.6,3.2-3.7c0.7-0.8,1.4-1.4,2-2.2c4.3-4.9,6.2-12.2,5-19.2 c-0.7-5.9-0.9-11.9-0.4-17.8c0.5-7,2.6-13.8,5.9-19.6c2.6-5.5,7.4-9,12.7-9.1c2.4,0.1,4.7,0.6,6.9,1.7c6.3,3,12.2,7.1,17.4,12.3 c-0.4-1.4-0.7-2.6-1-3.7c-1.8-6.7-2.1-13.9-0.7-20.8c3.1-14,12-21.9,25.1-22.1h0.6c3,0.1,6,0.4,8.9,1l4.2,0.6l2.2,0.3 c1.2,0.2,2.4,0.4,3.6,0.5c5.2,0.5,10.3-2.2,13.5-7.3c5.9-8.4,13.9-14.2,22.8-16.5c3-0.7,6.1-0.9,9.2-0.5c5.3,0.4,9.9,4.9,11.3,11.1 c1.5,5.5,2.5,11.1,3,16.9c0.9,14.1,0.2,28.3-2,42.2c-0.6,5.1-1.3,9.8-1.9,14.4c5-14,11.7-27,19.8-38.6c3.4-4.9,7.4-9.2,11.8-12.7 c4.2-3.5,9.1-5.4,14.2-5.5c8,0.2,15.3,5.1,19.6,13.2c2.1,3.9,3.9,8.1,5.3,12.4v0.3c0.4,1.1,0.8,2.2,1.2,3.4c0.5,1.5,1,3.1,1.4,4.8 c0.3,1.1,0.5,2.1,0.8,3c1.7,6.8,6.4,12,12.2,13.5c7.7,2,14.8,6.8,20.3,13.7c2.6,3.3,4.8,7,6.6,10.9c3.2,6.3,2.3,14.5-2.1,19.6 c-3.5,4.3-7.4,8.2-11.6,11.5c-10.3,7.4-21.2,13.2-32.7,17.3l-3,1.3l-4.2,1.7c14.8-1.5,29.7,0.5,43.9,5.6c5.3,1.9,10.1,5.4,13.9,10.2 c7.5,8.9,9,22.8,3.7,33.7c-1.8,4.2-4.1,8.1-6.6,11.7l-2.3,3.5c-1.1,1.7-2.2,3.3-3.3,5.1s-3,4.3-4.2,6.5c-1.6,3.3-2.1,7.1-1.5,10.8 l0.3,2.5c0.8,6.1,1.1,12.3,1.1,18.6c-0.3,8-2.7,15.7-6.9,22c-3.4,6-9.6,8.7-15.4,6.5c-4.9-1.8-9.6-4.3-14-7.3 c-7.2-5.1-13.9-11.2-20-18.1c3.7,8.4,6.6,17.3,8.5,26.5c0.7,3.7,1.1,7.4,1.1,11.2c1,15.6-8.6,29.3-21.6,30.6c-0.5,0-1,0.1-1.4,0.1 c-0.8,0.1-1.7,0.1-2.5,0c-3-0.1-5.9-0.4-8.8-0.9l-2.9-0.4c-1.4-0.2-2.8-0.6-4.2-1.1l0,0l-2.7-0.7c-5.7-1.5-11.6,0.8-15.5,6 c-5.7,7.5-13.3,12.7-21.6,14.8C138.6,352.7,136.1,353,133.5,353z M122,275.4l-0.8,4.6c-2.8,13.6-4.2,27.6-4.2,41.7 c0.2,6.3,1,12.6,2.4,18.7c1.3,6.6,6.2,11.3,11.8,11.2c3.2,0.2,6.5,0,9.7-0.8c8.1-2,15.5-7.1,21.2-14.4c4.2-5.5,10.4-7.9,16.5-6.4 c0.9,0,1.9,0.5,2.8,0.7l0,0c1.4,0.4,2.8,0.8,4.2,1l2.9,0.4c2.9,0.5,5.8,0.8,8.7,0.9h2.5c12.5-0.4,22.4-12.9,22.1-28 c0-0.5,0-0.9-0.1-1.4c0-3.7-0.4-7.4-1.1-10.9c-2.2-10.3-5.5-20.2-9.9-29.4l-1.6-3.5l2.4,2.7c6.7,7.8,14.1,14.7,22.1,20.4 c4.4,2.9,9,5.3,13.8,7.2c5.3,2,11.1-0.5,14.3-6.1c4-6.1,6.2-13.6,6.4-21.4c0-6.2-0.3-12.3-1.1-18.4l-0.3-2.5 c-0.7-4-0.1-8.2,1.7-11.7c1.3-2.3,2.8-4.3,4.2-6.6c1.4-2.2,2.3-3.2,3.3-5.1l2.3-3.5c2.5-3.5,4.7-7.4,6.6-11.4 c5.1-10.4,3.6-23.7-3.5-32.2c-3.7-4.7-8.3-8.1-13.5-9.9c-11-4.1-22.5-6.1-34.1-6c-4.2,0-9.1,0-13.8,0.8l-4.7,0.5l4.7-1.5l8.5-3.4 l3-1.2c11.3-4,22.2-9.7,32.4-17c4.1-3.3,7.9-7.1,11.4-11.3c4.1-4.7,4.9-12.3,1.9-18.1c-1.7-4-3.9-7.6-6.4-10.9 c-5.4-6.7-12.2-11.3-19.8-13.3c-6.1-1.6-11.1-7.1-12.9-14.3c-0.3-1-0.6-2-0.8-3c-0.3-1.6-0.8-3.2-1.3-4.7c-0.4-1.1-0.8-2.3-1.2-3.4 v-0.3c-1.3-4.3-3.1-8.4-5.2-12.2c-4.1-7.7-11.2-12.5-18.8-12.7c-4.9,0.1-9.6,1.8-13.7,5.1c-4.3,3.5-8.2,7.6-11.6,12.4 c-8.9,13-16.1,27.6-21.2,43.3l-1.8,5.4l0.8-5.8c0.8-6.1,1.7-12.8,2.6-19.7c2.2-13.8,2.9-27.9,2-41.9c-0.6-5.7-1.6-11.2-3-16.7 c-1.3-5.7-5.5-9.8-10.5-10.2c-3-0.4-5.9-0.2-8.8,0.5c-9,2.1-17.1,7.8-23,16.3c-3.4,5.3-8.8,8.2-14.3,7.7c-1.2-0.1-2.5-0.2-3.7-0.5 l-2.2-0.3l-4-0.7c-2.9-0.5-5.9-0.8-8.8-0.9h-0.6c-12.7,0-21.2,7.8-24.1,21.2c-1.3,6.7-1.1,13.6,0.7,20.1c0.4,1.6,0.9,3.4,1.5,5.7 l0.6,1.8l-1.4-1.3c-5.5-5.7-11.8-10.2-18.5-13.5c-2.1-1-4.3-1.5-6.6-1.6c-4.9,0.4-9.2,3.7-11.6,8.8c-3.3,5.6-5.2,12.1-5.7,18.9 c-0.5,5.8-0.4,11.7,0.4,17.5c1.3,7.5-0.8,15.2-5.3,20.4c-0.6,0.8-1.3,1.5-2,2.2c-1.1,1.1-2.2,2.3-3.1,3.6l-2,2.8 c-2.7,3.5-5.1,7.4-7.2,11.4c-5.2,9.9-4.4,22.7,2,31.4c3.4,5.2,8,9.1,13.3,11.1c6.4,2.5,12.9,4.5,19.4,6.1c6.8,1.6,13.8,2.4,20.8,2.2 c6.8,0,13.7-0.5,20.3-1.1h3.8h3.6l-4.4,1.8l-13.9,5.9l-6.3,2.7c-12.7,4.4-24.9,10.7-36.3,18.6c-4.2,3.4-8.1,7.2-11.6,11.6 c-4.4,4.9-5.2,13-1.9,19.1c1.9,3.9,4.2,7.5,6.9,10.7c5.3,6.3,12,10.6,19.3,12.4c6.6,1.6,11.9,7.5,13.8,15.3c0.3,0.9,0.5,1.7,0.7,2.6 c0.3,1.5,0.8,3.1,1.3,4.5c0.5,1.2,0.9,2.4,1.4,3.5v0.3c1.5,4.2,3.4,8.3,5.7,12c4.1,7.2,10.9,11.6,18.2,11.9 c4.8-0.1,9.5-1.9,13.5-5.1c4-3.1,7.7-7,10.8-11.3c6.1-8.7,11.3-18.1,15.6-28.3L122,275.4z M133.6,339.3c-3,0-4.2-1.2-5.3-8.6 c-1.3-12.5-0.7-25.2,1.7-37.5c1.3-8,2.7-16.1,4.2-24c1.7-9.5,3.3-19.2,4.9-28.9s2.8-18.6,4.2-27.6c0.8-5.5,1.6-11,2.4-16.5 c0.2-1.2,0.4-2.4,0.7-3.6v-0.9l0.6,0.5l0.8,0.7c14.8,15,28.1,32.2,39.4,51.1c8.4,12.5,15.2,26.4,20.2,41.3 c1.9,5.9,3.1,12.2,3.5,18.5c1,7.6-3.3,14.8-9.6,16c-0.6,0.1-1.1,0.2-1.7,0.2c-3.4,0.3-6.7,0.1-10.1-0.6h-0.3l-2.7-0.4 c-1.3-0.2-2.5-0.5-3.8-0.9c-1.4-0.4-2.5-0.7-3.6-0.9c-9-2-18.2,1.7-24.5,9.8c-4.1,5.2-9.3,9-15,10.9l-1.6,0.5 C136.6,338.9,135.1,339.2,133.6,339.3z M146.9,193.8c0,0.9-0.4,1.7-0.5,2.6c-0.8,5.5-1.6,11-2.4,16.5c-1.3,9.1-2.7,18.4-4.2,27.7 c-1.6,9.3-3.2,19.4-4.8,28.8c-1.4,8-2.8,16.1-4.2,24.1c-2.3,12.1-2.9,24.6-1.7,37c0.9,7.5,2.4,7.5,4.2,7.5c1.4,0,2.8-0.3,4.2-0.7 l1.4-0.4c5.7-1.9,10.8-5.6,14.8-10.7c6.5-8.4,16-12.3,25.4-10.2c1.1,0,2.2,0.5,3.6,0.9c1.2,0.4,2.4,0.6,3.7,0.8l2.7,0.4h0.3 c3.3,0.6,6.6,0.8,9.9,0.6c5.8-0.1,10.5-5.9,10.4-13c0-0.6-0.1-1.2-0.1-1.9c-0.4-6.2-1.6-12.3-3.4-18.1c-4.9-14.8-11.7-28.7-20-41.1 c-11.3-18.8-24.4-35.9-39.2-50.7L146.9,193.8z M80.6,311.3c-3.6-0.1-7-2.3-9.2-5.8c-1.9-3-3.6-6.3-4.9-9.8l-0.8-2 c-0.5-1.4-0.9-2.8-1.2-4.2c0-0.8-0.4-1.6-0.6-2.4c-2.8-13-11.5-22.9-22.5-25.6c-6-1.6-11.5-5.5-15.6-11c-1.1-1.6-2.1-3.3-3-5.1 c-1-1.6-0.8-3.8,0.5-5.1c2.2-2.7,4.6-5.2,7.1-7.4c9.3-7.2,19.4-12.9,29.9-17.1l20.9-9.4l42.3-19.1c2.7-1.2,5.3-2.2,8.2-3.3v0.6V184 l2.2-0.9v0.9c0,0.4,0,0.8,0,1.1c-2.1,19.3-6.2,38.2-12.4,56.2c-1.4,4-2.7,8.1-3.9,12v0.3c-0.9,3-1.9,6.1-2.9,9.1 c-4.2,12.6-10,24.3-17.2,34.8c-2.8,4.1-6.1,7.6-9.7,10.6C85.7,310.1,83.2,311.2,80.6,311.3L80.6,311.3z M133,185.2l-0.8,0.4 c-2.8,1.1-5.5,2.1-8.1,3.3l-42.3,19.1l-20.9,9.4c-10.4,4.1-20.4,9.7-29.6,16.9c-2.5,2.2-4.8,4.7-7,7.3c-0.8,0.9-1,2.4-0.3,3.5 c0.8,1.7,1.7,3.3,2.8,4.8c4,5.4,9.2,9.1,15.1,10.6c11.2,2.9,20.1,13.1,22.9,26.5c0.2,0.8,0.4,1.6,0.6,2.4c0.3,1.4,0.7,2.7,1.1,4 l0.8,2c1.3,3.4,2.9,6.6,4.8,9.6c3.4,5.7,10.1,7,14.8,2.9c0.1-0.1,0.2-0.2,0.3-0.2c3.5-2.8,6.7-6.3,9.5-10.2 c7-10.4,12.8-22,16.9-34.4c1-3,2-6.1,2.9-9.1l0,0c1.2-4,2.5-8.1,3.9-12.1c6.1-17.9,10.3-36.6,12.4-55.8L133,185.2z M250.6,277.9 c-1.4-0.1-2.7-0.5-4-1.2c-8.9-4.4-16.9-10.9-23.8-19.1c-6.1-6.9-12.1-13.8-17.9-20.4l-0.3-0.3c-5.6-6.4-11.4-13.1-16.9-19.6 c-5.5-6.5-11.3-12.5-16.9-18.6l-0.4-0.5l-9.9-10.8c-0.9-1-1.7-2.1-2.5-3.2l-0.5-0.7l0.7-0.4l1-0.4c18.8-7.4,38.3-12,58-13.5 c5.6-0.7,10.8-1,15.9-1c8.7-0.1,17.4,1,25.9,3.3c4.1,1.1,7.9,3,11.6,5.5c6,3.6,8.5,12.4,5.5,19.6c0,0.1-0.1,0.2-0.1,0.2 c-1.8,4.8-4.4,9.1-7.6,12.8l-0.7,1c-3.4,4.4-6.5,9.2-9.2,14.4c-3,6.9-3.6,15-1.7,22.4c1.5,7.5,1.2,15.3-0.9,22.6 c-0.3,0.8-0.5,1.5-0.8,2.2C253.3,277.1,252.1,277.9,250.6,277.9z M159.1,184c0.7,0.9,1.3,1.6,1.9,2.4c3.3,3.6,6.6,7.3,9.9,10.8 l0.4,0.5c5.6,6,11.3,12.3,16.9,18.6s11.6,13.2,16.9,19.6l0.3,0.3c5.8,6.7,11.8,13.6,17.9,20.4c6.7,8.1,14.7,14.4,23.4,18.8 c1.1,0.6,2.4,1,3.6,1.1c0.8,0,1.7,0,3.6-4.8c0.3-0.7,0.5-1.4,0.7-2.1c2.1-7,2.4-14.7,0.9-21.9c-2-7.7-1.4-16.1,1.8-23.3 c2.8-5.1,5.9-10,9.5-14.4l0.8-1c3.1-3.6,5.6-7.8,7.4-12.5c2.8-6.6,0.7-14.8-4.7-18.2c-0.1,0-0.1-0.1-0.2-0.1 c-3.5-2.4-7.3-4.1-11.3-5.1c-8.4-2.2-17-3.3-25.7-3.3c-5,0-10.2,0.3-15.8,1c-19.7,1.5-39.1,5.9-57.9,13.2L159.1,184z M144.7,182.1 c-2.5,0-4.6-2.5-4.6-5.6s2.1-5.6,4.6-5.6c2.5,0,4.6,2.5,4.6,5.6S147.3,182.1,144.7,182.1L144.7,182.1z M144.7,172.2 c-2,0-3.6,1.9-3.6,4.3c0,2.4,1.6,4.3,3.6,4.3c2,0,3.6-1.9,3.6-4.3C148.2,174.2,146.7,172.3,144.7,172.2z M61.9,179.5 c-9.6,0.2-19.1-1.1-28.4-3.6c-5.2-1.5-10.2-3.9-14.9-7.1c-5.8-3.2-8.4-11.5-5.7-18.5c0.3-0.7,0.6-1.3,0.9-2c1.7-3.5,3.8-6.8,6.2-9.8 l2.4-3.2c1.1-1.5,2.2-3,3.4-4.4c1.8-2.2,3.5-4.6,5.1-7.1c3.6-6,5.1-13.4,4.2-20.7v-0.9c-0.6-3.9-0.9-7.9-1.1-11.9 c-0.1-5.9,1.1-11.7,3.5-16.9c1.7-3.7,2.8-4.5,4.2-4.5c1.2,0.1,2.4,0.5,3.5,1.1c7.1,3.6,13.5,8.8,18.9,15.3 c8.8,10.5,17.6,21.6,26.1,32.3l6.3,7.9c2.3,2.9,4.5,5.8,6.7,8.6c3,3.9,6.1,8,9.3,11.9c3.2,3.9,6.8,7.8,9.9,11.2l0,0 c2.1,2.4,4.2,4.7,6.3,7.1c0.7,0.8,1.3,1.7,2.1,2.9l0.5,0.7l-0.7,0.3l-1.3,0.5c-18.2,6-36.9,9.2-55.7,9.7 C69.3,179.2,65.5,179.5,61.9,179.5z M41.6,70.5c-0.6,0-1.5,0-3.2,3.8c-2.3,5-3.5,10.6-3.4,16.3c0,3.8,0.5,7.7,0.9,11.4v1 c1,7.6-0.5,15.4-4.2,21.7c-1.6,2.5-3.4,4.9-5.2,7.2c-1.1,1.4-2.3,2.9-3.3,4.4c-1.1,1.5-1.6,2.2-2.4,3.3c-2.3,2.8-4.4,6-6.1,9.4 c-3.3,5.9-2,13.8,2.9,17.8c0.5,0.4,1,0.8,1.6,1.1c4.6,3.1,9.6,5.3,14.8,6.7c9.2,2.6,18.7,3.8,28.2,3.6c3.6,0,7.4,0,11.6-0.4 c18.7-0.5,37.3-3.7,55.4-9.7h0.6c-0.5-0.7-1-1.4-1.5-2.1l-6.3-7.1l0,0c-3.1-3.5-6.6-7.4-9.9-11.3s-6.3-8-9.4-11.9 c-2.2-2.9-4.2-5.8-6.6-8.6l-6.3-7.9C80.9,108,71.9,97.1,63.5,86.5C58.2,80,51.9,74.7,44.9,71.1c-1-0.5-2.2-0.8-3.3-0.8L41.6,70.5z M155.2,169.2v-1c0.3-1.6,0.4-3.1,0.6-4.5c3.6-29.4,13.7-56.7,22.6-80.7c4.1-10.5,9.4-20.3,15.9-28.9c2-2.7,4.2-5.1,6.5-7.3 c2.8-2.8,6.2-4.4,9.8-4.6c5,0.4,9.5,4,11.7,9.5c1.3,2.8,2.3,5.7,3.2,8.7c0.3,1,0.7,2,1,3.1c0.4,1.1,0.7,2.2,0.9,3.3 c0.3,1.3,0.6,2.5,1,3.6c3.1,11.2,10.9,19.7,20.5,22.2c6.1,1.7,11.6,5.7,15.8,11.3l0.8,1c2.1,3,2.9,5.1,2.8,6.7 c-0.1,1.6-1.2,3.5-3.6,5.9c-7.2,7-15.3,12.3-24.1,15.8c-7.5,3.2-15.1,6.3-22.5,9.3l0,0c-7.4,3-15.6,6.6-23.3,9.7 c-7.2,3-14.6,6.3-21.6,9.5h-0.2l-13.1,5.8c-1.1,0.5-2.2,0.8-3.6,1.3L155.2,169.2z M210.5,43.3c-3.4,0.2-6.6,1.7-9.1,4.3 c-2.3,2.1-4.4,4.4-6.2,7c-6.4,8.5-11.7,18.2-15.7,28.6c-8.9,24-19,51.1-22.6,80.4c0,1.1-0.3,2.3-0.5,3.6l2.8-1 c4.2-1.9,8.7-3.9,13-5.8h0.3c7.1-3.2,14.3-6.4,21.6-9.5c8-3.4,16.1-6.7,23.4-9.7l0,0c7.4-3,15-6.1,22.5-9.3 c8.6-3.3,16.7-8.5,23.7-15.3c2.1-2.1,3.2-3.8,3.3-5.1c0.1-1.3-0.4-3.5-2.4-6.1l-0.7-0.9c-4.1-5.4-9.4-9.3-15.3-10.9 c-9.9-2.6-17.9-11.3-21.2-22.9c-0.4-1.2-0.7-2.4-1-3.5s-0.6-2.3-0.9-3.4l-1-3.1c-0.8-2.9-1.8-5.8-3.1-8.5 C219.4,47,215.2,43.6,210.5,43.3z M144.2,162.1l-0.7-0.6l-0.9-0.8c-12.2-11.4-23.4-24.2-33.5-38.3c-7-9.1-13.6-18.7-19.8-28.7 c-5.7-9.1-10.1-19.3-13.2-30.1c-0.6-2.3-1.1-4.7-1.4-7.2c-1-5-0.1-10.3,2.4-14.5c2.8-3.8,6.8-6,11-6l0,0c2.7-0.1,5.4,0.1,8.1,0.6 h0.3L99,37c1.1,0,2.2,0.4,3.3,0.6c1.1,0.2,2.4,0.5,3.6,0.6c9.4,1.4,18.7-3.1,24.6-12c4.1-5.9,9.7-10,15.9-11.9 c1.7-0.5,3.5-0.8,5.3-0.8l0,0c1.7-0.2,3.2,1.2,3.5,3.2c0.8,3.4,1.4,6.8,1.9,10.2c0.9,13.2,0.4,26.5-1.7,39.5l-1.2,10.2 c-2.7,23.6-5.4,47.2-8.1,70.9c-0.4,3.6-1,7.3-1.6,11.1L144.2,162.1z M88.4,37.4c-3.9,0-7.6,2-10.2,5.5c-2.2,4-3,8.9-2,13.5 c0.3,2.4,0.7,4.7,1.4,7C80.4,74,84.7,84,90.2,93c6.2,10,12.8,19.5,19.8,28.6c10.1,14,21.3,26.8,33.4,38.1l0,0v-1 c0.6-3.8,1.1-7.5,1.5-11c2.8-23.6,5.5-47.3,8.2-70.9l1.2-10.2c2-12.9,2.5-26,1.6-39c-0.4-3.5-1-6.9-1.8-10.2 c-0.2-1.4-1.3-2.4-2.5-2.2c-1.7,0.1-3.4,0.3-5.1,0.8c-6,1.8-11.4,5.8-15.3,11.5c-6.2,9.1-15.7,13.7-25.4,12.2 c-1.3,0-2.5-0.4-3.7-0.6c-1-0.3-2.1-0.4-3.2-0.6L96.4,38h-0.3C93.6,37.5,91,37.3,88.4,37.4z"></path><path fill="#5B4168" d="M144.6,181.7c-1.6,0-3.1-1.3-3.5-3.2c-0.3-1.2-0.2-2.4,0.3-3.5c0.6-1.1,1.5-2,2.6-2.3c4.2-1.6,8-4.2,11.4-7.6 c7.6-7.2,14.5-15.3,20.6-24.3c8.4-11.8,15.7-24.8,21.6-38.6c2.5-5.8,4.4-11.9,5.6-18.2c0-0.6,0.3-2.2,0.3-2.2v-0.9 c0-0.6,0-1.3,0-1.9c0.4-2.4,2.4-3.9,4.3-3.4c1.5,0.4,2.6,1.8,2.8,3.6c0.1,0.9,0.1,1.8,0,2.8c-0.7,5.9-2.1,11.7-4.2,17.1 c-4.9,13.2-11.1,25.7-18.5,37.2c-6.7,11.3-14.4,21.7-22.8,31c-4.5,4.9-9.5,9.1-14.9,12.4c-1.3,0.7-2.6,1.4-4,1.9 C145.6,181.6,145.1,181.7,144.6,181.7z"></path><path fill="#5B4168" d="M144.6,182.3c-1.9,0.1-3.7-1.4-4.2-3.7c-0.3-1.4-0.2-2.9,0.5-4.2c0.6-1.3,1.7-2.3,2.9-2.6 c4.1-1.6,7.9-4.1,11.2-7.5c7.6-7.1,14.4-15.3,20.5-24.2c8.4-11.8,15.6-24.7,21.5-38.4c2.6-5.7,4.5-11.8,5.8-18.1l0.3-2.2v-0.9 c0-0.7,0-1.3,0-2c0.7-2.7,3-4.2,5.3-3.4c1.4,0.5,2.5,1.9,2.9,3.7c0.1,1,0.1,2,0,3c-0.7,6-2.1,11.8-4.2,17.3 c-5,13.3-11.2,25.8-18.6,37.3c-6.9,11.4-14.7,21.9-23.4,31.3c-4.5,5-9.5,9.1-14.9,12.4c-1.4,0.8-2.8,1.4-4.2,1.9 C145.5,182.2,145.1,182.3,144.6,182.3z M207.3,75.9c-1.5,0-2.7,1.3-3,3c0,0.6,0,1.2,0,1.9v1c0,0-0.3,1.7-0.4,2.3 c-1.3,6.4-3.2,12.6-5.8,18.4c-6,13.9-13.2,26.9-21.7,38.7c-6.1,9-13,17.2-20.6,24.4c-3.4,3.5-7.3,6.1-11.6,7.7c-0.9,0.3-1.7,1-2.2,2 c-0.4,0.9-0.5,2-0.2,3c0.5,2.1,2.3,3.2,4,2.6c0.1,0,0.2-0.1,0.2-0.1c1.3-0.5,2.7-1.1,3.9-1.8c5.3-3.3,10.3-7.4,14.7-12.2 c8.7-9.3,16.6-19.7,23.5-31c7.3-11.4,13.5-23.9,18.4-37.1c2.1-5.3,3.5-11,4.2-16.9c0.1-0.9,0.1-1.7,0-2.6c-0.1-2-1.6-3.5-3.3-3.3 C207.5,75.9,207.4,75.9,207.3,75.9z"></path><path fill="#5B4168" d="M209.2,71.2c-1.9-0.3-3.3-2.4-3.1-4.7c0.1-2.2,1.6-3.9,3.4-3.9c2.1,0.1,3.6,2.2,3.6,4.7c0,0,0,0,0,0.1 c-0.1,2.2-1.6,3.9-3.4,3.9L209.2,71.2z"></path><path fill="#5B4168" d="M209.6,72.2h-0.5c-2.2-0.4-3.8-2.7-3.6-5.4c0-2.6,1.7-4.8,3.9-4.8c0,0,0.1,0,0.1,0c2.3,0,4.2,2.3,4.2,5.1 c0,0.1,0,0.2,0,0.3c0,2.6-1.7,4.7-3.8,4.8C209.8,72.2,209.7,72.2,209.6,72.2z M209.2,70.9h0.4c1.5,0,2.8-1.5,2.8-3.3 c0.1-2.1-1.1-3.9-2.8-4c-0.1,0-0.1,0-0.2,0c-1.5,0-2.8,1.4-2.9,3.3c-0.1,1.9,1.1,3.6,2.7,3.8V70.9z"></path><path fill="#5B4168" d="M188.5,112.5c-1,0-1.9-0.5-2.6-1.4c-0.7-0.9-1-2.1-0.9-3.3c0.2-2.2,1.7-3.8,3.5-3.8c2,0.1,3.6,2.1,3.5,4.5 c0,0,0,0,0,0.1C191.9,110.8,190.4,112.6,188.5,112.5C188.5,112.5,188.5,112.5,188.5,112.5L188.5,112.5z"></path><path fill="#5B4168" d="M188.5,113.1L188.5,113.1c-2.3-0.1-4.1-2.3-4.1-5.1c0.2-2.5,1.9-4.4,4-4.4c2.3,0,4.2,2.3,4.2,5.1 C192.5,111.3,190.7,113.2,188.5,113.1z M188.5,111.8L188.5,111.8c1.6,0,2.8-1.5,2.9-3.4c0-1-0.3-1.9-0.8-2.7 c-0.6-0.8-1.4-1.2-2.2-1.2c-1.5,0-2.7,1.4-2.9,3.2c-0.1,1,0.2,2.1,0.8,2.9c0.5,0.8,1.3,1.3,2.2,1.3L188.5,111.8z"></path><path fill="#5B4168" d="M192.6,101.9c-1-0.1-1.9-0.6-2.5-1.5c-0.6-0.9-0.9-2.1-0.8-3.2c0.2-2.1,1.6-3.8,3.4-3.8c1.9,0,3.5,1.9,3.5,4.3 c0,0.1,0,0.2,0,0.3c0,2.2-1.5,3.9-3.3,3.9L192.6,101.9z"></path><path fill="#5B4168" d="M192.9,102.5h-0.3c-1.1-0.1-2.1-0.7-2.8-1.7c-0.7-1-1.1-2.4-1-3.7c0.2-2.5,1.9-4.4,4-4.3c2.3,0,4.2,2.3,4.2,5.1 c0,2.6-1.8,4.7-4,4.7C192.9,102.5,192.9,102.5,192.9,102.5z M192.9,101.2L192.9,101.2c1.5,0,2.8-1.5,2.8-3.4c0.1-2-1.2-3.8-2.9-3.9 c0,0-0.1,0-0.1,0c-1.5,0-2.7,1.4-2.9,3.2c-0.1,1,0.2,2,0.8,2.7c0.5,0.8,1.3,1.2,2.1,1.3H192.9z"></path><path fill="#5B4168" d="M182.2,123.3c-0.9,0-1.8-0.5-2.4-1.4c-0.6-0.9-0.9-2-0.8-3.1c0.1-2.3,1.8-4,3.7-3.8s3.3,2.2,3.2,4.4 c-0.1,2.2-1.6,3.9-3.4,3.8H182.2z"></path><path fill="#5B4168" d="M182.4,124.1h-0.3c-1.1-0.1-2-0.7-2.8-1.6c-1.4-2.1-1.2-5.1,0.5-6.8c0.7-0.7,1.6-1.1,2.5-1.1 c1.2,0.1,2.2,0.7,3,1.7c0.7,1,1,2.2,1,3.4C186.2,122.2,184.5,124.2,182.4,124.1z M182.4,122.9h0.3c1.6,0,2.9-1.5,2.9-3.5 c0-0.8-0.2-1.6-0.7-2.3c-0.6-0.8-1.4-1.3-2.3-1.3c-1.5,0-2.7,1.5-2.8,3.3c-0.1,0.9,0.2,1.9,0.7,2.6c0.5,0.6,1.1,1.1,1.8,1.2H182.4z"></path><path fill="#5B4168" d="M202.6,133.2c-0.9,0-1.8-0.5-2.4-1.4c-0.6-0.8-0.9-1.9-0.8-3c0.1-2.3,1.8-4,3.7-3.9c1.9,0.2,3.3,2.1,3.2,4.4 c-0.1,2.2-1.6,3.9-3.4,3.9L202.6,133.2z"></path><path fill="#5B4168" d="M202.8,133.9h-0.3c-1-0.1-2-0.7-2.7-1.6c-0.7-1-1.1-2.2-1-3.5c0.1-2.5,1.9-4.5,3.9-4.4c1.1,0,2.2,0.7,3,1.7 c1.4,2,1.3,5-0.4,6.7C204.7,133.5,203.8,133.9,202.8,133.9z M202.8,132.6h0.3c1.6,0,2.9-1.6,2.9-3.5c0-0.8-0.3-1.7-0.7-2.3 c-0.6-0.7-1.4-1.2-2.2-1.2c-1.6,0-2.9,1.6-2.9,3.6c0,0.8,0.3,1.6,0.7,2.2c0.5,0.6,1.1,1,1.8,1.2H202.8z"></path><path fill="#5B4168" d="M196.2,90.7c-1.9-0.1-3.3-2.1-3.2-4.4c0.1-2.3,1.7-4,3.6-3.9l0,0c1.9,0,3.5,2,3.4,4.3c0,0.1,0,0.2,0,0.3 c-0.2,2.1-1.7,3.6-3.4,3.6H196.2z"></path><path fill="#5B4168" d="M196.7,91.3h-0.5c-2.2-0.4-3.7-2.8-3.4-5.4c0.3-2.3,1.9-4.1,3.8-4.1c1.2,0.1,2.4,0.8,3.2,1.9 c0.6,1,0.9,2.2,0.8,3.4C200.3,89.5,198.7,91.3,196.7,91.3z M196.3,90h0.4c1.5,0,2.7-1.4,2.8-3.1c0.1-0.9-0.1-1.8-0.6-2.4 c-0.6-0.9-1.4-1.4-2.4-1.5c-1.6,0.1-2.8,1.8-2.7,3.7C193.8,88.4,194.9,89.7,196.3,90L196.3,90z"></path><path fill="#5B4168" d="M214.7,98.5c-1.9-0.3-3.3-2.3-3.1-4.6c0.2-1.9,1.5-3.5,3.1-3.7c1,0,1.9,0.5,2.5,1.3c1.3,1.7,1.2,4.4-0.2,5.9 C216.4,98.1,215.6,98.5,214.7,98.5L214.7,98.5z"></path><path fill="#5B4168" d="M214.9,99.1h-0.2c-2.3-0.1-4.2-2.4-4.1-5.2c0.1-2.8,2-5.1,4.3-5c2.3,0.1,4.2,2.4,4.1,5.2 C219,96.8,217.2,99,214.9,99.1z M214.9,97.8L214.9,97.8c1.5,0,2.8-1.5,2.9-3.4c0-0.9-0.3-1.8-0.8-2.5c-0.6-0.7-1.3-1.1-2.2-1.1 c-1.6,0.2-2.7,2-2.5,3.9C212.5,96.4,213.5,97.6,214.9,97.8L214.9,97.8z"></path><path fill="#5B4168" d="M207.9,121.1c-1.8-0.6-2.9-2.9-2.3-5.1c0.4-1.5,1.3-2.6,2.6-2.9c1.9,0,3.5,1.9,3.4,4.2c0,0.1,0,0.1,0,0.2 c-0.1,2.2-1.6,3.8-3.4,3.8L207.9,121.1z"></path><path fill="#5B4168" d="M208.2,121.8h-0.3c-2.2-0.1-3.9-2.3-3.8-5c0.1-2.7,1.9-4.7,4.1-4.6c1.2,0.1,2.2,0.7,3,1.7 c0.7,0.9,1,2.2,0.9,3.4C212,119.9,210.3,121.8,208.2,121.8z M208,120.5h0.3c1.6,0,2.9-1.5,2.9-3.5c0-0.8-0.2-1.6-0.7-2.3 c-0.6-0.8-1.4-1.3-2.3-1.3c-1.5,0-2.7,1.5-2.8,3.3C205.2,118.6,206.4,120.3,208,120.5C208,120.5,208,120.5,208,120.5z"></path><path fill="#5B4168" d="M211.6,108.4c-1.9-0.1-3.4-2-3.3-4.3c0.1-2.3,1.7-4.1,3.6-4c1.9,0.1,3.4,2,3.3,4.3 C215,106.7,213.5,108.5,211.6,108.4C211.6,108.4,211.6,108.4,211.6,108.4z"></path><path fill="#5B4168" d="M211.6,109.1L211.6,109.1c-2.2-0.1-3.9-2.3-3.8-4.9c0-0.1,0-0.1,0-0.2c0-2.6,1.8-4.6,3.9-4.5c0,0,0,0,0,0 c2.1-0.1,3.9,2,4,4.6c0,0.2,0,0.4,0,0.5C215.6,107.1,213.7,109.2,211.6,109.1z M211.6,108L211.6,108c1.6,0,2.8-1.5,2.9-3.4 c-0.2-1.9-1.6-3.3-3.2-3.1c-1.3,0.2-2.4,1.5-2.5,3.1C208.7,106.5,210,108,211.6,108z"></path></g></svg>
