<svg xmlns="http://www.w3.org/2000/svg" width="20px" viewBox="0 0 289 353"><g><path fill="#C49445" d="M286.6,138l-46.6-47.3l5.9-6l0,0c7.3-7.5,7.3-19.4,0-26.8c-1.8-1.9-3.7-3-5.9-4.1c3.3-7.1,2.2-15.7-3.7-21.2 c-3.3-3.4-7.7-4.8-12.1-5.2c-0.4-4.5-1.8-8.9-5.5-12.3c-5.9-6-14.3-7.1-20.9-3.7c-0.7-2.2-2.2-4.5-4-6c-7-7.1-19.5-7.1-26.4,0 l-21.3,21.6c-3.7,3.7-5.5,8.2-5.5,13.4s1.8,9.7,5.5,13.4c1.8,1.9,3.7,3,5.9,4.1c-1.1,2.6-1.8,5.2-1.8,7.8c0,5.2,1.8,9.7,5.5,13.4 c3.3,3.4,7.7,5.2,12.1,5.6c0.4,4.5,2.2,8.9,5.5,12.3c3.7,3.7,8.4,5.6,13.2,5.6c2.6,0,5.5-0.7,7.7-1.9c1.1,2.2,2.2,4.5,4,6 c3.7,3.7,8.1,5.6,13.2,5.6s9.5-1.9,13.2-5.6l5.9-6L277,148c1.1,1.1,2.9,1.9,4.4,1.9s3.3-0.7,4.4-1.9 C289.2,144.7,289.2,140.6,286.6,138z M155.1,44.1c-1.1-1.1-1.8-2.6-1.8-4.1c0-1.5,0.7-3,1.8-4.1l21.3-21.6c1.1-1.1,2.6-1.9,4-1.9 s2.9,0.7,4,1.9c2.6,1.9,2.6,6,0,8.2l-21.3,21.6C161.4,46.3,157.3,46.3,155.1,44.1z M164.7,69.4c-2.2-2.2-2.2-6,0-8.6l36.7-37.3 c1.1-1.1,2.6-1.9,4-1.9c1.5,0,2.9,0.7,4,1.9c2.2,2.2,2.2,6,0,8.6l-36.7,37.3C170.9,71.6,167.2,71.6,164.7,69.4z M190.7,86.9 c-2.2,2.2-5.9,2.2-8.4,0c-2.2-2.2-2.2-6,0-8.6L219,41.1l0,0c1.1-1.1,2.6-1.9,4-1.9c1.5,0,2.9,0.7,4,1.9c2.2,2.2,2.2,6,0,8.6 L190.7,86.9z M237,75.4L215.7,97c-2.2,2.2-6.2,2.2-8.4,0c-1.1-1.1-1.8-2.6-1.8-4.1s0.7-3,1.8-4.1l21.3-21.6c1.1-1.1,2.6-1.9,4-1.9 c1.5,0,2.9,0.7,4,1.9C239.2,69.4,239.2,73.1,237,75.4z"></path><path fill="#C49445" d="M140.4,132.7c0-2.2,0-8.6-14.2-31.3c-3.7-6.3-14.2-6.3-17.9,0c-14.2,22.7-14.2,29.4-14.2,31.3 c0,15.7,11.9,23.1,23.1,23.1S140.4,148.7,140.4,132.7z M107.3,132.7c0-1.5,2.2-7.8,10.1-21.2c7.8,13.4,10.1,19.8,10.1,21.2 c0,9.3-7.8,10.1-10.1,10.1S107.3,142,107.3,132.7z"></path><path fill="#C49445" d="M50.4,282.9c-8.2,0.7-15.7-0.4-22-2.2c-4.1,16.4-3.7,33.5,7.8,47h79.4c11.9-14.5,11.9-32.8,7.1-49.9 C94.3,269.5,73.1,280.7,50.4,282.9z"></path><path fill="#C49445" d="M145.4,251.3c1.5-0.7,2.6-2.6,3-4.1c0.4-1.9,0-3.7-1.1-5.2l-11.9-16.8c8.6-3,14.5-10.8,14.5-20.1 c0-11.9-9.7-21.2-21.2-21.2H22.8c-11.9,0-21.2,9.7-21.2,21.2c0,9.3,6,17.1,14.5,20.1L4.1,241.9c-1.1,1.5-1.5,3.4-1.1,5.2 c0.4,1.9,1.5,3.4,3,4.1l4.1,2.2c-11.6,27.6-17.9,63,7.5,91.7C22,350,28.4,353,35.5,353h80.9c6.7,0,13.4-3,17.9-7.8 c25-28.7,19-64.5,7.5-92L145.4,251.3z M14.6,205.1c0-4.5,3.7-8.2,8.2-8.2h105.8c4.5,0,8.2,3.7,8.2,8.2c0,4.5-3.7,8.2-8.2,8.2H22.8 C18.3,213.3,14.6,209.5,14.6,205.1z M132.7,243.4l-11.9,7.1l-19-12.7c-2.2-1.5-5.2-1.5-7.5,0l-18.6,12.7l-18.6-12.7 c-2.2-1.5-5.2-1.5-7.5,0l-19,12.7l-11.9-7.1L31,226.3H120L132.7,243.4z M124.1,337c-1.9,2.2-4.8,3.4-7.8,3.4H35.5 c-3,0-6-1.1-8.2-3.4c-20.1-22.7-15.3-52.5-5.6-76.4l6,3.7c2.2,1.1,4.8,1.1,7.1-0.4l19-12.7l18.6,12.7c1.1,0.7,2.2,1.1,3.7,1.1 c1.1,0,2.6-0.4,3.7-1.1l18.6-12.7l19,12.7c2.2,1.5,4.8,1.5,7.1,0.4l6-3.4C139.4,284.4,144.3,313.9,124.1,337z"></path></g></svg>
