<svg xmlns="http://www.w3.org/2000/svg" width="20px" viewBox="0 0 289 353">
<g>
	<path fill="#3B1051" d="M273,99.1c0-2.1-0.8-4.2-2.1-5.9L235,50.1c5.1-5.1,8.5-12.3,8.5-19.9c0-15.2-12.7-27.9-27.9-27.9H74.3
		C59.1,2.3,46.4,15,46.4,30.2c0,8,3.4,14.8,8.5,19.9L18.9,93.2c-1.3,1.7-2.1,3.8-2.1,5.9c0,8.5,7.6,14.8,16.1,19
		c-5.5,8.9-8.5,19-8.5,29.2v146.3c0,30.9,27.5,55.8,61.3,55.8h118.4c33.8,0,61.3-24.9,61.3-55.8l0-146.3c0-10.1-3-20.3-8.5-29.2
		C265.4,113.9,273,107.6,273,99.1L273,99.1z M74.3,20.9h140.8c5.1,0,8.9,3.8,8.9,8.9c0,5.1-3.8,8.9-8.9,8.9l-140.8,0
		c-5.1,0-8.9-3.8-8.9-8.9C65.4,25.1,69.7,20.9,74.3,20.9L74.3,20.9z M73.5,57.7h0.8h140.8h0.8L251,99.5c-4.7,3-13.1,6.3-17.3,6.3
		c-1.7-0.4-6.3-3.8-9.3-5.9c-6.3-5.1-13.1-10.1-20.7-10.1c-7.6,0-14.4,5.1-20.7,10.1c-3,2.1-7.6,5.9-8.9,5.9
		c-1.7-0.4-6.3-3.8-9.3-5.9c-6.3-5.1-13.1-10.1-20.7-10.1c-7.6,0-14.4,5.1-20.7,10.1c-3,2.1-7.6,5.9-8.9,5.9
		c-1.7-0.4-6.3-3.8-9.3-5.9c-6.3-5.1-13.1-10.1-20.7-10.1c-7.6,0-14.4,5.1-20.7,10.1c-3,2.1-7.6,5.9-8.9,5.9
		c-4.2,0-12.7-3.4-17.3-6.3L73.5,57.7z M43.5,280.1V174.4h202.9v105.3H43.5V280.1z M204.1,330.4H85.7c-21.1,0-38.5-13.5-41.4-31.3
		h201.6C242.6,316.8,225.2,330.4,204.1,330.4L204.1,330.4z M246.4,147.3v8.5H43.5v-8.5c0-8,3-16.1,8.5-22.8c1.7,0.4,3,0.4,4.2,0.4
		c7.6,0,14.4-5.1,20.7-10.1c3-2.1,7.6-5.9,8.9-5.9c1.7,0.4,6.3,3.8,9.3,5.9c6.3,5.1,13.1,10.1,20.7,10.1c7.6,0,14.4-5.1,20.7-10.1
		c3-2.1,7.6-5.9,8.9-5.9c1.7,0.4,6.3,3.8,9.3,5.9c6.3,5.1,13.1,10.1,20.7,10.1c7.6,0,14.4-5.1,20.7-10.1c3-2.1,7.6-5.9,8.9-5.9
		c1.7,0.4,6.3,3.8,9.3,5.9c6.3,5.1,13.1,10.1,20.7,10.1c1.3,0,2.5,0,4.2-0.4C243.4,131.3,246.4,139.3,246.4,147.3L246.4,147.3z"/>
</g>
</svg>
