<svg xmlns="http://www.w3.org/2000/svg" width="20px" viewBox="0 0 289 353">
      <path fill="#4D9324" d="M144,304.4c-70.2,0-127.2-56.9-127.2-127.2S73.8,50,144,50s127.2,56.9,127.2,127.2
        C271.1,247.4,214.2,304.2,144,304.4z M144,57.1c-66.3,0-120.1,53.8-120.1,120.1S77.7,297.3,144,297.3s120.1-53.8,120.1-120.1l0,0
        C264.1,110.9,210.3,57.1,144,57.1z"/>
      <path fill="#4D9324" d="M144,320.2c-79,0-143-64-143-143c0-79,64-143,143-143c79,0,143,64,143,143c0,0,0,0,0,0
        C286.9,256.1,223,320.1,144,320.2z M144,41.3C69,41.3,8.1,102.1,8.1,177.2S69,313.1,144,313.1s135.9-60.8,135.9-135.9l0,0
        C279.8,102.2,219.1,41.4,144,41.3z"/>
      <path fill="#4D9324" d="M144,205.9c-15.8,0-28.7-12.8-28.7-28.7s12.8-28.7,28.7-28.7s28.7,12.8,28.7,28.7S159.9,205.9,144,205.9z
        M144,155.8c-11.9,0-21.5,9.6-21.5,21.5c0,11.9,9.6,21.5,21.5,21.5s21.5-9.6,21.5-21.5c0,0,0-0.1,0-0.1
        C165.5,165.3,155.9,155.7,144,155.8L144,155.8z"/>
      <ellipse fill="#4D9324" cx="80.3" cy="177.2" rx="17.5" ry="5"/>
      <path fill="#4D9324" d="M80.3,185.7c-3.5,0-21.1-0.4-21.1-8.5s17.6-8.5,21.1-8.5c3.5,0,21.1,0.4,21.1,8.5S83.8,185.7,80.3,185.7z
        M68.5,177.2c3.9,1,7.8,1.5,11.8,1.4c4,0.1,7.9-0.4,11.8-1.4c-3.8-1-7.8-1.5-11.8-1.4C76.3,175.7,72.3,176.2,68.5,177.2z
        M94.6,178.3L94.6,178.3z"/>
      <ellipse fill="#4D9324" cx="205.3" cy="177.2" rx="17.5" ry="5"/>
      <path fill="#4D9324" d="M205.3,185.7c-3.5,0-21.1-0.4-21.1-8.5s17.6-8.5,21.1-8.5s21.1,0.4,21.1,8.5S208.8,185.7,205.3,185.7z
        M193.5,177.2c7.8,1.9,15.9,1.9,23.6,0C209.3,175.3,201.2,175.3,193.5,177.2z M219.6,178.3L219.6,178.3z"/>
      <ellipse fill="#4D9324" cx="144" cy="115.3" rx="5" ry="17.5"/>
      <path fill="#4D9324" d="M144,136.4c-8.1,0-8.5-17.6-8.5-21.1s0.4-21,8.5-21s8.5,17.6,8.5,21.1C152.5,118.9,152.1,136.4,144,136.4z
        M144,103.5c-1,3.9-1.5,7.8-1.4,11.8c-0.1,4,0.4,8,1.4,11.8c1-3.9,1.5-7.8,1.4-11.8C145.5,111.4,145.1,107.4,144,103.5L144,103.5z"
        />
      <ellipse fill="#4D9324" transform="matrix(0.7071 -0.7071 0.7071 0.7071 -38.3178 173.2622)" cx="190" cy="132.9" rx="17.5" ry="5"/>
      <path fill="#4D9324" d="M179.1,149.3c-1.4,0-2.8-0.5-3.9-1.5c-2.2-2.2-2-5.7,0.6-10.3c2.3-3.9,5.1-7.4,8.3-10.6
        c2.5-2.5,15.2-14.6,20.9-8.9l0,0c5.7,5.7-6.4,18.4-8.9,20.9c-3.2,3.2-6.8,6-10.7,8.3C183.5,148.4,181.4,149.1,179.1,149.3z
        M198.2,124.5c-6.8,4.1-12.6,9.9-16.7,16.7c3.5-2,6.6-4.5,9.4-7.4C193.7,131.1,196.2,127.9,198.2,124.5z"/>
      <ellipse fill="#4D9324" transform="matrix(0.7071 -0.7071 0.7071 0.7071 -126.6265 137.2872)" cx="102.4" cy="221.5" rx="17.5" ry="5"/>
      <path fill="#4D9324" d="M91.3,237.9c-1.4,0-2.8-0.5-3.8-1.5c-5.7-5.7,6.4-18.4,8.9-20.9s15.2-14.6,20.9-8.9l0,0
        c5.7,5.7-6.4,18.4-8.9,20.9C105.9,230,97.6,237.9,91.3,237.9z M110.7,213.2c-6.8,4.1-12.5,9.9-16.7,16.7c3.5-2,6.6-4.5,9.4-7.4
        C106.3,219.7,108.7,216.6,110.7,213.2L110.7,213.2z"/>
      <ellipse fill="#4D9324" cx="144" cy="239" rx="5" ry="17.5"/>
      <path fill="#4D9324" d="M144,260c-8.1,0-8.5-17.6-8.5-21.1s0.4-21,8.5-21s8.5,17.6,8.5,21.1S152.1,260,144,260z M144,227.2
        c-1.9,7.8-1.9,15.9,0,23.6C145.9,243.1,145.9,235,144,227.2z"/>
      <ellipse fill="#4D9324" transform="matrix(0.7071 -0.7071 0.7071 0.7071 -102.1241 196.4688)" cx="186.1" cy="221.5" rx="5" ry="17.5"/>
      <path fill="#4D9324" d="M197.2,237.9c-6.4,0-15-8.4-17.1-10.4s-14.6-15.3-8.9-20.9l0,0c5.7-5.7,18.4,6.4,20.9,8.9
        c2.5,2.5,14.6,15.2,8.9,20.9C200,237.4,198.6,238,197.2,237.9z M177.7,213.2c4.1,6.8,9.9,12.5,16.7,16.7
        C190.3,223,184.6,217.3,177.7,213.2z"/>
      <ellipse fill="#4D9324" transform="matrix(0.7071 -0.7071 0.7071 0.7071 -67.4131 112.7529)" cx="102.4" cy="137.8" rx="5" ry="17.5"/>
      <path fill="#4D9324" d="M113.4,154.2c-2.3-0.2-4.5-0.9-6.4-2.1c-4-2.3-7.6-5.1-10.8-8.3c-2.5-2.5-14.6-15.2-8.9-20.9
        c2.2-2.2,5.7-2,10.4,0.6c3.9,2.3,7.4,5.1,10.6,8.3c3.2,3.1,6,6.7,8.3,10.6c2.6,4.7,2.8,8.1,0.6,10.3
        C116.2,153.7,114.8,154.2,113.4,154.2z M94,129.4c2,3.4,4.5,6.6,7.4,9.4c2.8,2.9,5.9,5.4,9.4,7.4c-2-3.4-4.5-6.6-7.4-9.4
        C100.6,133.9,97.5,131.4,94,129.4z"/>
    </svg>
