<svg xmlns="http://www.w3.org/2000/svg" width="20px" viewBox="0 0 289 353">
<path fill="#A188AA" d="M270.4,1c-0.3,0-0.6,0-1,0c-8.7,0.4-17,3.9-23.6,9.9c-6.6,6-11,14.3-12.6,23.4c-1.6-6.2-4.6-12-8.8-16.7
	c-3.6-4.1-8.6-6.4-13.8-6.4c-5.2,0-10.3,2.3-13.8,6.4c-9.3,10.7-12.5,25.8-8.4,39.7c-0.2-0.3-0.4-0.5-0.7-0.8
	c-3.6-4.1-8.6-6.4-13.8-6.4c-5.2,0-10.2,2.3-13.8,6.4c-4.6,5.3-7.7,11.7-9.2,18.7c-1.5,7-1.2,14.2,0.8,21.1
	c-0.2-0.3-0.4-0.5-0.7-0.8c-3.6-4.1-8.6-6.4-13.8-6.4c-5.2,0-10.2,2.3-13.8,6.4c-9.3,10.7-12.5,25.8-8.4,39.7
	c-0.2-0.3-0.4-0.5-0.7-0.8c-3.6-4.1-8.6-6.4-13.8-6.4c-5.2,0-10.2,2.3-13.8,6.4c-6.5,7.5-10.2,17.4-10.2,27.6
	c0,10.2,3.6,20.1,10.2,27.6c3.4,4,8.3,6.3,13.4,6.4c-24.6,24.6-43.4,54.9-55.1,88.5c0.3-32.2-7.5-63.8-22.5-91.7
	c-1.4-2.6-3.7-4.5-6.4-5.2c-2.7-0.7-5.6-0.2-8,1.3c-2.4,1.6-4,4.1-4.6,7c-4.6,23.4-4.2,47.5,1,70.8C9.9,290,20,311.7,34.1,330.3
	c-0.9,6.5-1.6,13.1-2,19.7c-0.1,0.7,0.2,1.5,0.6,2s1.1,0.9,1.8,1c0.7,0,1.4-0.2,1.9-0.7c0.5-0.5,0.8-1.2,0.9-1.9
	c3.5-58.1,28-112.5,68.3-152c-0.8,6.4,1.4,12.9,5.9,17.3c7.1,6.9,16.4,10.8,26,10.8c9.6,0,18.9-3.9,26-10.8c3.9-3.8,6-9.1,6-14.7
	c0-5.6-2.2-10.9-6-14.7c-0.2-0.2-0.5-0.5-0.8-0.7c6.4,2.1,13.3,2.4,19.8,0.9c6.6-1.6,12.6-4.9,17.6-9.8c3.9-3.8,6-9.1,6-14.7
	c0-5.6-2.2-10.9-6-14.7c-0.2-0.2-0.5-0.5-0.7-0.7c13.1,4.3,27.3,0.9,37.4-8.9c3.9-3.8,6-9.1,6-14.7c0-5.6-2.2-10.9-6-14.7
	c-0.2-0.2-0.5-0.5-0.7-0.7c6.4,2.1,13.3,2.4,19.8,0.9c6.6-1.6,12.6-4.9,17.6-9.8c3.9-3.8,6-9.1,6-14.7c0-5.6-2.2-10.9-6-14.7
	c-4.5-4.4-9.9-7.6-15.8-9.3c8.5-1.7,16.3-6.4,22-13.4c5.7-7,9-15.8,9.3-25c0.2-5.4-1.6-10.6-5.1-14.5C280.4,3.3,275.5,1.1,270.4,1
	L270.4,1z M270.4,6.5L270.4,6.5c3.7,0,7.2,1.7,9.7,4.5c2.5,2.8,3.9,6.6,3.7,10.5c-0.3,8.8-3.8,17.2-9.7,23.5
	c-5.9,6.3-13.8,9.9-22.1,10.3c-3.8,0.2-7.5-1.4-10.2-4.2c-2.7-2.9-4.1-6.8-4-10.8c0.3-8.9,3.8-17.2,9.7-23.5
	c5.9-6.3,13.8-9.9,22.1-10.3C269.9,6.5,270.1,6.5,270.4,6.5L270.4,6.5z M211.1,16.6L211.1,16.6c3.7,0.1,7.2,1.8,9.7,4.6
	c5.7,6.5,8.8,15.1,8.8,23.9c0,8.9-3.1,17.4-8.8,23.9c-2.6,3-6.2,4.7-10,4.7c-3.8,0-7.4-1.7-10-4.7c-5.7-6.5-8.8-15.1-8.8-23.9
	c0-8.9,3.1-17.4,8.8-23.9C203.4,18.2,207.2,16.5,211.1,16.6L211.1,16.6z M234.5,49.4L234.5,49.4c1.9,4.2,5,7.5,8.9,9.5
	c-4.3,0.5-8.5,1.7-12.4,3.7C232.9,58.4,234,54,234.5,49.4L234.5,49.4z M174.4,55.6L174.4,55.6c3.7,0.1,7.2,1.8,9.7,4.6
	c5.7,6.5,8.8,15,8.8,23.9c0,8.9-3.1,17.4-8.8,23.9c-2.6,3-6.2,4.7-10,4.7c-3.8,0-7.4-1.7-10-4.7c-5.7-6.5-8.8-15-8.8-23.9
	c0-8.9,3.1-17.4,8.8-23.9C166.7,57.2,170.5,55.5,174.4,55.6L174.4,55.6z M248.9,64.2L248.9,64.2c7.8,0.4,15.3,3.7,21,9.3
	c2.8,2.7,4.4,6.6,4.4,10.6c0,4-1.6,7.9-4.4,10.6c-6.1,6-14.2,9.3-22.5,9.3c-8.3,0-16.4-3.3-22.5-9.3c-2.8-2.7-4.4-6.6-4.4-10.6
	c0-4,1.6-7.9,4.4-10.6C231.4,67.1,240.1,63.8,248.9,64.2L248.9,64.2z M196.3,72L196.3,72c0.2,0.3,0.4,0.5,0.7,0.8
	c2.4,2.8,5.5,4.7,8.9,5.7c3.4,1,7,0.9,10.4-0.2c-1,3.6-1.1,7.4-0.1,11c0.9,3.6,2.8,6.9,5.4,9.4c0.2,0.2,0.5,0.5,0.7,0.7
	c-9.2-3-19.1-2.3-27.8,2.1C198.4,92.3,199.1,81.8,196.3,72L196.3,72z M137.7,94.5L137.7,94.5c3.7,0.1,7.2,1.8,9.7,4.6
	c5.7,6.5,8.8,15,8.8,23.9c0,8.9-3.1,17.4-8.8,23.9c-2.6,3-6.2,4.7-10,4.7c-3.8,0-7.4-1.7-10-4.7c-5.7-6.5-8.8-15-8.8-23.9
	c0-8.9,3.1-17.4,8.8-23.9C130,96.1,133.8,94.4,137.7,94.5L137.7,94.5z M212.2,103.2L212.2,103.2c7.8,0.4,15.3,3.7,21,9.3
	c2.8,2.7,4.4,6.6,4.4,10.6c0,4-1.6,7.9-4.4,10.6c-6.1,6-14.2,9.3-22.5,9.3c-8.3,0-16.4-3.3-22.5-9.3c-2.8-2.7-4.4-6.6-4.4-10.6
	c0-4,1.6-7.9,4.4-10.6C194.7,106.1,203.4,102.7,212.2,103.2L212.2,103.2z M159.6,111L159.6,111c0.2,0.3,0.4,0.5,0.7,0.8
	c2.4,2.8,5.5,4.7,8.9,5.7c3.4,1,7,0.9,10.4-0.1c-1,3.6-1.1,7.4-0.1,11c0.9,3.6,2.8,6.9,5.4,9.4c0.2,0.2,0.5,0.5,0.7,0.7
	c-9.2-3-19.1-2.3-27.8,2.1C161.8,131.3,162.5,120.7,159.6,111L159.6,111z M101.1,133.5L101.1,133.5c3.7,0.1,7.2,1.8,9.6,4.7
	c5.7,6.5,8.8,15,8.8,23.9c0,8.9-3.1,17.4-8.8,23.9c-2.6,3-6.2,4.7-10,4.7c-3.8,0-7.4-1.7-10-4.7c-5.7-6.5-8.8-15-8.8-23.9
	c0-8.9,3.1-17.4,8.8-23.9C93.4,135.1,97.1,133.4,101.1,133.5L101.1,133.5z M175.6,142.1L175.6,142.1c7.8,0.4,15.3,3.7,21,9.3
	c2.8,2.7,4.4,6.6,4.4,10.6c0,4-1.6,7.9-4.4,10.6c-6.1,6-14.2,9.3-22.5,9.3c-8.3,0-16.4-3.3-22.5-9.3c-2.8-2.7-4.4-6.6-4.4-10.6
	c0-4,1.6-7.9,4.4-10.6C158.1,145,166.7,141.7,175.6,142.1L175.6,142.1z M122.9,149.9L122.9,149.9c0.2,0.3,0.4,0.5,0.7,0.8
	c2.4,2.8,5.5,4.7,8.9,5.7s7,0.9,10.4-0.2c-1,3.6-1.1,7.4-0.1,11c0.9,3.6,2.8,6.9,5.4,9.4c0.2,0.2,0.5,0.5,0.7,0.7
	c-9.2-3-19.1-2.3-27.8,2.1C125.1,170.2,125.8,159.7,122.9,149.9L122.9,149.9z M138.9,181.1L138.9,181.1c7.8,0.4,15.3,3.7,21,9.3
	c2.8,2.7,4.4,6.6,4.4,10.6s-1.6,7.9-4.4,10.6c-6.1,6-14.2,9.3-22.5,9.3c-8.3,0-16.4-3.3-22.5-9.3c-2.8-2.7-4.4-6.6-4.4-10.6
	s1.6-7.9,4.4-10.6C121.4,184,130,180.6,138.9,181.1L138.9,181.1z M13.4,192.8L13.4,192.8c1.9-0.1,3.7,1,4.7,2.7
	c18.3,34,25.4,73.5,20.2,112.3c-1.2,5-2.2,10-3.1,15.1c-12.6-17.8-21.5-38.2-26.1-59.9c-4.6-21.7-4.7-44.2-0.5-66
	C9.1,194.7,11.1,192.9,13.4,192.8L13.4,192.8z"/>
</svg>
