<svg xmlns="http://www.w3.org/2000/svg" width="20px" viewBox="0 0 289 353">
<g>
	<path fill="#76964D" d="M121.1,154.4c-0.8,0.2-1.7,0.1-2.5-0.2c-2.1-0.9-3.1-3.3-2.2-5.4L176.2,5.2c0.9-2,3.2-3.1,5.2-2.3l13.1,4.7
		c2.1,0.7,3.2,3,2.6,5.1l-18.2,60.2c-0.7,2.2-3,3.4-5.2,2.8c-2.2-0.7-3.4-3-2.8-5.2l17-56.4l-5.6-2L124,151.9
		C123.4,153.2,122.3,154.1,121.1,154.4L121.1,154.4z"/>
	<path fill="#76964D" d="M144.6,197.1c-2.2,0.5-4.5-0.9-5-3.1c-0.4-1.6,0.2-3.2,1.5-4.2L268.7,78.5l-3.7-4.7L181.3,133
		c-0.4,0.3-0.9,0.5-1.5,0.7c-2.2,0.5-4.5-0.9-5-3.1c-0.4-1.8,0.4-3.5,1.8-4.4l86.8-61.3c1.8-1.3,4.3-0.9,5.7,0.8l8.6,10.9
		c1.4,1.7,1.1,4.3-0.5,5.7l-130.8,114C145.9,196.7,145.3,197,144.6,197.1L144.6,197.1z"/>
	<path fill="#76964D" d="M37.7,351.3c-1.1,0.2-2.2,0.1-3.1-0.5l-21.6-13.5c-2-1.2-2.5-3.8-1.3-5.7l3.2-5.2c-7.6-8.5-10-17.3-6.2-23.4
		c0-0.1,0.1-0.1,0.1-0.2L206.3,19.5c1.3-1.8,3.7-2.3,5.6-1.2l21.5,13.4c1.9,1.2,2.5,3.6,1.4,5.6l-167.4,302c0,0.1-0.1,0.1-0.1,0.2
		c-1.8,2.8-4.7,4.8-8.6,5.7c-4.3,1-9.5,0.7-15.2-0.9l-3.2,5.2C39.7,350.4,38.7,351.1,37.7,351.3L37.7,351.3z M40.7,335.3
		c0.7-0.2,1.5-0.1,2.3,0.1c5.3,1.9,10.4,2.5,13.8,1.7c1.6-0.4,2.7-1,3.3-1.9L225.6,36.7l-14.8-9.2L15.7,307.4
		c-1.5,2.6,0.5,8.7,7.3,15.5c1.4,1.4,1.6,3.5,0.6,5.2l-2.7,4.4l14.5,9.1l2.7-4.4C38.7,336.2,39.7,335.5,40.7,335.3L40.7,335.3z"/>
	<path fill="#76964D" d="M111.8,256.3c-0.4,0.1-0.9,0.1-1.3,0.1l-58-5.5c-2.3-0.2-4-2.2-3.8-4.5c0.2-2.3,2.2-4,4.5-3.8l58,5.5
		c2.3,0.2,4,2.2,3.8,4.5C114.9,254.5,113.5,255.9,111.8,256.3L111.8,256.3z"/>
</g>
</svg>
