<svg xmlns="http://www.w3.org/2000/svg" xmlns:xlink="http://www.w3.org/1999/xlink" width="20px" viewBox="0 0 289 353">
<g>
	<path fill="#8AA36F" d="M268.7,151.6l-12.1-44.9c-0.1-0.4-0.3-0.9-0.5-1.2C230.8,62,167,44.8,122.3,53.8l0,0
		c-7.8,1.2-14.7,5.6-19.2,12l-2.1,0.3c-1.2-3.5-4-13.4-0.6-21.6c2.2-5,6.3-8.8,11.4-10.6c2.5-1,3.6-3.8,2.6-6.3
		c-1-2.5-3.8-3.6-6.3-2.6c-7.5,2.8-13.5,8.5-16.6,15.9c-4.6,11.1-1.2,23.5,0.4,28.3l0,0c-6.4,3.3-11.5,8.6-14.5,15.1
		c-3,6.5-3.8,13.8-2.3,20.8c-18.2,25.7-39.7,55.6-62.3,85.8C1.7,205.6,1.5,218,4.7,233l6.6,25.3l0,0.2l3.9,15l2.6,10.2
		c0,0.7,0.2,1.4,0.5,2c0.1,0.2,0.1,0.5,0.2,0.7c3.6,14,7.1,26.7,7.6,29c0.4,4.6,3,8.8,6.9,11.4c3.4,1.7,7.4,1.9,11,0.7
		c1.5-0.4,3.1-0.9,4.5-1.5c26.5-10.4,53.5-20.7,79.7-30.6l48.5-18.5c31.8-12.1,64.7-24.7,97.2-36.8l0,0c3.8-1.1,7.1-3.4,9.5-6.6
		c2.4-3.2,3.7-7,3.8-11c0.1-0.6,0-1.1-0.1-1.6L268.7,151.6z M101.1,75.9L101.1,75.9c1.2-0.3,2.5-0.5,3.7-0.6
		c0.6,0.1,1.3,0.1,1.9-0.1c7.8,0,15.1,4,19.3,10.6c4.2,6.6,4.7,14.9,1.4,22c-3.3,7.1-10,12-17.8,13c-7.8,1-15.5-2.1-20.5-8.1
		c-5-6-6.6-14.2-4.1-21.6C87.4,83.6,93.5,77.9,101.1,75.9L101.1,75.9z M20.5,196.6c21.2-28.3,41.5-56.5,59-81.1
		c5.8,9,15.6,14.6,26.3,14.9c10.7,0.3,20.8-4.6,27.2-13.2c6.3-8.6,8-19.8,4.5-29.9c-3.5-10.1-11.8-17.8-22.1-20.6
		c2.7-1.9,5.7-3.1,8.9-3.7c50.7-10.2,100.5,13.5,120.8,42.5c-15.8,7-66.7,29.4-116.3,51.2c-61.2,26.9-98.5,43.3-114.3,50.3l0,0
		C15.9,203.3,18,199.8,20.5,196.6L20.5,196.6z M14,231.1c-1-4.1-1.6-8.3-1.7-12.6l120.1-52.9c65.3-28.7,103.2-45.4,116.3-51.2
		l9.6,35.5L19.1,250.7C16.5,241.2,14.5,233.3,14,231.1L14,231.1z M21.6,260.1l239.3-100.8l4.5,17.3L26.2,277.3l-1.6-6.2
		C23.6,267.4,22.6,263.6,21.6,260.1L21.6,260.1z M270.9,231.3c-32.5,12.1-65.4,24.6-97.3,36.8l-48.5,18.4
		c-26.1,10.1-53.2,20.2-79.8,30.6c-5,2-6.8,1.8-7.4,1.3l0,0c-1.3-1.3-2-3-2.1-4.9c-0.5-2.4-3.2-12.1-7-27l239.3-100.8l9.9,36.8
		c0,2-0.7,4-2,5.5C274.6,229.7,272.8,230.8,270.9,231.3L270.9,231.3z"/>
</g>
</svg>
