<svg xmlns="http://www.w3.org/2000/svg" width="20px" viewBox="0 0 289 353"><path fill="#4D9324" d="M171.1,57.4c3.9,1.5,8.2-0.5,9.7-4.4c0,0,0,0,0,0l15.9-42.7c1.4-3.9-0.7-8.2-4.6-9.6c-3.8-1.3-7.9,0.6-9.4,4.3 l-15.9,42.7C165.3,51.6,167.2,55.9,171.1,57.4C171.1,57.4,171.1,57.4,171.1,57.4L171.1,57.4z M192.9,65l6.1,2.7 c1.2,0.5,2.4,1,3.7,1.5c33.3,12.4,70.4-4.6,82.9-38.1c0.5-1.2,0.9-2.5,1.3-3.8l2-6.4l-6.1-2.7c-32.5-14.5-70.5,0.3-85.1,32.9 c-1.1,2.4-2,4.9-2.8,7.4L192.9,65z M236.1,32.3c10.6-4.9,22.6-5.8,33.8-2.7c-10.3,21.9-34.8,33.1-57.9,26.6 C216.9,45.7,225.5,37.2,236.1,32.3L236.1,32.3z M223.6,177.9c-2.7-24.5-11-46-24-62.2c-2.8-3.4-5-7.2-7.4-11.3 c-5.6-9.5-12.5-21.4-28.5-27.3s-29-1.5-39.4,2c-4.4,1.5-8.6,2.9-13,3.7c-20.5,3.7-40.9,14.5-59,31.2c-18.3,17-33.1,39.1-41.8,62.2 c-5.7,15.2-9.1,30.5-10,45.4s0.5,29,4.3,41.9c2.1,7.1,5.1,14,8.8,20.5c3.7,6.4,8.1,12.3,13.1,17.6c12.8,13.6,16.9,24,20.2,32.5 c2.7,6.9,5.4,14,14.3,17.4c8.8,3.3,15.6-0.3,22.2-3.7c8-4.2,18-9.5,36.5-11.3c7.3-0.7,14.5-2.3,21.5-4.7c7-2.5,13.8-5.7,20-9.7 c11.4-7.2,21.7-16.9,30.7-28.8s16.5-25.6,22.2-40.8C223,229.2,226.3,202.8,223.6,177.9L223.6,177.9z M180.2,283.9 c-7.9,10.4-17,18.9-26.8,25.1c-5.3,3.4-11,6.1-16.9,8.2c-5.8,2-11.9,3.3-18,3.9c-21.5,2.1-33.4,8.4-42.1,13c-6,3.2-7.5,3.8-9.9,2.9 c-2.3-0.9-3.1-2.4-5.5-8.7c-3.5-9.1-8.4-21.7-23.3-37.4c-4.2-4.5-7.9-9.4-11-14.7c-3.1-5.5-5.6-11.3-7.4-17.3 c-3.4-11.1-4.6-23.4-3.7-36.5c0.9-13.4,3.9-27.2,9.1-41c7.8-20.9,21.3-41,37.9-56.4c15.9-14.8,33.7-24.2,51.3-27.4 c5.4-1,10.3-2.6,15.1-4.2c9.5-3.2,18.4-6.2,29.3-2.1s15.7,12.2,20.8,20.9c2.5,4.3,5.2,8.8,8.6,13.1c11.3,14,18.4,32.8,20.8,54.4 c2.4,22.5-0.5,46.5-8.4,67.4C195.1,260.8,188.3,273.2,180.2,283.9z M52.5,113.9L52.5,113.9L52.5,113.9z"></path></svg>
