<svg xmlns="http://www.w3.org/2000/svg" width="20px" viewBox="0 0 289 353">
<path fill="#3D3642" d="M18.2,2.7c-0.2-0.1-0.4-0.2-0.5-0.3c-0.1-0.1-0.2-0.3-0.3-0.5c-0.2-0.3-0.4-0.7-0.8-1c-0.4-0.2-0.9-0.2-1.3-0.2
	c-0.2,0-0.4,0-0.6,0c-0.2,0-0.4-0.1-0.6-0.3C13.9,0.2,13.5,0,13,0.1c-0.5,0-0.9,0.4-1.3,0.6c-0.1,0.1-0.3,0.2-0.4,0.3
	c-0.1,0.1-0.3,0.1-0.5,0.2C10.5,1.3,10,1.5,9.7,1.9c0,0,0,0,0,0l0,0c0,0,0,0,0,0c0,0,0,0,0,0L1.4,16.6c-0.1,0.1-0.1,0.1-0.2,0.2
	c-0.3,0.5-0.2,1-0.1,1.5c0,0.2,0.1,0.3,0.1,0.5c0,0.1,0,0.3,0,0.5c-0.1,0.4-0.1,0.9,0.1,1.4c0.2,0.4,0.6,0.6,0.9,0.8
	c0.2,0.1,0.4,0.2,0.5,0.3C2.9,22,3,22.2,3.1,22.3c0.2,0.3,0.4,0.7,0.8,1s0.9,0.2,1.3,0.2c0.2,0,0.4,0,0.6,0c0.2,0,0.4,0.1,0.6,0.3
	C6.6,24,7,24.2,7.5,24.2c0.5,0,0.9-0.4,1.3-0.6c0.1-0.1,0.3-0.2,0.4-0.3c0.1-0.1,0.3-0.1,0.5-0.2c0.2-0.1,0.5-0.2,0.7-0.3
	c0.2-0.1,0.4-0.3,0.6-0.5c0.1-0.1,0.1-0.2,0.1-0.3l2.1-4l6.1-10.5c0,0,0,0,0,0c0,0,0,0,0,0c0.3-0.5,0.2-1,0.1-1.5
	c0-0.2-0.1-0.3-0.1-0.5c0-0.1,0-0.3,0-0.5c0.1-0.4,0.1-0.9-0.1-1.4C19,3.1,18.6,2.9,18.2,2.7L18.2,2.7z M18.4,6.9
	C18.4,6.9,18.4,6.9,18.4,6.9C18.4,6.9,18.4,6.9,18.4,6.9l-1,1.7l0.9-2.4C18.4,6.5,18.5,6.7,18.4,6.9L18.4,6.9z M16.6,2.4
	c0.1,0.2,0.3,0.5,0.5,0.7c0.2,0.2,0.5,0.4,0.7,0.5c0.2,0.1,0.3,0.2,0.4,0.3L15.4,11c-0.5,1.2-1,2.3-1.6,3.5l-1.6,2.9L16.6,2.4z
	 M14.5,1.7c0.3,0.1,0.6,0.1,0.8,0.1c0.1,0,0.2,0,0.4,0l-4.9,16.9c0-0.1-0.1-0.2-0.1-0.3c-0.2-0.4-0.6-0.6-0.9-0.8
	c-0.2-0.1-0.4-0.2-0.5-0.3C9.2,17.1,9.1,17,9,16.8c-0.1-0.2-0.3-0.5-0.5-0.7l4.9-14.9c0.1,0,0.2,0.1,0.3,0.2
	C14,1.4,14.2,1.6,14.5,1.7L14.5,1.7z M11.8,1.9c0.1-0.1,0.2-0.1,0.3-0.2L7.6,15.6c-0.2,0-0.5,0-0.7,0c-0.2,0-0.4,0-0.6,0
	c-0.2,0-0.4-0.1-0.6-0.3c-0.2-0.1-0.3-0.2-0.5-0.2l5.3-12.6c0.1-0.1,0.4-0.2,0.7-0.3C11.4,2,11.7,2,11.8,1.9L11.8,1.9z M4.2,15
	c-0.3,0.1-0.6,0.4-0.9,0.5c-0.1,0.1-0.3,0.2-0.4,0.3c0,0-0.1,0.1-0.2,0.1l3.8-6.6L4.2,15z M8.6,22.4C8.6,22.4,8.6,22.4,8.6,22.4
	c-0.2,0.1-0.4,0.3-0.6,0.4c-0.2,0.2-0.5,0.4-0.7,0.4c-0.2,0-0.4-0.1-0.6-0.3c-0.2-0.1-0.5-0.3-0.8-0.4c-0.3-0.1-0.6-0.1-0.8-0.1
	c-0.3,0-0.6,0-0.7-0.1c-0.2-0.1-0.3-0.3-0.4-0.6c-0.1-0.2-0.3-0.5-0.5-0.7c-0.2-0.2-0.5-0.4-0.7-0.5c-0.2-0.1-0.5-0.3-0.5-0.4
	c-0.1-0.2-0.1-0.5,0-0.8c0-0.2,0.1-0.5,0.1-0.7c0-0.2-0.1-0.4-0.1-0.6c-0.1-0.3-0.1-0.6,0-0.8c0.1-0.2,0.4-0.3,0.7-0.4
	c0.2-0.1,0.4-0.1,0.6-0.2c0.2-0.1,0.4-0.3,0.6-0.4c0.2-0.2,0.5-0.4,0.7-0.4c0.2,0,0.4,0.1,0.6,0.3c0.2,0.1,0.5,0.3,0.8,0.4
	c0.3,0.1,0.6,0.1,0.8,0.1c0.3,0,0.6,0,0.7,0.1C7.8,16.8,8,17,8.1,17.3c0.1,0.2,0.3,0.5,0.5,0.7c0.2,0.2,0.5,0.4,0.7,0.5
	c0.2,0.1,0.5,0.3,0.5,0.4c0.1,0.2,0.1,0.5,0,0.8c0,0.2-0.1,0.5-0.1,0.7c0,0.2,0.1,0.4,0.1,0.6c0.1,0.3,0.1,0.6,0,0.8
	c-0.1,0.2-0.4,0.3-0.7,0.4C9.1,22.2,8.8,22.3,8.6,22.4L8.6,22.4z"/>
</svg>
