<svg xmlns="http://www.w3.org/2000/svg" xmlns:xlink="http://www.w3.org/1999/xlink" width="20px" viewBox="0 0 289 353">
<g>
	<path fill="#B70958" d="M224.1,350c-10,5-22.2,0.9-27.2-9L112.3,172c-1.7-3.3-0.3-7.4,3-9.1c3.3-1.7,7.4-0.3,9.1,3L209,334.9
		c1.7,3.3,5.7,4.7,9.1,3c3.3-1.7,4.7-5.7,3-9.1L136.4,160c-1.7-3.3-0.3-7.4,3-9.1c3.3-1.7,7.4-0.3,9.1,3l84.6,168.9
		C238.1,332.8,234,345,224.1,350z"/>
	<path fill="#B70958" d="M185.4,77L28.6,155.5c-3.3,1.7-7.4,0.3-9.1-3l-19.6-39.2c-1.7-3.3-0.3-7.4,3-9.1l156.8-78.6
		c3.3-1.7,7.4-0.3,9.1,3l19.6,39.2C190.1,71.2,188.7,75.3,185.4,77z M28.5,140.4l144.8-72.5l-13.6-27.1L14.9,113.3L28.5,140.4z"/>
	<path fill="#B70958" d="M157,42.1L17.7,111.9c-1.9,0.9-4.1,1-6,0c-1.9-0.9-3.2-2.7-3.7-4.8c-7.4-38.4,11.8-77.5,46.8-95
		s77.8-9.5,104.1,19.4c1.4,1.6,2,3.7,1.6,5.8C160.2,39.4,158.9,41.2,157,42.1L157,42.1z M20.1,95.6l122.3-61.3
		c-22.4-19.2-54.7-23.5-81.6-10.1S18.2,66.1,20.1,95.6L20.1,95.6z"/>
	<path fill="#B70958" d="M133.4,169c-35,17.5-77.8,9.5-104.1-19.4c-1.4-1.6-2-3.7-1.6-5.8c0.4-2.1,1.7-3.9,3.6-4.8l139.3-69.8
		c1.9-0.9,4.1-1,6,0c1.9,0.9,3.2,2.7,3.6,4.8C187.6,112.5,168.4,151.5,133.4,169L133.4,169z M45.8,146.9
		c22.4,19.2,54.7,23.5,81.5,10.1c26.8-13.4,42.7-41.9,40.8-71.3L45.8,146.9z"/>
	<path fill="#B70958" d="M43.2,98.3c-0.8,0.4-1.8,0.7-2.8,0.7c-3.7,0.1-6.8-2.8-6.9-6.5c-0.4-11.5,2.6-22.9,8.4-32.8
		c5.9-9.9,14.4-17.9,24.7-23.2l0,0c3.3-1.7,7.4-0.3,9,3c1.7,3.3,0.4,7.4-2.9,9.1c-8,4.1-14.7,10.3-19.2,18
		c-4.6,7.7-6.8,16.6-6.6,25.5C47,94.7,45.5,97.1,43.2,98.3L43.2,98.3z"/>
</g>
</svg>
