<svg xmlns="http://www.w3.org/2000/svg" width="20px" viewBox="0 0 289 353">
      <g>
        <path fill="#EA737F" d="M165.4,90.6c4.8-3.5,8.9-7.8,12.3-12.6c6.9-11.2,10.1-24.4,9-37.5c-0.3-3.4-3.4-5.8-6.7-5.5
          c-0.4,0-0.7,0.1-1.1,0.2c-2.3,0.7-4.6,1.6-6.8,2.6c15.1-16.2,36.2-25.4,58.3-25.4c3.4,0,6.1-2.7,6.1-6.1S233.8,0,230.5,0
          c-33,0.1-63.5,17.8-79.8,46.5c-0.5-2.3-1.2-4.5-2-6.7C141.5,23.2,129,9.5,113.2,0.7c-3-1.6-6.7-0.4-8.3,2.5
          c-0.1,0.2-0.2,0.4-0.3,0.6c-6.2,16.9-6.7,35.5-1.3,52.7c5.5,13.3,14.6,24.8,26.3,33.2C56.3,98,3.6,164.1,11.8,237.4
          s74.3,126.1,147.6,117.9s126.1-74.3,117.9-147.6C270.5,147.9,224.7,99.9,165.4,90.6L165.4,90.6z M157.7,64.4
          c4.3-6,10.1-10.8,16.7-14.1c-0.5,7.4-2.9,14.5-6.8,20.8c-4.3,6-10,10.8-16.6,14c0-1.9,0.4-3.7,0.7-5.6
          C152.7,74.1,154.7,68.9,157.7,64.4L157.7,64.4z M114.8,52.1c-3.9-11.9-4.2-24.7-1-36.8c10.3,7,18.3,16.9,23.2,28.4
          c3.9,11.9,4.2,24.7,1,36.8c-10.2-7-18.2-16.8-23-28.1L114.8,52.1z M144.5,343.9c-67,0-121.3-54.3-121.3-121.3
          s54.3-121.3,121.3-121.3c67,0,121.3,54.3,121.3,121.3v0C265.8,289.5,211.5,343.8,144.5,343.9z"/>
        <circle fill="#EA737F" cx="181.3" cy="165.8" r="12.3"/>
        <circle fill="#EA737F" cx="113.8" cy="153.5" r="12.3"/>
        <circle fill="#EA737F" cx="107.6" cy="202.6" r="12.3"/>
        <circle fill="#EA737F" cx="76.9" cy="178.1" r="12.3"/>
        <circle fill="#EA737F" cx="138.3" cy="122.8" r="12.3"/>
        <circle fill="#EA737F" cx="52.4" cy="221.1" r="12.3"/>
        <circle fill="#EA737F" cx="144.5" cy="245.6" r="12.3"/>
        <circle fill="#EA737F" cx="162.9" cy="196.5" r="12.3"/>
        <circle fill="#EA737F" cx="76.9" cy="270.2" r="12.3"/>
        <circle fill="#EA737F" cx="119.9" cy="276.3" r="12.3"/>
        <circle fill="#EA737F" cx="126.1" cy="319.3" r="12.3"/>
      </g>
    </svg>
