<svg xmlns="http://www.w3.org/2000/svg" width="20px" viewBox="0 0 289 353">
  <path fill="#e086cf" d="M0,11.94c0,1.84,2.54,3.33,5.66,3.33,.58,0,1.13-.06,1.68-.16-.17,.35-.26,.71-.26,1.08,0,2.08,2.88,3.77,6.43,3.77s6.43-1.69,6.43-3.77c0-.47-.15-.93-.43-1.36,.03-.14,.05-.28,.05-.43s-.02-.29-.05-.44c.27-.42,.43-.87,.43-1.35,0-1.51-1.52-2.81-3.71-3.42,.24-1.33,.05-2.96-.53-4.52-.57-1.54-1.46-2.85-2.49-3.71C12.13,.09,11.03-.21,10.09,.14c-.43,.16-.8,.45-1.09,.85-.13,.02-.27,.05-.39,.09-.13,.05-.25,.11-.37,.19-.49-.11-.95-.09-1.37,.07-1.29,.48-1.96,2.14-1.87,4.16C2.14,5.7,0,7.1,0,8.82,0,9.24,.14,9.64,.38,10.01c-.02,.12-.04,.25-.04,.37s.02,.25,.04,.37c0,0,0,0,0,0C.12,11.13,0,11.53,0,11.94h0Zm5.66,.21c.51,0,1.02-.05,1.5-.13-.05,.2-.09,.4-.09,.6,0,.12,.01,.24,.03,.36-.47,.08-.95,.13-1.45,.13-2.65,0-4.81-1.17-4.9-2.63,.98,1,2.81,1.68,4.9,1.68h0Zm13.85,4.04c0,1.85-2.7,3.36-6.01,3.36s-6.01-1.51-6.01-3.36c0-.28,.07-.56,.19-.83,.71,1.5,3.05,2.6,5.82,2.6,.11,0,.21-.09,.21-.21s-.09-.21-.21-.21c-3.08,0-5.59-1.39-5.63-3.11,1.1,1.16,3.21,1.96,5.63,1.96s4.53-.79,5.63-1.96c-.02,1.24-1.42,2.39-3.49,2.87-.11,.03-.18,.14-.15,.25,.02,.1,.11,.16,.2,.16,.02,0,.03,0,.05,0,1.8-.42,3.09-1.29,3.59-2.35,.12,.27,.19,.54,.19,.82h0Zm0-3.57c0,1.85-2.7,3.36-6.01,3.36s-6.01-1.51-6.01-3.36,2.7-3.36,6.01-3.36,6.01,1.51,6.01,3.36ZM10.24,.53c.79-.3,1.74-.02,2.69,.76,.98,.81,1.82,2.07,2.37,3.54,.55,1.48,.73,3.03,.51,4.28-.72-.16-1.5-.26-2.31-.26-1.12,0-2.17,.17-3.09,.47-.47-.66-.87-1.41-1.17-2.23-.55-1.47-.74-2.97-.53-4.22,.2-1.21,.74-2.04,1.53-2.34h0Zm-1.54,.98c-.18,.37-.32,.81-.4,1.3-.22,1.32-.02,2.9,.55,4.44,.3,.81,.7,1.56,1.16,2.22-.34,.13-.65,.28-.94,.44-.5-.65-.93-1.44-1.25-2.28-1.03-2.77-.64-5.48,.88-6.11h0Zm-1.68,.23c.25-.09,.52-.13,.8-.11-1.11,1.16-1.31,3.64-.38,6.14,.32,.87,.77,1.67,1.28,2.35-.44,.29-.8,.62-1.08,.97-.66-.77-1.23-1.72-1.63-2.79-1.12-2.99-.67-5.94,1-6.56h0Zm-1.98,4.19c.08,.81,.27,1.66,.59,2.52,.43,1.16,1.05,2.19,1.78,3.01-.02,.04-.05,.09-.07,.13-.54,.1-1.1,.16-1.67,.16-2.89,0-5.25-1.31-5.25-2.92,0-1.47,2.01-2.72,4.62-2.9h0Zm.63,7.6c.53,0,1.05-.05,1.55-.14,.07,.2,.18,.4,.3,.59-.03,.15-.05,.29-.05,.44,0,.09,.01,.18,.02,.26-.58,.12-1.19,.19-1.82,.19-2.89,0-5.25-1.31-5.25-2.92,0-.23,.05-.45,.14-.67,.66,1.3,2.69,2.25,5.1,2.25h0Z"/>
</svg>
