<svg xmlns="http://www.w3.org/2000/svg" width="20px" viewBox="0 0 289 353">
<g>
	<path fill="#E086CF" d="M0,13.9c0,1.8,2.5,3.3,5.7,3.3c0.6,0,1.1-0.1,1.7-0.2c-0.2,0.3-0.3,0.7-0.3,1.1c0,2.1,2.9,3.8,6.4,3.8
		s6.4-1.7,6.4-3.8c0-0.5-0.1-0.9-0.4-1.4c0-0.1,0-0.3,0-0.4c0-0.1,0-0.3,0-0.4c0.3-0.4,0.4-0.9,0.4-1.3c0-1.5-1.5-2.8-3.7-3.4
		c0.2-1.3,0.1-3-0.5-4.5c-0.6-1.5-1.5-2.9-2.5-3.7c-1.1-0.9-2.2-1.2-3.1-0.8C9.7,2.3,9.3,2.6,9,3C8.9,3,8.8,3,8.6,3.1
		c-0.1,0-0.3,0.1-0.4,0.2C7.8,3.1,7.3,3.2,6.9,3.3C5.6,3.8,4.9,5.5,5,7.5c-2.9,0.2-5,1.6-5,3.3c0,0.4,0.1,0.8,0.4,1.2
		c0,0.1,0,0.2,0,0.4c0,0.1,0,0.2,0,0.4c0,0,0,0,0,0C0.2,13.1,0,13.5,0,13.9L0,13.9z M5.7,14.1c0.5,0,1-0.1,1.5-0.1
		c-0.1,0.2-0.1,0.4-0.1,0.6c0,0.1,0,0.2,0,0.4c-0.5,0.1-0.9,0.1-1.4,0.1c-2.7,0-4.8-1.2-4.9-2.6C1.8,13.4,3.6,14.1,5.7,14.1
		L5.7,14.1z M19.5,18.2c0,1.9-2.7,3.4-6,3.4c-3.3,0-6-1.5-6-3.4c0-0.3,0.1-0.6,0.2-0.8c0.7,1.5,3,2.6,5.8,2.6c0.1,0,0.2-0.1,0.2-0.2
		s-0.1-0.2-0.2-0.2c-3.1,0-5.6-1.4-5.6-3.1c1.1,1.2,3.2,2,5.6,2c2.4,0,4.5-0.8,5.6-2c0,1.2-1.4,2.4-3.5,2.9c-0.1,0-0.2,0.1-0.2,0.2
		c0,0.1,0.1,0.2,0.2,0.2c0,0,0,0,0,0c1.8-0.4,3.1-1.3,3.6-2.3C19.5,17.6,19.5,17.9,19.5,18.2L19.5,18.2z M19.5,14.6
		c0,1.9-2.7,3.4-6,3.4c-3.3,0-6-1.5-6-3.4s2.7-3.4,6-3.4S19.5,12.7,19.5,14.6z M10.3,2.5c0.8-0.3,1.7,0,2.7,0.8
		c1,0.8,1.8,2.1,2.4,3.5c0.6,1.5,0.7,3,0.5,4.3c-0.7-0.2-1.5-0.3-2.3-0.3c-1.1,0-2.2,0.2-3.1,0.5C10,10.6,9.6,9.9,9.3,9.1
		c-0.5-1.5-0.7-3-0.5-4.2C8.9,3.6,9.5,2.8,10.3,2.5L10.3,2.5z M8.7,3.5C8.5,3.8,8.4,4.3,8.3,4.8c-0.2,1.3,0,2.9,0.5,4.4
		c0.3,0.8,0.7,1.6,1.2,2.2c-0.3,0.1-0.7,0.3-0.9,0.4c-0.5-0.7-0.9-1.4-1.2-2.3C6.8,6.8,7.2,4.1,8.7,3.5L8.7,3.5z M7,3.7
		c0.2-0.1,0.5-0.1,0.8-0.1C6.7,4.8,6.5,7.2,7.5,9.7c0.3,0.9,0.8,1.7,1.3,2.4c-0.4,0.3-0.8,0.6-1.1,1C7,12.3,6.4,11.3,6,10.3
		C4.9,7.3,5.4,4.3,7,3.7L7,3.7z M5.1,7.9c0.1,0.8,0.3,1.7,0.6,2.5c0.4,1.2,1,2.2,1.8,3c0,0,0,0.1-0.1,0.1c-0.5,0.1-1.1,0.2-1.7,0.2
		c-2.9,0-5.2-1.3-5.2-2.9C0.5,9.3,2.5,8.1,5.1,7.9L5.1,7.9z M5.7,15.5c0.5,0,1-0.1,1.5-0.1c0.1,0.2,0.2,0.4,0.3,0.6
		c0,0.1,0,0.3,0,0.4c0,0.1,0,0.2,0,0.3c-0.6,0.1-1.2,0.2-1.8,0.2c-2.9,0-5.2-1.3-5.2-2.9c0-0.2,0.1-0.4,0.1-0.7
		C1.2,14.5,3.3,15.5,5.7,15.5L5.7,15.5z"/>
</g>
</svg>
