<svg xmlns="http://www.w3.org/2000/svg" xmlns:xlink="http://www.w3.org/1999/xlink" width="20px" viewBox="0 0 289 353">
<path fill="#C14C30" d="M286.8,218.6c-13.2-22-45.1-32-64.8-36.3c53.4-45,55.3-132.7,55.4-136.7l0,0c0-3.3-2.3-6.2-5.6-6.7
	c-62.4-11-116.7,36.3-137.7,57.9c-9.4-31.6-38.5-62.3-40.1-63.9l0,0C91.8,30.4,88,30,85.3,32c-38.5,27.9-40.5,77.2-38.1,104.7
	c-16.6-7.3-37,0.5-37.9,0.8c-2.6,1-4.3,3.5-4.3,6.3c0.3,59.5,45.7,81.4,66.8,88.5l-30.8,30c-4.6,3-10.1,4.2-15.6,3.4
	c-3.4-1.4-5.9-4.3-6.9-7.9c-1.3-3.5-5.2-5.2-8.7-3.9c-3.5,1.3-5.2,5.2-3.9,8.7c2.3,7.4,8,13.3,15.4,15.9c2.4,0.8,5,1.2,7.6,1.1
	c7.1-0.3,14-2.5,20-6.4c0.4-0.2,0.7-0.5,1-0.8l29.8-29c17.2,59.3,94,70,94.8,70.1c0.3,0,0.6,0.1,0.9,0.1c3,0,5.6-2,6.4-4.8
	c3.8-11.9,2.5-24.7-3.5-35.6c4,0.3,8,0.6,11.8,0.5c18.7-0.1,37-4.5,53.8-12.8c16.7-8.3,31.3-20.3,42.7-35
	C288.1,223.7,288.2,220.9,286.8,218.6L286.8,218.6z M158.4,256.2c-1.7-0.4-3.6-0.2-5.1,0.8c-1.5,0.9-2.6,2.4-3.1,4.2
	c-0.4,1.7-0.2,3.6,0.8,5.1c0.9,1.5,2.4,2.6,4.2,3.1c1.4,0.3,2.8,0.6,4.1,0.9h0c8,7.3,12.1,18,10.9,28.8
	c-18.1-3.9-70.7-19.2-79.1-66.6l3.9-3.8l68.7,1.4l0.2,0c3.7,0,6.7-3,6.7-6.7c0-3.7-2.9-6.7-6.6-6.8l-55.4-1.2l96.7-94.1
	c2.7-2.6,2.7-6.9,0.1-9.5s-6.9-2.7-9.5-0.1L99,205.9l-0.2-51.1c0-3.7-3.1-6.7-6.8-6.7c-3.7,0-6.7,3-6.7,6.8l0.3,64.2l-2.6,2.6
	c-10.3-2.3-61.2-16.4-64.2-72.8l0,0c7.9-2.5,16.4-2.2,24.1,0.8c5.3,3,8.9,8.2,9.9,14.1c0.9,3.6,4.5,5.8,8.1,5c3.6-0.9,5.8-4.5,5-8.1
	c-0.7-2.7-1.6-5.4-2.8-7.9c-1.7-8.1-13.3-72.4,25.4-105.9c12.3,14,33,42.1,35,64.7c0,0.3,0,0.5,0.1,0.8c0.2,3,0.1,6-0.5,8.9
	c-0.7,3.7,1.6,7.2,5.3,7.9c3.7,0.7,7.2-1.6,7.9-5.3c0.6-3.4,0.8-6.8,0.7-10.2c10-11.3,64.6-69,126.6-62.2
	c-1.6,22.3-10.9,101.5-66,131.5c-2.7,1.5-4.1,4.6-3.3,7.6c0.8,3,3.5,5.1,6.6,5.1c1.1,0,2.2-0.3,3.2-0.8c0.8-0.4,1.5-0.9,2.3-1.4
	c9.7,1.3,50,8.1,66.3,28.6C262.5,234,224.2,272.5,158.4,256.2L158.4,256.2z"/>
</svg>
