<svg xmlns="http://www.w3.org/2000/svg" width="20px" viewBox="0 0 289 353"><g><path fill="#CCBABA" d="M145.7,22.8C74.4,22.8,2.3,43.3,2.3,82.5v191.2c0,39.2,72.1,59.7,143.3,59.7S289,313,289,273.8V82.5 C289,43.3,216.9,22.8,145.7,22.8z M145.7,46.7c71.8,0,119.5,21.6,119.5,35.8c0,6.5-12.3,17.3-39.3,25.5c-5,1.5-8.5,6.2-8.5,11.4 v82.4c-0.1,5.5-2.3,12.1-11.9,12.1c-9.6,0-11.8-6.6-11.9-11.9v-47.8v-25.7c0-6.6-5.3-11.9-11.9-11.9s-11.9,5.4-11.9,11.9v25.5 c-0.1,5.5-2.3,12.1-11.9,12.1c-9.6,0-11.8-6.6-11.9-11.9v-24.1c0-0.8-0.3-1.4-0.4-2.1c-0.1-0.8-0.2-1.6-0.5-2.3 c-0.3-0.7-0.8-1.3-1.2-1.9c-0.4-0.6-0.7-1.3-1.3-1.9c-0.5-0.5-1.2-0.9-1.8-1.3c-0.6-0.5-1.2-1-1.9-1.3c-0.7-0.3-1.5-0.4-2.3-0.5 c-0.7-0.2-1.4-0.5-2.2-0.5C62.3,115.8,26.2,94.1,26.2,82.5C26.2,68.3,73.8,46.7,145.7,46.7z M145.7,309.6 c-71.8,0-119.5-21.6-119.5-35.8V116.9c22.9,14,59.3,22.2,95.6,24.6v12.8c0,14.4,9.5,35.8,35.8,35.8c4.5,0,8.4-0.8,11.9-1.9V202 c0,14.4,9.5,35.8,35.8,35.8s35.8-21.4,35.8-35.8v-73.9c9.3-3.3,17.2-7.1,23.9-11.3v157C265.1,288,217.5,309.6,145.7,309.6z"></path></g></svg>
