<svg xmlns="http://www.w3.org/2000/svg" width="20px" viewBox="0 0 289 353">
<style type="text/css">
	.st1melon{fill:none;stroke:#FF7761;stroke-width:15;stroke-miterlimit:10;}
</style>
<g>
	<g>
		<path fill="#FF7761" d="M55,25.6c-3.8,0-6.8-3.4-6.9-7.7c-0.1-4.3,3-7.8,6.7-7.8c28.1-0.3,76.4-3.2,87.3-9.8c3.3-1.9,7.4-0.4,9.1,3.4
			c1.7,3.8,0.4,8.4-2.9,10.4C131.1,24.4,62.8,25.5,55,25.6z"/>
		<path fill="#FF7761" d="M105.9,63.7c-1.8,0.1-3.6-0.7-4.8-2.2c-14.1-15.7-7.7-44.9-7.5-46.2c1-4.1,4.6-6.6,8.3-5.6
			c3.6,1.1,5.9,5.3,4.9,9.4c0,0,0,0,0,0c-1.3,6-3.2,23.4,3.8,31.2c2.6,3,2.7,7.9,0.1,11C109.4,62.9,107.7,63.7,105.9,63.7z"/>
	</g>
</g>
<ellipse class="st1melon" cx="144.5" cy="200.5" rx="136.2" ry="144.6"/>
</svg>
