<svg xmlns="http://www.w3.org/2000/svg" width="20px" viewBox="0 0 289 353">
<g>
	<path fill="#CCB793" d="M263.5,73.9c-25.9-28-62.4-16.8-89.1-8.6c-12.2,3.8-23.8,7.3-31.4,6.6l0,0c-9.3-1.2-18.4-3.8-27-7.7
		C100.5,58,84.4,51.6,62.4,60l0,0c-12.2,4.5-23.2,11.8-32,21.3l-1.1,0.9l0,0c-1,0.9-1.8,2-2.4,3.2l-0.2,0.3l-0.3,0.1l-0.2,0.3
		c-2,2.8-3.8,5.8-5.2,8.9l-0.2,0.1c-0.2,0.5-0.3,0.9-0.5,1.4l-0.1,0.4l0,0c-0.1,0.4-0.1,0.8-0.2,1.1l0,0.5l0,0c0,0.4,0,0.7,0.1,1.1
		l0.2,0.4c0.1,0.5,0.2,1,0.4,1.4c0.2,0.5,0.4,0.9,0.7,1.4l0.2,0.5c0.2,0.3,0.4,0.6,0.6,0.8l0.4,0.8c0.2,0.2,0.5,0.4,0.7,0.6l0.1,0.2
		c0.4,0.3,0.9,0.6,1.4,0.8l0.4,0.1c0.3,0.1,0.7,0.3,1.1,0.3l0.5,0.1l1.5,0.2c0.5,0,1.1,0,1.6-0.1l0.2-0.1l1.3-0.3l1-0.5
		c4.4-2.1,10.5-4.2,14.8-2l0,0c4.2,2.7,6.8,7.2,7.1,12.2c3.1,17.8-7.5,31.2-19.8,47c-6.4,7.7-12.2,15.9-17.2,24.5
		C-21.5,257.7,19,291.1,32.5,300c23.2,15,53.5,17.5,73.3,7.9c3.9-1.8,7.4-4.3,10.5-7.2c6.7,1,13.5,1.2,20.3,0.7
		c10.6-0.5,21-2.4,31-5.7c2.1-0.6,4.1-1.4,6.1-2.4c7.5-3.8,14-9.4,19-16.3c2.4-3.1,4.4-6.5,6-10.1c3.1,0.9,6.3,1.3,9.5,1.3
		c7.6-0.3,15-2.3,21.7-5.7c14.4-6.7,25.8-18.5,32-33.1c0.9-2.1,1.6-4.3,2.1-6.5c0.3-0.3,0.7-0.7,0.9-1.1c1-1.1,2.1-2.2,3.3-3.2
		c8.8-8.2,27.3-25,16.6-61C286.6,121.8,286,98.2,263.5,73.9L263.5,73.9z M250.5,86c9.6,9.8,15.4,22.7,16.5,36.4
		c-6.5-8.6-14.8-15.6-24.4-20.5c-12.4-6-26-9.3-39.8-9.6l-3.2-0.2c-20.2-1-32.9-1.7-41.9-4c6.9-1.4,14.3-3.6,21.9-6
		C205.5,74.4,232.2,66.3,250.5,86L250.5,86z M42.1,285.1c-27.4-17.7-30.8-49.8-9.4-88.2c4.6-7.8,9.9-15.2,15.7-22.2
		c13.7-17.4,27.8-35.3,23.3-61c-1.1-7.3-4.4-14.2-9.4-19.6c1.7,0.4,3.3,1.1,4.9,1.9c10.4,6.4,16.3,26.2-1.6,60.8
		c-23,44.3-14,89.7,25.2,128c2.7,2.6,5.3,5,7.7,6.9C85,298.3,61,297.3,42.1,285.1L42.1,285.1z M178.5,266.5
		c-3.9,5.9-9.6,10.3-16.2,12.5c-8.5,2.8-17.4,4.5-26.4,4.8c-17.8,0.7-20.8,0-32.8-11.7c-23.5-22.9-46.3-60.1-22-107
		c12.2-23.7,15.2-42.7,12.8-56.8c5,11,3.3,20.7,1.4,32.2s-4,23.7,0,38.5c8,29.6,36.7,43.4,59.5,54.5c13.4,6.5,27.3,13.2,28.9,19.9
		c0.9,3.8-2.3,9.1-5.2,12.9L178.5,266.5z M208,250.5c-6.1,0.1-7.4-2.4-7.8-3.4c-4.6-13.5-20-20.9-37.8-29.4
		c-20.7-10.2-44.3-21.6-50.1-43.3c-3-11.1-1.4-20.8,0.4-31c2.8-16.4,5.9-35-11.9-57.2c5.3,3.7,10.2,7.9,14.8,12.6
		c7.5,7.8,13.6,16.8,18.2,26.6c8.2,15.7,15.9,30.4,44.5,35.2l5.6,0.9c16.1,2.6,34.4,5.6,46.9,17.5c15.2,14.5,20.3,29.8,14.8,43.8
		c-6.3,16-24.8,27.4-37.5,27.6L208,250.5z M263.5,198.3c-3.8-12.3-10.9-23.3-20.5-31.9c-16.4-15.7-38.6-19.3-56.3-22.2l-5.4-0.9
		c-19.9-3.4-24.3-11.9-31.7-26c-3-6-6.4-11.8-10.2-17.4c13.7,8,30.8,8.8,59.5,10.1l3.2,0.1l0,0c11.2,0.2,22.3,2.7,32.5,7.5
		c10.1,5.2,18.4,13.4,23.7,23.5c17.8,31.6,12.9,47.1,5.1,56.8L263.5,198.3z"/>
</g>
</svg>
