<svg xmlns="http://www.w3.org/2000/svg" xmlns:xlink="http://www.w3.org/1999/xlink" width="20px" viewBox="0 0 289 353">
<path fill="#87622E" d="M266.7,133.2c-13.3-13.3-31.5-19.9-52.3-19.9c-10.2,0-20.4,1.8-31,4.9C168.8,70.2,135.1,39.6,97,39.6
	c-51.9,0-94,58.1-94,129c0,70,41.2,127.2,92.2,129c1.3,1.3,2.2,2.7,3.5,4c13.3,13.3,31.5,19.9,52.3,19.9c31.5,0,66.5-16,93.1-42.6
	C290.2,232.4,300.4,166.8,266.7,133.2L266.7,133.2z M198.5,232.9c-40.8,40.8-77.1,62.9-90.4,62.9c-1.3,0-2.7,0-3.5-0.9
	c-1.8-1.8-1.8-11.1,11.1-31.5c11.5-18.6,29.7-40.8,51-62.1c40.8-40.8,77.1-62.9,90.4-62.9c1.3,0,2.7,0,3.5,0.9
	C265.9,145.1,249.5,181.9,198.5,232.9L198.5,232.9z M249,130.9c-20.4,5.8-54.5,30.1-88.7,64.3c-21.7,21.7-40.3,44.3-52.3,63.4
	c-6.2,9.8-10.2,18.2-12,25.3C77,251.5,89,200.1,127.1,162c25.3-25.3,57.6-40.3,86.9-40.3C227.3,122.1,239.2,125.2,249,130.9
	L249,130.9z M11.9,168.6c0-66,38.1-120.1,85.1-120.1c34.1,0,64.3,27.9,78,71.8c-19.1,7.1-38.1,19.1-54.1,35
	c-40.8,40.8-53.6,96.6-32.8,132.1C45.5,281.6,11.9,230.7,11.9,168.6L11.9,168.6z M151.1,312.7c-13.3,0-25.3-3.1-35-8.9
	c20.4-5.8,54.5-30.1,88.7-64.3c25.7-25.7,57.6-64.7,64.3-88.7c19.1,32.4,7.1,83.8-31,121.9C212.7,297.6,180.3,312.7,151.1,312.7
	L151.1,312.7z"/>
<path fill="#87622E" d="M62.8,102c-1.8,1.3-41.7,31.9-26.2,102.4c0.4,2.2,2.2,3.5,4.4,3.5H42c2.2-0.4,4-3.1,3.5-5.3
	c-14.2-64.7,21.3-92.2,22.6-93.5c1.8-1.3,2.2-4.4,0.9-6.2C67.7,101.1,65.1,100.7,62.8,102L62.8,102z"/>
</svg>
