<svg xmlns="http://www.w3.org/2000/svg" width="20px" viewBox="0 0 289 353">
      <path fill="#918E13" d="M114.8,102.8c-1.2-3.1-2.9-7.3-5.1-12c11.3-0.2,22.4-2.4,33-6.2c7.8-2.9,14.9-7.6,20.4-13.9
        c19.8-23.5,15-56.6,15-58c-0.6-4-3.8-7-7.8-7.4c-1.9-0.2-46.8-3.9-66.7,20.1c-8.3,10.2-13.5,22.5-15,35.5c-9.1-9-20.6-15.2-33.1-18
        c-4.7-1-9.3,2-10.3,6.7c-1,4.7,2,9.3,6.7,10.3c29,6.3,42.8,38.3,46.8,49.5c-63.2,30.1-90,105.7-59.9,168.8s105.7,90,168.8,59.9
        c63.2-30.1,90-105.7,59.9-168.8C240.2,112,175,83.7,114.8,102.8L114.8,102.8z M116.5,36.4c9.8-11.5,31.4-14.1,44.7-14.2
        c0.5,13.4-3.5,26.5-11.5,37.2C140,70.9,118.3,73.5,105,73.6C104.5,60.2,108.6,47.1,116.5,36.4z M193.2,325.1
        c-56.2,22-119.6-5.7-141.6-61.9s5.7-119.6,61.9-141.6c56.1-22,119.4,5.6,141.5,61.6C277.1,239.5,249.5,303,193.2,325.1
        C193.2,325.1,193.2,325.1,193.2,325.1z"/>
      <path fill="#918E13" d="M119.3,138C72.2,156.8,49.2,210.2,68,257.4c18.8,47.2,72.2,70.2,119.4,51.4c47.1-18.7,70.1-72,51.5-119.1
        C220.1,142.4,166.6,119.3,119.3,138C119.4,138,119.3,138,119.3,138z M180.5,292.8c-38.4,15-81.6-4-96.6-42.4
        c-15-38.4,4-81.6,42.4-96.6c38.3-14.9,81.4,3.9,96.5,42.1C237.8,234.4,218.9,277.7,180.5,292.8C180.5,292.8,180.5,292.8,180.5,292.8
        z"/>
      <path fill="#918E13" d="M195.4,246.8c-0.4-0.4-0.8-0.8-1.3-1.1c-1-0.7-2-1.1-3.2-1.4c-0.6-0.1-1.1-0.2-1.7-0.1c-0.6,0-1.1,0-1.7,0.1
        c-1.1,0.2-2.2,0.6-3.1,1.2c-0.5,0.3-0.9,0.7-1.3,1.1c-0.4,0.4-0.8,0.8-1.1,1.3c-0.7,1-1.1,2-1.4,3.2c-0.1,0.6-0.2,1.1-0.2,1.7
        c0,0.6,0.1,1.1,0.2,1.7c0.1,0.5,0.4,1.1,0.6,1.6c1.7,4.4,6.7,6.6,11.1,4.9c0.5-0.1,1.1-0.4,1.6-0.6l1.3-1l1.1-1.3
        c0.3-0.5,0.6-1,0.8-1.5c0.9-2.2,1-4.6,0.1-6.8c-0.1-0.5-0.4-1.1-0.6-1.6C196.2,247.6,195.8,247.2,195.4,246.8z"/>
      <path fill="#918E13" d="M153.3,259.2c-0.6-0.1-1.1-0.2-1.7-0.1c-0.6,0-1.1,0-1.7,0.1c-1.1,0.2-2.2,0.6-3.1,1.2
        c-0.5,0.3-0.9,0.7-1.3,1.1c-0.4,0.4-0.8,0.8-1.1,1.3c-0.7,1-1.1,2-1.4,3.2c-0.1,0.6-0.2,1.1-0.2,1.7c0,0.6,0.1,1.1,0.2,1.7
        c0.1,0.5,0.4,1.1,0.6,1.6c0.8,2.1,2.5,3.9,4.6,4.8c0.5,0.2,1.1,0.4,1.6,0.5c0.6,0.1,1.1,0.2,1.7,0.1c0.6,0,1.1,0,1.7-0.1
        c1.1-0.2,2.2-0.6,3.1-1.2c0.5-0.3,0.9-0.7,1.3-1.1c0.4-0.4,0.8-0.8,1.1-1.3c0.7-1,1.1-2,1.4-3.2c0.1-0.6,0.2-1.1,0.2-1.7
        c0-0.6-0.1-1.1-0.2-1.7c-0.1-0.5-0.4-1.1-0.6-1.6c-0.9-2.1-2.5-3.8-4.6-4.8C154.4,259.5,153.8,259.3,153.3,259.2z"/>
      <path fill="#918E13" d="M196.7,202.7c-0.4-0.4-0.8-0.8-1.3-1.1c-0.5-0.3-1-0.6-1.5-0.8c-2.7-1.1-5.7-0.9-8.1,0.7l-1.3,1l-1.1,1.3
        c-0.3,0.5-0.6,1-0.8,1.5c-0.2,0.5-0.4,1.1-0.5,1.6c-0.1,0.6-0.2,1.1-0.2,1.7c0,0.6,0.1,1.1,0.2,1.7c0.1,0.5,0.4,1.1,0.6,1.6
        c0.9,2.1,2.5,3.8,4.6,4.8c0.5,0.2,1.1,0.4,1.6,0.5c0.6,0.1,1.1,0.2,1.7,0.1c0.6,0,1.1,0,1.7-0.1c1.1-0.2,2.2-0.6,3.1-1.2
        c0.5-0.3,0.9-0.7,1.3-1.1c0.4-0.4,0.8-0.8,1.1-1.3c0.3-0.5,0.6-1,0.8-1.5c0.8-2.1,0.8-4.5,0-6.6c-0.1-0.5-0.4-1.1-0.6-1.6
        C197.5,203.6,197.1,203.1,196.7,202.7z"/>
      <path fill="#918E13" d="M159,217.6c-0.4-0.4-0.8-0.8-1.3-1.1c-1-0.7-2-1.1-3.2-1.4l-1.7-0.2l-1.7,0.2c-2.8,0.5-5.2,2.4-6.4,5.1
        c-0.2,0.5-0.4,1.1-0.5,1.6c-0.1,0.6-0.2,1.1-0.2,1.7c0,0.6,0.1,1.1,0.2,1.7c0.1,0.5,0.4,1.1,0.6,1.6c0.8,2.1,2.5,3.9,4.6,4.8
        c2.1,0.9,4.4,0.9,6.5,0.2c0.5-0.1,1.1-0.4,1.6-0.6c0.5-0.3,0.9-0.7,1.3-1.1c0.4-0.4,0.8-0.8,1.1-1.3c0.3-0.5,0.6-1,0.8-1.5
        c0.9-2.2,0.9-4.6,0.1-6.8c-0.1-0.5-0.4-1.1-0.6-1.6C159.8,218.4,159.4,218,159,217.6z"/>
      <path fill="#918E13" d="M121.4,232.5c-0.4-0.4-0.8-0.8-1.3-1.1c-0.5-0.3-1-0.6-1.5-0.8c-4.4-1.7-9.4,0.2-11.4,4.5
        c-0.9,2.1-0.9,4.5-0.1,6.6c1.8,4.5,6.8,6.6,11.3,4.9c2.1-0.8,3.8-2.5,4.8-4.6c0.9-2.1,0.9-4.5,0.1-6.6c-0.1-0.5-0.4-1.1-0.6-1.6
        C122.2,233.3,121.8,232.9,121.4,232.5z"/>
      <path fill="#918E13" d="M153.1,183.5c0.4,0.4,0.8,0.8,1.3,1.1c0.5,0.3,1,0.6,1.5,0.8c2.1,0.9,4.5,1,6.6,0.1c0.5-0.1,1.1-0.4,1.6-0.6
        l1.3-1l1.1-1.3c0.7-1,1.1-2,1.4-3.2c0.1-0.6,0.2-1.1,0.1-1.7c0-0.6,0-1.1-0.1-1.7c-0.2-1.1-0.6-2.2-1.2-3.1
        c-0.3-0.5-0.7-0.9-1.1-1.3c-0.4-0.4-0.8-0.8-1.3-1.1c-1-0.7-2-1.1-3.2-1.4c-0.6-0.1-1.1-0.2-1.7-0.1c-0.6,0-1.1,0-1.7,0.1
        c-2.8,0.5-5.2,2.4-6.4,5.1c-0.2,0.5-0.4,1.1-0.5,1.6c-0.1,0.6-0.2,1.1-0.2,1.7c0,0.6,0.1,1.1,0.2,1.7c0.2,1.1,0.6,2.2,1.2,3.1
        C152.5,182.7,152.8,183.1,153.1,183.5z"/>
      <path fill="#918E13" d="M119.9,200.8c0.6,0.1,1.1,0.2,1.7,0.1c0.6,0,1.1,0,1.7-0.1c1.1-0.2,2.2-0.6,3.1-1.2c0.5-0.3,0.9-0.7,1.3-1.1
        c0.4-0.4,0.8-0.8,1.1-1.3c0.3-0.5,0.6-1,0.8-1.5c0.9-2.1,0.9-4.5,0.1-6.6c-0.1-0.5-0.4-1.1-0.6-1.6c-0.3-0.5-0.7-0.9-1-1.3
        c-0.4-0.4-0.8-0.8-1.3-1.1c-1-0.7-2-1.1-3.2-1.4l-1.7-0.2l-1.7,0.2c-1.1,0.2-2.2,0.6-3.1,1.2l-1.3,1l-1.1,1.3
        c-0.3,0.5-0.6,1-0.8,1.5c-1.9,4.4,0.1,9.5,4.5,11.4C118.9,200.5,119.4,200.7,119.9,200.8z"/>
</svg>
