<svg xmlns="http://www.w3.org/2000/svg" xmlns:xlink="http://www.w3.org/1999/xlink" width="20px" viewBox="0 0 289 353">
<path fill="#D3A42F" d="M56.7,45.1c0-14.5,11.8-26.3,26.4-26.3c11.5,0,21.2,7.3,24.9,17.5H74.2v33.5C64,66.2,56.7,56.5,56.7,45.1z
	 M74.2,88c-20-4.1-35.1-21.7-35.1-42.9C39.1,20.9,58.7,1.3,83,1.3c21.3,0,39,15,43,35h47.2l5-21.5c1.9-7.9,8.9-13.5,17.1-13.5h54.5
	v17.5h-54.5l-4.1,17.5h58.6V334c0,9.7-7.9,17.5-17.6,17.5H91.8c-9.7,0-17.6-7.8-17.6-17.5L74.2,88z M91.8,53.8h77.4L163,80.1H91.8
	L91.8,53.8z M91.8,290.3V97.6h67.1l-40.5,173.1l17.1,4l41.5-177.1h55.4v192.6L91.8,290.3z M232.3,53.8v26.3H181l6.1-26.3H232.3z
	 M91.8,307.8h140.5V334H91.8V307.8z"/>
</svg>
