<svg xmlns="http://www.w3.org/2000/svg" width="20px" viewBox="0 0 289 353"><path fill="#FF7761" d="M188.3,74.8c4.2-3.4,7.9-7.3,11.2-11.6C217.3,39.6,215,11,214.9,9.8c-0.5-5.5-4.7-9.8-9.7-9.8 c-27.1,0-50.7,16.5-63.2,40.9c-4-7.8-9-14.8-15.2-20.8c-4-3.9-10.2-3.5-13.8,1c-3.6,4.5-3.2,11.3,0.9,15.3 c9.9,9.6,16.1,22.9,17.6,37.2h-15.1C52.2,73.5,0,136.2,0,213.2C0,290.3,52.2,353,116.4,353H169c0.3,0,0.5-0.1,0.8-0.1 c0.9,0,1.9,0.1,2.8,0.1c64.2,0,116.4-62.7,116.4-139.8C289,142.6,245.1,84,188.3,74.8z M194.9,22.7c-1,7.5-3.7,17.7-10.4,26.6 c-7.2,9.5-17.7,15.9-31.3,19.1C157.5,45.4,174,27.3,194.9,22.7z M19.5,213.2c0-62.5,40-113.8,90.4-117.9 c-6.4,4.9-12.5,10.6-18.1,17.1C82,123.9,74,137.1,68,151.9c-3.8,9.4-6.7,19.2-8.7,29.4c-2,10.4-3.1,21.2-3.1,32 c0,49.5,21.6,93,54,117.9C59.6,327.2,19.5,275.8,19.5,213.2z M172.6,331.4c-53.4,0-96.9-53-96.9-118.1c0-9.3,0.9-18.5,2.6-27.4 c1.7-8.7,4.2-17.1,7.4-25.1c5.1-12.5,11.9-23.7,20.2-33.3c18.1-20.9,41.7-32.4,66.6-32.4c53.4,0,96.9,53,96.9,118.2 S226,331.4,172.6,331.4z"></path></svg>
