<svg xmlns="http://www.w3.org/2000/svg" xmlns:xlink="http://www.w3.org/1999/xlink" width="20px" viewBox="0 0 289 353">
<g>
	<path fill="#A86B2D" d="M10.4,120.2v1.7v195.8c0,19.8,16.3,35.2,35.2,35.2h196.7c19.8,0,35.2-16.3,35.2-35.2V122v-1.7
		c-1.7-17.2-9.4-31.8-21.5-42.9c12.9-3.4,22.3-14.6,22.3-28.3V30.1c0-16.3-12.9-30.1-30.1-30.1H39.6C23.3,0,9.6,12.9,9.6,30.1V49
		c0,13.7,9.4,24.9,22.3,28.3C19.9,88.5,11.3,103.1,10.4,120.2L10.4,120.2z M74.9,79h137.4c21.5,0,40.4,14.6,45.5,34.4H28.5
		C34.5,93.6,52.5,79,74.9,79L74.9,79z M260.4,130.5v158H26.8v-158H260.4z M241.5,336.7H45.7c-10.3,0-18-8.6-18-18v-12.9h232.8v12
		C260.4,328.1,251.8,336.7,241.5,336.7L241.5,336.7z M39.6,61.8c-6.9,0-12.9-6-12.9-12.9V30.1c0-6.9,6-12.9,12.9-12.9h207.8
		c6.9,0,12.9,6,12.9,12.9V49c0,6.9-6,12.9-12.9,12.9H39.6z"/>
	<path fill="#A86B2D" d="M121.2,230.2c0.9,9.4,5.2,18.9,12,25.8c7.7,7.7,18,12,29.2,12s21.5-4.3,29.2-12c7.7-7.7,12-18,12-29.2
		s-4.3-21.5-12-29.2c-6.9-6.9-16.3-11.2-25.8-12c-0.9-9.4-5.2-18.9-12-25.8c-7.7-7.7-18-12-29.2-12s-21.5,4.3-29.2,12
		c-7.7,7.7-12,18-12,29.2s4.3,21.5,12,29.2C102.3,225,110.9,229.3,121.2,230.2z M107.5,171.8c9.4-9.4,25.8-9.4,34.4,0
		c5.2,6,7.7,12.9,6.9,21.5c-0.9,2.6,0.9,5.2,2.6,7.7c1.7,1.7,5.2,2.6,7.7,2.6c7.7-0.9,15.5,1.7,21.5,6.9c4.3,4.3,6.9,11.2,6.9,17.2
		s-2.6,12.9-6.9,17.2c-9.4,9.4-25.8,9.4-34.4,0c-6-5.2-7.7-12.9-6.9-21.5c0.9-2.6-0.9-5.2-2.6-7.7c-1.7-1.7-3.4-2.6-6-2.6H129
		c-7.7,0.9-15.5-1.7-21.5-6.9c-4.3-4.3-6.9-11.2-6.9-17.2C100.6,182.1,103.2,176.1,107.5,171.8z"/>
</g>
</svg>
