<svg xmlns="http://www.w3.org/2000/svg" width="20px" viewBox="0 0 289 353"><g><path fill="#BFAE30" d="M187,1.3c0.9,0.3,1.6,0.8,2.3,1.4c0,0,2.4,2.3,4.1,5.6c1.7,3.3,3.4,8.1,4.1,14.7c0.5,5.3,0.4,11.7-0.7,19.5 c8.4-6.3,19.4-12.4,32.6-14.1c15.3-2,29.3,2.4,39.6,7.3s16.7,10.2,16.7,10.2c3.1,2.5,3.7,7,1.3,10.3c0,0-19.5,27.3-50.1,31.2 c-20.7,2.7-38.9-6.2-48.7-12.2c-0.8,2.1-1.6,4.4-2.5,6.6c20.9,10.7,30.3,26.2,31,42.4c0.7,17.9-7.1,35.7-14.3,52.9 c-2.3,5.4-2.4,10.2-1.6,16.4c0.9,6.2,3,13.6,4.9,22.8c3.8,18.3,6.2,43.4-5,80.3c-0.1,0.2-0.2,0.5-0.2,0.7 c-12.7,30.4-35.1,46.3-59.2,51.4c-24.1,5-49.6,0-71.2-9S27,316,13.6,295.4c-13.3-20.7-17.7-47.8-5-78.2 c14.9-35.7,34.8-52,51.6-61.9c8.4-4.9,15.9-8.4,21.4-12c5.5-3.6,9-6.8,11.1-11.9c7.2-17.1,14.3-35.2,27.6-47.3 c12-10.9,29.5-15.1,51.6-7.9c10.2-26.2,11.6-42.5,10.7-51.6c-0.5-4.9-1.7-7.8-2.5-9.4c-0.8-1.5-0.6-1.2-0.6-1.2 c-3.2-2.6-3.6-7.3-1-10.5C180.6,1,184,0.1,187,1.3z M262.2,49.3c-8.5-4-19.8-7.6-30.9-6.1c-16.5,2.1-27.9,12.9-34,19.4 c7.6,4.8,21.2,12.3,37.8,10.1c16.6-2.1,27.9-12.9,34.1-19.4C266.6,51.8,266.3,51.2,262.2,49.3z M173.4,92.4 c-22.3-9.3-33.6-6.1-43.1,2.6c-9.5,8.7-16.7,24.9-23.9,42c-3.6,8.6-10,14.3-16.8,18.7c-6.8,4.4-14.3,7.8-21.9,12.3 c-15.2,9-31.7,21.9-45.5,54.8c-11.1,26.5-7.3,47.2,3.8,64.4c11.1,17.2,30.2,30.5,49.7,38.7c19.5,8.2,42.4,12.4,62.4,8.2 c19.9-4.2,37.2-15.9,48.3-42.2c10.4-34.4,8.2-55.6,4.6-72.6c-1.8-8.5-4-16-5.1-23.7c-1.1-7.7-0.9-15.9,2.6-24.2 c7.2-17.1,13.7-33.6,13.2-46.5C201.3,112.1,195.8,101.8,173.4,92.4z"></path></g></svg>
