<svg xmlns="http://www.w3.org/2000/svg" viewBox="0 0 289 353" width="20px">
<g>
	<path fill="#3F0808" d="M263.7,50.9c-7.5-3.9-20.3-5.6-39.9,6.6c-0.2-15.3-2.1-23-2.2-23.4c-0.4-1.6-1.5-3-3.1-3.8
		c-1.5-0.8-3.3-0.9-4.9-0.3c-0.4,0.1-7.7,3-20.4,11.6c-1.2-23-9.9-32.6-17.4-36.5C140.7-13.2,81.1,55,42.9,128.4
		c-40.6,77.8-47.6,167.7-14.5,185c10,5.2,19.5,10.2,31.5,3.7c2.9-1.6,6.3-1.6,9.3-0.1c2.9,1.5,4.9,4.3,5.2,7.6
		c1.6,13.6,11.1,18.5,21.1,23.7c33.1,17.3,102.8-40,143.3-117.8C277.1,157.1,298.8,69.2,263.7,50.9L263.7,50.9z M100.6,338.6
		c-10.5-5.5-13.9-7.8-14.7-14.7c-0.8-7.1-5.2-13.3-11.6-16.7c-6.4-3.4-14-3.4-20.3,0c-6.1,3.3-10,1.8-20.5-3.6
		c-21.8-11.4-23.1-87.7,19.7-169.8C96.7,50.3,150.1,4.1,170.8,14.9c7.5,3.9,11.4,15.8,11.1,33.6c0,1.4,0.1,3,0.4,4.6
		c0.3,2,1.7,3.7,3.6,4.5c1.9,0.8,4.1,0.6,5.7-0.6c8.6-6.4,15.4-10.6,20-13.2c0.5,5.2,1,13.2,0.6,23.9c-0.1,2,1,3.9,2.8,5.1
		c1.8,1.1,4,1.3,5.8,0.4c1.5-0.7,2.8-1.5,4-2.4c14.4-10.4,26.4-14.1,33.9-10.2c20.7,10.8,13.4,81-30.1,164.4
		C185.7,307.3,122.4,349.9,100.6,338.6L100.6,338.6z M170.1,75.2l-106,203.4c-1.2,2.3-3.9,3.5-6.6,2.8c-3.8-1.1-5.6-5.1-4-8.1
		L159.6,69.8c1.4-2.7,4.9-3.7,7.8-2.2C170.3,69.1,171.5,72.5,170.1,75.2z M220,101.2L114,304.6c-1.2,2.3-3.9,3.5-6.6,2.8
		c-3.8-1.1-5.6-5.1-4-8.1L209.5,95.8c1.4-2.7,4.9-3.7,7.8-2.2C220.2,95.1,221.4,98.5,220,101.2z"/>
</g>
</svg>
