<svg xmlns="http://www.w3.org/2000/svg" width="20px" viewBox="0 0 289 353">
      <g>
        <g>
          <g>
            <path fill="#3E9917" d="M93.4,127.4l-11-7.3l0,0l0,0L59,103.9l-0.8-0.6l-0.4-0.8L28.4,44l-4.7-9.4l9.6,4.2l41.1,18.1L86.8,8.8
              L89,0.1l4.6,7.8l31.1,52.1l0.5,0.9l0,1l0.3,38.2l0-0.4l0,0.4l0,0l0,0l0,0.1l0,8.1l-7.5,0l0-8.1l0,0l-0.3-37.2L91.8,19.5
              L80.9,61.6l24.9,41.1l0,0l0,0.1l5.1,8.9l-6.5,3.8l-5.1-8.8l0,0L74.3,65.2L39.8,50L64,98.3l22.6,15.6l0,0l11,7.3
              C97.6,121.1,93.4,127.4,93.4,127.4z M82.4,120.1l0.7,0.4L82.4,120.1C82.4,120.1,82.4,120.1,82.4,120.1z M105.8,102.7L105.8,102.7
              L105.8,102.7L105.8,102.7z"/>
            <path fill="#3E9917" d="M119.8,59.1l17-9.8l0,0l18.9-11.9l6.3-4l-0.6,7.5l-3.5,46.2l0,0l0,0.1l-1.9,18.4l-7.5-0.8l1.9-18.3l0,0
              l3-38.7l-12.5,7.9l-0.1,0l0,0l0.1,0l0,0l-0.1,0l0,0l-0.1,0.1l-17.1,9.8C123.5,65.6,119.8,59.1,119.8,59.1z M157.9,87.1l0-0.3
              L157.9,87.1C157.9,87.1,157.9,87.1,157.9,87.1z"/>
            <path fill="#3E9917" d="M62,105.6l-3.5,0.9l-36.2,9.2l37.5,19.1l0.1,0.1l0,0l0.3,0.2l0,0l15.8,8.7l-3.6,6.6l-16.1-8.9l0,0L9.9,117.9
              L1,113.4l9.7-2.5l45.9-11.7l3.5-0.9C60.1,98.3,62,105.6,62,105.6z M59.9,134.9l0.3,0.2L59.9,134.9
              C59.9,134.9,59.9,134.9,59.9,134.9z"/>
          </g>
          <path fill="#CCB12B" d="M104.4,113.6c24.7-13.6,54.2-12.9,81.8-0.8c27.3,11.9,52.9,35.1,70.2,66.6s23.2,65.5,18.6,94.9
            c-4.6,29.8-19.8,55.1-44.5,68.7s-54.2,12.9-81.8,0.8c-27.3-11.9-52.9-35.1-70.2-66.6c-17.3-31.5-23.2-65.5-18.6-94.9
            C64.5,152.4,79.7,127.2,104.4,113.6z M183.3,119.7c-25.5-11.2-52.6-11.9-75.2,0.6c-22.6,12.4-36.5,35.7-40.7,63.2
            c-4.3,27.9,1.3,60.1,17.8,90.1c16.5,30,40.7,52,66.6,63.3c25.5,11.2,52.6,11.9,75.2-0.6c22.6-12.4,36.5-35.7,40.7-63.2
            c4.3-27.9-1.3-60.1-17.8-90.1C233.3,153,209.1,131,183.3,119.7z"/>
          <g>
            <polygon fill="#CCB12B" points="165.9,111.3 77.1,258.1 70.6,254.2 159.5,107.4 			"/>
            <polygon fill="#CCB12B" points="204.7,130.6 101.9,300.6 95.4,296.7 198.3,126.7 			"/>
            <polygon fill="#CCB12B" points="238.7,158.1 134.9,329.5 128.4,325.6 232.2,154.2 			"/>
            <polygon fill="#CCB12B" points="263.5,200.5 172.5,350.8 166.1,346.9 257,196.6 			"/>
          </g>
          <g>
            <polygon fill="#CCB12B" points="69.8,156.8 241.3,160.3 241.2,167.9 69.6,164.3 			"/>
            <polygon fill="#CCB12B" points="65.3,199.9 263.9,204 263.7,211.6 65.1,207.4 			"/>
            <polygon fill="#CCB12B" points="70.3,243.2 270.7,247.4 270.5,254.9 70.1,250.8 			"/>
            <polygon fill="#CCB12B" points="92.9,286.9 268.5,290.5 268.3,298.1 92.7,294.5 			"/>
          </g>
        </g>
      </g>
    </svg>
