<svg xmlns="http://www.w3.org/2000/svg" width="20px" viewBox="0 0 289 353">
<path fill="#65DD5F" d="M224.5,135.6c-3.8,1.4-5.8,5.6-4.4,9.4c23,62.4,8.6,145.5-27.5,158.9c-3.8,1.4-5.8,5.6-4.4,9.4
	c1.4,3.8,5.6,5.7,9.4,4.3c44.4-16.4,62.7-106,36.2-177.7C232.5,136.1,228.3,134.2,224.5,135.6L224.5,135.6z M173.2,7.5
	c-6.7-4.8-15.4-5.5-22.8-1.8c-5.3,2.6-9.1,7-10.9,12.3c-18.8-8.3-37.1-9.5-53.6-3.5c-16.4,6-29.5,18.9-38.4,37.3
	c-4.9-3-10.8-3.9-16.6-2.4c-7.9,2-14.1,8.2-16.1,16.1c-11.1,44.2-6.6,99.1,12.5,150.7c29.4,79.7,114.7,153.4,180.6,129.1
	s83-135.8,53.6-215.5C242.7,78.7,210.5,34.1,173.2,7.5L173.2,7.5z M138.1,33.5c0,1.1,0,2.4,0,3.5c0,4.3,0,8.7,0.1,13.2
	c0,2.2,0.1,4.4,0.2,6.6c0.1,4.5,0.3,9,0.6,13.6c0.1,2.3,0.3,4.6,0.4,6.9c0.3,4.6,0.6,9.3,0.9,13.9c0.2,2.4,0.4,4.7,0.6,7.1
	c0.4,4.7,0.8,9.4,1.2,14.1c0.3,2.4,0.5,4.8,0.8,7.2c0.5,4.7,1,9.4,1.5,14.1c0.3,2.3,0.6,4.6,0.8,6.9c0.6,4.7,1.1,9.4,1.7,14
	c0.3,2.1,0.5,4.2,0.8,6.2c1.5,11.5,3,22.8,4.6,33.5c-1.5-2.5-3.2-5-4.8-7.5c-1.9-3.1-3.9-6.1-5.9-9.2c-1.5-2.4-3.1-4.8-4.7-7.2
	c-2.2-3.4-4.4-6.8-6.6-10.2c-2-3-4-6.1-6.1-9.2c-1.9-2.8-3.7-5.5-5.6-8.3c-2.4-3.6-4.8-7.1-7.3-10.6c-1.6-2.3-3.1-4.5-4.7-6.8
	c-2.6-3.8-5.3-7.5-8-11.2c-1.4-2-2.9-4-4.3-6c-2.7-3.8-5.5-7.4-8.3-11.1c-1.4-1.9-2.8-3.8-4.3-5.6c-2.8-3.6-5.6-7.1-8.4-10.6
	c-1.4-1.8-2.9-3.6-4.3-5.3c-2.8-3.4-5.5-6.6-8.2-9.8c-0.8-0.9-1.6-1.9-2.4-2.8C73.1,27.8,104.4,16.3,138.1,33.5L138.1,33.5z
	 M202.8,331.4C145.5,352.5,67.5,282.9,41,211.1C23,162.2,18.6,110.4,29,69c0.6-2.4,2.4-4.4,4.7-5.2c0.3-0.1,0.5-0.2,0.8-0.3
	c1.2-0.3,4.4-0.8,7,2c2,2.2,4,4.6,6,6.9c4.1,4.6,8.2,9.4,12.3,14.4c0.8,1.1,1.7,2.2,2.5,3.2c4.4,5.5,8.8,11.1,13.2,16.9
	c0.5,0.7,1,1.4,1.5,2c4.7,6.3,9.4,12.7,14.1,19.3c0.1,0.1,0.2,0.2,0.3,0.4c25.3,35.8,49.2,74.1,67.3,103.2c1.9,2.9,5.5,4.2,8.8,3
	c1.6-0.6,2.9-1.7,3.8-3.2c0.8-1.4,1.2-3.1,1-4.8c-5.2-34.7-12.1-80.5-16.1-125c-0.2-2-0.3-4-0.5-6c-0.6-6.7-1.1-13.3-1.5-19.8
	c-0.2-3.2-0.3-6.4-0.4-9.5c-0.2-5.2-0.5-10.4-0.6-15.5c-0.1-3.8,0-7.4,0-11.1c0-5.1-0.1-10.3,0.1-15.1c0.1-3.8,2.8-5.5,4-6.1
	c2.5-1.2,5.4-1,7.7,0.6c35,25,65.2,67,83.1,115.4C274.2,206.6,260,310.3,202.8,331.4L202.8,331.4z"/>
</svg>
