<svg xmlns="http://www.w3.org/2000/svg" width="20px" viewBox="0 0 289 353"><path fill="#A0054B" d="M188.4,80.5c3.2-14.4,13.7-26.4,28-31.7l0,0c0.4-0.2,0.8-0.4,1.2-0.7c0.3-0.2,0.6-0.3,0.9-0.5 c0.3-0.3,0.5-0.6,0.7-0.9c0.3-0.3,0.5-0.6,0.7-1c0-0.3,0-0.6,0-1c0.3-0.4,0.6-0.9,0.8-1.5l0,0c0-0.3,0-0.7,0-1c0-0.3,0-0.7,0-1l0,0 c-0.2-0.4-0.4-0.8-0.7-1.2c-0.2-0.3-0.4-0.6-0.6-0.8c-0.6-0.5-1.3-0.9-1.9-1.3h-1c-0.6-0.3-1.3-0.6-2-0.7l0,0 c-16.2-0.1-32.1,4.6-45.5,13.5L151.3,4.8c-0.9-2.5-3.3-4.1-6-4.1l0,0c-2.6,0-5,1.6-5.9,3.9l-17.6,46C108.3,41.8,92.4,37,76.1,37.1 l0,0c-0.5-0.1-1-0.1-1.4,0h-0.9c-0.7,0.4-1.3,0.9-1.9,1.3c-0.2,0.2-0.4,0.5-0.6,0.8c-0.3,0.4-0.6,0.8-0.8,1.2l0,0c0,0.3,0,0.7,0,1 c-0.3,0.5-0.5,1.1-0.6,1.7l0,0c-0.1,0.4-0.1,0.9,0,1.3c0,0.3,0,0.6,0,1c0.2,0.3,0.4,0.7,0.7,1c0.2,0.3,0.4,0.6,0.7,0.9 c0.3,0.2,0.5,0.4,0.8,0.5c0.4,0.3,0.8,0.5,1.2,0.7l0,0c14.3,5.4,24.8,17.3,28,31.8C25.1,103.5-17.2,181.8,6.7,255.3 s105,114.3,181.1,91.3s118.4-101.4,94.5-174.9c-14.2-43.5-49.5-77.6-94.5-91.3L188.4,80.5z M145.2,340.3 c-72.8-0.9-131.1-58.6-130.2-129c0.7-56.2,39.5-105.3,95.4-120.8h0.6l1.1-0.5l0.9-0.7c0.9-0.8,1.5-1.8,1.8-2.9c0-0.4,0-0.8,0-1.2 c0-0.2,0-0.4,0-0.5c-0.9-11.2-5.4-21.8-12.9-30.3c6.6,2.5,12.7,6,18.2,10.4c0.7,0.7,1.5,1.2,2.4,1.6c0.7,0.2,1.4,0.4,2.1,0.4 c0.9,0,1.7-0.2,2.5-0.6l0,0c0.7-0.3,1.3-0.8,1.8-1.3l0,0l0,0c0.5-0.5,0.9-1.2,1.1-1.8l0,0l0,0l15.2-38.8l14.6,38l0,0l0,0v0.7l0,0 c0.2,0.2,0.3,0.5,0.5,0.7c0,0.2,0,0.3,0,0.5l0,0c0.5,0.5,1.1,1,1.8,1.3l0,0c1.4,0.5,3,0.5,4.5,0l0,0h0.6c0.4-0.2,0.7-0.5,1.1-0.8 l0,0c5.4-4.6,11.5-8.2,18.2-10.8c-7.5,8.5-12,19.2-12.9,30.3c0,0.2,0,0.4,0,0.6c0.1,1.6,0.8,3,1.9,4.1l0.9,0.7l1.1,0.5h0.6 c70.4,18.2,112.1,88.1,93.2,156C255.8,301.2,204.4,339.7,145.2,340.3z"></path></svg>
