<svg xmlns="http://www.w3.org/2000/svg" width="20px" viewBox="0 0 289 353"><g><path fill="#AF2543" d="M96.2,58.8c2.6-27.8-18-53.1-18.9-54.1l-3.3-4l-4,3.3c-1.1,0.9-26.1,21.7-28.8,49.6c-0.4,4.6-0.2,9,0.4,13.2 L23.4,44.3l-8.2,6.6l25.6,31.5c-1.2-0.3-2.3-0.5-3.5-0.6C21.1,79.9,7,90.6,4.4,92.7l-4.1,3.5l2.9,3.9c0.5,0.7,12.4,16.4,29.8,18.4 c12.6,1.5,24.4-4.8,30.2-8.5l58.7,72.4c-8.4-0.9-17.1,1.1-24.5,6.4c-7.1,5.1-12,12.6-14,21.2l5.1,1.2l-5.1-1.1 c-2.2,9.9-0.1,20.4,5.8,28.6c6.8,9.4,17.7,14.9,29.3,14.8l-0.1-5.2l0.1,5.2c1.8,0,3.5-0.2,5.2-0.4c-0.6,1.6-1.1,3.2-1.5,4.9 c-2.2,9.9-0.1,20.3,5.8,28.6c6.8,9.4,17.7,15,29.3,14.8l-0.1-5.2l0.1,5.2c2.9,0,5.8-0.5,8.6-1.2c-1.3,2.6-2.3,5.3-2.9,8.2l5.1,1.2 l-5.1-1.1c-2.2,9.9-0.1,20.4,5.8,28.6c6.7,9.4,17.7,14.9,29.3,14.8l0-5.2l0.1,5.2c7.4-0.1,14.5-2.4,20.4-6.7 c0.6-0.4,1.2-0.9,1.7-1.3c6.8-5.5,11.2-13.2,12.7-21.8c1.6-9.4-0.7-18.8-6.2-26.6c-0.4-0.6-0.9-1.1-1.3-1.6l0,0l-6.1-7.5 c8.4,0.9,17.1-1.1,24.5-6.4c0.6-0.4,1.1-0.8,1.7-1.3c14.6-11.8,17.5-33.1,6.5-48.4c-8.5-11.9-23-16.9-36.5-14 c5-11.2,4.1-24.7-3.5-35.4c-7.9-11-21-16.2-33.6-14.5c3.8-10.7,2.4-22.9-4.6-32.7c-11.4-16-33.7-19.6-49.7-8.2 c-8.6,6.2-13.6,15.5-14.6,25.2l-37.9-46.8C79,96.6,94.1,80.2,96.2,58.8z M51.6,54.5c1.6-17.2,14.3-32,20.9-38.6 c5.3,7.8,14.8,24.6,13.2,41.9c-1.7,17.3-14.3,31.4-20.8,37.6C59.7,88,50,71.8,51.6,54.5z M34.2,108.2c-8.2-0.9-15-6.4-18.9-10.2 C20,95,27.9,91.3,36,92.2c8.1,0.9,15.3,6.4,19.5,10.3C50.5,105.4,42.4,109.1,34.2,108.2z M201.4,280.8c-4.2-0.4-8.4-0.2-12.6,0.9 c1.6-3.1,2.7-6.5,3.3-10.1c0.1-0.7,0.2-1.4,0.2-2.1L201.4,280.8z M160.7,230.4c-3-0.3-6.1-0.3-9.2,0.2c0.8-2.2,1.5-4.5,1.9-6.9 c0.1-0.7,0.2-1.4,0.2-2L160.7,230.4L160.7,230.4z M97.8,232.6c-4.2-5.9-5.7-13-4.1-20.2c1.4-6.1,4.9-11.4,9.8-14.9 c11.3-8.1,27-5.5,35.1,5.8c3.9,5.5,5.5,12.1,4.4,18.7c-1.1,6.6-4.7,12.4-10.2,16.3c-4.2,3-9.2,4.6-14.4,4.7l0,0 C110.3,243.1,102.5,239.2,97.8,232.6z M136.5,280.5c-4.2-5.8-5.6-13.1-4.1-20.1c1.4-6.1,4.8-11.3,9.8-15c11.3-8.1,27-5.5,35.1,5.8 c3.9,5.5,5.5,12.1,4.4,18.7c-1.1,6.6-4.7,12.4-10.2,16.3c-4.2,3-9.2,4.6-14.4,4.7C149,291,141.3,287.1,136.5,280.5z M218.2,301.5 c3.9,5.5,5.5,12.1,4.4,18.7c-1.1,6.6-4.7,12.4-10.2,16.3c-4.2,3-9.2,4.6-14.4,4.7c-8.2,0.1-15.9-3.8-20.7-10.4 c-4.2-5.8-5.6-13.1-4.1-20.2c1.4-6,4.9-11.4,9.8-14.9C194.4,287.7,210.1,290.3,218.2,301.5z M179.4,236.8c3.7,0.4,7.5,0.2,11.3-0.6 c-1.6,3.5-2.5,7.1-2.9,10.9L179.4,236.8z M243.5,236.2c8,11.2,5.7,26.9-5.8,35.1c-11.3,8.1-27,5.5-35.1-5.8 c-7.8-10.8-5.7-25.8,4.6-34.2c0.4-0.3,0.8-0.6,1.2-0.9C219.7,222.4,235.4,225,243.5,236.2z M168.4,181c11.3-8.1,27-5.5,35.1,5.8 c8,11.2,5.7,26.8-5.8,35.1c-11.3,8.1-27,5.5-35.1-5.8c-7.7-10.7-5.8-25.6,4.3-34c0.1-0.1,0.2-0.1,0.3-0.2c0.1-0.1,0.2-0.1,0.2-0.2 C167.8,181.5,168.1,181.2,168.4,181z M124.4,168.9c-7.7-10.8-5.7-25.8,4.6-34.2c0.4-0.3,0.8-0.6,1.2-0.9c11.3-8.1,27-5.5,35.1,5.8 c8,11.2,5.7,26.9-5.8,35.1C148.2,182.7,132.5,180.1,124.4,168.9z M149.5,189.5c-0.9,2.6-1.5,5.4-1.8,8.2l-6.6-8.1 C143.9,189.9,146.7,189.9,149.5,189.5z"></path></g></svg>
