<svg xmlns="http://www.w3.org/2000/svg" xmlns:xlink="http://www.w3.org/1999/xlink" width="20px" viewBox="0 0 289 353">
<path fill="#54071D" d="M197.5,283.6l-43.1-105.2c36.6-18.6,52.3-57,37.1-94.1c-10.2-24.7-64.1-73.7-70.7-79.4
	c-2.1-2.2-5.1-2.1-7.7-1.1L45.6,31.5c-2.6,1.1-4.5,3.7-4.5,6.7c0,3-2.3,79.9,7.3,104.8c6.9,18.3,20.4,32,37.9,39.3
	c16.8,7,35.8,7.6,55.1,1.5l43.4,105.7l-31.8,45c-1.1,1.7-1.8,4.4-1,6.4c0.8,2.1,2.2,3.9,4.4,4.8c14.2,5,28.6,0.3,55-10.5
	s39.5-17.4,46-30.9c0.9-2.2,1.1-4.7-0.3-6.5c-1.4-1.8-3.2-3.5-5.2-3.9L197.5,283.6z M55.3,43.2L114.4,19
	c12.4,11.2,33.7,32,48.9,49.8c-7.9,4.4-25.6,12.9-52.5,24c-26.4,10.8-45.5,17.5-54.2,19.8C55,89.7,54.8,59.7,55.3,43.2L55.3,43.2z
	 M61.4,137.7c-1.1-2.6-2-6.4-2.7-10.9c10-2.3,27-8,57.5-20.6s47.2-20.6,55.4-25.7c2.7,3.7,4.7,7.1,5.8,9.7c11,26.8,2,62.4-35.8,77.9
	c-17.6,7.2-35.2,7.2-50.5,0.8C78,163.4,67.3,152.1,61.4,137.7L61.4,137.7z M205.4,322c-17.1,7-27.2,10.5-34.2,11l24.5-34.7l41.8,7.5
	C231.4,310.1,222.5,315,205.4,322z"/>
</svg>
