<svg xmlns="http://www.w3.org/2000/svg" xmlns:xlink="http://www.w3.org/1999/xlink" width="20px" viewBox="0 0 289 353">
<path fill="#274C11" d="M256.4,223c-7.8-10.1-28.5-19.6-44.4-20.5c-7.5-0.1-15,0.8-22.3,2.8c13-9.5,27.7-16.3,43.3-20
	c6-1.5,10-2.6,11.8-6.1c1.6-2.4,1.7-5.5,0.3-8.1c-2.6-4.5-9.6-5-10.3-5c-9.4-0.6-18.8,1.4-27.2,5.9c3-4.7,5.7-9.5,8.1-14.4
	c4.8-9.6,3.7-14.7,1.7-17.3c-1.7-2.4-4.7-3.6-7.6-3.1c-5.1,1-9.3,4.6-11,9.5c-3.9,10.4-23.5,40.9-25.5,44.1
	c-2.8,2.2-5.6,4.6-8.3,7.4c1.2-18.7-0.4-37.4-5-55.6c21.4-9.6,45.3-11,59.9-11.7c10.9-0.6,14.3-0.9,16.1-3.1c1.7-2.1,2-5,0.6-7.4
	c-5.7-9.3-34.7-6.4-58-2.4c-17.8,2.5-34.2,10.7-47,23.3c1-3.7,2.1-7,3.2-10.3l0.4-0.2c28.3-22.4,61-38.7,95.9-47.8
	c11-3.2,16.3-4.7,17.4-8.4c0.7-2.2,0.5-4.6-0.7-6.6c-2.7-3.4-6.5-5.8-10.7-6.6h-0.3c-29.9-3.7-67.9,22.1-86.7,37
	c2.3-4.4,4.4-8.6,6.4-12.7l0,0c0.8,0,1.5-0.3,2.1-0.8c14-13.5,34.7-22.3,49.8-28.7c5.3-2.1,10.4-4.6,15.4-7.4c4.9-3,7.1-6.1,7-9.4
	c-0.2-2.7-1.8-5.1-4.2-6.3C209,24.9,182.4,45,168.4,57.5c5.5-16.4,6.5-28.3,2.5-33.9c-1.5-2.3-4.3-3.5-7.1-3
	c-4.6,0.9-8.9,6.2-10.7,13.2c-1.4,5.6-4,13.6-7.1,22.3c0.1-30.2-7-54.6-15-55.9c-2.1-0.3-5.8,0.3-7.5,8.4c-3,14.2,6.4,78.6,7.8,86.8
	l-2.5,6.3c-1.3-13.3-4.7-30.8-13.8-43.5c-13.2-18.4-27.3-30-35.1-29.1c-2.3,0.2-4.3,1.7-5.2,3.9c-2.2,5.4,2.1,10,8.1,16.3
	c6.4,6.4,12,13.6,16.6,21.4c9.2,16.4,18.7,33.3,15.5,58.9c-3.2,8.2-5.9,16.6-8.2,25.1c-3.9-22.1-13.1-53.7-34.7-69.7
	c-3.6-2.5-8-3.7-12.4-3.2c-2.3,0.6-4.3,2.1-5.3,4.2c-1.8,3.5,0.9,6.6,5.1,11.4c9.3,10.5,30.4,34.6,37.6,94.9
	c-7.3-19.1-16.6-37.3-27.7-54.5c-6.1-10-14.1-12.9-19.1-12.2c-3.3,0.3-6.1,2.5-7.1,5.6c-1.1,3.3-1,10.7,11.6,22.1
	c22.7,20.4,38.4,75.4,40.1,80.6c-0.3,4.7-0.6,9.4-0.8,14.3c-2.5-3.7-5-6.8-7.4-9.7c-11.4-13.6-34-55.6-34.2-56
	c-1.7-3.2-12-18.4-19.2-15.7c-4.3,1.7-4.8,7.8-1.4,20.4c6.7,25.3,44.6,69.9,61.4,88.8c0,3.7,0,7.1,0,10.7
	c-7.4-10.4-21.3-24.4-39-29.4h-0.3c-5.3-0.7-10.3,3-11,8.4c-1.3,6.1,3.1,7.9,7.4,9.6c6.3,2.4,12.1,5.9,17.1,10.2
	c11.1,9.7,20.1,21.6,26.5,34.8c0.3,6.3,0.6,12.7,0.9,19.1c0.3,4.6,2.3,8.9,5.7,12c1.8,1.3,4,2,6.3,2c1.1,0,2.1-0.1,3.1-0.4
	c3.8-0.6,7.2-2.8,9.3-6c1.5-2.5,2-5.4,1.5-8.3c0-0.8-0.4-4-0.7-9.3c2.3-15.6,6.2-30.8,11.7-45.6c23.5-14.5,46-12.5,61-11
	c9.2,0.8,15.2,1.4,18.1-2.5c2.2-2.8,2.6-6.7,0.9-9.8c-2.3-4.8-9.5-10.3-30.2-10.1c-13.5,0.8-26.7,3.9-39,9.3
	c4.6-8.8,9.7-17.3,15.4-25.5c44.5-21.4,73.6-7.6,87.7-0.9c5.7,2.7,8.8,4.2,11.5,2.8c1.3-0.6,2.2-1.9,2.5-3.3
	C259.9,229.2,258.8,225.6,256.4,223z M236.2,67.2c2.6,0.5,4.9,1.8,6.7,3.7c0.3,0.5,0.4,1,0.2,1.6c-4.3,2.1-8.8,3.7-13.4,4.8
	c-32.8,8.6-63.7,23.3-91,43.4c0.7-1.7,1.3-3.3,2-4.8l1.9-3.4C143.8,111.4,198.5,62.6,236.2,67.2z M224,38.7c0.3,0,1.1,0.8,1.1,1.2
	c0,0.4-0.8,2-4.2,4c-4.8,2.6-9.7,4.8-14.7,6.8c-13.2,5.6-30.6,13.1-44.6,23.9l1.8-4.3C175,58.4,207.1,30.8,224,38.7z M129.2,9.7
	c0.2-1.2,0.6-2.3,1.1-3.4c4.2,3.4,12.8,30,8.6,68.8l-3.4,8.9C132.2,59.8,127.2,19.4,129.2,9.7z M58.6,148.7
	c-8.5-7.7-10.6-13.3-9.9-15.8c0-0.3,0.4-1.3,2.1-1.5c3.4-0.4,9,2.4,13.3,9.5c10.8,17.7,25.5,42,32.5,70.8c-0.2,2-0.4,4.1-0.6,6.2
	C89.3,198.3,76.2,164.5,58.6,148.7z M37.4,185.5c-1.5-4.2-2.1-8.7-1.8-13.2c4.8,3.3,8.7,7.7,11.5,12.8c0.9,1.8,23.1,43,34.8,57
	c4.2,5.1,8.1,10.4,11.6,15.9l-0.2,9C77.1,248.5,43.3,207.9,37.4,185.5L37.4,185.5z M71.2,280.8c-5.5-4.8-11.8-8.6-18.7-11.3
	c-1.4-0.4-2.7-1.1-3.9-1.9c-0.1-0.3-0.1-0.6,0-0.9c0.7-3.3,2.6-3.7,3.7-3.7h0.2c23.8,6.8,39.4,31.7,40.5,35.3c0,0,0,0.3,0,0.4v0.3
	l0.2,8.2C87.3,297.4,79.9,288.4,71.2,280.8L71.2,280.8z M114.1,343.7c-1.3,1.8-3.3,3-5.6,3.3c-1.5,0.5-3.2,0.3-4.5-0.6
	c-2-2-3.2-4.7-3.4-7.6c-0.4-6.5-0.7-13.1-0.9-19.6l-0.6-20.7l0,0c0-8.2,0-16.2,0-23.8l0,0l0.4-17.5c0.7-20.1,2.1-39,4.4-56
	c0-0.2,0-0.4,0-0.7C97.6,131.8,74,104.9,63.8,93.5c-1.5-1.6-2.9-3.3-4.1-5.2c0.3-0.4,0.7-0.8,1.3-0.9c2.7-0.1,5.3,0.7,7.5,2.3
	c26.4,19.5,33.1,67.1,34.4,81.3c0.1,1.6,1.6,2.8,3.2,2.7c1.3-0.1,2.4-1.1,2.6-2.4c2.8-13.7,6.7-27.2,11.7-40.2
	c0.1-0.2,0.2-0.5,0.2-0.7c3.7-27.6-7-46.3-16.2-62.8C99.7,59.3,93.8,51.7,87,45c-4.1-4.5-7.7-8.1-6.9-9.9c0-0.2,0-0.3,0.4-0.3
	c3.9-0.4,16,7.7,29.4,26.6c11,15.1,13,38.1,13.3,50.5c0.1,1.6,1.4,2.9,3.1,2.9c1,0,2-0.6,2.5-1.5c1.3-2.2,2.6-4.3,3.9-6.3
	c0.1-0.2,0.2-0.4,0.3-0.6c7.8-19.4,21.6-54.5,25.8-71.2c1.4-5.5,4.3-8.5,6-8.8c0.3,0,0.7,0,1.1,0.6c3.7,5,1.8,29.4-30.6,86v0.3
	c-5.4,12.9-9.6,26.3-12.6,40c-0.3,1.6,0.7,3.2,2.3,3.5c1.2,0.2,2.4-0.3,3.1-1.3c7.4-11.7,22.3-26.6,51.7-31.7
	c47-8.2,51.9-0.4,51.9-0.3c0,0.1,0,0.2,0,0.3c-3.9,0.7-7.9,1-11.8,1.1c-25.3,1.4-78,4.2-100.7,47.4c-0.1,0.3-0.2,0.6-0.3,0.9
	c-5.5,37-7.7,74.4-6.8,111.8c0,0.2,0,0.5,0,0.7l1.8,43.5l0,0l0,0c0.4,6.4,0.8,9.9,0.8,9.9c0,0.1,0,0.3,0,0.4
	C115,341,114.8,342.4,114.1,343.7z M117.8,269.7c-0.2-31.8,2.1-63.6,6.8-95.1c4.2-7.9,10-14.9,16.9-20.6c3.2,10.6,10.8,40.1,6,64.2
	C135.7,234.2,125.8,251.5,117.8,269.7L117.8,269.7z M248,227.8c-14.9-7-46.1-21.7-93.5,1.3c-0.5,0.2-0.8,0.5-1.1,1
	c-7.6,10.8-14.2,22.3-19.8,34.2c-0.6,1.5,0.1,3.3,1.6,3.9c0.7,0.3,1.4,0.3,2.1,0.1c9.2-4.3,27.2-11.7,44.1-12
	c15.7-0.3,23.1,3.2,24.8,6.6c0.7,1.2,0.5,2.6-0.3,3.7c-0.9,1.2-7.8,0.6-12.9,0c-15-1.3-40-3.7-65.5,12.6c-0.5,0.4-1,0.9-1.2,1.5
	c-2.9,7.8-5.3,15.7-7.4,23.7l-0.8-19.1c8.4-22.8,20.1-44.3,34.5-63.9c0.3-0.3,0.5-0.7,0.6-1.2c5.8-27.8-3.7-61.1-6.6-69.9
	c2.6-1.8,5.4-3.5,8.2-5c5.5,22.1,6.3,50.1,3.1,60.9c-0.5,1.6,0.4,3.2,2,3.7c1.1,0.3,2.3,0,3-0.8c4.5-4.9,9.4-9.5,14.7-13.6
	c0.2-0.2,0.4-0.3,0.6-0.6v-0.2c0.9-1.4,22.1-34.1,26.4-45.6c0.9-2.9,3.2-5.1,6.1-5.8c0.7-0.2,1.5,0,1.9,0.6c0.9,1.3,0.9,5-2.2,11
	c-4.3,8.9-9.7,17.3-15.9,25.1c-1,1.3-0.8,3.2,0.5,4.2c1,0.8,2.4,0.8,3.5,0.1c13.2-9.2,25.3-13.2,35.8-12.2c1.8,0,4.9,0.9,5.6,2.1
	c0.4,0.6,0,1.7-0.4,2.4s-4,2-8.1,3.1c-10.7,2.7-30.5,7.8-58.2,30.9c-1.3,1-1.4,2.9-0.4,4.2c0.8,1,2.1,1.3,3.3,0.9
	c14.7-5,27.1-7.4,35.5-7c15.5,0.8,33.9,10.2,40,18.1c0.9,1.1,1.5,2.3,1.8,3.7C252.2,229.8,250,228.8,248,227.8z"/>
</svg>
