<svg xmlns="http://www.w3.org/2000/svg" width="20px" viewBox="0 0 289 353"><path fill="#890062" d="M162.6,302.9c-10.5-23.4-56.7-32.8-82.9-36.4l38.3-48.9c0.4,0.3,0.8,0.7,1.2,1c12.7,9.3,28,14.2,43.9,14.1 c37.9,1,57.8-37.4,75.3-71.4c12.8-24.9,26.1-50.6,43.6-55c4.8-1.2,7.8-6.1,6.8-10.9c-0.8-3.5-3.6-6.2-7.2-6.7 c-2.7-0.4-9.5-1.4-18.8-2.3c0.2-16.6-3.1-33-9.6-48.1c-1.6-4.1-6-6.3-10.3-5.2l-28,7.3c-8.8-16.3-22-29.6-38.2-38.4 c-4.3-2.3-9.8-0.6-12.1,3.9c-1,1.8-1.3,3.8-1,5.8c2.5,15-8.3,22.3-31.1,36c-23.7,12.4-44.3,30.3-60.2,52 c-11,14.2-14.8,32.6-10.4,49.7c3.9,11.3,11.1,21.1,20.6,28.2c5.3,4.1,11.1,7.7,17.1,10.5c1.1,4.4,2.6,8.7,4.6,12.8 c0.6,1.1,1.3,2.2,1.9,3.2l-29.6,37.7c-5.7-20.8-18.6-53.2-46-68.8c-3.7-2.1-8.5-1.2-11.3,2.2c-12.7,16.5-18.7,37-16.8,57.5 c3.8,23.5,16.7,44.3,36,57.8L1.3,337.9c-3.1,3.9-2.5,9.6,1.4,12.6s9.5,2.3,12.6-1.7l24-30.6c4,5.7,8.8,10.9,14.2,15.3 c7.8,6.2,17,10.2,26.9,11.6c39.6,5.8,78.5-30.3,80.1-31.9C163.3,310.5,164.1,306.4,162.6,302.9z M239.2,52.5 c3.9,10.3,6,21.3,6,32.5c-7.2-0.5-15.1-0.8-23.3-0.8c1.5-9,1.2-18.1-0.9-26.9L239.2,52.5z M79,143.5c-2.7-11.9,0.3-24.5,8-34.2 c14.3-19.5,33-35.4,54.3-46.4c17.2-10.4,33.7-20.3,38.8-36.5c12.5,10.4,29.5,30.3,23.7,58.1c-36.2,1.7-74.4,9.8-89.8,34.4 c-9.2,14.2-14.8,30.4-16.2,47.1C89.2,160.8,82.6,152.9,79,143.5z M129,128.2c17-27.1,82.7-27.9,125-24.5 c-12.7,15-23.3,31.8-31.5,49.7c-16.5,32-32.1,62.1-58.6,61.4c-21.3-0.6-36.4-8.4-43.8-22.7C111.5,175.2,114.8,150.7,129,128.2z M20.3,230.2c-1.3-12.8,1.6-25.7,8.1-37c23.5,18.6,31.9,55.1,34,66.6l-12.7,16.3C34.2,265.4,23.7,248.9,20.3,230.2L20.3,230.2z M83.3,327.3c-13.9-2.7-25.8-11.5-32.4-24l15.7-20.1c27,2.7,63,10.9,75.6,22.2C131.1,314.2,106.5,330.7,83.3,327.3z"></path></svg>
