<svg xmlns="http://www.w3.org/2000/svg" xmlns:xlink="http://www.w3.org/1999/xlink" width="20px" viewBox="0 0 289 353">
<path fill="#769B35" d="M152.3,259.4l43.1,26.9l-43.1-57.7V259.4L152.3,259.4z M136.7,228.7l-43.1,57.7l43.1-26.9V228.7L136.7,228.7z
		M152.3,75.4v119.2l93.5-28.5l-52.7-9.3c-2.7-0.5-4.9-2.3-5.9-4.7L152.3,75.4L152.3,75.4z M136.7,194.6V75.4l-34.9,76.8
	c-1.1,2.5-3.3,4.1-5.8,4.5l-52.8,9.3L136.7,194.6L136.7,194.6z M131.6,209.3l-94.1-28.7l42.7,42.7c1.9,1.9,2.6,4.5,2.2,6.9
	l-6.3,53.5L131.6,209.3L131.6,209.3z M212.9,283.7l-6.3-53.9c-0.3-2.5,0.6-4.8,2.2-6.4l42.7-42.7l-94.1,28.7L212.9,283.7
	L212.9,283.7z M220.2,320.3L144.5,273l-75.7,47.3c-5.5,3.4-12.6-1-11.9-7.5l9.5-81L4.3,169.5c-4.4-4.4-2.1-12.1,4.2-13.2l80.7-14.2
	l48.2-105.9c2.7-6.1,11.5-6.2,14.2,0l48.2,105.9l80.5,14.2c6.3,0.9,9,8.7,4.4,13.3l-62.2,62.2l9.5,81
	C232.8,319.1,225.8,323.8,220.2,320.3L220.2,320.3z"/>
</svg>
