<svg xmlns="http://www.w3.org/2000/svg" xmlns:xlink="http://www.w3.org/1999/xlink" width="20px" viewBox="0 0 289 353">
<style type="text/css">
	.staranise{fill-rule:evenodd;clip-rule:evenodd;fill:#593F15;}
</style>
<g>
	<path class="staranise" d="M131.6,214.8c0,0.3-0.1,0.7-0.1,1c-0.2,1-0.6,2-1.2,2.8c-0.5,0.7-0.7,0.9-1.4,1.5l-0.2,0.2c0,0-0.6,0.5-1,0.8
		l-0.2,0.2c-0.3,0.2-0.6,0.5-0.6,0.5l-0.2,0.2c-0.4,0.3-1,0.7-1,0.7c-0.1,0.1-0.1,0.1-0.2,0.2c-0.4,0.3-0.9,0.6-0.9,0.6
		c-0.2,0.1-0.3,0.2-0.3,0.2l-0.1,0.1l-0.2,0.1l-0.6,0.5c-0.2,0.1-0.3,0.2-0.3,0.2c-0.2,0.1-0.4,0.3-0.6,0.4l-0.2,0.2l-1,0.7
		c0,0-0.4,0.2-0.7,0.4l-0.2,0.1c0,0-0.5,0.4-0.9,0.6c-0.2,0.1-0.3,0.2-0.3,0.2c-0.3,0.2-0.6,0.4-0.9,0.6l-0.2,0.1l-0.3,0.2
		c0,0-0.1,0.1-0.3,0.2c-0.1,0.1-0.1,0.1-0.2,0.1c-0.4,0.2-0.9,0.5-0.9,0.5c-0.3,0.2-0.8,0.5-0.8,0.5s-0.3,0.2-0.6,0.3l-0.4,0.2
		l-0.2,0.1c-0.4,0.2-0.8,0.5-0.8,0.5c-0.2,0.1-0.4,0.2-0.4,0.2c-0.6,0.4-1.3,0.7-1.9,1.1l-0.7,0.4l-0.4,0.2
		c-0.2,0.1-0.3,0.2-0.5,0.2l-0.2,0.1c-0.1,0.1-0.1,0.1-0.2,0.1l-0.2,0.1l-0.6,0.3c-0.2,0.1-0.4,0.2-0.4,0.2
		c-0.3,0.1-0.6,0.3-0.6,0.3c-0.2,0.1-0.5,0.2-0.5,0.2c-0.3,0.2-0.7,0.3-0.7,0.3c-0.5,0.2-0.9,0.4-1.4,0.6c0,0-0.7,0.3-1.2,0.5
		c-0.3,0.1-0.7,0.3-0.7,0.3l-0.2,0.1c-0.1,0-0.1,0-0.2,0.1l-0.6,0.3c-0.3,0.1-0.6,0.3-0.9,0.4l-0.3,0.1l-0.2,0.1l-0.8,0.3
		c-0.1,0-0.2,0.1-0.4,0.1c-0.1,0-0.1,0-0.2,0.1l-0.3,0.1l-0.1,0l-0.2,0.1c-0.1,0-0.1,0-0.2,0.1c-0.4,0.1-0.8,0.3-0.8,0.3
		c-0.3,0.1-0.6,0.2-0.6,0.2l-0.3,0.1c-0.3,0.1-0.5,0.2-0.5,0.2c-0.1,0-0.2,0.1-0.3,0.1l-0.5,0.2C95,239,95,239,94.8,239l-0.6,0.2
		l-0.2,0.1c-0.4,0.1-1,0.3-1,0.3l-0.4,0.2c-0.4,0.1-0.9,0.3-0.9,0.3l-0.2,0.1l-0.8,0.2c-0.2,0.1-0.5,0.1-0.5,0.1
		c-0.4,0.1-0.9,0.3-0.9,0.3l-0.2,0.1c-0.3,0.1-0.7,0.2-1,0.3l-1,0.3l-0.5,0.1l-0.5,0.1l-0.1,0l-0.2,0.1l-0.2,0.1
		c-0.4,0.1-1,0.3-1,0.3l-0.2,0.1c-0.3,0.1-0.7,0.2-0.7,0.2l-0.2,0c-0.1,0-0.3,0.1-0.4,0.1c-0.2,0.1-0.2,0.1-0.5,0.1
		c-0.2,0.1-0.5,0.1-0.5,0.1l-0.2,0.1l-0.6,0.1l-0.5,0.1c-0.3,0.1-0.8,0.2-0.8,0.2l-0.2,0l-0.2,0c-0.4,0.1-0.8,0.2-0.8,0.2l-0.2,0
		c-0.3,0.1-0.7,0.1-1,0.2l-0.2,0l-0.2,0c-0.1,0-0.1,0-0.2,0c-0.4,0.1-1,0.2-1,0.2l-0.9,0.2l-0.5,0.1c-0.3,0.1-0.7,0.1-0.7,0.1
		l-0.2,0l-0.3,0c-0.1,0-0.1,0-0.2,0c-0.1,0-0.2,0-0.3,0c-0.3,0-0.7,0.1-0.7,0.1c-0.4,0.1-1,0.1-1,0.1c-0.2,0-0.4,0-0.4,0
		c-0.4,0-0.8,0.1-0.8,0.1l-0.2,0l-0.2,0c-0.4,0-0.8,0.1-0.8,0.1l-0.5,0.1l-0.9,0.1l-0.2,0l-0.4,0l-0.3,0c-0.2,0-0.5,0-0.5,0l-0.1,0
		c-0.1,0-0.1,0-0.2,0c-0.3,0-0.7,0.1-0.7,0.1l-0.2,0l-0.3,0c-0.1,0-0.1,0-0.2,0c-0.3,0-0.6,0-0.6,0l-0.2,0l-0.3,0
		c-0.1,0-0.1,0-0.2,0c-0.3,0-0.7,0.1-0.7,0.1c-0.2,0-0.2,0-0.5,0c-0.4,0-1,0.1-1,0.1l-0.2,0c-0.1,0-0.1,0-0.2,0
		c-0.4,0-0.9,0.1-0.9,0.1l-0.1,0l-0.2,0l-0.3,0l-0.3,0l-0.2,0l-0.2,0c-0.3,0-0.7,0-1,0l-0.3,0c-0.2,0-0.3,0-0.5,0l-0.2,0
		c-0.3,0-0.7,0-1,0l-0.3,0c-0.2,0-0.3,0-0.5,0l-0.2,0c-0.3,0-0.5,0-0.8,0l-0.3,0c-0.2,0-0.3,0-0.5,0l-0.3,0c-0.8,0-1.7,0-2.5,0
		l-0.3,0c-0.8,0-1.7,0-2.5-0.1l-0.3,0c-0.2,0-0.3,0-0.5,0l-0.2,0l-0.5,0l-0.3,0l-0.3,0l-0.2,0l-0.3,0l-0.3,0l-0.2,0l-0.5,0l-0.8-0.1
		c-0.2,0-0.3,0-0.5,0l-0.3,0l-0.5,0c-0.2,0-0.3,0-0.5,0l-0.3,0l-0.2,0l-0.3,0c-0.5,0-1-0.1-1.5-0.1l-0.3,0l-0.5-0.1
		c-0.2,0-0.3,0-0.5-0.1l-0.3,0l-0.2,0l-0.3,0c-0.8-0.1-1.7-0.2-2.5-0.3l-0.3,0c-0.9-0.1-1.8-0.2-2.8-0.4l-0.3,0l-0.2,0l-0.2,0
		c-0.3-0.1-0.7-0.1-1-0.2l-0.3,0l-0.5-0.1c-0.2,0-0.3-0.1-0.5-0.1l-0.3,0c-0.2,0-0.5-0.1-0.7-0.1l-0.2,0c-0.2,0-0.3-0.1-0.5-0.1
		l-0.2,0c-0.2,0-0.3-0.1-0.5-0.1l-0.2,0c-0.2,0-0.3-0.1-0.5-0.1l-0.2,0c-0.2,0-0.3-0.1-0.5-0.1l-0.3,0l-0.3-0.1l-0.2,0l-0.7-0.2
		l-0.7-0.2c-0.4-0.1-0.8-0.2-1.2-0.3l-0.3-0.1l-0.3-0.1l-0.3-0.1l-0.2-0.1l-0.2-0.1c-0.5-0.1-1-0.2-1.5-0.4l-0.3-0.1
		c-0.2-0.1-0.5-0.1-0.7-0.2l-0.3-0.1l-0.3-0.1l-0.3-0.1l-0.2-0.1l-0.2-0.1c-0.5-0.1-1-0.3-1.5-0.4l-0.3-0.1l-0.2-0.1l-0.2-0.1
		c-0.3-0.1-0.7-0.2-1-0.3l-0.3-0.1c-1.1-0.3-2.3-0.7-3.4-1l-0.2-0.1l-1-0.3l-0.5-0.2c-0.8-0.3-1.6-0.5-2.4-0.8l-0.9-0.4
		c-0.3-0.2-0.6-0.3-0.9-0.5c-1.7-1.2-2.9-3-3.2-5c-0.4-2.7,0.8-5.6,3-7.2c1.7-1.2,3.8-1.7,5.8-1.3c0.3,0.1,0.7,0.2,1,0.3l0.2,0.1
		c0.1,0,0.3,0.1,0.4,0.1l0.2,0.1c0.4,0.1,0.7,0.2,1.1,0.4l0.2,0.1l0.2,0.1l0.2,0.1c0.2,0.1,0.5,0.1,0.7,0.2l0.2,0.1
		c1,0.3,2.1,0.6,3.1,0.9l0.2,0.1c0.3,0.1,0.6,0.2,0.9,0.3l0.2,0.1l0.2,0.1l0.2,0.1l0.2,0.1l0.2,0.1c0.2,0.1,0.5,0.1,0.7,0.2l0.2,0.1
		c0.1,0,0.3,0.1,0.4,0.1l0.2,0.1l0.2,0.1l0.2,0.1c0.2,0.1,0.5,0.1,0.7,0.2l0.2,0.1l0.2,0.1l0.2,0.1c0.2,0.1,0.5,0.1,0.7,0.2l0.2,0.1
		c0.1,0,0.3,0.1,0.4,0.1l0.2,0.1l0.2,0l0.2,0.1c0.2,0.1,0.5,0.1,0.7,0.2l0.2,0.1c0.3,0.1,0.6,0.1,0.9,0.2l0.2,0
		c0.3,0.1,0.6,0.1,0.9,0.2l0.2,0c0.6,0.1,1.2,0.2,1.8,0.3l0.2,0l0.2,0l0.2,0l0.2,0c0.6,0.1,1.2,0.2,1.8,0.3l0.2,0
		c0.2,0,0.5,0.1,0.7,0.1l0.2,0c0.1,0,0.3,0,0.4,0.1l0.2,0l0.2,0l0.2,0c0.2,0,0.3,0,0.5,0.1l0.2,0c0.2,0,0.3,0,0.5,0.1l0.2,0
		c0.2,0,0.5,0.1,0.7,0.1l0.2,0c0.8,0.1,1.5,0.2,2.3,0.3l0.2,0c0.3,0,0.6,0.1,0.9,0.1l0.2,0l0.2,0l0.2,0c0.2,0,0.5,0,0.7,0.1l0.2,0
		c0.1,0,0.3,0,0.4,0l0.2,0l0.2,0l0.2,0c0.3,0,0.6,0,0.9,0.1l0.2,0c0.2,0,0.3,0,0.5,0l0.2,0c0.2,0,0.3,0,0.5,0l0.2,0
		c0.2,0,0.5,0,0.7,0l0.2,0l0.2,0l0.2,0l0.2,0l0.2,0l0.2,0l0.2,0l0.2,0l0.2,0c0.2,0,0.4,0,0.7,0l0.2,0c1.2,0,2.4,0.1,3.6,0.1l0.7,0
		c0.4,0,0.8,0,1.1,0c0.4,0,0.5,0,0.7,0l0.2,0l0.2,0c0.2,0,0.5,0,0.7,0l0.2,0c0.1,0,0.3,0,0.4,0l0.2,0l0.2,0c0.2,0,0.5,0,0.7,0l0.2,0
		c0.1,0,0.3,0,0.4,0l0.2,0c0.5,0,1,0,1.5-0.1c0.3,0,0.3,0,0.4,0c0.3,0,0.5,0,0.8-0.1c0.2,0,0.2,0,0.4,0c0,0,0.3,0,0.6,0
		c0.3,0,0.3,0,0.4,0c0.2,0,0.4,0,0.4,0c0.2,0,0.4,0,0.4,0l0.3,0c0.2,0,0.2,0,0.3,0c0.5,0,1-0.1,1.5-0.1c0,0,0.5,0,0.8-0.1
		c0.9-0.1,1.9-0.2,2.8-0.3l0.2,0c0.4-0.1,0.9-0.1,1.3-0.2l0.2,0l0.8-0.1c0.4-0.1,0.8-0.1,1.1-0.2c0,0,0.7-0.1,1.1-0.2l0.2,0l0.7-0.1
		c1-0.2,2-0.4,3-0.6l0.2,0l0.2-0.1l0.4-0.1c0.1,0,0.2,0,0.3-0.1c0.1,0,0.2-0.1,0.2-0.1l0.4-0.1l0.8-0.2c0.2-0.1,0.5-0.1,0.5-0.1
		l0.3-0.1c0,0,0.5-0.1,1-0.2l0.2-0.1c0,0,0.7-0.2,1-0.3c0.5-0.1,1.1-0.3,1.6-0.5l0.3-0.1l0.2-0.1c0.2-0.1,0.5-0.2,0.5-0.2
		c0.1,0,0.3-0.1,0.4-0.1c0.4-0.1,0.8-0.3,0.8-0.3l0.2-0.1c0.2-0.1,0.5-0.2,0.5-0.2l0.2-0.1l0.2-0.1c0.4-0.1,0.8-0.3,0.8-0.3l0.2-0.1
		c0.4-0.2,0.9-0.3,1.3-0.5l0.2-0.1l0.2-0.1c0.2-0.1,0.5-0.2,0.5-0.2c0.2-0.1,0.5-0.2,0.5-0.2c0.3-0.1,0.6-0.2,0.9-0.4l0.2-0.1
		l0.2-0.1c0.4-0.2,0.8-0.3,1.1-0.5l0.3-0.1l0.2-0.1c0.5-0.2,1-0.4,1.5-0.6l0.2-0.1c0.5-0.2,1-0.4,1.4-0.6l0.5-0.2
		c0.8-0.4,1.6-0.7,2.3-1.1l0.5-0.2c0.4-0.2,0.9-0.4,1.3-0.7l0.3-0.2l0.2-0.1c0.7-0.4,1.5-0.8,2.2-1.2l0.2-0.1
		c0.3-0.2,0.6-0.3,0.9-0.5l0.2-0.1c0,0,0.6-0.4,1-0.6c0.5-0.3,1-0.6,1.5-0.9l0.2-0.1c0.3-0.2,0.4-0.2,0.4-0.2l0.2-0.1
		c0.8-0.5,1.6-1,2.3-1.5l0.2-0.1c0.1-0.1,0.1-0.1,0.2-0.1c0.2-0.2,0.5-0.4,0.5-0.4l0.2-0.2c0.3-0.2,0.6-0.5,0.6-0.5s0.8-0.6,1.2-0.9
		c0.4-0.3,0.7-0.5,1.1-0.8c0,0,0.4-0.3,0.6-0.5c0.1-0.1,0.3-0.2,0.3-0.2l0.2-0.2c0.3-0.2,0.6-0.5,0.6-0.5c0.1-0.1,0.1-0.1,0.2-0.1
		c0.3-0.2,0.5-0.4,0.8-0.7l0.2-0.2l0.8-0.6c0.3-0.2,0.6-0.3,0.9-0.5c2.8-1.2,6.3-0.5,8.4,1.8c0.9,1,1.6,2.3,1.8,3.6
		C131.6,213.4,131.6,214.1,131.6,214.8L131.6,214.8z"/>
	<path class="staranise" d="M289.2,123c-0.1,0.3-0.1,0.7-0.2,1c-0.6,2.3-2.4,4.3-4.6,5.1c-1.3,0.5-2.7,0.6-4,0.3c-0.5-0.1-1-0.2-1.4-0.4
		l-0.2-0.1l-0.2-0.1c-0.2-0.1-0.4-0.1-0.7-0.2l-0.2-0.1c-0.1,0-0.3-0.1-0.4-0.1l-0.2-0.1c-1.9-0.6-3.8-1.2-5.8-1.7l-0.2-0.1
		c-1.1-0.3-2.2-0.6-3.4-0.9l-0.2-0.1c-2.2-0.5-4.5-1-6.7-1.5l-0.2,0c-1.1-0.2-2.3-0.4-3.4-0.6l-0.2,0c-1.1-0.2-2.3-0.3-3.4-0.5
		l-0.2,0c-1.3-0.2-2.6-0.3-3.8-0.5l-0.2,0c-0.2,0-0.3,0-0.5,0l-0.2,0c-0.8-0.1-1.5-0.1-2.3-0.2l-0.2,0c-0.2,0-0.5,0-0.7,0l-0.2,0
		c-2.2-0.1-4.4-0.2-6.6-0.3l-0.2,0c-1.7,0-3.5,0-5.2,0l-0.2,0c-0.2,0-0.5,0-0.7,0l-0.2,0c-0.2,0-0.5,0-0.7,0l-0.2,0
		c-1.6,0.1-3.2,0.2-4.8,0.3c-3.4,0.3-6.8,0.7-10,1.3c-1.4,0.2-2.8,0.5-4.3,0.8l-0.4,0.1c-2.4,0.5-4.8,1.1-7,1.8
		c-3.3,1-6.6,2.1-8.7,3c0,0-0.9,0.4-1.6,0.6c-0.8,0.3-1.7,0.7-2.5,1.1l-0.2,0.1c-0.2,0.1-0.5,0.2-0.7,0.3c-0.9,0.4-1.8,0.8-2.6,1.2
		c0,0-0.5,0.2-0.9,0.4c-1.8,0.9-3.6,1.9-5.3,2.9c-0.4,0.2-1,0.6-1,0.6c-1.4,0.8-2.7,1.7-4,2.5c0,0-0.5,0.4-0.9,0.6
		c-1.7,1.1-3.4,2.4-4.8,3.5l-0.2,0.1c0,0-0.9,0.7-1.6,1.2l-0.1,0.1c-0.7,0.5-0.9,0.7-1.7,1.1c-2.2,1-4.8,0.8-6.9-0.5
		c-2.9-1.8-4.3-5.6-3.2-8.9c0.3-1,0.9-1.9,1.6-2.6c0.3-0.4,0.9-0.8,0.9-0.8c0.5-0.4,1-0.8,1.5-1.2l0.2-0.2l0.2-0.2
		c0.4-0.3,0.8-0.6,1.2-0.9l0.6-0.5c0.3-0.2,0.7-0.5,0.7-0.5c1-0.7,2-1.4,3-2.1c0,0,0.7-0.5,1.2-0.8l0.4-0.3c0.5-0.3,1-0.7,1.5-1
		c0,0,0.6-0.4,1-0.6c0,0,0.5-0.3,0.8-0.5c0.3-0.2,0.7-0.4,0.7-0.4c0.9-0.5,1.7-1,2.6-1.5c0.1-0.1,0.1-0.1,0.2-0.1
		c0,0,0.5-0.3,0.9-0.5c0.5-0.3,1-0.5,1.5-0.8l0.6-0.3c0.3-0.1,0.6-0.3,0.6-0.3c0.5-0.2,0.9-0.5,1.4-0.7l0.5-0.2c0.4-0.2,1-0.5,1-0.5
		c0.8-0.4,1.6-0.7,2.3-1.1l0.2-0.1l0.3-0.2l0.3-0.1c0.8-0.3,1.5-0.7,2.3-1l0.6-0.2c0.6-0.2,1.1-0.4,1.7-0.7l1.1-0.4
		c0.4-0.1,0.7-0.3,1.1-0.4c0,0,0.4-0.1,0.7-0.3c0.9-0.3,1.8-0.7,2.8-1c0,0,0.7-0.2,1.2-0.4c1-0.3,1.9-0.6,2.9-0.9l0.3-0.1
		c0.3-0.1,0.7-0.2,0.7-0.2c0.4-0.1,0.8-0.2,0.8-0.2c0.3-0.1,0.6-0.2,0.6-0.2c1.3-0.3,2.5-0.7,3.8-1c0.5-0.1,1.1-0.2,1.6-0.4l0.4-0.1
		c0.3-0.1,0.7-0.2,0.7-0.2c0.4-0.1,1-0.2,1-0.2c1.1-0.2,2.1-0.4,3.2-0.6l0.1,0c3.9-0.7,7.7-1.2,11.4-1.5c0,0,1.4-0.1,2.2-0.2
		c1.4-0.1,2.8-0.2,4.3-0.2l0.3,0c0.2,0,0.5,0,0.7,0l0.3,0c0.6,0,1.2,0,1.8,0l0.3,0c0.8,0,1.7,0,2.5,0l0.2,0c3.2,0,6.4,0.2,9.6,0.4
		l0.3,0c0.2,0,0.3,0,0.5,0l0.3,0c0.8,0.1,1.7,0.1,2.5,0.2l0.3,0l0.3,0l0.5,0.1c2.8,0.3,5.5,0.7,8.3,1.1l0.3,0c0.2,0,0.5,0.1,0.7,0.1
		l0.2,0c0.7,0.1,1.3,0.2,2,0.4l0.3,0c0.2,0,0.3,0.1,0.5,0.1l0.3,0c5.8,1.1,11.6,2.6,17.3,4.4c0.2,0.1,0.5,0.2,0.7,0.2l0.2,0.1
		c0.6,0.2,1.3,0.4,1.9,0.6l0.9,0.4c0.8,0.5,1,0.5,1.7,1.1c1,0.9,1.8,2.1,2.2,3.4c0.3,0.9,0.2,1.1,0.3,2
		C289.2,122.3,289.2,122.6,289.2,123L289.2,123z"/>
	<path class="staranise" d="M288.7,233.2c-0.2,0.9-0.2,1.1-0.6,1.9c-0.6,1.2-1.5,2.3-2.6,3.1c-0.8,0.5-1,0.6-1.8,0.9l-0.2,0.1
		c-0.2,0.1-0.3,0.1-0.5,0.2l-0.2,0.1l-0.3,0.1l-0.2,0.1c-0.2,0.1-0.5,0.2-0.7,0.2l-0.2,0.1l-0.5,0.2c-1,0.3-1.9,0.6-2.9,0.9
		l-0.3,0.1c-0.2,0-0.3,0.1-0.5,0.1l-0.2,0.1c-0.7,0.2-1.5,0.4-2.2,0.6l-0.2,0.1l-0.5,0.1c-0.2,0.1-0.5,0.1-0.7,0.2l-0.3,0.1
		c-0.2,0-0.3,0.1-0.5,0.1l-0.2,0.1c-0.9,0.2-1.8,0.4-2.7,0.6l-0.3,0.1c-0.8,0.2-1.7,0.4-2.5,0.5l-0.3,0.1l-0.8,0.2l-0.7,0.1l-0.2,0
		l-0.3,0c-0.8,0.2-1.7,0.3-2.5,0.5l-0.2,0c-0.6,0.1-1.2,0.2-1.8,0.3l-0.3,0c-0.7,0.1-1.3,0.2-2,0.3l-0.2,0l-0.5,0.1
		c-0.2,0-0.3,0-0.5,0.1l-0.3,0c-0.2,0-0.3,0-0.5,0.1l-0.3,0l-0.3,0l-0.3,0l-0.2,0l-0.3,0c-0.6,0.1-1.2,0.1-1.7,0.2l-0.3,0
		c-0.2,0-0.3,0-0.5,0.1l-0.3,0l-0.3,0l-0.2,0l-0.8,0.1c-0.7,0.1-1.3,0.1-2,0.2l-0.3,0l-0.3,0l-0.2,0l-0.8,0.1c-0.3,0-0.7,0-1,0.1
		l-0.3,0c-0.3,0-0.7,0-1,0.1l-0.3,0l-0.2,0l-0.3,0l-0.3,0l-0.2,0l-0.5,0l-0.3,0l-0.3,0l-0.2,0l-0.2,0c-0.9,0-1.9,0.1-2.8,0.1l-0.3,0
		c-0.2,0-0.3,0-0.5,0l-0.3,0c-1.3,0-2.7,0-4,0l-0.2,0c-0.4,0-0.8,0-1.3,0c-0.2,0-0.3,0-0.5,0l-0.2,0c-0.3,0-0.7,0-1,0l-0.3,0
		c-0.5,0-1-0.1-1.5-0.1l-1-0.1l-0.2,0l-1.7-0.1c-0.3,0-0.7-0.1-0.7-0.1l-0.2,0l-0.3,0c-0.1,0-0.1,0-0.2,0c-0.3,0-0.7-0.1-0.7-0.1
		l-0.3,0c-0.1,0-0.1,0-0.2,0c-0.3,0-0.7-0.1-0.7-0.1l-0.2,0l-0.2,0c-0.2,0-0.4,0-0.4,0l-0.3,0c-0.1,0-0.1,0-0.2,0l-0.3,0l-1-0.1
		l-0.2,0l-0.2,0c-0.4,0-0.8-0.1-0.8-0.1c-0.2,0-0.5-0.1-0.5-0.1c-0.4-0.1-0.8-0.1-0.8-0.1l-0.2,0l-1.2-0.2l-0.2,0l-0.2,0l-0.5-0.1
		l-0.5-0.1c-0.1,0-0.1,0-0.2,0c-0.4-0.1-0.9-0.2-0.9-0.2l-0.2,0l-0.7-0.1l-0.3-0.1l-0.3-0.1c-0.1,0-0.1,0-0.2,0
		c-0.3-0.1-0.6-0.1-0.6-0.1l-0.3-0.1c-0.4-0.1-0.8-0.2-1.2-0.2c0,0-0.5-0.1-1-0.2c0,0-0.3-0.1-0.5-0.1l-0.6-0.1
		c-0.2-0.1-0.2-0.1-0.5-0.1c-0.3-0.1-0.6-0.2-0.6-0.2l-0.2-0.1l-0.2-0.1l-0.2-0.1l-0.3-0.1l-0.8-0.2c-0.5-0.1-1.1-0.3-1.1-0.3
		c-0.3-0.1-0.8-0.2-0.8-0.2c-0.1,0-0.2-0.1-0.4-0.1c-0.1,0-0.1,0-0.2-0.1c-0.3-0.1-0.5-0.1-0.5-0.1l-0.2-0.1l-0.2-0.1
		c-0.5-0.1-1.1-0.3-1.1-0.3c-0.4-0.1-0.8-0.2-1.2-0.4l-0.8-0.2c-0.2-0.1-0.2-0.1-0.5-0.1c-0.3-0.1-0.7-0.2-0.7-0.2
		c-0.5-0.2-1.1-0.4-1.1-0.4c-0.4-0.1-0.7-0.2-1.1-0.4l-0.6-0.2c-0.4-0.1-0.9-0.3-0.9-0.3l-0.2-0.1c-0.3-0.1-0.6-0.2-0.6-0.2
		l-0.2-0.1l-0.5-0.2l-0.3-0.1c-0.4-0.2-0.8-0.3-1.3-0.5l-0.1-0.1c-0.3-0.1-0.7-0.3-0.7-0.3l-0.3-0.1l-1.6-0.6
		c-0.3-0.1-0.6-0.3-0.6-0.3c-0.2-0.1-0.2-0.1-0.5-0.2c-0.3-0.1-0.6-0.3-0.6-0.3l-0.2-0.1l-1-0.4l-0.2-0.1l-0.2-0.1
		c-0.4-0.2-0.8-0.4-0.8-0.4l-1-0.5l-0.2-0.1c-0.5-0.3-1.1-0.5-1.6-0.8l-0.6-0.3c-0.3-0.2-0.8-0.4-0.8-0.4c-0.4-0.2-0.8-0.4-1.1-0.6
		l-1.1-0.6c-0.2-0.1-0.3-0.2-0.5-0.3l-0.3-0.1l-0.8-0.4c-0.2-0.1-0.3-0.2-0.3-0.2c-0.4-0.2-0.8-0.4-1.1-0.7l-0.4-0.3l-0.3-0.2
		c0,0-0.3-0.2-0.5-0.3l-0.2-0.1l-0.4-0.3c0,0-0.6-0.4-1-0.6c-0.2-0.1-0.3-0.2-0.3-0.2l-0.1-0.1c-0.5-0.3-1-0.7-1.5-1l-0.6-0.4
		c-0.3-0.2-0.5-0.3-0.8-0.5c-0.1-0.1-0.1-0.1-0.2-0.2l-0.1-0.1c-0.1-0.1-0.1-0.1-0.2-0.2l-0.8-0.5c-0.4-0.3-0.7-0.5-1.1-0.8
		l-0.9-0.6l-0.1-0.1c-0.1-0.1-0.1-0.1-0.2-0.1c-0.1-0.1-0.2-0.2-0.3-0.2l-0.2-0.2l-0.2-0.1l-0.1-0.1c-0.3-0.2-0.6-0.4-0.9-0.7
		l-0.6-0.5c-0.4-0.3-0.8-0.6-0.8-0.6c-0.2-0.1-0.3-0.3-0.3-0.3c-0.2-0.2-0.4-0.3-0.6-0.5l-0.2-0.2c0,0-0.2-0.1-0.3-0.3l-0.7-0.7
		c-0.2-0.3-0.4-0.5-0.6-0.8c-1.7-2.5-1.7-6.1,0.1-8.6c1.6-2.2,4.4-3.4,7.1-3c1,0.1,2,0.5,2.9,1c0.3,0.2,0.6,0.4,0.8,0.6l0.4,0.3
		c0.9,0.8,1.9,1.5,2.9,2.2l0.3,0.2l0.2,0.1c0.4,0.3,0.8,0.6,1.2,0.9l0.2,0.1c0,0,0.9,0.7,1.7,1.2l0.2,0.1c0,0,0.4,0.3,0.6,0.4
		c0.7,0.5,1.4,1,2.2,1.4c0,0,0.4,0.3,0.9,0.6l0.2,0.1c0,0,0.5,0.3,0.9,0.5l0.2,0.1l0.5,0.3c0.3,0.2,0.7,0.4,1,0.6l0.2,0.1l0.8,0.4
		l0.2,0.1c0.8,0.5,1.7,0.9,2.6,1.4l0.2,0.1l0.4,0.2c0.2,0.1,0.2,0.1,0.4,0.2c0.5,0.2,0.9,0.5,1.4,0.7l0.3,0.1
		c0.2,0.1,0.4,0.2,0.6,0.3c0.1,0,0.1,0,0.2,0.1c0.3,0.1,0.7,0.3,0.7,0.3l0.4,0.2c0.2,0.1,0.4,0.2,0.6,0.3c0.1,0,0.1,0,0.1,0.1
		l0.2,0.1c0.4,0.2,0.9,0.4,0.9,0.4c0.6,0.2,1.2,0.5,1.7,0.7l0.2,0.1l0.2,0.1c0.1,0,0.1,0,0.2,0.1c0,0,0.9,0.3,1.4,0.6
		c0.2,0.1,0.4,0.2,0.4,0.2c0.2,0.1,0.4,0.2,0.4,0.2l0.3,0.1c0.2,0.1,0.5,0.2,0.5,0.2l0.2,0.1c1,0.4,2,0.7,3,1c0,0,0.9,0.3,1.2,0.4
		c0.2,0.1,0.5,0.2,0.5,0.2l0.1,0c0.1,0,0.1,0,0.2,0.1l0.8,0.3l0.2,0.1c0.2,0.1,0.4,0.1,0.6,0.2c0.1,0,0.1,0,0.2,0.1
		c0,0,0.9,0.3,1.3,0.4c0.3,0.1,0.6,0.2,0.6,0.2l0.1,0c0.1,0,0.1,0,0.2,0.1l0.6,0.2l0.7,0.2l0.3,0.1c0.1,0,0.2,0,0.2,0.1
		c0.1,0,0.1,0,0.2,0.1l0.2,0.1c0.4,0.1,1,0.2,1,0.2c1,0.2,2,0.4,3,0.6l0.2,0c0,0,0.1,0,0.3,0.1c0.1,0,0.1,0,0.2,0l0.4,0.1l0.2,0
		l0.7,0.1l0.5,0.1c0.4,0.1,0.8,0.1,0.8,0.1l0.2,0l0.3,0c0.1,0,0.3,0,0.3,0l0.4,0.1l0.2,0c0.4,0.1,0.9,0.1,0.9,0.1s0.9,0.1,1.5,0.2
		c0.8,0.1,1.6,0.2,2.4,0.3c0,0,0.8,0.1,1.2,0.1c0.3,0,0.8,0.1,0.8,0.1l0.3,0c0.1,0,0.2,0,0.3,0c0.3,0,0.3,0,0.4,0l0.2,0
		c0,0,0.3,0,0.6,0c0.2,0,0.2,0,0.4,0c0,0,0.5,0,0.9,0.1c0.1,0,0.1,0,0.2,0l0.3,0c0.4,0,0.7,0,1.1,0.1l0.2,0c0.1,0,0.3,0,0.4,0l0.2,0
		l0.2,0c0.2,0,0.5,0,0.7,0l0.2,0c0.1,0,0.3,0,0.4,0l0.2,0l0.2,0c0.2,0,0.5,0,0.7,0l0.2,0c0.1,0,0.3,0,0.4,0l0.2,0c0.5,0,1,0,1.6,0
		l0.7,0c0.3,0,0.6,0,0.9,0l0.2,0c0.2,0,0.3,0,0.5,0l0.2,0l0.2,0l0.2,0c0.2,0,0.3,0,0.5,0l0.2,0c0.2,0,0.3,0,0.5,0l0.2,0
		c0.2,0,0.5,0,0.7,0c0.2,0,0.2,0,0.4,0l0.2,0l0.2,0l0.2,0l0.4,0l0.2,0l0.2,0l0.2,0l0.2,0l0.4,0c0.2,0,0.3,0,0.5,0l0.2,0l0.7,0
		c0.3,0,0.6,0,0.9-0.1l0.2,0l0.2,0l0.2,0l0.2,0l0.2,0l0.2,0c0.2,0,0.5,0,0.7-0.1l0.2,0l0.2,0c0.2,0,0.5,0,0.7-0.1l0.2,0l0.2,0l0.2,0
		c0.8-0.1,1.5-0.2,2.3-0.3l0.2,0c0.2,0,0.5-0.1,0.7-0.1l0.2,0c0.4,0,0.8-0.1,1.1-0.2l0.2,0l0.4-0.1l0.2,0l0.2,0l0.2,0
		c0.6-0.1,1.2-0.2,1.8-0.3l0.2,0c0.2,0,0.5-0.1,0.7-0.1l0.2,0c0.8-0.1,1.6-0.3,2.5-0.5l0.2,0c0.3-0.1,0.6-0.1,0.9-0.2l0.2,0l0.7-0.1
		l0.2,0l0.2,0c0.2,0,0.5-0.1,0.7-0.1l0.2,0l0.2,0c0.2,0,0.5-0.1,0.7-0.1l0.2,0c0.8-0.2,1.7-0.4,2.5-0.6l0.2-0.1l0.2-0.1l0.2-0.1
		l0.2,0c0.2-0.1,0.5-0.1,0.7-0.2l0.2-0.1l0.4-0.1l0.2-0.1l0.2-0.1l0.2-0.1c0.9-0.2,1.8-0.5,2.7-0.7l0.2-0.1c0.7-0.2,1.3-0.4,2-0.6
		l0.2-0.1l0.4-0.1c0.2-0.1,0.5-0.1,0.7-0.2l0.2-0.1l0.2-0.1l0.2-0.1c0.3-0.1,0.6-0.2,0.9-0.3l1-0.2c0.3,0,0.7-0.1,1-0.1
		c3.1-0.1,6.1,1.8,7.3,4.7c0.3,0.6,0.4,1.3,0.5,2C288.8,231.8,288.7,232.5,288.7,233.2L288.7,233.2z"/>
	<path class="staranise" d="M131.8,140.1c-0.1,0.3-0.2,0.7-0.3,1c-0.7,1.9-2.2,3.5-4.1,4.3c-2.2,0.9-4.8,0.8-6.9-0.5
		c-1.8-1.1-3.1-2.4-4.5-3.5c0,0-1.2-0.9-1.7-1.2c-0.2-0.1-0.4-0.3-0.4-0.3c-0.5-0.4-1-0.7-1.5-1c-0.1-0.1-0.1-0.1-0.2-0.1
		c-0.4-0.3-0.8-0.6-1.2-0.8c0,0-0.5-0.3-0.8-0.6c-0.7-0.5-1.5-0.9-2.2-1.4c0,0-0.5-0.3-1-0.6l-0.2-0.1c-0.4-0.2-0.9-0.5-1.3-0.7
		c0,0-0.8-0.5-1.5-0.8c-0.8-0.4-1.5-0.8-2.3-1.2l-1-0.5c-1-0.5-2.1-1-3.1-1.5c-0.1-0.1-0.3-0.1-0.4-0.2c-1.4-0.6-2.7-1.2-4.1-1.7
		c-0.3-0.1-0.6-0.2-0.8-0.3c-2.7-1-5.4-1.9-7.2-2.5c0,0-0.9-0.3-1.5-0.4c0,0-0.6-0.2-1-0.3c-1.4-0.4-2.8-0.7-4.2-1.1l-0.5-0.1
		c-1.4-0.3-2.9-0.6-4.3-0.9c0,0-0.9-0.2-1.5-0.3c-2.4-0.4-4.8-0.7-7.2-1c-2.4-0.2-4.8-0.4-7.2-0.5l-0.2,0c-0.2,0-0.5,0-0.7,0l-0.2,0
		c-0.2,0-0.5,0-0.7,0l-0.2,0c-0.2,0-0.4,0-0.7,0l-0.2,0c-1.7,0-3.3,0-5,0l-0.2,0c-2.8,0.1-5.6,0.2-8.4,0.5l-0.2,0
		c-0.2,0-0.3,0-0.5,0l-0.2,0c-0.2,0-0.3,0-0.5,0l-0.2,0c-2.3,0.2-4.6,0.5-6.8,0.8l-0.2,0l-0.7,0.1c-0.9,0.1-1.8,0.3-2.7,0.5l-0.2,0
		c-1.4,0.3-2.9,0.5-4.3,0.8l-0.2,0c-0.4,0.1-0.9,0.2-1.3,0.3l-0.2,0c-0.2,0-0.5,0.1-0.7,0.2l-0.2,0.1c-0.2,0.1-0.5,0.1-0.7,0.2
		l-0.2,0.1c-3.7,0.9-7.4,1.9-11.1,3.1l-1,0.2c-0.3,0-0.7,0.1-1,0.1c-3.4,0.1-6.7-2.3-7.6-5.6c-0.8-3.3,0.9-7,4-8.6
		c0.3-0.2,0.6-0.3,0.9-0.4c0,0,0.5-0.2,0.5-0.2c1.6-0.5,3.3-1,4.9-1.5l0.2-0.1c4.1-1.2,8.2-2.2,12.4-3c0.9-0.2,1.8-0.4,2.7-0.5
		l0.3,0c1-0.2,2-0.3,3-0.5l0.3,0c0.2,0,0.3-0.1,0.5-0.1l0.3,0c1.3-0.2,2.5-0.4,3.8-0.5l0.2,0c1.2-0.1,2.4-0.3,3.5-0.4l0.3,0
		c0.4,0,0.8-0.1,1.2-0.1l0.3,0c1.2-0.1,2.4-0.2,3.5-0.3l0.3,0c2.1-0.1,4.2-0.2,6.3-0.3l0.3,0c0.8,0,1.7,0,2.5,0l0.2,0c1,0,2,0,3,0
		l0.3,0c0.2,0,0.5,0,0.7,0l0.3,0c0.2,0,0.5,0,0.8,0l0.3,0c2.1,0.1,4.2,0.2,6.4,0.4c2.8,0.2,5.5,0.6,8.3,1c0,0,0.9,0.1,1.6,0.3
		c1.2,0.2,2.5,0.4,3.7,0.7c2.4,0.5,4.8,1.1,7.2,1.7c0,0,1.3,0.4,2.1,0.6c0.1,0,0.3,0.1,0.4,0.1c0.3,0.1,0.6,0.2,0.6,0.2
		c0.4,0.1,0.8,0.3,0.8,0.3s0.4,0.1,0.8,0.3c0,0,0.6,0.2,1.1,0.3c0.4,0.1,0.8,0.3,0.8,0.3c0.7,0.2,1.5,0.5,2.2,0.7l0.7,0.3
		c0.7,0.2,1.4,0.5,2,0.7c0,0,1.1,0.4,1.8,0.7l0.5,0.2c0.5,0.2,1.1,0.4,1.1,0.4c0.5,0.2,1.1,0.5,1.6,0.7l0.1,0
		c0.5,0.2,1.1,0.5,1.6,0.7l0.3,0.1c0.1,0,0.1,0.1,0.2,0.1c0.3,0.1,0.6,0.3,0.6,0.3l0.2,0.1c0.9,0.4,1.7,0.8,2.5,1.2l0.5,0.2
		c0.5,0.2,0.9,0.5,1.4,0.7l0.6,0.3c0.7,0.4,1.4,0.8,2.2,1.2l0.2,0.1l0.5,0.3c0.4,0.2,1,0.6,1,0.6c0.3,0.1,0.6,0.3,0.6,0.3
		c0.5,0.3,1.1,0.6,1.6,0.9l0.4,0.3c0.5,0.3,1,0.6,1.4,0.9c0,0,0.5,0.3,0.9,0.6c0.2,0.1,0.5,0.3,0.5,0.3c0.4,0.2,0.7,0.5,1.1,0.7
		l0.6,0.4c0.6,0.4,1.2,0.8,1.7,1.2l0.2,0.2l0.5,0.4c0.1,0.1,0.1,0.1,0.2,0.2c0,0,0.6,0.5,1.2,0.9l0.2,0.2l0.2,0.1
		c0.2,0.2,0.4,0.3,0.4,0.3c0.4,0.3,1,0.7,1,0.7c0.7,0.5,1.4,1.1,2.1,1.6l0.2,0.2c0.2,0.1,0.3,0.2,0.3,0.2l0.1,0.1
		c0.2,0.2,0.5,0.5,0.7,0.7c0.9,1,1.6,2.3,1.9,3.6c0.2,0.9,0.1,1.1,0.1,2C131.8,139.5,131.8,139.8,131.8,140.1L131.8,140.1z"/>
	<path class="staranise" d="M119.5,177.5c-0.2,0.9-0.2,1.1-0.5,2c-1.1,2.5-3.6,4.3-6.3,4.5c-0.5,0-1.1,0-1.1,0c-0.5,0-1.1-0.1-1.1-0.1
		l-0.3,0c-1.1,0-2.2-0.1-3.3-0.1l-0.2,0l-0.1,0l-0.4,0l-0.2,0l-0.2,0l-0.5,0c-1.4,0-2.8,0.1-4.1,0.1l-0.2,0l-0.2,0
		c-0.3,0-0.3,0-0.5,0l-0.2,0l-0.2,0c-0.1,0-0.1,0-0.2,0l-1.5,0.1c-0.4,0-0.9,0.1-0.9,0.1c-0.3,0-0.3,0-0.3,0l-0.8,0.1
		c-0.5,0.1-1,0.1-1.5,0.2l-0.1,0l-0.2,0c0,0-0.7,0.1-1,0.1c-0.2,0-0.5,0.1-0.5,0.1l-0.2,0l-0.2,0c-0.7,0.1-1.3,0.2-2,0.3l-0.1,0
		l-0.2,0l-0.1,0l-0.2,0l-0.2,0c-0.6,0.1-1.2,0.2-1.9,0.3l-0.2,0l-0.2,0c-0.1,0-0.1,0-0.2,0l-0.2,0l-0.2,0c-0.7,0.1-1.3,0.3-2,0.4
		l-0.2,0.1l-0.1,0l-0.2,0l-0.3,0.1c-0.7,0.2-1.5,0.3-2.2,0.5c0,0-0.5,0.1-1,0.3l-0.1,0c-0.1,0-0.1,0-0.3,0.1c-0.1,0-0.1,0-0.4,0.1
		c0,0-0.7,0.2-1.3,0.4l-0.2,0.1c0,0-0.4,0.1-0.6,0.2c-0.1,0-0.1,0-0.2,0.1l-0.7,0.2c-0.2,0.1-0.5,0.1-0.5,0.1
		c-0.5,0.2-1.1,0.3-1.6,0.5L74,189l-0.2,0.1c-0.3,0.1-0.6,0.2-0.9,0.3l-0.2,0.1l-0.8,0.3c-0.3,0.1-0.7,0.3-0.7,0.3
		c-0.2,0.1-0.4,0.2-0.4,0.2c-0.2,0.1-0.4,0.1-0.6,0.2l-0.2,0.1l-0.2,0.1l-0.5,0.2l-0.4,0.2l-0.3,0.1c-0.5,0.2-1,0.4-1.5,0.6
		c-0.1,0-0.1,0-0.2,0.1c-0.4,0.2-0.8,0.3-1.2,0.5l-0.1,0l-0.7,0.3l-0.2,0.1c-0.4,0.2-0.7,0.3-1.1,0.5l-0.2,0.1c0,0-0.1,0.1-0.3,0.1
		c-0.1,0-0.1,0-0.2,0.1l-0.2,0.1c-0.1,0-0.1,0-0.2,0.1l-0.2,0.1l-0.6,0.3l-0.3,0.1c-0.4,0.2-0.9,0.5-0.9,0.5c-0.1,0-0.1,0-0.2,0.1
		l-0.2,0.1c-0.1,0.1-0.1,0.1-0.2,0.1c-0.2,0.1-0.6,0.3-0.6,0.3l-0.4,0.2c-0.7,0.3-0.6,0.3-0.9,0.5c0,0-0.1,0.1-0.2,0.1
		c-0.1,0.1-0.1,0.1-0.2,0.1c-0.2,0.1-0.4,0.2-0.4,0.2c-0.7,0.4-1.4,0.8-2.1,1.2l-0.3,0.2c-0.4,0.2-0.8,0.5-0.8,0.5s-0.5,0.3-0.9,0.5
		l-0.2,0.1c0,0-0.8,0.5-1.3,0.8l-0.2,0.1l-0.4,0.2c-0.1,0.1-0.3,0.2-0.3,0.2l-0.4,0.3c-0.1,0.1-0.1,0.1-0.2,0.1
		c-0.5,0.3-1.1,0.7-1.6,1l-0.2,0.1l-0.2,0.1l-0.2,0.1l-0.2,0.1l-0.2,0.1l-0.2,0.1c-0.2,0.1-0.4,0.3-0.6,0.4l-0.2,0.1l-0.8,0.5
		c-0.2,0.2-0.5,0.3-0.7,0.5l-0.2,0.1l-0.2,0.1l-0.2,0.1c-0.1,0.1-0.2,0.2-0.4,0.3l-0.2,0.1l-0.2,0.1l-0.2,0.1
		c-0.2,0.1-0.4,0.3-0.6,0.4l-0.2,0.1l-0.4,0.3c-0.2,0.1-0.4,0.3-0.6,0.4l-0.2,0.1c-0.2,0.1-0.4,0.3-0.6,0.4l-0.2,0.1
		c-0.3,0.2-0.6,0.5-0.9,0.7l-0.2,0.1l-0.3,0.3l-0.2,0.1l-0.2,0.1c-0.3,0.2-0.6,0.5-0.9,0.7l-0.2,0.1c-0.1,0.1-0.2,0.2-0.3,0.3
		l-0.2,0.1l-0.7,0.6c-0.2,0.1-0.3,0.3-0.5,0.4l-0.2,0.2c-0.1,0.1-0.2,0.2-0.3,0.3l-0.7,0.6l-0.5,0.4c-0.2,0.2-0.3,0.3-0.5,0.5
		l-0.2,0.1c-0.2,0.2-0.3,0.3-0.5,0.5l-0.2,0.1l-0.2,0.1c-0.2,0.2-0.3,0.3-0.5,0.5l-0.3,0.3l-0.2,0.2l-0.2,0.2
		c-0.3,0.3-0.7,0.6-1,0.9l-0.2,0.2l-0.2,0.2l-0.2,0.2c-0.2,0.2-0.3,0.3-0.5,0.5l-0.2,0.2c-0.1,0.1-0.2,0.2-0.3,0.3l-0.2,0.2
		l-0.2,0.2l-0.2,0.2c-0.4,0.4-0.9,0.8-1.3,1.3l-0.5,0.5c-0.1,0.1-0.2,0.2-0.3,0.3l-0.2,0.2c-0.3,0.3-0.6,0.7-1,1l-0.1,0.1l-0.2,0.2
		l-0.2,0.2c-1.2,1.2-2.3,2.5-3.4,3.7l-0.1,0.2c-0.1,0.1-0.2,0.2-0.3,0.4l-0.1,0.2l-0.1,0.2l-0.2,0.2c-0.9,1.1-1.8,2.1-2.7,3.2
		l-0.1,0.2c-0.1,0.1-0.2,0.2-0.3,0.4l-0.1,0.2l-0.2,0.2l-0.1,0.2c-0.2,0.3-0.5,0.6-0.7,0.9l-0.1,0.2l-0.1,0.2l-0.2,0.2l-0.3,0.3
		l-0.1,0.2l-0.1,0.2c-0.2,0.2-0.4,0.5-0.6,0.7l-0.1,0.2l-0.1,0.2l-0.1,0.2c-0.1,0.2-0.3,0.4-0.4,0.6l-0.1,0.2
		c-0.1,0.1-0.2,0.2-0.3,0.4l-0.1,0.2l-0.6,0.8c-0.6,0.7-0.7,0.9-1.4,1.5c-2.4,1.9-6,2.1-8.6,0.5c-2.3-1.5-3.7-4.2-3.5-6.9
		c0.1-1,0.4-2,0.9-2.9c0.3-0.6,0.6-1,1-1.5l0.2-0.2c0.3-0.4,0.6-0.8,0.9-1.2l0.2-0.2l0.2-0.2l0.2-0.2c0.1-0.1,0.2-0.3,0.3-0.4
		l0.2-0.2l0.2-0.2l0.2-0.2l0.1-0.2l0.1-0.2l0.2-0.2l0.2-0.2l0.1-0.2l0.1-0.2l0.2-0.2l0.2-0.2c0.2-0.2,0.3-0.4,0.5-0.6l0.2-0.2
		l0.2-0.2l0.2-0.2c0.5-0.7,1.1-1.3,1.6-2l0.2-0.2c0.7-0.8,1.3-1.6,2-2.3l0.2-0.2l0.2-0.2l0.2-0.2l0.2-0.2c0.1-0.1,0.2-0.3,0.3-0.4
		l0.2-0.2c0.3-0.3,0.6-0.6,0.8-0.9l0.2-0.2c0.7-0.8,1.5-1.6,2.2-2.4l0.2-0.2l0.2-0.2l0.2-0.2c0.3-0.4,0.7-0.7,1.1-1.1l0.2-0.2
		l0.2-0.2l0.2-0.2l0.2-0.2c0.1-0.1,0.2-0.2,0.4-0.4l0.2-0.2c0.1-0.1,0.2-0.2,0.4-0.3l0.2-0.2c0.4-0.4,0.7-0.7,1.1-1.1L19,206
		c0.4-0.3,0.7-0.7,1.1-1.1l0.2-0.2l0.2-0.2l0.2-0.2c0.3-0.3,0.6-0.6,0.9-0.9l0.2-0.2c0.1-0.1,0.3-0.2,0.4-0.4l0.2-0.2
		c0.8-0.7,1.6-1.5,2.5-2.2l0.2-0.2c0.1-0.1,0.3-0.2,0.4-0.3l0.2-0.2c0.2-0.2,0.4-0.3,0.6-0.5l0.2-0.2c0.2-0.2,0.4-0.3,0.6-0.5
		l0.2-0.2l0.2-0.2l0.2-0.2c0.2-0.2,0.4-0.3,0.6-0.5l0.2-0.2c0.5-0.4,1-0.9,1.6-1.3l0.2-0.2l0.2-0.1l0.2-0.1l0.2-0.2l0.2-0.2
		c0.3-0.2,0.5-0.4,0.8-0.6l0.2-0.1c0.3-0.2,0.5-0.4,0.8-0.6l0.2-0.2c0.1-0.1,0.3-0.2,0.4-0.3l0.4-0.3l0.2-0.2l0.2-0.2
		c0.3-0.2,0.7-0.5,1-0.7l0.2-0.2c0.3-0.2,0.5-0.4,0.8-0.6l0.2-0.1l0.2-0.2l0.2-0.1c0.4-0.3,0.8-0.6,1.2-0.8l0.2-0.2
		c0.1-0.1,0.3-0.2,0.4-0.3l0.2-0.1l0.2-0.1l0.2-0.1l0.2-0.1l0.2-0.1l0.2-0.1l0.2-0.1c0.7-0.5,1.4-0.9,2.1-1.4l0.4-0.3l0.5-0.3
		l0.2-0.1l0.2-0.1l0.2-0.2c0.2-0.1,0.5-0.3,0.5-0.3l0.2-0.1c0.2-0.1,0.4-0.2,0.4-0.2l0.2-0.1l0.9-0.5c0.4-0.2,0.8-0.5,1.2-0.7
		l0.3-0.2c0.3-0.2,0.7-0.4,1-0.6l0.3-0.1c0.1-0.1,0.1-0.1,0.2-0.1c0.2-0.1,0.5-0.3,0.5-0.3s0.6-0.3,1-0.5l0.3-0.1
		c0.3-0.1,0.5-0.3,0.8-0.4c0.2-0.1,0.2-0.1,0.4-0.2c0.3-0.1,0.5-0.3,0.5-0.3l0.6-0.3l0.3-0.2c0,0,0.3-0.1,0.5-0.2
		c0.1,0,0.1,0,0.2-0.1c0.2-0.1,0.5-0.2,0.5-0.2c0.2-0.1,0.4-0.2,0.4-0.2l0.2-0.1c0.3-0.2,0.8-0.4,0.8-0.4c0.2-0.1,0.4-0.2,0.4-0.2
		l0.7-0.3c0,0,0.5-0.2,0.9-0.4c0.3-0.1,0.7-0.3,0.7-0.3c0.4-0.2,0.8-0.4,0.8-0.4c0.5-0.2,1-0.4,1.5-0.6l1-0.4
		c0.2-0.1,0.2-0.1,0.4-0.2c0.5-0.2,1.1-0.4,1.1-0.4l0.2-0.1c0.3-0.1,0.7-0.3,0.7-0.3l0.3-0.1c0.1,0,0.1,0,0.2-0.1
		c0.3-0.1,0.6-0.2,0.6-0.2l0.1,0c0.1,0,0.1,0,0.2-0.1l1.2-0.4c0.1,0,0.2-0.1,0.2-0.1c0.2-0.1,0.2-0.1,0.5-0.2l0.2-0.1
		c0.2-0.1,0.2-0.1,0.4-0.2c0.3-0.1,0.6-0.2,0.6-0.2l0.2-0.1l0.2-0.1c0.3-0.1,0.8-0.2,0.8-0.2c0.1,0,0.1,0,0.2-0.1
		c0.4-0.1,1-0.3,1-0.3l0.1,0c0.1,0,0.1,0,0.2-0.1l1.1-0.3c0.3-0.1,0.6-0.2,0.6-0.2c0.1,0,0.1,0,0.3-0.1l0.2-0.1l0.1,0
		c0.1,0,0.1,0,0.2-0.1c0.3-0.1,0.5-0.2,0.5-0.2l0.2-0.1l0.4-0.1l0.5-0.1l0.2,0c0,0,0.7-0.2,1.3-0.3l1-0.3l0.2-0.1
		c0.4-0.1,0.8-0.2,1.1-0.3l0.3-0.1l0.3-0.1l0.4-0.1l0.3-0.1l1-0.2c0.1,0,0.1,0,0.2,0c0.4-0.1,0.9-0.2,0.9-0.2l0.2,0l0.2,0
		c0.1,0,0.1,0,0.2,0l0.3-0.1l0.2,0l0.3-0.1c0.1,0,0.1,0,0.2,0c0.3-0.1,0.8-0.1,0.8-0.1c0.4-0.1,1-0.2,1-0.2l0.2,0l0.2,0l0.3,0
		l0.4-0.1c0.3,0,0.3,0,0.5-0.1c0.3,0,0.5-0.1,0.5-0.1c0.2,0,0.5-0.1,0.5-0.1c0.4-0.1,0.9-0.1,0.9-0.1l0.2,0c0.4-0.1,0.9-0.1,0.9-0.1
		l0.2,0c0.3,0,0.8-0.1,0.8-0.1l1.1-0.1l0.2,0c0.3,0,0.7-0.1,0.7-0.1l0.2,0c0.2,0,0.5-0.1,0.5-0.1l0.3,0l0.2,0l0.3,0l0.8-0.1l0.2,0
		l0.2,0c0.3,0,0.7,0,0.7,0c0.4,0,0.8-0.1,0.8-0.1c0.1,0,0.1,0,0.3,0l0.2,0l0.2,0c0.1,0,0.1,0,0.2,0c0.2,0,0.5,0,0.5,0l0.3,0l0.8,0
		l0.2,0l0.2,0c0.3,0,0.6,0,0.6,0l0.2,0l0.2,0c0.3,0,0.7,0,0.7,0l0.2,0c0.4,0,0.9,0,0.9,0l0.2,0l0.2,0l0.5,0l0.2,0l0.2,0l0.6,0l0.2,0
		l0.2,0c0.2,0,0.4,0,0.5,0c0.1,0,0.1,0,0.3,0l0.9,0l0.2,0c0.4,0,0.9,0,0.9,0l0.2,0c0.1,0,0.1,0,0.2,0c0.2,0,0.4,0,0.4,0l0.2,0l0.2,0
		c0.3,0,0.7,0,0.7,0l0.2,0c0.1,0,0.2,0,0.3,0l1,0.1c0.9,0.2,1.1,0.3,1.9,0.7c1.8,0.9,3.2,2.6,3.8,4.6c0.3,0.9,0.2,1.1,0.3,2
		C119.5,176.8,119.5,177.2,119.5,177.5L119.5,177.5z"/>
	<path class="staranise" d="M289.2,122.7c-0.1,0.9-0.1,1.1-0.4,2c-0.2,0.6-0.6,1.2-1,1.8c0,0-0.3,0.4-0.3,0.4c-0.3,0.3-0.5,0.7-0.8,1
		l-0.1,0.2c-0.6,0.8-1.2,1.6-1.8,2.4l-0.2,0.2l-0.2,0.2l-0.1,0.2c-0.4,0.5-0.8,1.1-1.3,1.6l-0.2,0.2c-0.2,0.2-0.3,0.4-0.5,0.6
		l-0.2,0.2l-0.3,0.4c-0.4,0.5-0.9,1-1.3,1.6l-0.2,0.2c-0.4,0.5-0.8,0.9-1.2,1.4l-0.2,0.2c-0.2,0.3-0.5,0.5-0.7,0.8l-0.2,0.2
		c-0.5,0.5-0.9,1-1.4,1.5l-0.2,0.2c-1.8,2-3.7,4-5.6,5.9l-0.2,0.2c-0.3,0.3-0.6,0.6-0.9,0.9l-0.2,0.2c-0.2,0.2-0.5,0.5-0.7,0.7
		l-0.2,0.2c-0.5,0.5-1,0.9-1.5,1.4l-0.2,0.2c-0.5,0.5-1,0.9-1.5,1.4l-0.2,0.2c-0.3,0.3-0.6,0.6-0.9,0.8l-0.2,0.2l-0.2,0.2
		c-0.4,0.4-0.9,0.8-1.3,1.1l-0.2,0.2c-0.2,0.2-0.4,0.3-0.6,0.5l-0.2,0.2c-0.3,0.3-0.7,0.5-1,0.8l-0.2,0.2l-0.6,0.5
		c-0.2,0.2-0.4,0.3-0.6,0.5l-0.2,0.2c-0.1,0.1-0.3,0.2-0.4,0.3l-0.2,0.2l-0.6,0.5c-0.3,0.2-0.5,0.4-0.8,0.6l-0.2,0.1
		c-0.4,0.3-0.8,0.6-1.2,0.9l-0.2,0.2c-0.3,0.3-0.7,0.5-1,0.8l-0.6,0.4c-0.1,0.1-0.3,0.2-0.4,0.3l-0.2,0.1c-0.2,0.1-0.4,0.3-0.6,0.4
		l-0.2,0.1l-0.4,0.3c-0.1,0.1-0.3,0.2-0.4,0.3l-0.2,0.1c-0.6,0.4-1.1,0.8-1.7,1.1c-0.2,0.1-0.4,0.3-0.6,0.4l-0.2,0.1
		c-0.5,0.3-0.9,0.6-1.4,0.9c0,0-0.4,0.3-0.7,0.4l-0.3,0.2l-0.1,0.1l-0.2,0.1c0,0-0.4,0.2-0.7,0.4l-0.2,0.1c0,0-0.9,0.6-1.4,0.8
		l-0.3,0.2l-0.6,0.3l-0.5,0.3c-0.1,0.1-0.1,0.1-0.2,0.1l-0.8,0.4c-0.2,0.1-0.4,0.2-0.4,0.2c-0.4,0.2-0.9,0.5-0.9,0.5l-0.2,0.1
		l-0.1,0.1c-0.1,0.1-0.1,0.1-0.2,0.1c-0.2,0.1-0.4,0.2-0.6,0.3l-0.2,0.1l-0.2,0.1c-0.2,0.1-0.3,0.2-0.3,0.2
		c-0.2,0.1-0.6,0.3-0.6,0.3s-0.3,0.1-0.5,0.3c-0.1,0-0.1,0-0.2,0.1l-0.4,0.2l-0.5,0.3c0,0-0.5,0.2-0.8,0.4c-0.2,0.1-0.4,0.2-0.4,0.2
		c-0.2,0.1-0.4,0.2-0.6,0.3c-0.1,0.1-0.2,0.1-0.3,0.2l-0.2,0.1l-0.2,0.1c0,0-0.3,0.2-0.6,0.3c-0.1,0.1-0.1,0.1-0.2,0.1
		c0,0-0.3,0.1-0.5,0.2c-0.1,0-0.1,0-0.2,0.1l-0.4,0.2l-0.1,0l-0.2,0.1l-0.2,0.1c-0.3,0.1-0.7,0.3-0.7,0.3c-0.1,0.1-0.1,0.1-0.2,0.1
		l-0.2,0.1c-0.4,0.2-0.8,0.4-1.3,0.6l-1.3,0.5c-0.4,0.2-0.8,0.3-0.8,0.3c-0.2,0.1-0.2,0.1-0.4,0.2c-0.3,0.1-0.7,0.3-0.7,0.3
		l-0.2,0.1l-0.8,0.3l-0.6,0.2c-0.3,0.1-0.7,0.3-0.7,0.3c-0.5,0.2-0.9,0.3-1.4,0.5l-0.3,0.1c-0.1,0-0.2,0.1-0.3,0.1
		c-0.1,0-0.1,0-0.3,0.1l-0.3,0.1l-0.2,0.1c0,0-0.5,0.2-1.1,0.4l-0.9,0.3l-0.1,0c-0.1,0-0.1,0-0.2,0.1l-0.1,0l-0.7,0.2
		c-0.4,0.1-0.7,0.2-1.1,0.3l-0.3,0.1l-0.3,0.1l-0.5,0.2l-0.1,0l-0.2,0.1l-0.2,0.1c-0.4,0.1-1,0.3-1,0.3l-0.2,0.1l-0.7,0.2l-0.2,0.1
		l-0.2,0.1c-0.2,0-0.4,0.1-0.6,0.2c-0.1,0-0.1,0-0.3,0.1l-0.2,0.1l-1,0.2l-0.2,0.1c-0.4,0.1-0.8,0.2-0.8,0.2l-0.2,0.1l-0.2,0
		c-0.1,0-0.1,0-0.2,0c-0.1,0-0.3,0.1-0.4,0.1l-0.2,0.1l-0.2,0c-0.4,0.1-0.9,0.2-0.9,0.2l-0.2,0c-0.4,0.1-0.9,0.2-0.9,0.2
		c-0.2,0-0.2,0-0.5,0.1c-0.4,0.1-0.8,0.1-0.8,0.1l-0.2,0c-0.3,0.1-0.7,0.1-0.7,0.1l-0.2,0l-0.2,0c-0.4,0.1-1,0.2-1,0.2l-0.2,0
		c-0.1,0-0.1,0-0.2,0c-0.1,0-0.3,0-0.4,0.1l-0.2,0l-0.2,0c-0.4,0.1-0.9,0.1-0.9,0.1l-0.2,0c-0.3,0-0.7,0.1-1,0.1l-0.8,0.1l-0.2,0
		l-0.2,0c-0.2,0-0.4,0.1-0.7,0.1l-0.2,0c-0.4,0-1,0.1-1,0.1l-0.2,0c-0.1,0-0.1,0-0.2,0c-0.2,0-0.4,0-0.4,0l-0.2,0
		c-0.3,0-0.3,0-0.5,0.1l-0.3,0l-0.1,0l-0.2,0l-0.2,0l-0.7,0.1l-0.2,0l-0.2,0c-0.3,0-0.7,0.1-0.7,0.1c-0.1,0-0.3,0-0.4,0
		c-0.1,0-0.1,0-0.2,0l-0.3,0l-0.2,0c-0.3,0-0.3,0-0.5,0l-0.3,0l-0.1,0l-0.2,0l-0.2,0l-0.7,0l-0.2,0l-0.2,0c-0.4,0-0.8,0-0.8,0
		l-0.2,0c-0.3,0-0.7,0-0.7,0l-0.2,0c-0.4,0-0.9,0-0.9,0l-0.2,0l-0.8,0l-0.2,0l-0.1,0l-0.6,0l-0.2,0l-0.2,0c-0.2,0-0.4,0-0.5,0
		c-0.1,0-0.1,0-0.3,0l-0.9,0l-0.2,0l-0.2,0l-0.3,0c-0.1,0-0.1,0-0.2,0l-0.2,0l-0.2,0c-0.1,0-0.1,0-0.2,0c-0.2,0-0.4,0-0.4,0l-0.2,0
		l-0.2,0c-0.3,0-0.7,0-0.7,0l-0.2,0l-0.3,0c-0.3,0-0.7-0.1-1-0.1c-2-0.4-3.8-1.7-4.9-3.4c-1.8-2.9-1.3-7,1.2-9.4
		c1-0.9,2.2-1.6,3.6-1.9c0.9-0.2,1.1-0.1,2-0.2c0,0,1.1,0.1,1.5,0.1c0.5,0,1.1,0,1.1,0l0.2,0c0,0,1.1,0,1.6,0c0.3,0,0.6,0,0.6,0
		l0.2,0l0.4,0l0.1,0l0.2,0l0.6,0c0.7,0,1.4,0,2,0l0.2,0l0.8,0l0.2,0c0.4,0,0.9,0,0.9,0l0.4,0c0.3,0,0.3,0,0.5,0c0.5,0,0.5,0,0.7,0
		l0.2,0c0.7,0,1.4-0.1,2.1-0.2l0.2,0l0.2,0c0.3,0,0.3,0,0.5,0c0.6-0.1,0.4,0,0.8-0.1l0.2,0c0.4,0,0.9-0.1,0.9-0.1l0.2,0
		c0,0,0.2,0,0.4-0.1c0.1,0,0.1,0,0.2,0l0.2,0c0,0,0.8-0.1,1.1-0.2c0.5-0.1,1-0.1,1.4-0.2l0.4-0.1l0.4-0.1c0.6-0.1,0,0,1.3-0.2
		c1.5-0.3,2.9-0.6,4.3-0.9l0.2-0.1l0.2,0c0.4-0.1,0.4-0.1,0.4-0.1l0.2-0.1c0.3-0.1,0.6-0.1,0.6-0.1l0.3-0.1c0,0,0.8-0.2,1.1-0.3
		c0.4-0.1,0.8-0.2,0.8-0.2l0.2-0.1c0.3-0.1,0.5-0.1,0.5-0.1l0.3-0.1c0,0,0.5-0.1,1-0.3l0.3-0.1c0.3-0.1,0.6-0.2,0.6-0.2l0.2-0.1
		c0.4-0.1,1.1-0.3,1.1-0.3c0.2-0.1,0.5-0.2,0.7-0.2c0.1,0,0.1,0,0.2-0.1l0.7-0.2c0,0,0.4-0.1,0.9-0.3l0.2-0.1
		c0.3-0.1,0.6-0.2,0.6-0.2l0.5-0.2l0.3-0.1c0.3-0.1,0.7-0.2,1-0.4c0,0,0.4-0.1,0.7-0.3c0.4-0.1,0.8-0.3,1.2-0.5l0.3-0.1
		c0.6-0.2,1.1-0.4,1.7-0.7l0.3-0.1c0.3-0.1,0.8-0.3,0.8-0.3l0.3-0.1c0.4-0.2,0.9-0.4,0.9-0.4l0.2-0.1l0.8-0.4l0.3-0.1l0.2-0.1
		c0.1,0,0.1-0.1,0.4-0.2l0.1-0.1c0.1,0,0.1,0,0.2-0.1l0.2-0.1l0.6-0.3l0.4-0.2l0.3-0.1c0.1-0.1,0.3-0.1,0.4-0.2c0.1,0,0.1,0,0.2-0.1
		l0.2-0.1c0,0,0.5-0.3,0.9-0.5c0,0,0.5-0.2,1-0.5l0.1-0.1c0.1,0,0.1,0,0.2-0.1l0.2-0.1l0.3-0.1c0.1-0.1,0.2-0.1,0.2-0.1l0.3-0.2
		l0.3-0.2c0,0,0.5-0.3,0.8-0.5l0.3-0.2c0.3-0.2,0.8-0.4,0.8-0.4s0.8-0.4,1.3-0.7c0,0,0.3-0.2,0.6-0.4l0.2-0.1l0.2-0.1
		c0.4-0.3,0.8-0.5,1.3-0.8l0.7-0.5l0.3-0.2l0.2-0.1c0.4-0.2,0.8-0.5,0.8-0.5c0.3-0.2,0.6-0.4,0.9-0.6l0.2-0.1
		c0.3-0.2,0.6-0.4,0.9-0.6l0.2-0.1c0.2-0.2,0.5-0.3,0.7-0.5l0.4-0.3c0.2-0.2,0.5-0.3,0.7-0.5l0.2-0.1l0.2-0.1
		c0.4-0.3,0.7-0.5,1.1-0.8l0.7-0.5c0.2-0.1,0.4-0.3,0.5-0.4l0.2-0.1l0.2-0.1l0.2-0.1c0.2-0.1,0.4-0.3,0.5-0.4l0.2-0.1
		c0.2-0.1,0.4-0.3,0.5-0.4l0.2-0.1c0.2-0.2,0.5-0.4,0.7-0.6l0.2-0.1c0.5-0.4,1.1-0.9,1.6-1.3l0.2-0.1c0.5-0.4,0.9-0.8,1.4-1.2
		l0.2-0.1l0.2-0.1c0.5-0.4,0.9-0.8,1.4-1.2l0.2-0.1c0.3-0.2,0.6-0.5,0.9-0.8l0.2-0.1c0.5-0.4,0.9-0.8,1.3-1.2l0.2-0.2
		c0.4-0.4,0.9-0.8,1.3-1.2l0.2-0.2c0.3-0.3,0.7-0.6,1-0.9l0.2-0.2c0.2-0.2,0.3-0.3,0.5-0.5l0.2-0.2c0.7-0.6,1.3-1.3,1.9-2l0.2-0.2
		c0.2-0.2,0.3-0.3,0.5-0.5l0.2-0.2c0.5-0.5,1-1,1.4-1.5l0.2-0.2c0.2-0.2,0.3-0.3,0.5-0.5l0.2-0.2l0.3-0.3c0.9-1,1.7-1.9,2.6-2.9
		l0.1-0.2c0.3-0.4,0.6-0.7,0.9-1.1l0.1-0.2c0.2-0.3,0.5-0.6,0.7-0.9l0.1-0.2l0.3-0.3c0.2-0.3,0.5-0.6,0.7-0.9l0.1-0.2
		c0.1-0.2,0.3-0.4,0.4-0.5l0.1-0.2c0.2-0.2,0.4-0.5,0.6-0.7l0.1-0.2c0.2-0.3,0.5-0.6,0.7-0.9l0.1-0.2c0.1-0.2,0.3-0.4,0.4-0.6
		l0.1-0.2c0.5-0.7,1-1.4,1.5-2.1l0.7-0.8c0.3-0.2,0.5-0.5,0.8-0.7c1.9-1.5,4.5-2,6.8-1.3c2.6,0.8,4.7,3.1,5.2,5.7
		C289.2,121.3,289.2,122,289.2,122.7L289.2,122.7z"/>
	<path class="staranise" d="M288.6,233.5c-0.1,0.3-0.2,0.7-0.3,1c-0.9,2.6-3.3,4.6-6,4.9c-2.4,0.3-4.9-0.5-6.5-2.3
		c-0.4-0.4-0.6-0.7-0.9-1.2l-0.1-0.2c-0.3-0.4-0.6-0.9-1-1.3l-0.1-0.2c-0.1-0.2-0.3-0.4-0.4-0.6l-0.1-0.2c-0.2-0.3-0.5-0.6-0.7-0.9
		l-0.1-0.2c-0.1-0.1-0.2-0.3-0.3-0.4l-0.1-0.2c-0.2-0.3-0.5-0.6-0.7-0.9l-0.1-0.2l-0.1-0.2l-0.2-0.2l-0.1-0.2l-0.1-0.2
		c-0.3-0.4-0.6-0.7-0.9-1.1l-0.1-0.2c-0.7-0.8-1.4-1.7-2.1-2.5l-0.1-0.2c-0.2-0.2-0.3-0.3-0.5-0.5l-0.1-0.2c-0.5-0.5-0.9-1-1.4-1.6
		l-0.1-0.2c-0.2-0.2-0.3-0.3-0.5-0.5l-0.2-0.2l-0.1-0.2c-0.2-0.2-0.3-0.3-0.5-0.5l-0.2-0.2l-0.1-0.2c-0.2-0.2-0.3-0.3-0.5-0.5
		l-0.2-0.2l-0.1-0.1c-0.2-0.2-0.3-0.3-0.5-0.5l-0.2-0.2c-0.5-0.5-1-1-1.4-1.5l-0.2-0.2c-0.5-0.5-1-1-1.5-1.5l-0.2-0.2
		c-0.2-0.2-0.3-0.3-0.5-0.5l-0.2-0.2c-0.4-0.4-0.9-0.8-1.3-1.3l-0.2-0.2c-0.1-0.1-0.2-0.2-0.3-0.3l-0.2-0.2
		c-0.3-0.3-0.6-0.5-0.8-0.8l-0.2-0.1c-0.2-0.2-0.3-0.3-0.5-0.5l-0.2-0.1c-0.3-0.3-0.6-0.5-0.9-0.8l-0.2-0.1
		c-0.3-0.3-0.6-0.5-0.9-0.7l-0.2-0.1c-0.2-0.1-0.4-0.3-0.5-0.5l-0.2-0.1c-0.2-0.2-0.5-0.4-0.7-0.6l-0.2-0.1
		c-0.4-0.3-0.7-0.6-1.1-0.9l-0.2-0.1c-0.3-0.2-0.6-0.5-0.9-0.7l-0.2-0.1c-0.3-0.2-0.6-0.5-0.9-0.7l-0.2-0.1
		c-0.2-0.1-0.4-0.3-0.5-0.4l-0.2-0.1c-0.2-0.1-0.4-0.3-0.6-0.4l-0.2-0.1l-0.2-0.1l-0.2-0.1l-0.2-0.1l-0.6-0.4
		c-0.2-0.1-0.4-0.3-0.5-0.4l-0.2-0.1c-0.1-0.1-0.2-0.2-0.4-0.3l-0.2-0.1c-0.2-0.2-0.5-0.3-0.7-0.5L243,204c-0.2-0.1-0.4-0.3-0.6-0.4
		l-0.2-0.1l-0.2-0.1c-0.8-0.6-1.7-1.1-2.5-1.7c0,0-0.4-0.3-0.7-0.5l-0.3-0.2c-0.3-0.2-0.6-0.4-0.9-0.5l-0.2-0.1c0,0-0.7-0.5-1.2-0.7
		l-0.2-0.1c-0.3-0.2-0.6-0.4-0.9-0.5c0,0,0,0-0.3-0.2c-0.6-0.3-1.2-0.7-1.7-1l-0.4-0.2c-0.4-0.2-0.8-0.5-0.8-0.5l-0.3-0.2
		c-0.2-0.1-0.4-0.2-0.4-0.2c-0.3-0.2-0.5-0.2-0.5-0.2c-0.2-0.1-0.4-0.2-0.4-0.2c-0.2-0.1-0.2-0.1-0.4-0.2c-0.2-0.1-0.5-0.3-0.5-0.3
		c-0.4-0.2-0.9-0.4-0.9-0.4l-0.3-0.1l-0.2-0.1c-0.5-0.2-0.9-0.5-1.4-0.7l-0.3-0.1c-0.3-0.1-0.7-0.3-0.7-0.3c-0.1,0-0.1,0-0.2-0.1
		l-0.3-0.1c0,0-0.4-0.2-0.7-0.3l-0.3-0.1c-0.3-0.1-0.7-0.3-1-0.4l-0.2-0.1c0,0-0.4-0.2-0.8-0.4l-0.2-0.1c0,0-0.8-0.3-1.2-0.5
		c-0.3-0.1-0.8-0.3-0.8-0.3c-0.3-0.1-0.7-0.3-0.7-0.3s-1-0.4-1.6-0.6c-0.3-0.1-0.7-0.3-0.7-0.3l-0.2-0.1c-0.1,0-0.1,0-0.2-0.1
		l-0.3-0.1c-0.1,0-0.1,0-0.1-0.1l-0.7-0.2c-0.5-0.2-1-0.3-1.5-0.5c0,0-0.6-0.2-0.9-0.3c-0.4-0.1-0.8-0.3-1.2-0.4l-0.3-0.1
		c-0.3-0.1-0.6-0.2-0.6-0.2l-0.4-0.1l-0.3-0.1l-0.3-0.1l-0.1,0l-0.3-0.1l-0.3-0.1c-0.3-0.1-0.6-0.2-0.6-0.2
		c-0.6-0.2-1.3-0.3-1.9-0.5l-0.2-0.1l-0.7-0.2l-0.3-0.1l-0.4-0.1c-0.1,0-0.1,0-0.2,0c0,0-0.6-0.1-1.1-0.3l-0.3-0.1
		c-0.3-0.1-0.7-0.2-0.7-0.2l-0.2,0c-0.2,0-0.3-0.1-0.3-0.1c-0.3-0.1-0.6-0.1-0.6-0.1l-0.3-0.1c-0.1,0-0.2,0-0.3-0.1
		c-0.1,0-0.1,0-0.2,0l-0.2,0l-1.1-0.2l-0.3,0c-0.3,0-0.6-0.1-0.6-0.1c-1.2-0.2-2.4-0.4-3.7-0.5l-0.2,0c-0.5-0.1-1-0.1-1.5-0.2
		l-0.2,0l-0.7-0.1c-0.1,0-0.1,0-0.2,0l-0.2,0c-0.1,0-0.2,0-0.3,0c-0.3,0-0.8-0.1-0.8-0.1l-0.2,0c-0.4,0-0.9-0.1-0.9-0.1l-0.3,0
		c-0.3,0-0.6,0-0.6,0l-0.4,0c-0.1,0-0.1,0-0.2,0l-0.2,0c-0.1,0-0.2,0-0.3,0c-0.3,0-0.8,0-0.8,0l-0.2,0c-0.9,0-1.8-0.1-2.7-0.1
		l-0.1,0l-0.5,0l-0.2,0l-0.2,0l-0.4,0l-0.2,0l-0.2,0c-0.8,0-1.6,0-2.4,0l-0.1,0l-0.2,0c0,0-0.2,0-0.3,0c-0.1,0-0.1,0-0.2,0l-0.2,0
		l-1,0l-0.1,0l-1,0c-0.3-0.1-0.7-0.1-1-0.2c-3-0.7-5.4-3.3-5.8-6.4c-0.3-2.7,0.9-5.5,3.2-7.1c0.8-0.6,1.8-1,2.8-1.2
		c0.5-0.1,1.1-0.1,1.1-0.1l0.3,0c0,0,0.4,0,0.7,0c0.1,0,0.1,0,0.3,0l0.2,0l0.6,0l0.2,0l1.1,0l0.2,0c0.4,0,0.8,0,0.8,0l0.2,0
		c0.3,0,0.7,0,0.7,0l0.2,0l0.2,0l0.6,0l0.5,0l0.5,0l0.3,0l1.1,0l0.2,0c0.3,0,0.7,0,0.7,0l0.2,0l0.2,0c0.3,0,0.6,0,0.6,0l0.2,0l0.2,0
		c0.3,0,0.7,0,0.7,0l0.2,0l0.2,0c0.1,0,0.1,0,0.2,0l0.3,0l0.2,0l0.3,0c0.1,0,0.1,0,0.2,0l0.3,0l0.2,0l0.2,0c0.4,0,0.9,0.1,0.9,0.1
		l0.2,0l0.2,0c0.3,0,0.7,0.1,0.7,0.1l0.2,0l0.2,0l0.3,0l0.5,0l0.2,0l0.8,0.1l0.2,0c0.4,0,0.9,0.1,0.9,0.1l0.2,0c0.1,0,0.1,0,0.2,0
		c0.3,0,0.6,0.1,0.6,0.1l0.2,0l0.2,0c0.3,0,0.7,0.1,1,0.1l0.8,0.1l0.2,0c0.4,0.1,0.8,0.1,0.8,0.1l0.2,0l0.3,0c0.1,0,0.1,0,0.2,0
		l0.2,0c0.3,0.1,0.7,0.1,0.7,0.1c0.4,0.1,0.8,0.1,0.8,0.1l0.2,0l0.2,0c0.3,0.1,0.7,0.1,0.7,0.1l0.8,0.2l0.2,0c0.2,0,0.4,0.1,0.4,0.1
		c0.4,0.1,0.9,0.2,0.9,0.2l0.2,0.1c0.4,0.1,0.9,0.2,0.9,0.2l0.2,0.1l0.2,0c0.1,0,0.1,0,0.2,0c0.2,0.1,0.5,0.1,0.5,0.1l0.3,0.1
		l0.9,0.2l0.2,0.1c0.4,0.1,0.9,0.2,0.9,0.2l0.5,0.1c0.3,0.1,0.8,0.2,0.8,0.2l0.2,0.1l0.8,0.2l0.2,0.1l0.1,0l0.2,0.1l0.1,0l0.4,0.1
		l0.3,0.1l0.4,0.1l0.5,0.2l0.5,0.1l1.1,0.3c0.2,0.1,0.3,0.1,0.5,0.2c0.2,0.1,0.5,0.2,0.5,0.2c0.2,0.1,0.5,0.2,0.5,0.2
		c0.3,0.1,0.7,0.2,0.7,0.2c0.1,0,0.1,0,0.2,0.1c0.4,0.1,0.9,0.3,0.9,0.3l0.1,0c0.1,0,0.1,0,0.2,0.1l0.3,0.1c0.1,0,0.1,0,0.2,0.1
		l0.3,0.1c0.1,0,0.1,0,0.2,0.1l0.3,0.1c0,0,0.5,0.2,1.1,0.4c0,0,0.6,0.2,1.1,0.4l0.4,0.2c0,0,0.4,0.2,0.7,0.3l0.2,0.1
		c0,0,0.7,0.3,1.2,0.5c0.1,0,0.1,0,0.2,0.1c0.2,0.1,0.5,0.2,0.7,0.3l0.3,0.1c0,0,0.6,0.2,1.2,0.5l0.1,0c0.1,0.1,0.1,0.1,0.2,0.1
		c0.2,0.1,0.5,0.2,0.7,0.3c0.1,0.1,0.1,0.1,0.2,0.1l0.3,0.1c0.2,0.1,0.5,0.2,0.7,0.3c0.1,0.1,0.1,0.1,0.2,0.1l0.3,0.1
		c0.1,0,0.1,0,0.2,0.1c0.2,0.1,0.4,0.2,0.4,0.2l0.2,0.1l0.2,0.1l0.3,0.2c0.3,0.1,0.6,0.3,0.6,0.3l0.6,0.3c0.2,0.1,0.4,0.2,0.4,0.2
		l0.3,0.2l0.3,0.2c0.3,0.1,0.6,0.3,0.6,0.3c0.1,0.1,0.3,0.2,0.3,0.2l0.1,0.1c0.1,0.1,0.3,0.2,0.4,0.2c0.1,0.1,0.1,0.1,0.2,0.1
		l0.3,0.1c0.1,0,0.1,0.1,0.2,0.1c0.1,0.1,0.1,0.1,0.2,0.1l0.4,0.2c0,0,0.3,0.2,0.6,0.3c0.1,0.1,0.1,0.1,0.2,0.1c0,0,0.6,0.3,1.1,0.6
		l0.3,0.2c0.4,0.2,0.9,0.5,0.9,0.5l0.4,0.2c0.3,0.2,0.6,0.4,1,0.6l0.1,0.1c0.3,0.2,0.8,0.5,0.8,0.5s0.5,0.3,0.8,0.5
		c0.2,0.1,0.4,0.3,0.7,0.4c0.2,0.1,0.3,0.2,0.3,0.2s0.6,0.4,1.2,0.7c0,0,0.5,0.3,1,0.6l0.1,0.1l0.4,0.3c0.4,0.3,0.8,0.6,1.3,0.8
		l0.2,0.1c0.2,0.1,0.4,0.3,0.6,0.4l0.2,0.1c0.2,0.1,0.4,0.3,0.6,0.4l0.4,0.3c0.3,0.2,0.5,0.4,0.8,0.6l0.2,0.2l0.2,0.1l0.2,0.1
		c0.5,0.4,1.1,0.8,1.6,1.2l0.2,0.2l0.4,0.3c0.2,0.1,0.4,0.3,0.6,0.4l0.2,0.2c0.2,0.2,0.4,0.3,0.6,0.5l0.2,0.2
		c0.1,0.1,0.3,0.2,0.4,0.3l0.2,0.1c0.3,0.2,0.5,0.4,0.8,0.6l0.2,0.2c0.7,0.5,1.3,1.1,2,1.6l0.2,0.2c0.5,0.4,0.9,0.8,1.4,1.1l0.2,0.2
		c0.8,0.7,1.5,1.3,2.3,2l0.2,0.2c0.2,0.2,0.4,0.3,0.6,0.5l0.2,0.2c0.2,0.2,0.4,0.3,0.6,0.5l0.2,0.2l0.4,0.4l0.2,0.2l0.2,0.2
		c0.2,0.2,0.2,0.2,0.4,0.4l0.2,0.2c0.2,0.2,0.4,0.4,0.6,0.5l0.2,0.2c0.9,0.8,1.7,1.7,2.5,2.5l0.2,0.2c0.9,0.9,1.8,1.8,2.6,2.7
		l0.2,0.2c0.5,0.6,1,1.1,1.6,1.7l0.2,0.2c0.2,0.2,0.3,0.4,0.5,0.6l0.2,0.2c0.3,0.4,0.7,0.8,1,1.2l0.2,0.2c0.4,0.4,0.8,0.9,1.2,1.3
		l0.2,0.2c0.2,0.2,0.3,0.4,0.5,0.6l0.2,0.2c0.2,0.2,0.3,0.4,0.5,0.6l0.3,0.4c0.2,0.3,0.4,0.5,0.6,0.8l0.2,0.2
		c0.2,0.2,0.3,0.4,0.5,0.6l0.2,0.2c0.2,0.2,0.3,0.4,0.5,0.6l0.2,0.2l0.2,0.2l0.2,0.2l0.2,0.2l0.2,0.2c0.2,0.2,0.3,0.4,0.5,0.6
		l0.2,0.2l0.3,0.4l0.2,0.2l0.1,0.2l0.2,0.2c0.3,0.3,0.5,0.7,0.8,1l0.2,0.2c0.6,0.8,1.1,1.5,1.7,2.3l0.1,0.2l0.4,0.6
		c0.2,0.3,0.4,0.6,0.5,0.9c0.3,0.6,0.5,1.2,0.7,1.9c0.2,0.9,0.1,1.1,0.2,2C288.7,232.8,288.7,233.1,288.6,233.5L288.6,233.5z"/>
	<path class="staranise" d="M119.4,177.4c-0.2,0.9-0.2,1.1-0.6,2c-0.8,1.9-2.5,3.3-4.4,4c-0.9,0.3-1.1,0.3-2,0.4l-0.1,0
		c-0.1,0-0.1,0-0.3,0l-0.8,0l-0.2,0l-0.2,0l-0.4,0l-0.1,0l-0.2,0l-0.4,0l-0.2,0l-0.5,0c0,0-0.4,0-0.8,0c-0.1,0-0.1,0-0.3,0l-0.8,0
		l-0.2,0l-0.2,0l-0.6,0l-0.1,0l-0.2,0l-0.7,0c-0.1,0-0.1,0-0.3,0l-1.1,0l-0.2,0c-0.3,0-0.7,0-0.7,0l-0.2,0l-0.2,0
		c-0.4,0-0.8,0-0.8,0l-0.2,0c-0.3,0-0.7,0-0.7,0l-0.2,0l-0.2,0c-0.1,0-0.1,0-0.2,0c-0.2,0-0.5,0-0.5,0c-0.3,0-0.3,0-0.5,0
		c-0.2,0-0.5,0-0.5,0l-0.2,0c-0.4,0-0.9-0.1-1.3-0.1l-0.8-0.1l-0.2,0l-0.2,0c-0.1,0-0.1,0-0.2,0c-0.3,0-0.7-0.1-0.7-0.1
		c-0.2,0-0.4,0-0.4,0c-0.4,0-0.8-0.1-0.8-0.1c-0.5-0.1-1-0.1-1-0.1l-0.2,0c-0.1,0-0.1,0-0.2,0c-0.3,0-0.8-0.1-0.8-0.1
		c-0.4-0.1-0.9-0.1-0.9-0.1l-0.2,0l-0.2,0c-0.3,0-0.7-0.1-0.7-0.1c-0.2,0-0.2,0-0.5-0.1c-0.3,0-0.7-0.1-0.7-0.1l-0.2,0
		c-0.2,0-0.4-0.1-0.4-0.1l-0.2,0l-0.4-0.1l-0.3,0c0,0-0.6-0.1-1-0.2l-1-0.2l-0.2,0l-0.2,0l-0.5-0.1l-0.2-0.1l-0.2,0
		c-0.2-0.1-0.5-0.1-0.7-0.2c-0.1,0-0.1,0-0.3-0.1l-1-0.2l-0.2-0.1l-0.2,0c-0.1,0-0.1,0-0.2,0l-0.2,0l-0.3-0.1l-1.6-0.4
		c-0.4-0.1-0.9-0.2-0.9-0.2c-0.4-0.1-0.7-0.2-1.1-0.3l-0.3-0.1c-0.3-0.1-0.7-0.2-0.7-0.2c-0.1,0-0.1,0-0.3-0.1l-0.1,0l-0.8-0.2
		c-0.4-0.1-1-0.3-1-0.3l-0.6-0.2c-0.3-0.1-0.8-0.2-0.8-0.2s-0.5-0.2-1.1-0.3c0,0-0.2-0.1-0.4-0.1c-0.1,0-0.1,0-0.2-0.1
		c-0.3-0.1-0.8-0.3-0.8-0.3l-0.5-0.2c-0.3-0.1-0.6-0.2-0.6-0.2l-0.2-0.1c0,0-0.2-0.1-0.4-0.1c-0.1,0-0.1,0-0.2-0.1l-0.3-0.1
		l-0.2-0.1c0,0-0.6-0.2-1.1-0.4l-0.3-0.1c-0.1,0-0.1,0-0.2-0.1l-0.9-0.3l-0.2-0.1l-0.1-0.1c-0.1,0-0.1,0-0.2-0.1
		c-0.3-0.1-0.5-0.2-0.5-0.2l-0.6-0.2c-0.3-0.1-0.6-0.3-0.9-0.4c-0.1,0-0.1,0-0.2-0.1c-0.4-0.1-0.8-0.3-0.8-0.3
		c-0.5-0.2-0.9-0.4-1.4-0.6c0,0-0.6-0.3-1.1-0.5c-0.5-0.2-0.9-0.4-1.4-0.6l-0.3-0.1c-0.2-0.1-0.4-0.2-0.4-0.2l-0.3-0.2l-0.2-0.1
		l-0.3-0.2c-0.3-0.1-0.6-0.3-0.6-0.3l-0.2-0.1c-0.1-0.1-0.1-0.1-0.3-0.1l-0.2-0.1c-0.3-0.1-0.6-0.3-0.6-0.3
		c-0.2-0.1-0.4-0.2-0.4-0.2l-0.2-0.1l-0.8-0.4l-0.5-0.3c-0.4-0.2-0.9-0.5-0.9-0.5c-0.3-0.2-0.4-0.2-0.6-0.3l-0.2-0.1
		c-0.2-0.1-0.4-0.2-0.4-0.2l-1.1-0.6c-0.4-0.2-1-0.6-1-0.6c-0.2-0.1-0.3-0.2-0.3-0.2c-0.1-0.1-0.3-0.2-0.4-0.3
		c-0.3-0.2-0.7-0.4-0.7-0.4l-0.5-0.3c-0.2-0.1-0.5-0.3-0.5-0.3l-0.2-0.1c-0.3-0.2-0.7-0.4-0.7-0.4c-0.2-0.1-0.4-0.3-0.6-0.4
		l-0.3-0.2c-0.3-0.2-0.4-0.3-0.5-0.3c-0.2-0.1-0.4-0.3-0.4-0.3l-0.1-0.1c-0.1-0.1-0.1-0.1-0.2-0.1c-0.4-0.2-0.8-0.5-0.8-0.5
		c-0.8-0.5-1.6-1.1-2.4-1.6l-0.2-0.1l-0.4-0.3l-0.8-0.6c-0.3-0.2-0.6-0.4-0.8-0.6l-0.2-0.2l-0.2-0.1l-0.2-0.1l-0.4-0.3
		c-0.1-0.1-0.3-0.2-0.4-0.3l-0.2-0.1c-0.2-0.1-0.4-0.3-0.6-0.4l-0.2-0.1c-0.2-0.2-0.4-0.3-0.6-0.5l-0.2-0.2
		c-0.5-0.4-1.1-0.8-1.6-1.2l-0.2-0.1c-0.1-0.1-0.3-0.2-0.4-0.3l-0.2-0.2c-0.3-0.3-0.7-0.5-1-0.8l-0.2-0.2c-0.2-0.2-0.4-0.3-0.6-0.5
		l-0.2-0.2c-0.1-0.1-0.3-0.2-0.4-0.3l-0.2-0.2l-0.8-0.6c-0.2-0.2-0.4-0.3-0.6-0.5l-0.2-0.2c-0.3-0.3-0.6-0.6-1-0.8l-0.2-0.2
		l-0.6-0.5l-0.2-0.2l-0.2-0.2c-0.3-0.2-0.5-0.5-0.8-0.7l-0.2-0.2l-0.4-0.3c-0.5-0.5-1-0.9-1.5-1.4l-0.2-0.2l-0.2-0.2l-0.2-0.2
		c-0.2-0.2-0.5-0.5-0.7-0.7c-0.1-0.1-0.2-0.2-0.4-0.3l-0.2-0.2c-0.4-0.4-0.7-0.7-1.1-1.1l-0.2-0.2c-0.2-0.2-0.5-0.5-0.7-0.7
		l-0.2-0.2l-0.2-0.2l-0.3-0.3c-0.3-0.3-0.6-0.6-0.9-0.9l-0.2-0.2c-1.1-1.2-2.2-2.3-3.3-3.5l-0.2-0.2c-0.5-0.5-0.9-1-1.4-1.5
		l-0.2-0.2c-0.4-0.4-0.8-0.9-1.2-1.3l-0.2-0.2c-1.3-1.5-2.5-3-3.7-4.5l-0.2-0.2c-0.2-0.2-0.3-0.4-0.5-0.6l-0.2-0.2
		c-0.6-0.8-1.2-1.6-1.9-2.4L3.6,128c-0.6-0.8-1.2-1.6-1.8-2.5l-0.1-0.2c-0.5-0.8-0.6-0.9-0.9-1.8c-0.8-2.2-0.5-4.9,0.9-6.8
		c1.4-2,3.7-3.2,6.1-3.2c2,0,4.1,0.9,5.5,2.3c0.4,0.4,0.7,0.9,1.1,1.4l0.1,0.2c0.4,0.5,0.7,1,1.1,1.5l0.1,0.2
		c0.1,0.2,0.3,0.4,0.4,0.6l0.1,0.2c0.1,0.1,0.2,0.2,0.3,0.4l0.1,0.2c0.5,0.7,1,1.3,1.6,2l0.1,0.2c0.3,0.4,0.6,0.7,0.9,1.1l0.1,0.2
		c0.1,0.2,0.3,0.4,0.4,0.5l0.1,0.2c0.2,0.2,0.3,0.4,0.5,0.5l0.1,0.2c0.4,0.5,0.8,0.9,1.2,1.4l0.2,0.2c0.3,0.3,0.5,0.6,0.8,0.9
		l0.1,0.2c0.3,0.3,0.5,0.6,0.8,0.9l0.1,0.2c0.2,0.2,0.4,0.5,0.6,0.7l0.2,0.2c0.9,1,1.8,1.9,2.7,2.8l0.2,0.2c0.4,0.4,0.9,0.9,1.3,1.3
		l0.2,0.2l0.2,0.2l0.2,0.2c0.5,0.5,1,1,1.5,1.4l0.2,0.2c0.2,0.2,0.3,0.3,0.5,0.5l0.2,0.2c0.2,0.2,0.4,0.4,0.7,0.6l0.2,0.2
		c0.2,0.2,0.3,0.3,0.5,0.5l0.2,0.2c0.3,0.3,0.7,0.6,1,0.9l0.2,0.1c0.2,0.2,0.5,0.4,0.7,0.6l0.2,0.1l0.2,0.2l0.2,0.2
		c0.1,0.1,0.2,0.2,0.3,0.3l0.2,0.1c0.2,0.2,0.5,0.4,0.7,0.6l0.2,0.1c0.2,0.1,0.4,0.3,0.5,0.5l0.2,0.1l0.2,0.1
		c0.2,0.1,0.4,0.3,0.5,0.4l0.2,0.1c0.7,0.6,1.4,1.1,2.1,1.7l0.2,0.1c0.3,0.2,0.6,0.5,0.9,0.7l0.2,0.1c0.3,0.2,0.6,0.5,0.9,0.7
		l0.2,0.1c0.2,0.1,0.4,0.3,0.5,0.4l0.2,0.1c0.2,0.1,0.4,0.3,0.6,0.4l0.2,0.1c0.2,0.2,0.5,0.4,0.7,0.5l0.2,0.1l0.2,0.1l0.2,0.1
		c0.5,0.3,1,0.7,1.5,1l0.2,0.1c1.1,0.8,2.2,1.5,3.4,2.2c0.1,0.1,0.1,0.1,0.2,0.1l0.2,0.1c0.1,0.1,0.1,0.1,0.2,0.2
		c0.1,0.1,0.3,0.2,0.3,0.2l0.3,0.2l0.3,0.2c0.4,0.2,0.7,0.4,1.1,0.7l0.3,0.2c0.2,0.1,0.4,0.2,0.4,0.2l0.2,0.1
		c0.4,0.2,0.8,0.4,1.1,0.7l0.2,0.1c0,0,0.6,0.4,1.1,0.6l0.1,0c0.1,0.1,0.1,0.1,0.2,0.1c0.4,0.2,0.9,0.5,0.9,0.5
		c0.5,0.3,0.3,0.2,0.7,0.4l0.5,0.3c0.3,0.2,0.6,0.3,0.9,0.5l0.7,0.3c0,0,0.2,0.1,0.3,0.2c0.1,0.1,0.1,0.1,0.2,0.1
		c0.3,0.2,0.7,0.3,1,0.5l0.3,0.1c0.2,0.1,0.5,0.2,0.5,0.2l0.2,0.1c0.2,0.1,0.4,0.2,0.4,0.2l0.6,0.3c0.7,0.3,1.4,0.6,2.1,1
		c0,0,0.5,0.2,1,0.4c0.8,0.3,1.5,0.6,2.3,0.9l0.4,0.2c0.4,0.2,0.7,0.3,0.7,0.3c0.1,0,0.1,0,0.2,0.1c0.2,0.1,0.6,0.2,0.6,0.2l0.2,0.1
		c0.1,0,0.1,0,0.2,0.1c0.6,0.2,1.2,0.5,1.9,0.7l0.2,0.1l0.6,0.2l0.2,0.1l0.2,0.1c0.5,0.2,1.1,0.4,1.6,0.5l0.3,0.1
		c0.4,0.1,0.7,0.2,1.1,0.3l0.2,0.1l0.7,0.2c0.2,0.1,0.4,0.1,0.4,0.1L79,165l0.2,0.1c0.2,0.1,0.3,0.1,0.3,0.1c0.2,0,0.4,0.1,0.4,0.1
		l0.3,0.1l1.2,0.3c0.2,0.1,0.5,0.1,0.5,0.1l0.1,0c0.1,0,0.1,0,0.2,0.1c0,0,0.5,0.1,1,0.2l0.2,0.1l0.2,0c0.1,0,0.1,0,0.2,0
		c0,0,1,0.2,1.4,0.3c0.3,0.1,0.8,0.2,0.8,0.2l0.2,0c0.2,0,0.5,0.1,0.5,0.1l0.3,0.1c0.6,0.1,1.2,0.2,1.9,0.4l0.4,0.1l0.4,0.1l0.2,0
		l0.2,0c0.1,0,0.2,0,0.3,0.1c1.5,0.3,3,0.5,4.6,0.6l0.2,0c0.3,0,0.6,0.1,0.6,0.1l0.7,0.1c0.7,0.1,0.5,0,0.7,0.1l1.1,0.1
		c0.4,0,0.9,0.1,0.9,0.1l0.4,0c0.3,0,0.3,0,0.5,0c0.5,0,0.5,0,0.7,0l0.2,0c0.1,0,0.2,0,0.3,0c0.3,0,0.8,0,0.8,0l0.2,0
		c0.3,0,0.7,0,0.7,0l0.2,0c0.6,0,1.2,0,1.8,0l1,0l0.4,0l0.2,0l0.2,0c0.7,0,1.3,0,2,0l0.2,0c0.3,0,0.5,0,0.5,0l0.3,0
		c0.5,0,1.1,0,1.6-0.1l0.2,0l1,0c0.9,0.1,1.1,0.1,2,0.4c2.5,1,4.5,3.4,4.8,6.1C119.6,176,119.5,176.7,119.4,177.4L119.4,177.4z"/>
	<path class="staranise" d="M151.2,333.4c-0.1,0.3-0.2,0.7-0.3,1c-0.7,1.9-2.1,3.6-4,4.4c-2.8,1.3-6.3,0.6-8.5-1.6
		c-0.2-0.2-0.4-0.5-0.7-0.8c0,0-0.3-0.4-0.3-0.4l-0.2-0.2c-0.2-0.3-0.4-0.5-0.6-0.8l-0.1-0.2l-0.1-0.2l-0.2-0.2
		c-0.2-0.3-0.4-0.6-0.6-0.8l-0.1-0.2c-0.1-0.1-0.2-0.3-0.3-0.4l-0.2-0.2c-0.2-0.3-0.4-0.6-0.6-0.8l-0.1-0.2l-0.1-0.2l-0.1-0.2
		l-0.1-0.2l-0.1-0.2c-0.2-0.3-0.4-0.6-0.6-0.9l-0.1-0.2c-0.1-0.1-0.2-0.3-0.3-0.4l-0.1-0.2c-0.1-0.2-0.3-0.4-0.4-0.6l-0.1-0.2
		c-0.1-0.1-0.2-0.3-0.3-0.4l-0.1-0.2l-0.1-0.2l-0.1-0.2c-0.4-0.6-0.8-1.3-1.2-1.9l-0.1-0.2c-0.4-0.6-0.7-1.2-1-1.8l-0.1-0.2
		c-0.1-0.2-0.3-0.4-0.4-0.7l-0.1-0.2c-0.1-0.2-0.2-0.3-0.3-0.5l-0.1-0.2l-0.1-0.2c-0.4-0.7-0.7-1.3-1.1-2l-0.1-0.2l-0.1-0.2
		l-0.1-0.2l-0.1-0.2l-0.1-0.2c-0.1-0.1-0.2-0.3-0.2-0.4l-0.1-0.2c-0.2-0.4-0.4-0.8-0.6-1.1l-0.1-0.2c-0.1-0.2-0.2-0.4-0.3-0.7
		l-0.1-0.2c-0.2-0.4-0.4-0.8-0.6-1.1l-0.1-0.2c-0.1-0.2-0.2-0.3-0.2-0.5l-0.1-0.2c-0.1-0.1-0.1-0.3-0.2-0.4l-0.1-0.2
		c-0.1-0.3-0.3-0.6-0.4-0.9l-0.1-0.2c-0.3-0.6-0.6-1.2-0.9-1.8l-0.1-0.2c-0.2-0.5-0.5-1.1-0.7-1.6l-0.1-0.2l-0.1-0.2l-0.1-0.2
		c-0.2-0.5-0.4-0.9-0.6-1.4l-0.1-0.2c-0.2-0.5-0.5-1.1-0.7-1.6l-0.1-0.2c-0.3-0.6-0.5-1.2-0.7-1.9l-0.1-0.2c-0.2-0.5-0.4-1-0.5-1.4
		l-0.3-0.7c-0.1-0.2-0.1-0.3-0.2-0.5l-0.1-0.2l-0.1-0.2l-0.1-0.2c-0.1-0.2-0.1-0.3-0.2-0.5l-0.1-0.2L117,297l-0.1-0.2
		c-0.1-0.2-0.2-0.5-0.2-0.7l-0.1-0.2l-0.1-0.3l-0.1-0.2c-0.1-0.2-0.1-0.3-0.2-0.5l-0.1-0.2c-0.1-0.2-0.1-0.3-0.2-0.5l-0.1-0.3
		c-0.1-0.3-0.2-0.6-0.3-1l-0.1-0.2c-0.1-0.2-0.1-0.3-0.2-0.5l-0.1-0.2c0-0.2-0.1-0.3-0.1-0.5l-0.1-0.2c-0.1-0.2-0.1-0.5-0.2-0.7
		l-0.1-0.2l-0.1-0.3l-0.1-0.2l-0.1-0.2l-0.1-0.2l-0.1-0.2l-0.1-0.3l-0.1-0.2l-0.1-0.2l-0.1-0.3l-0.1-0.2c-0.1-0.4-0.2-0.9-0.4-1.3
		l0-0.1c0-0.1,0-0.1-0.1-0.3c0-0.2-0.1-0.3-0.1-0.3l-0.1-0.2c0,0-0.1-0.4-0.2-0.7c0-0.1,0-0.1-0.1-0.3l-0.1-0.3c0-0.1,0-0.1,0-0.2
		c-0.1-0.3-0.2-0.7-0.2-0.7l-0.1-0.2l0-0.2c-0.1-0.4-0.2-1-0.2-1c0-0.1,0-0.1-0.1-0.2c-0.1-0.4-0.2-1-0.2-1l0-0.2
		c0-0.2-0.1-0.3-0.1-0.3l-0.1-0.6c0-0.2,0-0.2-0.1-0.3c-0.1-0.4-0.2-1-0.2-1l0-0.1c0-0.1,0-0.1,0-0.2l-0.1-0.8l0-0.2l-0.1-0.3
		c0-0.1,0-0.1,0-0.2l0-0.2l-0.1-0.4l0-0.1l0-0.2l0-0.2c-0.1-0.4-0.1-0.8-0.1-0.8l0-0.2l0-0.2c-0.1-0.4-0.1-0.8-0.1-0.8l0-0.2
		l-0.2-1.2l0-0.2c-0.1-0.4-0.1-1-0.1-1l0-0.2c0-0.2,0-0.4,0-0.4l0-0.3c0-0.2,0-0.3,0-0.3l0-0.2c0-0.2-0.1-0.5-0.1-0.7
		c0-0.1,0-0.1,0-0.3l0-0.4c0-0.3-0.1-0.7-0.1-0.7l0-0.2l0-0.2c0-0.4-0.1-0.9-0.1-0.9l0-0.2c0-0.4-0.1-0.9-0.1-0.9l0-0.2l0-0.2
		c0-0.3-0.1-0.7-0.1-0.7l0-0.2l0-0.2c0-0.4-0.1-0.8-0.1-0.8c0-0.2,0-0.2,0-0.5c0-0.3,0-0.7,0-0.7c0-0.2,0-0.2,0-0.5
		c0-0.4,0-0.8,0-0.8l0-0.2l0-0.2c0-0.3,0-0.3,0-0.5l0-0.4l0-0.3c0-0.3,0-0.3,0-0.5l0-0.3c0-0.2,0-0.4,0-0.4s0-0.4,0-0.7
		c0-0.1,0-0.1,0-0.3l0-0.3c0-0.1,0-0.1,0-0.2l0-0.3l0-0.1l0-0.2l0-0.2l0-0.9l0-0.2c0-0.4,0-0.9,0-0.9l0-0.2l0-0.2c0-0.1,0-0.1,0-0.2
		l0-0.3l0-0.2l0-0.3c0-0.1,0-0.1,0-0.2l0-0.2l0-0.4l0-0.2l0-0.2c0-0.4,0-0.8,0-0.8l0-0.2c0-0.4,0.1-1,0.1-1l0-0.2c0-0.1,0-0.1,0-0.2
		c0-0.3,0-0.6,0-0.6l0-0.2l0-0.2c0-0.3,0-0.7,0-0.7l0-0.2l0-0.2c0-0.3,0.1-0.7,0.1-0.7c0-0.2,0-0.5,0-0.5c0-0.3,0.1-0.7,0.1-0.7
		l0-0.2l0-0.2c0-0.3,0.1-0.8,0.1-0.8l0-0.2c0-0.4,0.1-0.8,0.1-0.8l0-0.2l0-0.2l0-0.3l0-0.2l0-0.3l0-0.3c0-0.2,0-0.2,0.1-0.5l0-0.2
		l0-0.2c0-0.4,0.1-0.8,0.1-0.8l0-0.2c0.1-0.4,0.1-0.9,0.1-0.9l0-0.2c0.1-0.4,0.1-0.8,0.1-0.8l0-0.2c0-0.1,0-0.2,0-0.3l0.1-0.6l0-0.2
		l0.1-0.6l0.1-0.3l0.1-0.5c0-0.2,0-0.2,0.1-0.3l0-0.2l0-0.2c0.1-0.4,0.2-0.8,0.2-0.8c0-0.1,0-0.1,0.1-0.2c0.1-0.4,0.2-0.9,0.2-0.9
		l0.1-0.2c0.1-0.3,0.1-0.7,0.1-0.7l0.1-0.2c0.1-0.4,0.2-1,0.2-1l0.1-0.2c0.1-0.4,0.2-0.9,0.2-0.9c0.1-0.4,0.2-0.9,0.2-0.9l0.1-0.2
		c0.1-0.3,0.2-0.7,0.2-0.7l0.1-0.2l0.1-0.2c0.1-0.4,0.3-1,0.3-1c0.1-0.3,0.2-0.5,0.2-0.5l0.1-0.2c0.1-0.3,0.2-0.7,0.2-0.7l0-0.2
		c0.1-0.4,0.2-0.8,0.4-1.3l0.1-0.2c0.1-0.2,0.1-0.4,0.1-0.4l0.1-0.2l0.1-0.2c0.1-0.3,0.2-0.7,0.2-0.7c0-0.1,0-0.1,0.1-0.2
		c0.1-0.4,0.3-0.9,0.3-0.9c0.1-0.4,0.3-0.8,0.3-0.8l0.1-0.2l0.3-0.9c0-0.1,0-0.1,0.1-0.2c0.1-0.2,0.1-0.4,0.1-0.4l0.1-0.2
		c0-0.1,0-0.1,0.1-0.2l0.1-0.2l0.1-0.1c0-0.1,0-0.1,0.1-0.2l0.1-0.3l0.2-0.5l0.3-0.9l0.1-0.3l0.4-0.9c0.2-0.3,0.3-0.6,0.6-0.9
		c1.8-2.4,5.3-3.6,8.2-2.6c2.6,0.8,4.7,3.2,5.1,5.8c0.2,1,0.1,2-0.1,3c-0.1,0.5-0.4,1.1-0.4,1.1l-0.3,0.7l-0.1,0.2
		c-0.1,0.2-0.2,0.5-0.2,0.5l-0.3,0.9l-0.1,0.1c-0.1,0.3-0.2,0.6-0.3,1l-0.1,0.2c0,0-0.2,0.5-0.3,0.8c-0.2,0.5-0.4,1.1-0.5,1.6
		l-0.1,0.2c0,0-0.1,0.4-0.2,0.8c-0.2,0.5-0.3,1.1-0.5,1.6l-0.1,0.2c0,0-0.2,0.7-0.4,1.3L128,229l-0.1,0.2c-0.1,0.2-0.1,0.5-0.1,0.5
		l-0.1,0.2c-0.1,0.3-0.2,0.8-0.2,0.8l-0.1,0.2c-0.1,0.2-0.1,0.5-0.1,0.5l-0.1,0.2l-0.1,0.2c-0.1,0.4-0.2,0.9-0.3,1.3
		c0,0-0.2,0.7-0.3,1.3c-0.1,0.3-0.1,0.7-0.1,0.7l0,0.2l0,0.2l-0.1,0.3c0,0,0,0.2-0.1,0.5l-0.1,0.6l0,0.2c-0.2,1.3-0.4,2.6-0.6,3.8
		l-0.1,0.7c0,0.1,0,0.2,0,0.3l0,0.2l0,0.3l0,0.2c-0.3,2.3-0.4,4.6-0.5,6.1c0,0.7-0.1,1.4-0.1,2.1c0,0,0,0.5,0,0.9l0,0.2l0,0.2
		c0,0.1,0,0.1,0,0.2c0,0,0,0.6,0,1.2c0,0.1,0,0.1,0,0.2l0,0.1l0,0.8l0,0.2l0,0.2l0,0.6c0,0.4,0,0.8,0,1.2l0,0.1c0,0.1,0,0.1,0,0.3
		c0,0.1,0,0.1,0,0.4c0,0.2,0,0.3,0,0.3l0,0.3c0,0.1,0,0.1,0,0.4c0,0,0,1.1,0.1,1.6c0,0.9,0.1,1.8,0.2,2.7l0,0.2c0,0,0.1,0.7,0.1,1.1
		c0.1,1.2,0.2,2.4,0.4,3.6c0,0,0.1,0.6,0.1,0.9c0,0.3,0.1,0.7,0.1,0.7l0,0.2c0.1,0.4,0.1,0.9,0.1,0.9l0,0.3c0,0.3,0.1,0.6,0.1,0.6
		l0,0.2l0,0.2c0.1,0.4,0.1,0.9,0.1,0.9l0,0.2l0.2,0.9l0,0.3c0,0.2,0.1,0.5,0.1,0.5l0,0.2c0.1,0.5,0.2,0.9,0.3,1.4
		c0.1,0.4,0.1,0.5,0.1,0.7l0.1,0.3c0.2,0.9,0.4,1.9,0.6,2.8l0,0.2c0,0,0.1,0.6,0.2,1l0,0.2l0.1,0.2c0.1,0.2,0.1,0.5,0.1,0.5
		c0.1,0.4,0.2,0.8,0.3,1.2l0.1,0.2l0.1,0.2l0.1,0.2l0.1,0.2l0.1,0.2l0.1,0.4c0.1,0.2,0.1,0.4,0.2,0.7l0.1,0.2l0.1,0.2l0.1,0.2
		c0.2,0.5,0.3,1,0.5,1.5l0.1,0.2c0.1,0.3,0.2,0.6,0.3,0.9l0.1,0.2l0.2,0.6l0.2,0.6l0.1,0.4c0.1,0.2,0.2,0.4,0.2,0.7l0.1,0.2l0.1,0.4
		l0.2,0.6l0.1,0.2l0.1,0.2l0.1,0.2l0.1,0.2l0.1,0.2l0.3,0.9c0.1,0.2,0.2,0.4,0.2,0.6l0.1,0.2c0.1,0.2,0.2,0.4,0.2,0.6l0.1,0.2
		c0.2,0.6,0.4,1.1,0.7,1.7l0.1,0.2c0.2,0.6,0.5,1.1,0.7,1.7l0.1,0.2c0.1,0.1,0.1,0.3,0.2,0.4l0.1,0.2l0.2,0.4l0.4,0.8
		c0.1,0.2,0.2,0.4,0.3,0.6l0.1,0.2c0.2,0.3,0.3,0.7,0.5,1l0.1,0.2c0.1,0.1,0.1,0.3,0.2,0.4l0.1,0.2c0.1,0.3,0.3,0.6,0.4,0.8l0.1,0.2
		l0.3,0.6l0.3,0.6c0.1,0.1,0.1,0.3,0.2,0.4l0.1,0.2c0.3,0.5,0.5,1.1,0.8,1.6l0.1,0.2c0.1,0.2,0.2,0.4,0.3,0.6l0.1,0.2l0.3,0.6
		l0.2,0.4l0.1,0.2l0.1,0.2l0.2,0.4c0.3,0.5,0.5,0.9,0.8,1.4l0.1,0.2c0.1,0.1,0.2,0.3,0.2,0.4l0.1,0.2c0.1,0.2,0.2,0.4,0.3,0.6
		l0.2,0.4c0.1,0.2,0.2,0.4,0.4,0.6l0.1,0.2c0.1,0.2,0.2,0.4,0.4,0.6l0.1,0.2c0.3,0.5,0.6,1,1,1.6l0.1,0.2l0.1,0.2l0.1,0.2
		c0.2,0.3,0.3,0.5,0.5,0.8l0.1,0.2c0.3,0.4,0.5,0.8,0.8,1.2l0.1,0.2c0.2,0.3,0.3,0.5,0.5,0.8l0.1,0.2l0.1,0.2l0.1,0.2l0.1,0.2
		l0.1,0.2c0.2,0.3,0.3,0.5,0.5,0.8l0.1,0.2l0.4,0.6l0.1,0.2l0.1,0.2c0.1,0.1,0.2,0.2,0.3,0.4l0.1,0.2l0.1,0.2l0.1,0.2
		c0.2,0.3,0.4,0.5,0.5,0.8l0.1,0.2c0.1,0.2,0.3,0.4,0.4,0.6l0.5,0.9c0.4,0.8,0.5,1,0.7,1.9c0.2,0.9,0.2,1.1,0.2,2
		C151.3,332.7,151.3,333.1,151.2,333.4L151.2,333.4z"/>
	<path class="staranise" d="M179.3,99.2l0,1l0,0.2c0,0.4,0,0.9,0,0.9l0,0.2l0,0.2c0,0.1,0,0.1,0,0.2l0,0.2c0,0.1,0,0.1,0,0.3l0,0.2l0,0.2
		c0,0.1,0,0.1,0,0.2l0,0.6l0,0.2l0,0.2l0,0.8l0,0.2l0,0.4l0,0.3l0,0.4l0,0.2c0,0.1,0,0.1,0,0.2l0,0.4l0,0.1l0,0.2l0,0.2
		c0,0.1,0,0.1,0,0.2l0,0.4l0,0.1l0,0.2l0,0.2c0,0.1,0,0.1,0,0.2l0,0.4l0,0.1l0,0.2c0,0.1,0,0.2,0,0.3c0,0.2,0,0.2-0.1,0.5l0,0.2
		l0,0.2c0,0.4-0.1,0.8-0.1,0.8l0,0.2c0,0.2-0.1,0.5-0.1,0.7c0,0.1,0,0.1,0,0.3l0,0.1l-0.1,0.8c0,0.2-0.1,0.5-0.1,0.5l-0.1,0.5l0,0.2
		l0,0.2l-0.1,0.7l0,0.2l0,0.2l-0.1,0.5l0,0.2l0,0.2l-0.1,0.8l0,0.2c0,0.1,0,0.1,0,0.2l-0.1,0.7l0,0.2c-0.1,0.4-0.2,0.9-0.2,0.9
		c-0.1,0.4-0.2,1-0.2,1l0,0.2c-0.1,0.4-0.2,0.8-0.2,0.8l0,0.2l-0.1,0.2c-0.1,0.2-0.1,0.4-0.1,0.4l0,0.2c-0.1,0.3-0.1,0.3-0.1,0.5
		c-0.1,0.3-0.2,0.7-0.2,0.7l0,0.2c0,0.1,0,0.1,0,0.2c-0.1,0.3-0.2,0.7-0.2,0.7l-0.1,0.2c-0.1,0.3-0.2,0.7-0.2,0.7l-0.1,0.2l-0.1,0.2
		l-0.1,0.4l0,0.1l-0.1,0.2l0,0.2c0,0.1,0,0.1-0.1,0.2l-0.1,0.3l0,0.1l-0.1,0.2l0,0.2c0,0.1,0,0.1-0.1,0.2l-0.1,0.3l-0.1,0.2
		l-0.1,0.3c0,0-0.1,0.5-0.2,0.8c-0.1,0.2-0.1,0.4-0.1,0.4c-0.1,0.3-0.2,0.7-0.2,0.7l-0.1,0.2c-0.1,0.4-0.3,0.9-0.3,0.9l-0.4,1.1
		l-0.3,0.8l-0.1,0.2l-0.1,0.2l-0.1,0.3l-0.1,0.2l-0.1,0.3l-0.3,0.8l-0.1,0.2c-0.2,0.4-0.4,1-0.4,1c-0.1,0.3-0.3,0.8-0.3,0.8
		l-0.1,0.2l-0.3,0.8c-0.1,0.1-0.1,0.3-0.1,0.4l-0.4,0.9c-0.2,0.3-0.4,0.6-0.6,0.9c-1.2,1.6-3.2,2.7-5.2,2.9
		c-3.4,0.4-6.8-1.9-7.9-5.2c-0.4-1.3-0.5-2.7-0.1-4c0.2-0.6,0.4-1.2,0.6-1.9l0.1-0.2l0.4-1c0.1-0.3,0.2-0.6,0.2-0.6l0.1-0.2
		c0.1-0.2,0.2-0.5,0.2-0.5c0.2-0.6,0.4-1.2,0.6-1.8c0,0,0.2-0.6,0.3-1.1c0.1-0.3,0.2-0.8,0.2-0.8l0.1-0.2c0.2-0.5,0.3-1,0.4-1.5
		l0.1-0.2c0.1-0.4,0.2-0.9,0.2-0.9l0.1-0.4c0.1-0.3,0.1-0.3,0.1-0.4l0.1-0.2c0,0,0.2-0.6,0.2-0.9c0.1-0.4,0.2-1,0.2-1
		c0.1-0.3,0.2-0.7,0.2-0.7c0-0.1,0.1-0.2,0.1-0.4c0.1-0.3,0.1-0.3,0.1-0.4c0.2-0.8,0,0,0.4-1.8c0.2-1,0.4-2,0.6-3l0.1-0.6l0.1-0.5
		c0.2-1.1,0.3-2.1,0.5-3.3c0.1-0.7,0.2-1.5,0.3-2.2l0-0.1c0.1-0.6,0.1-0.6,0.1-0.8l0-0.2c0,0,0-0.1,0-0.3c0-0.3,0-0.3,0-0.4l0-0.2
		c0,0,0-0.1,0-0.3c0-0.3,0-0.3,0-0.4l0-0.2c0,0,0-0.1,0-0.3c0-0.3,0-0.3,0-0.4c0-0.7,0-0.6,0.1-0.8c0-0.7,0.1-1.5,0.1-2.2l0-0.2
		l0-0.2c0-0.1,0-0.1,0-0.2l0-0.2c0-0.7,0-1.3,0-2c0-0.1,0-0.1,0-0.2l0-0.1l0-0.8l0-0.2c0-1.3,0-2.6-0.1-3.9c0-0.4,0-0.8-0.1-1.2
		l0-0.2c0,0,0-0.1,0-0.3c0-0.3,0-0.3,0-0.4l0-0.2c0,0,0-0.2,0-0.4c0-0.3,0-0.3,0-0.4l0-0.2c0,0,0-0.1,0-0.3c0-0.1,0-0.1,0-0.2l0-0.2
		c-0.1-0.8-0.1-1.6-0.2-2.3l0-0.2c0,0,0-0.1,0-0.3c0-0.1,0-0.1,0-0.2c0,0-0.1-1-0.2-1.6c-0.1-1-0.2-2-0.4-3l0-0.2l-0.2-1.3
		c-0.1-0.4-0.2-0.9-0.2-0.9l-0.1-0.4c0-0.1,0-0.1,0-0.2l-0.1-0.5c0-0.1,0-0.1,0-0.3l-0.1-0.4c0-0.1,0-0.1,0-0.2l0-0.2
		c0,0-0.1-0.7-0.2-1c-0.2-1-0.4-2.1-0.7-3.1c0-0.1,0-0.1,0-0.2l0-0.2l-0.1-0.3c0-0.1,0-0.1-0.1-0.4l-0.3-1.3c0-0.1-0.1-0.2-0.1-0.3
		c-0.1-0.2-0.1-0.4-0.2-0.7l-0.1-0.2c0-0.1-0.1-0.3-0.1-0.4l-0.1-0.2l-0.1-0.2c-0.1-0.2-0.1-0.4-0.2-0.7l-0.1-0.2
		c-0.1-0.2-0.1-0.4-0.2-0.7l-0.1-0.2c-0.1-0.2-0.1-0.4-0.2-0.7c0-0.1-0.1-0.3-0.1-0.4l-0.1-0.2c-0.1-0.4-0.3-0.9-0.4-1.3l-0.1-0.2
		c-0.1-0.2-0.1-0.4-0.2-0.6l-0.1-0.2c0-0.1-0.1-0.3-0.1-0.4l-0.1-0.2c-0.2-0.5-0.3-1-0.5-1.5l-0.1-0.2l-0.1-0.2l-0.1-0.2
		c-0.1-0.3-0.2-0.6-0.3-0.8l-0.1-0.2l-0.1-0.2c-0.1-0.4-0.3-0.7-0.4-1.1l-0.1-0.2c-0.1-0.2-0.2-0.4-0.2-0.7l-0.1-0.2
		c-0.1-0.2-0.2-0.4-0.2-0.6l-0.2-0.4c-0.2-0.6-0.5-1.3-0.8-1.9l-0.1-0.2c-0.1-0.1-0.1-0.3-0.2-0.4l-0.1-0.2
		c-0.1-0.3-0.2-0.6-0.4-0.8l-0.1-0.2l-0.2-0.4c-0.1-0.2-0.2-0.4-0.3-0.6l-0.1-0.2l-0.2-0.4c-0.2-0.6-0.5-1.1-0.8-1.7l-0.1-0.2
		L153,49l-0.1-0.2c-0.1-0.3-0.3-0.6-0.4-0.8l-0.1-0.2l-0.3-0.6c-0.1-0.2-0.2-0.4-0.3-0.6l-0.1-0.2c-0.3-0.7-0.7-1.4-1-2l-0.1-0.2
		c-0.1-0.2-0.2-0.4-0.3-0.6l-0.1-0.2c-0.1-0.2-0.2-0.4-0.3-0.6l-0.1-0.2c-0.3-0.6-0.7-1.2-1-1.8l-0.1-0.2c-0.1-0.1-0.2-0.3-0.2-0.4
		l-0.1-0.2l-0.1-0.2l-0.1-0.2c-0.3-0.5-0.5-0.9-0.8-1.4l-0.1-0.2c-0.3-0.5-0.5-0.9-0.8-1.4l-0.1-0.2c-0.1-0.2-0.2-0.4-0.4-0.6
		l-0.1-0.2c-0.9-1.4-1.8-2.9-2.7-4.3l-0.1-0.2c-0.1-0.2-0.3-0.4-0.4-0.6l-0.1-0.2c-0.4-0.6-0.8-1.2-1.2-1.7l-0.1-0.2
		c-0.5-0.7-1-1.4-1.5-2.1l-0.1-0.2l-0.1-0.2l-0.1-0.2l-0.1-0.2l-0.5-0.9c-0.1-0.3-0.3-0.6-0.4-0.9c-0.7-1.9-0.6-4.1,0.3-5.9
		c1.2-2.4,3.8-4.1,6.6-4.1c2,0,4.1,0.8,5.5,2.3c0.2,0.2,0.4,0.5,0.7,0.8l0.2,0.2l0.2,0.2l0.2,0.2c0.2,0.3,0.5,0.7,0.7,1l0.1,0.2
		c0.2,0.3,0.4,0.6,0.6,0.8l0.1,0.2l0.2,0.2c0.1,0.2,0.3,0.4,0.4,0.6l0.1,0.2c0.6,0.9,1.2,1.8,1.8,2.8l0.1,0.2
		c0.1,0.1,0.2,0.3,0.3,0.4l0.1,0.2c0.9,1.4,1.7,2.7,2.6,4.1l0.1,0.2c0.3,0.5,0.6,1,0.9,1.5l0.1,0.2c0.3,0.5,0.6,1,0.9,1.5l0.1,0.2
		l0.1,0.2l0.1,0.2c0.2,0.4,0.4,0.7,0.6,1.1l0.1,0.2c0.2,0.4,0.4,0.8,0.6,1.1l0.1,0.2c0.1,0.2,0.2,0.3,0.2,0.5l0.1,0.2
		c0.3,0.6,0.6,1.2,0.9,1.8l0.1,0.2c0.1,0.2,0.2,0.4,0.3,0.7l0.1,0.2c0.1,0.2,0.2,0.3,0.2,0.5l0.1,0.2c0.1,0.2,0.2,0.3,0.2,0.5
		l0.1,0.2c0.1,0.3,0.3,0.6,0.4,0.9l0.1,0.2c0.1,0.3,0.3,0.6,0.4,0.9l0.1,0.2c0.1,0.2,0.2,0.5,0.3,0.7l0.1,0.2
		c0.2,0.5,0.4,0.9,0.6,1.4l0.1,0.2l0.1,0.2l0.1,0.2c0.2,0.4,0.3,0.8,0.5,1.2l0.1,0.2c0.1,0.3,0.3,0.6,0.4,0.9l0.1,0.2
		c0.1,0.2,0.1,0.3,0.2,0.5c0.1,0.2,0.1,0.3,0.2,0.5l0.1,0.2c0.3,0.7,0.6,1.4,0.8,2.1l0.1,0.2c0.2,0.5,0.4,0.9,0.5,1.4l0.1,0.2
		l0.1,0.2l0.1,0.2c0.3,0.7,0.5,1.4,0.8,2.1L172,56l0.1,0.2l0.1,0.2c0.1,0.2,0.1,0.3,0.2,0.5l0.1,0.2c0.2,0.7,0.5,1.4,0.7,2.2
		l0.1,0.2l0.1,0.2l0.1,0.2l0.1,0.2l0.1,0.2l0.1,0.2l0.1,0.2c0.1,0.2,0.1,0.3,0.1,0.5l0.1,0.2l0.1,0.2l0.1,0.2
		c0.5,1.6,0.9,3.2,1.3,4.7c0,0.1,0,0.1,0.1,0.3l0.1,0.3c0,0.1,0,0.1,0,0.2c0.1,0.3,0.2,0.8,0.2,0.8c0,0.1,0.1,0.3,0.1,0.4
		c0,0.1,0,0.1,0,0.2c0.1,0.2,0.1,0.4,0.1,0.4l0,0.2l0.1,0.3l0.3,1.5c0.1,0.4,0.2,0.8,0.2,0.8l0,0.2l0,0.2c0.1,0.4,0.2,0.9,0.2,0.9
		c0,0.2,0.1,0.5,0.1,0.5c0.1,0.3,0.1,0.7,0.1,0.7l0,0.2l0,0.2l0,0.2c0,0.1,0,0.1,0,0.2l0.1,0.3l0,0.2l0,0.3l0,0.3c0,0.1,0,0.1,0,0.2
		l0.1,0.3l0,0.2l0,0.3l0,0.2l0.1,0.7l0,0.2c0,0.3,0,0.3,0.1,0.5c0,0.3,0.1,0.7,0.1,0.7l0,0.2l0,0.2c0,0.4,0.1,0.8,0.1,0.8l0,0.2
		l0,0.2c0,0.4,0.1,0.8,0.1,0.8c0,0.2,0,0.2,0.1,0.5c0,0.4,0.1,0.8,0.1,0.8l0,0.2l0,0.2c0,0.4,0.1,0.8,0.1,0.8l0,0.2l0,0.2
		c0,0.1,0,0.1,0,0.2c0,0.2,0,0.4,0,0.4l0,0.2l0,0.3l0.1,0.9l0,0.2l0,0.2c0,0.4,0.1,0.8,0.1,0.8c0,0.1,0,0.3,0,0.4c0,0.1,0,0.1,0,0.2
		c0,0.3,0,0.6,0,0.6l0,0.3c0,0.1,0,0.1,0,0.2c0,0.3,0,0.5,0,0.5l0,0.2l0,0.3c0,0.3,0,0.3,0,0.5l0,0.4l0,0.3c0,0.1,0,0.1,0,0.2
		c0,0.3,0,0.5,0,0.5l0,0.2l0,0.2c0,0.4,0,0.9,0,0.9l0,0.2c0,0.4,0,0.9,0,0.9l0,0.2l0,0.2c0,0.3,0,0.8,0,0.8l0,0.2c0,0.4,0,0.9,0,0.9
		l0,0.2l0,0.9C179.3,99.2,179.3,99.2,179.3,99.2L179.3,99.2z"/>
	<path class="staranise" d="M178.7,255.2l0,1l0,0.2l0,0.2c0,0.3,0,0.6,0,0.6l0,0.2l0,0.2c0,0.4,0,0.9,0,0.9l0,0.2c0,0.2,0,0.5,0,0.7
		c0,0.1,0,0.1,0,0.3l0,0.2l0,0.7l0,0.2c0,0.3,0,0.3,0,0.5c0,0.3,0,0.6,0,0.6c0,0.3,0,0.3,0,0.5c0,0.3,0,0.5,0,0.5l0,0.2l0,0.3
		c0,0.1,0,0.1,0,0.2l0,0.4l0,0.1l0,0.2l0,0.2c0,0.4-0.1,0.8-0.1,0.8l0,0.5c0,0.4-0.1,0.8-0.1,0.8l0,0.2l0,0.2c0,0.1,0,0.1,0,0.2
		l0,0.4l0,0.1l0,0.2l0,0.2c0,0.4-0.1,0.8-0.1,0.8l0,0.2c-0.1,0.4-0.1,1-0.1,1l0,0.2c-0.1,0.5-0.1,0.9-0.2,1.4l-0.1,0.9l0,0.2l0,0.2
		c-0.1,0.4-0.2,1-0.2,1l0,0.1c0,0.1,0,0.1,0,0.2c0,0.3-0.1,0.5-0.1,0.5l0,0.2l0,0.2l0,0.2l0,0.1l-0.1,0.3l0,0.1l0,0.2l0,0.2l0,0.2
		c0,0.1,0,0.1,0,0.2l-0.1,0.3l0,0.2c0,0.1,0,0.1-0.1,0.3l0,0.2l-0.2,0.8c-0.1,0.2-0.1,0.5-0.1,0.5c-0.1,0.4-0.2,0.8-0.3,1.2
		c0,0-0.1,0.5-0.2,1l-0.1,0.2l-0.2,1l-0.1,0.2l0,0.2c0,0.1,0,0.1,0,0.2l-0.1,0.4l0,0.1l-0.1,0.2l-0.1,0.5c-0.1,0.3-0.1,0.5-0.1,0.5
		l-0.1,0.2c0,0-0.1,0.5-0.3,1c-0.1,0.3-0.2,0.6-0.2,0.9l-0.1,0.2c-0.1,0.3-0.2,0.6-0.3,1l-0.1,0.2c0,0.2-0.1,0.3-0.1,0.5l-0.1,0.2
		c-0.1,0.3-0.2,0.6-0.3,1l-0.1,0.2c-0.2,0.5-0.3,1-0.5,1.5l-0.1,0.2l-0.1,0.2l-0.1,0.2l-0.1,0.2l-0.1,0.2l-0.1,0.2l-0.1,0.2
		l-0.2,0.7l-0.2,0.7l-0.2,0.5c-0.1,0.3-0.2,0.6-0.3,0.9l-0.1,0.2l-0.1,0.2l-0.1,0.2c-0.3,0.7-0.5,1.4-0.8,2.1l-0.1,0.2
		c-0.2,0.6-0.5,1.3-0.7,1.9l-0.1,0.2c-0.3,0.7-0.6,1.4-0.9,2.1l-0.1,0.2c-0.1,0.2-0.1,0.3-0.2,0.5l-0.1,0.2
		c-0.1,0.2-0.2,0.5-0.3,0.7l-0.2,0.5c-0.3,0.7-0.6,1.4-0.9,2.1l-0.1,0.2c-0.3,0.6-0.6,1.2-0.9,1.8l-0.1,0.2
		c-0.1,0.2-0.2,0.5-0.3,0.7l-0.2,0.4c-0.1,0.2-0.1,0.3-0.2,0.5l-0.1,0.2c-0.1,0.2-0.2,0.5-0.3,0.7l-0.1,0.2
		c-0.2,0.4-0.4,0.8-0.6,1.1l-0.1,0.2c-0.3,0.6-0.6,1.2-0.9,1.8l-0.1,0.2l-0.2,0.5c-0.2,0.3-0.3,0.6-0.5,0.9l-0.1,0.2
		c-0.1,0.2-0.2,0.3-0.3,0.5l-0.1,0.2c-0.1,0.2-0.2,0.3-0.3,0.5l-0.1,0.2l-0.3,0.5l-0.1,0.2l-0.1,0.2c-0.1,0.2-0.3,0.4-0.4,0.7
		l-0.1,0.2c-0.2,0.4-0.4,0.7-0.6,1.1l-0.1,0.2c-0.1,0.2-0.3,0.4-0.4,0.7l-0.3,0.4c-0.3,0.4-0.5,0.9-0.8,1.3l-0.1,0.2
		c-0.2,0.4-0.4,0.7-0.7,1.1l-0.1,0.2c-0.3,0.4-0.5,0.9-0.8,1.3l-0.1,0.2c-0.2,0.3-0.4,0.6-0.6,0.9l-0.1,0.2
		c-0.4,0.6-0.8,1.1-1.1,1.7l-0.1,0.2l-0.6,0.8c-0.1,0.2-0.3,0.4-0.4,0.6l-0.1,0.2l-0.3,0.4c-0.2,0.3-0.4,0.5-0.6,0.8l-0.2,0.2
		c-0.1,0.1-0.2,0.3-0.3,0.4L151,335l-0.6,0.8l-0.2,0.2l-0.2,0.2l-0.2,0.2l-0.7,0.8c-0.3,0.2-0.5,0.5-0.8,0.7c-2.2,1.7-5.2,2-7.7,0.9
		c-3.1-1.4-4.9-5.1-4.1-8.5c0.2-0.7,0.4-1.3,0.7-1.9c0.2-0.3,0.4-0.6,0.6-0.9l0.1-0.2l0.1-0.2l0.1-0.2c0.1-0.2,0.3-0.4,0.4-0.6
		l0.1-0.2c0.3-0.4,0.6-0.9,0.9-1.3l0.1-0.2c0.2-0.3,0.4-0.6,0.7-0.9l0.1-0.2c0.1-0.2,0.3-0.4,0.4-0.6l0.1-0.2
		c0.1-0.2,0.3-0.4,0.4-0.6l0.1-0.2l0.1-0.2c0.5-0.7,0.9-1.4,1.4-2.1l0.1-0.2c0.1-0.2,0.3-0.4,0.4-0.6l0.1-0.2c0.5-0.8,1-1.6,1.5-2.4
		l0.1-0.2c0.2-0.3,0.3-0.5,0.5-0.8l0.1-0.2c0.3-0.6,0.7-1.2,1-1.8l0.1-0.2l0.1-0.2l0.1-0.2l0.1-0.2c0.2-0.3,0.4-0.7,0.6-1l0.1-0.2
		c0.2-0.3,0.4-0.7,0.5-1l0.1-0.2l0.1-0.2l0.1-0.2c0.1-0.2,0.2-0.4,0.3-0.6l0.1-0.2c0.2-0.4,0.4-0.8,0.6-1.2l0.1-0.2
		c0.1-0.1,0.1-0.3,0.2-0.4l0.1-0.2c0.1-0.1,0.1-0.3,0.2-0.4l0.1-0.2l0.1-0.2l0.1-0.2c0.2-0.5,0.5-1,0.7-1.5l0.1-0.2
		c0.1-0.2,0.2-0.4,0.3-0.6l0.1-0.2c0.1-0.2,0.2-0.4,0.3-0.6l0.1-0.2l0.1-0.2c0.1-0.2,0.2-0.4,0.3-0.6l0.1-0.2
		c0.1-0.2,0.2-0.4,0.3-0.6c0.2-0.5,0.4-1,0.6-1.5l0.1-0.2l0.1-0.2l0.1-0.2c0.1-0.1,0.1-0.3,0.2-0.4l0.1-0.2l0.1-0.2l0.1-0.2
		c0.3-0.6,0.5-1.3,0.8-1.9l0.1-0.2l0.1-0.2c0.1-0.4,0.3-0.7,0.4-1.1l0.1-0.2c0.1-0.2,0.2-0.4,0.2-0.7l0.1-0.2
		c0.1-0.4,0.3-0.7,0.4-1.1l0.1-0.2c0.1-0.3,0.2-0.6,0.3-0.9l0.1-0.2l0.1-0.2l0.1-0.2c0-0.1,0.1-0.3,0.1-0.4l0.1-0.2
		c0.1-0.1,0.1-0.3,0.1-0.4l0.1-0.2l0.1-0.2l0.1-0.2l0.1-0.2l0.1-0.2c0.1-0.2,0.1-0.4,0.2-0.6l0.1-0.2c0-0.1,0.1-0.3,0.1-0.4l0.1-0.2
		c0.1-0.4,0.2-0.7,0.3-1.1c0.1-0.4,0.1-0.5,0.2-0.6l0.1-0.2l0.1-0.2c0.1-0.2,0.1-0.4,0.2-0.7l0.1-0.2c0.1-0.2,0.1-0.4,0.2-0.7
		l0.1-0.2c0.1-0.5,0.3-1.1,0.4-1.6l0.2-0.7l0.1-0.3c0-0.1,0-0.1,0.1-0.4l0.1-0.2l0.1-0.2c0.1-0.2,0.1-0.4,0.2-0.7c0-0.1,0-0.1,0-0.2
		l0.1-0.2c0,0,0.1-0.4,0.2-0.7c0-0.1,0-0.1,0-0.2c0.1-0.3,0.1-0.7,0.2-1l0-0.2c0-0.1,0-0.1,0-0.2l0.2-1.2l0.1-0.3
		c0-0.2,0.1-0.4,0.1-0.4c0-0.2,0.1-0.4,0.1-0.4l0.1-0.4l0-0.1l0-0.2l0-0.2c0.1-0.3,0.1-0.7,0.2-1c0,0,0.1-0.4,0.1-0.8l0-0.3l0-0.2
		c0.2-1.3,0.4-2.7,0.6-4c0-0.1,0-0.2,0-0.2l0-0.3c0-0.1,0-0.1,0-0.4l0-0.2c0.1-0.8,0.2-1.5,0.2-2.3l0-0.2c0,0,0-0.1,0-0.3
		c0-0.3,0-0.3,0-0.4l0-0.2c0,0,0-0.2,0-0.4c0-0.3,0-0.3,0-0.4c0-0.2,0-0.4,0-0.4c0-0.4,0.1-1,0.1-1c0-0.3,0-0.6,0-0.6l0-0.2
		c0.1-1.3,0.1-2.6,0.1-4l0-0.1l0-0.8l0-0.2c0-0.7,0-1.3,0-2l0-0.2l0-0.3l0-0.1l0-0.2c0-0.2,0-0.4,0-0.4c0-0.7-0.1-1.4-0.1-2.1l0-0.6
		l0-0.3c0-0.1,0-0.1,0-0.4c0-0.2,0-0.3,0-0.3l0-0.3c0-0.1,0-0.1,0-0.4c0-0.2,0-0.3,0-0.3l0-0.3c0-0.1,0-0.1,0-0.4
		c0-0.3-0.1-0.6-0.1-0.6l0-0.4c-0.1-1.4-0.3-2.8-0.5-4.2c-0.1-0.6-0.2-1.2-0.3-1.8l0-0.2l-0.1-0.6l0-0.2c0,0-0.1-0.6-0.2-0.9
		c-0.1-0.6-0.2-1.2-0.3-1.8c0,0-0.2-0.9-0.3-1.2c-0.1-0.3-0.2-0.7-0.2-0.7l-0.1-0.4l-0.1-0.4l-0.1-0.2l-0.1-0.4c0,0-0.2-0.9-0.4-1.6
		l-0.1-0.5l0-0.2c0-0.2-0.1-0.4-0.1-0.4l-0.2-0.7c-0.1-0.2-0.1-0.5-0.1-0.5l-0.1-0.2c-0.1-0.2-0.1-0.4-0.1-0.4
		c-0.1-0.2-0.1-0.5-0.1-0.5c-0.2-0.5-0.3-1-0.5-1.5l-0.1-0.2c0,0,0-0.1-0.1-0.3c0-0.1,0-0.1-0.1-0.2c-0.1-0.5-0.3-0.9-0.4-1.4
		l-0.2-0.4l-0.1-0.2c0,0-0.2-0.6-0.3-0.9c-0.3-0.9-0.6-1.8-1-2.6l0-0.1c-0.1-0.3-0.2-0.6-0.3-1c-0.6-2.7,0.3-5.6,2.4-7.4
		c2.6-2.2,6.7-2.3,9.4-0.2c0.8,0.6,1.5,1.4,2,2.3c0.2,0.3,0.3,0.6,0.4,0.9c0,0,0.1,0.2,0.1,0.3c0.3,0.7,0.5,1.3,0.7,2l0.3,0.9
		c0.1,0.3,0.2,0.7,0.3,1l0.1,0.3c0,0.1,0,0.1,0.1,0.2l0.1,0.3c0.1,0.2,0.1,0.2,0.2,0.5c0.1,0.4,0.2,0.8,0.2,0.8l0.1,0.2
		c0,0.1,0,0.1,0.1,0.2c0.1,0.2,0.1,0.4,0.1,0.4l0.1,0.2l0.1,0.2c0.2,0.5,0.3,1.1,0.5,1.6l0.1,0.3c0,0.1,0,0.1,0.1,0.2l0.3,0.9
		c0,0,0.1,0.2,0.1,0.5c0,0.1,0,0.1,0.1,0.3l0.2,0.6c0.1,0.2,0.1,0.5,0.1,0.5l0.1,0.3c0.2,0.7,0.4,1.4,0.5,2.1l0.1,0.5l0,0.2l0,0.2
		l0.1,0.2l0.1,0.3l0.1,0.3c0,0.2,0,0.2,0.1,0.3c0.1,0.4,0.2,0.9,0.2,0.9c0.1,0.3,0.1,0.6,0.2,0.9c0,0.1,0,0.1,0.1,0.3l0.2,0.9l0,0.2
		c0.1,0.4,0.2,0.9,0.2,0.9l0,0.2l0.1,0.7l0,0.1l0,0.2l0.1,0.6l0,0.3l0,0.2l0.1,0.7l0.1,0.5c0,0.3,0.1,0.7,0.1,0.7l0,0.2
		c0,0.4,0.1,0.8,0.1,0.8l0.1,0.5c0,0.4,0.1,0.8,0.1,0.8l0,0.2c0,0.4,0.1,0.9,0.1,0.9l0,0.2c0,0.4,0.1,0.8,0.1,0.8l0,0.2l0,0.2l0,0.3
		l0,0.5l0,0.2c0,0.1,0,0.1,0,0.2c0,0.2,0,0.4,0,0.4l0,0.2l0,0.3c0,0.3,0,0.3,0,0.5l0,0.4l0,0.3c0,0.1,0,0.1,0,0.2c0,0.2,0,0.4,0,0.4
		l0,0.2l0,0.5l0,0.3c0,0.2,0,0.5,0,0.5l0,0.9l0,0.5l0,0.6l0,0.2c0,0.2,0,0.2,0,0.4l0,0.3l0,0.4l0,0.3l0,1l0,0.2c0,0.4,0,0.9,0,0.9
		l0,0.2l0,0.9C178.7,255.1,178.7,255.2,178.7,255.2L178.7,255.2z"/>
	<path class="staranise" d="M152.6,21.7c-0.1,0.9-0.1,1.1-0.5,2c-0.3,0.9-0.9,1.6-1.4,2.4l-0.1,0.2l-0.1,0.2l-0.1,0.2l-0.1,0.2L150,27
		c-0.4,0.6-0.8,1.1-1.2,1.7l-0.1,0.2c-0.2,0.3-0.4,0.5-0.5,0.8l-0.1,0.2l-0.1,0.2l-0.1,0.2l-0.1,0.2l-0.1,0.2
		c-0.2,0.3-0.3,0.5-0.5,0.8l-0.1,0.2c-0.5,0.7-0.9,1.4-1.4,2.1l-0.1,0.2c-0.4,0.6-0.7,1.2-1.1,1.8l-0.1,0.2L144,36
		c-0.1,0.2-0.2,0.4-0.4,0.6l-0.1,0.2c-0.1,0.2-0.2,0.4-0.4,0.6c-0.2,0.3-0.3,0.5-0.5,0.8l-0.1,0.2c-0.1,0.2-0.2,0.4-0.3,0.6
		l-0.1,0.2c-0.3,0.6-0.7,1.2-1,1.8l-0.1,0.2c-0.1,0.2-0.2,0.4-0.3,0.6l-0.1,0.2c-0.1,0.1-0.1,0.3-0.2,0.4l-0.1,0.2
		c-0.1,0.2-0.2,0.4-0.3,0.6l-0.1,0.2l-0.2,0.4l-0.4,0.8l-0.3,0.6c-0.4,0.7-0.8,1.5-1.1,2.2l-0.1,0.2l-0.1,0.2l-0.1,0.2
		c-0.1,0.2-0.2,0.4-0.3,0.6l-0.1,0.2c-0.1,0.1-0.1,0.3-0.2,0.4l-0.1,0.2l-0.1,0.2l-0.1,0.2c-0.1,0.2-0.2,0.4-0.3,0.6l-0.1,0.2
		c-0.1,0.2-0.2,0.4-0.3,0.6l-0.1,0.2l-0.2,0.4l-0.3,0.6l-0.4,0.8l-0.2,0.4c-0.4,1-0.8,2-1.2,2.9l-0.1,0.2l-0.1,0.2l-0.1,0.2
		c-0.2,0.4-0.3,0.9-0.5,1.3l-0.1,0.2c-0.1,0.2-0.2,0.4-0.2,0.6l-0.2,0.4c-0.1,0.1-0.1,0.3-0.2,0.4l-0.1,0.2
		c-0.1,0.4-0.3,0.7-0.4,1.1l-0.1,0.2c-0.2,0.7-0.5,1.4-0.7,2.1l-0.1,0.2c-0.1,0.3-0.2,0.6-0.3,0.9l-0.1,0.2c0,0.1-0.1,0.3-0.1,0.4
		l-0.1,0.2c-0.1,0.2-0.1,0.4-0.2,0.6l-0.1,0.2c-0.1,0.2-0.1,0.4-0.2,0.7l-0.1,0.2l-0.1,0.2l-0.1,0.2l-0.1,0.2l-0.1,0.2
		c-0.1,0.2-0.1,0.4-0.2,0.7l-0.1,0.2l-0.1,0.4l-0.1,0.2c0,0-0.1,0.5-0.3,1l-0.2,1l0,0.1c0,0.1,0,0.1-0.1,0.3
		c-0.3,1.1-0.5,2.3-0.8,3.3l-0.1,0.3c0,0.1,0,0.1,0,0.2l-0.1,0.3l0,0.2c0,0-0.2,0.9-0.2,1.2c0,0.2-0.1,0.5-0.1,0.5s0,0.2-0.1,0.3
		l0,0.2c0,0,0,0.2-0.1,0.4c0,0.1,0,0.1,0,0.2l0,0.2c-0.2,1.1-0.4,2.1-0.5,3.2c-0.1,0.6-0.2,1.2-0.2,1.8c0,0-0.2,1.4-0.2,2
		c-0.2,1.3-0.3,2.6-0.4,3.8c0,0-0.1,1.2-0.1,1.5c0,0.6-0.1,1.2-0.1,1.8l0,0.2c0,0,0,0.1,0,0.3c0,0.3,0,0.3,0,0.4l0,0.2
		c0,0,0,0.1,0,0.3c0,0.1,0,0.1,0,0.2c0,0,0,0.8,0,1.4l0,0.1c0,0.1,0,0.1,0,0.3l0,0.4c0,0.1,0,0.1,0,0.2l0,0.1l0,0.8l0,0.2
		c0,0.3,0,0.7,0,1l0,0.2l0,0.2c0,0.3,0,0.3,0,0.4l0,0.2c0,0,0,0.8,0,1.1c0,0.5,0,1.1,0.1,1.6l0,0.2l0,0.3c0.1,1.4,0.2,2.9,0.3,4.2
		c0,0.5,0.1,1,0.1,1.4l0,0.2l0,0.3l0.1,0.6l0,0.3c0,0.1,0,0.1,0,0.2c0,0,0.1,0.9,0.2,1.4c0,0.3,0.1,0.6,0.1,0.9l0,0.1l0.1,0.6l0,0.2
		c0.1,0.6,0.2,1.2,0.3,1.9l0,0.2l0,0.3l0,0.2c0.3,1.6,0.6,3.3,1,4.7c0,0,0.2,0.9,0.3,1.2c0.1,0.6,0.3,1.2,0.5,1.8l0.1,0.4l0.1,0.2
		c0,0.1,0,0.1,0.1,0.2c0.1,0.2,0.2,0.5,0.2,0.5l0.1,0.2c0.1,0.4,0.3,0.8,0.3,0.8l0.1,0.3c0.1,0.2,0.2,0.5,0.2,0.5l0.1,0.2
		c0.1,0.3,0.2,0.8,0.2,0.8c0.1,0.4,0.3,0.9,0.4,1.3l0.1,0.2c0.1,0.4,0.3,0.9,0.3,0.9l0.1,0.2c0.1,0.3,0.1,0.4,0.1,0.4
		c0.1,0.2,0.2,0.4,0.2,0.4l0.1,0.4c0,0.1,0,0.1,0.1,0.2c0.1,0.2,0.2,0.5,0.2,0.5c0,0.1,0,0.1,0.2,0.4l0.1,0.3c0,0,0.2,0.6,0.3,1.1
		c0.5,2,0.1,4.2-1.1,5.9c-1.9,2.8-5.8,4.1-9,2.8c-1.3-0.5-2.4-1.4-3.2-2.5c-0.5-0.7-0.6-1-1-1.8l-0.1-0.3l-0.1-0.2
		c0-0.1,0-0.1-0.1-0.2c-0.1-0.2-0.2-0.4-0.2-0.4c0-0.1-0.1-0.3-0.1-0.4c0-0.1,0-0.1-0.1-0.2l-0.1-0.1l-0.1-0.4l-0.2-0.5l-0.1-0.3
		c-0.1-0.2-0.1-0.4-0.1-0.4s-0.1-0.4-0.3-0.7c-0.1-0.2-0.1-0.2-0.1-0.3l-0.1-0.2c0-0.1-0.1-0.3-0.1-0.4c0-0.1,0-0.1-0.1-0.3l-0.3-1
		l-0.1-0.2c-0.1-0.3-0.2-0.7-0.2-0.7l0-0.1c0-0.1,0-0.1-0.1-0.2l-0.2-0.5l-0.1-0.2l-0.3-1l-0.1-0.2c-0.1-0.3-0.2-0.7-0.2-0.7l0-0.1
		c0-0.1,0-0.1-0.1-0.2l0-0.1l-0.1-0.4l-0.1-0.3l-0.1-0.2l-0.2-0.7l-0.1-0.5c-0.1-0.3-0.2-0.7-0.2-0.7l-0.1-0.2
		c-0.1-0.3-0.2-0.7-0.2-1l-0.3-1.3c-0.1-0.3-0.1-0.5-0.1-0.5c-0.1-0.2-0.1-0.2-0.1-0.5c-0.1-0.4-0.2-0.9-0.2-0.9
		c-0.1-0.4-0.2-0.9-0.2-0.9l0-0.2c-0.1-0.4-0.2-1-0.2-1l0-0.2l-0.1-0.3l0-0.2l0-0.3l-0.2-0.9c0-0.1,0-0.3-0.1-0.4l-0.1-0.8l0-0.2
		l-0.1-0.6l0-0.3l-0.1-1l0-0.2c0-0.4-0.1-0.8-0.1-0.8l0-0.2l0-0.2c0-0.2,0-0.2-0.1-0.5l0-0.2l0-0.2l0-0.2c0-0.2,0-0.2-0.1-0.5l0-0.2
		l0-0.2c0-0.4-0.1-0.8-0.1-0.8l0-0.2l0-0.2c0-0.3,0-0.6,0-0.6c0-0.2,0-0.5,0-0.5c0-0.3-0.1-0.7-0.1-0.7l0-0.2l0-0.2
		c0-0.3,0-0.7,0-0.7l0-0.2l0-0.2c0-0.3,0-0.7,0-0.7l0-0.1c0-0.1,0-0.1,0-0.2l0-0.7l0-0.2l-0.1-1.2l0-0.2c0-0.4,0-0.8,0-0.8l0-0.5
		c0-0.3,0-0.8,0-0.8l0-0.3c0-0.1,0-0.1,0-0.2l0-0.3l0-0.2l0-0.3l0-1l0-0.2l0-0.9l0-0.2l0-0.2c0-0.1,0-0.1,0-0.2l0-0.2
		c0-0.1,0-0.1,0-0.3l0-0.2l0-0.2c0-0.4,0-0.8,0-0.8l0-0.2l0-0.2c0-0.5,0-0.4,0-0.7l0-0.2l0-0.2c0-0.3,0-0.3,0-0.5l0-0.4l0-0.3l0-0.9
		l0-0.5c0-0.3,0-0.7,0-0.7l0-0.2l0-0.2c0-0.4,0.1-0.8,0.1-0.8l0-0.1c0-0.1,0-0.1,0-0.2c0,0,0.1-0.7,0.1-1c0-0.1,0-0.1,0-0.2
		c0-0.4,0.1-0.9,0.1-0.9c0-0.1,0-0.1,0-0.2c0-0.2,0.1-0.5,0.1-0.7c0-0.1,0-0.1,0-0.3l0-0.2l0.1-0.8c0-0.2,0.1-0.5,0.1-0.5
		c0-0.4,0.1-0.9,0.1-0.9c0-0.3,0.1-0.6,0.1-0.6l0-0.3c0-0.2,0.1-0.5,0.1-0.5s0.1-0.6,0.1-1c0-0.1,0-0.1,0-0.3l0.2-1.1l0-0.2
		c0-0.1,0-0.1,0-0.2c0.1-0.4,0.1-0.8,0.1-0.8c0-0.2,0-0.2,0.1-0.5c0.1-0.4,0.1-0.8,0.1-0.8c0-0.1,0-0.3,0.1-0.4c0-0.1,0-0.1,0-0.2
		c0.1-0.3,0.1-0.7,0.1-0.7l0.1-0.3c0-0.1,0-0.1,0-0.2c0.1-0.3,0.1-0.7,0.1-0.7c0-0.2,0-0.2,0.1-0.5c0.1-0.4,0.2-0.8,0.2-0.8l0-0.2
		c0,0,0-0.2,0.1-0.4c0-0.1,0-0.1,0-0.2l0.1-0.3c0-0.2,0.1-0.3,0.1-0.3l0.1-0.2c0.1-0.4,0.2-1,0.2-1l0.1-0.2c0.1-0.4,0.2-1,0.2-1
		l0.1-0.2l0.1-0.2c0.1-0.3,0.2-0.6,0.2-0.6l0.1-0.2l0.1-0.3l0.2-0.9l0.1-0.2c0,0,0-0.2,0.1-0.4c0-0.1,0-0.1,0.1-0.2l0.1-0.3l0.1-0.3
		l0.1-0.5c0.1-0.2,0.1-0.5,0.2-0.7l0.1-0.2l0.1-0.2l0.1-0.2l0.1-0.2l0.1-0.2l0.1-0.5l0.1-0.2l0.1-0.2c0.1-0.2,0.1-0.5,0.2-0.7
		l0.1-0.2c0.1-0.4,0.2-0.8,0.4-1.2l0.1-0.2c0.1-0.3,0.2-0.6,0.3-1l0.1-0.2c0.1-0.2,0.1-0.3,0.2-0.5l0.1-0.2c0.3-1,0.7-2.1,1.1-3.1
		l0.1-0.2l0.2-0.5c0.3-0.9,0.7-1.7,1-2.6l0.1-0.2l0.3-0.7c0.4-1,0.8-2,1.3-3l0.1-0.2l0.4-0.9l0.3-0.7l0.2-0.5
		c0.2-0.5,0.5-1.1,0.7-1.6l0.1-0.2l0.1-0.2l0.1-0.2c0.1-0.3,0.3-0.6,0.4-0.9l0.1-0.2l0.1-0.2l0.1-0.2c0.1-0.3,0.3-0.6,0.4-0.9
		l0.1-0.2c0.4-0.8,0.8-1.7,1.3-2.5l0.1-0.2l0.5-0.9l0.2-0.5c0.3-0.6,0.6-1.2,1-1.8l0.1-0.2c0.1-0.2,0.2-0.4,0.4-0.7l0.1-0.2
		c0.3-0.5,0.6-1,0.9-1.5l0.1-0.2c1.1-1.9,2.2-3.8,3.4-5.6l0.1-0.2c0.6-1,1.3-2,1.9-3l0.1-0.2l0.1-0.2l0.1-0.2l0.1-0.2l0.1-0.2
		l0.1-0.2l0.1-0.2c0.1-0.2,0.3-0.4,0.4-0.6l0.1-0.2c0.1-0.2,0.3-0.4,0.4-0.6l0.2-0.2c0.4-0.6,0.8-1.1,1.2-1.7l0.1-0.2
		c0.1-0.1,0.2-0.3,0.3-0.4l0.1-0.2c0.1-0.2,0.3-0.4,0.4-0.6l0.7-0.8c0.3-0.2,0.5-0.5,0.8-0.7c1.9-1.5,4.5-1.9,6.8-1.3
		c2.6,0.8,4.7,3.1,5.2,5.8C152.6,20.3,152.6,21,152.6,21.7L152.6,21.7z"/>
</g>
</svg>
