<svg xmlns="http://www.w3.org/2000/svg" width="20px" viewBox="0 0 289 353"><path fill="#AD1E51" d="M138.2,69.1c1.3,0,2.7,0,4-0.1l2.3-0.1l2.3,0.1c1.3,0.1,2.7,0.1,4,0.1c36.3,0,65.7-26.3,65.7-58.9 c0-1.2,0-2.4-0.1-3.6L216,0.5l-6.8-0.4c-28-1.4-53.9,13.1-64.7,36.2C133.8,13.2,107.8-1.4,79.9,0.2l-6.8,0.4l-0.4,6.1 C70.5,39.1,98,67,134.2,69C135.5,69.1,136.9,69.1,138.2,69.1z M169.5,27.1C178,19.6,189,15,200.9,14.1c-2,21.9-21.4,39.3-45.9,41.1 C156.1,44.6,161.2,34.7,169.5,27.1L169.5,27.1z M119.5,27.1c8.4,7.5,13.6,17.5,14.6,28C109.6,53.3,90.3,36,88.1,14.1 C99.9,15,111,19.6,119.5,27.1L119.5,27.1z M242.1,96.9c-21.6-10.9-50.7-16.6-86.5-16.6h-22.3c-35.8,0-64.9,5.6-86.5,16.6 C16,112.6,0.3,138.8,0.3,174.8c0,37.1,17.1,81.1,45.6,117.6c13.9,17.7,29.6,32.5,45.7,43c18,11.7,35.8,17.6,52.8,17.6 s34.8-5.9,52.8-17.5c16.1-10.3,31.8-25.2,45.7-43c28.5-36.6,45.6-80.6,45.6-117.7C288.6,138.8,273,112.6,242.1,96.9L242.1,96.9z M230.4,284.6c-26.7,34.2-58.8,54.5-85.9,54.5s-59.2-20.4-85.9-54.5c-26.8-34.4-42.9-75.4-42.9-109.8c0-53.5,39.6-80.7,117.5-80.7 h22.3c78,0,117.5,27.1,117.5,80.7C273.2,209.1,257.2,250.2,230.4,284.6L230.4,284.6z"></path></svg>
