<svg xmlns="http://www.w3.org/2000/svg" xmlns:xlink="http://www.w3.org/1999/xlink" width="20px" viewBox="0 0 289 353">
<path fill="#174207" d="M233.5,87.3c17.1-1.5,32.7-11,47.3-28.5c0.5-0.6,0.7-1.5,0.5-2.3c-0.2-0.8-0.7-1.5-1.5-1.8
	c-9.2-4.2-18.5-5.3-27.7-3.4c1.2-5.9,1.4-12.3,0.4-19.3c3.5-9.5,3.1-18.8-1.2-27.7c-0.6-1.2-2-1.8-3.3-1.3
	c-10.2,3.8-17.1,9.1-20.8,16.1c-3.5-7.3-8.5-13.3-15-17.8c-0.6-0.4-1.3-0.6-2-0.4c-0.7,0.1-1.3,0.6-1.7,1.2c-5.6,9-8,20.2-7.2,33.3
	c-6.9-6.2-15.8-10.8-26.6-13.6c-0.8-0.2-1.6,0-2.2,0.4c-0.6,0.5-1,1.2-1.1,2C170.8,48,181.7,76.2,214,85.6
	c-1.1,4.2-3.6,13.8-7.9,26.7c-5-17.6-19.6-28.4-43.6-32.2c-0.8-0.1-1.7,0.2-2.3,0.8c-0.6,0.6-0.8,1.5-0.7,2.3
	c5.1,25,19.2,39.1,42.1,41.9c-3.1,8.6-6.9,18.1-11.3,28.2c-3.8-16.1-14.6-26.5-32-30.9c-0.8-0.2-1.6,0-2.2,0.5c-0.6,0.5-1,1.2-1,2
	c-0.7,25,7.2,42,24.1,51.9c-4.1,7.9-8.5,15.9-13.4,23.9c-6.3-17-20.1-27.7-42.1-32.6c-0.8-0.2-1.7,0-2.3,0.6
	c-0.6,0.6-0.9,1.4-0.9,2.2c2.9,25.9,14.7,41.2,35,45.7c-4.6,6.7-9.5,13.3-14.8,19.8c-4.5,5.5-9.2,10.8-14,15.7
	c2-13.5-1.8-25.6-11.4-36.1c-0.6-0.6-1.4-0.9-2.2-0.8c-0.8,0.1-1.6,0.6-2,1.3c-2.4,4.3-4.2,8.6-5.5,12.8
	c-4.9-8.2-12.8-13.6-23.6-16.2c-0.7-0.2-1.5,0-2.1,0.4c-0.6,0.4-1,1.1-1.1,1.8c-3.3,26.3,4.9,46,24.5,58.4
	c-6.2,5.1-12.5,9.9-18.7,14.3C84,267.2,76,250.8,61,239c-0.7-0.6-1.7-0.7-2.6-0.4c-0.9,0.3-1.5,1.1-1.6,2c-1.5,8.9-1.5,18,0,27.1
	c-2.8-1.8-5.9-3.2-9.1-4.3c-0.7-0.2-1.6-0.1-2.2,0.3c-0.7,0.4-1.1,1.1-1.2,1.9c-2,16.9,0.8,30.7,8.8,42.1
	c-15.8,8.8-29.3,14.8-38,18.3c-3.1,1.2-5.5,3.6-6.7,6.8s-1.1,6.5,0.3,9.5c2.2,4.7,7,7.2,11.9,6.8c1.3-0.1,2.5-0.4,3.7-0.9
	c14-6,27.4-12.7,40-20c14.3,6.5,29.6,9,46.2,7.5c7.8-0.7,16-2.3,24.5-4.7c0.9-0.3,1.6-1,1.8-1.9c0.2-0.9-0.1-1.9-0.8-2.5
	c-12.7-11.8-26.8-17.6-42-17.4c7.6-5.5,15-11.2,21.9-17.2c9.3,8.5,23.2,11.9,41.7,10.3c3.6-0.3,7.3-0.8,11.2-1.5
	c0.8-0.1,1.5-0.7,1.9-1.4c0.4-0.8,0.3-1.6-0.1-2.4c-5.4-10-13-17.4-22.6-22.1c7.3-1,15.2-3,24-6.2c0.8-0.3,1.4-1,1.6-1.8
	c0.2-0.8,0-1.7-0.6-2.4c-5.5-6.1-11.7-10.3-18.4-12.6c5.1-6.5,10-13.2,14.5-20.1c7.7,4.9,19.7,7.7,38.3,6.1
	c3.5-0.3,7.2-0.8,11.2-1.4c0.8-0.1,1.5-0.6,1.9-1.4c0.4-0.7,0.4-1.6,0-2.4c-4.3-8.9-10.4-15.2-18.2-18.9c2.6-1.9,5.2-4,7.8-6.5
	c0.6-0.6,0.9-1.5,0.8-2.3c-0.1-0.8-0.7-1.6-1.5-1.9c-7.4-3.5-14.5-5.2-21.4-4.9c2.2-4.5,4.2-9.2,6.1-13.8c5,2,10.8,3.2,17.2,3.2
	c2,0,4.1-0.1,6.2-0.2c10.9-1,22.1-4.7,32.3-10.9c0.7-0.4,1.1-1.1,1.2-1.9s-0.1-1.6-0.7-2.1c-6.7-7.3-14.6-11.4-23.5-12.4
	c1.5-1.4,2.9-2.9,4.3-4.5c0.6-0.7,0.8-1.6,0.6-2.4c-0.2-0.8-0.8-1.5-1.7-1.8c-12.8-4.5-23.7-4.7-33.1-0.8l9-22.8
	c8,6.9,18.7,9.9,30.8,8.8c8-0.7,16.5-3.2,25.2-7.5c0.7-0.3,1.2-1,1.4-1.7c0.2-0.8,0-1.5-0.4-2.2c-5-6.8-11.3-11.4-18.8-13.8
	c2.7-2.7,5.4-5.7,7.9-9.1c0.5-0.7,0.7-1.7,0.3-2.5s-1-1.4-1.9-1.6c-14.7-3-26.5-1.5-36,4.6c2.2-7.4,3.7-12.9,4.4-15.8
	C224,87.5,228.8,87.7,233.5,87.3z M160.2,128.3c16,5,24.6,16.1,26.2,33.5c-1.6,3.3-3.2,6.7-4.9,10.1
	C167.1,163.5,160.3,149.5,160.2,128.3z M126.2,174c19.8,5.3,31.2,15.6,35.9,32.4c-1.1,1.8-2.3,3.6-3.5,5.4
	C140.3,208.6,129.7,196.3,126.2,174z M113.9,222.4c8.3,10.7,10.2,22.7,5.9,36.6c-1.7,1.6-3.4,3.2-5.1,4.8
	C107,250.8,106.7,237.2,113.9,222.4z M83.7,218.9c10.2,3.2,16.9,9.4,20.2,18.8c-1.2,10.3,1,20.2,6.8,29.6c-1,0.9-2.1,1.8-3.2,2.7
	C89.3,259.2,81.5,242.4,83.7,218.9z M61.3,246.2c12.4,11.2,18.3,26.1,18.2,45.4c-2.3,1.6-4.7,3.1-7,4.6
	C63.4,280.2,59.5,262.7,61.3,246.2z M49.2,269.7c3.3,1.4,6.4,3.4,9.3,5.8c2.1,8,5.3,16,9.6,23.5c-3.5,2.2-7,4.3-10.4,6.2
	C50.8,295.6,48,283.9,49.2,269.7z M129,327.2c-21.9,5.6-41.3,4.8-59-2.3c5.2-3.1,10.3-6.4,15.3-9.7
	C101.4,312.4,115.7,316.3,129,327.2z M22.3,343.4c-3.4,1.5-7.2,0-8.8-3.3c-0.8-1.7-0.9-3.6-0.2-5.3c0.7-1.7,2-3.1,3.8-3.8
	c17.4-7,54-23.9,89.5-53.2c1.5,3.9,3.5,7.4,5.9,10.4C87,310,56.7,328.6,22.3,343.4z M164.4,296.2c-29.4,4.4-46.9-2.8-53.5-22
	c1.7-1.5,3.4-3,5.1-4.5c5,3,10.7,4.8,17,5.5C146.9,277.9,157.2,284.8,164.4,296.2z M166.6,265c-12.8,4.2-23.6,5.9-32.8,5
	c-0.1,0-0.1,0-0.2,0l0,0c-5-0.5-9.6-1.9-13.6-4c3.1-2.9,6.1-5.9,9.2-8.9C144,252.7,156.3,255.3,166.6,265z M149.3,250.4
	c-4.4-0.8-8.9-0.8-13.7-0.1c3.1-3.4,6.2-7,9.2-10.6c5.1-6.3,9.9-12.7,14.4-19.3c1.4,2.9,3.3,5.7,6,8.2
	C160.3,236,155,243.4,149.3,250.4z M214.4,231.7c-19.4,2.7-41.6,2.1-49.7-12.2c5.8,2,11.5,2.8,17.1,2.3c5.2-0.5,10.4-2.1,15.4-4.7
	C204.5,219.6,210.2,224.4,214.4,231.7z M203.9,206.1c-12.5,10.8-25.4,13.4-39.3,7.8C176.7,203.1,189.6,200.5,203.9,206.1z
	 M182.2,198.8c-4.1,0.8-8,2.3-11.9,4.5c5.2-8.6,10-17.2,14.2-25.5c1.6,1.5,3.3,2.9,5.3,4C187.4,187.6,184.9,193.2,182.2,198.8z
	 M244.5,173.5c-19.6,10.7-41.8,11.6-54,2.6c1.2,0,2.3-0.1,3.5-0.2c9.9-0.9,19.1-4.5,27.4-10.9C230.2,164.5,237.8,167.2,244.5,173.5z
	 M224.8,154.9c-10.7,11.1-22.9,16.3-36.9,16c2.1-4.4,4.1-8.6,6-12.7C202.4,152.3,212.4,151.3,224.8,154.9z M165.6,86
	c22.2,4.4,34.3,15.6,36.8,33.9C182.8,117.6,170.8,106.4,165.6,86z M257,125.5c-17.3,7.7-33.6,7.6-44.6,0c0.7,0,1.3-0.1,2-0.1
	c9.3-0.8,17.7-4.2,25.3-10.1C246.6,116.8,252.3,120.1,257,125.5z M245.4,102.3c-10.2,12.4-22.2,18.3-36.5,18c1.1-3.1,2.1-6,3-8.7
	C220.1,103.3,231.1,100.3,245.4,102.3z M274.4,58.1c-14.7,16.6-30.3,24.5-47.4,24.1c11.8-6.2,19.7-14.6,23.5-25.1
	C258.5,54.8,266.4,55.1,274.4,58.1z M247.6,8.8c2.7,6.8,2.7,13.7,0.2,21c-5.8,2.5-10.9,5.4-15.2,8.9c-0.5-4.4-1.4-8.5-2.5-12.3
	C232.1,18.5,237.7,12.9,247.6,8.8z M247.7,35.5c2,20.9-7.2,35.4-28,44.4c-0.1-2.2-0.2-4.4-0.4-6.5C221.6,55.8,231,43.3,247.7,35.5z
	 M211.6,7.3c9.7,7.8,15.1,19.8,16.2,35.7c-4.9,5.1-8.5,11-10.9,17.8c-2.1-7.3-5.3-13.7-9.6-19.2C205.4,27.9,206.8,16.4,211.6,7.3z
	 M214.5,80.3c-27.3-8.4-37.4-31.8-37.8-52.5C201.2,35.4,213.6,52.6,214.5,80.3z"/>
</svg>
