<svg xmlns="http://www.w3.org/2000/svg" viewBox="0 0 289 353" width="20px">
<path fill="#EDE8B9" d="M283.8,166.7c0-19.2-9.6-36.5-25.4-46.8c-10.7-35.4-36.8-63.1-69.8-76.3C187.1,20.7,168,2.3,144.5,2.3
	s-42.6,18.4-44.1,41.3c-33.1,13.3-59.2,40.9-69.8,76.3c-15.8,10.3-25.4,28-25.4,46.8c0,18.4,8.8,34.3,22.4,44.6l10.7,104
	c2.2,21,19.8,36.9,40.8,36.9h130.5c21,0,38.6-15.9,40.8-36.9l10.7-104C275,201.4,283.8,185.2,283.8,166.7L283.8,166.7z M144.5,25.1
	c12.1,0,21.7,10,21.7,21.8c0,11.8-9.9,21.8-21.7,21.8c-11.8,0-21.7-10-21.7-21.8S132.4,25.1,144.5,25.1z M45.6,137.6
	c2.9-1.5,4.8-4.1,5.9-7.4c7.4-29.1,27.2-52,53.3-63.8c7.4,14.8,22.4,25.1,40.1,25.1s32.7-10.3,40.1-25.1
	c25.7,11.8,45.6,34.7,53.3,63.8c0.7,3,2.9,5.9,5.9,7.4c11,5.9,17.6,17,17.6,29.5c0,18.4-15.1,33.6-33.4,33.6
	c-6.6,0-13.2-2.2-18.7-5.9c-4.4-3.3-10.7-2.6-14.7,1.1c-11.4,11.1-31.2,9.6-40.8-3c-2.2-3-5.5-4.4-8.8-4.4c-3.3,0-7,1.5-8.8,4.4
	c-9.6,12.5-29.8,14-41.2,3c-4-3.7-10.3-4.4-14.7-1.1c-5.5,3.7-11.8,5.9-18.4,5.9c-18.4,0-33.4-15.1-33.4-33.6
	C28,154.6,35,143.1,45.6,137.6L45.6,137.6z M227.9,313.5c-1.1,9.2-8.8,16.2-18,16.2H79.1c-9.2,0-17.3-7-18-16.2l-9.6-91.1
	c3.3,0.7,6.2,1.1,9.6,1.1c8.5,0,16.9-1.8,24.3-5.5c17.6,11.8,42.3,11.1,58.8-1.8c8.8,6.6,19.5,10.3,30.9,10.3
	c10.3,0,19.8-3,27.9-8.5c7.4,3.7,15.8,5.5,24.3,5.5c3.3,0,6.6-0.4,9.6-1.1L227.9,313.5z"/>
</svg>
