<svg xmlns="http://www.w3.org/2000/svg" width="20px" viewBox="0 0 289 353"><g><path fill="#194715" d="M150.6,53.3c4.2,26,7.5,51.7,4.8,78c-2.8,27.8-11.1,55.3-15,82.9c-3.5,24.5-4.4,48.4-1.8,73 c2.2,21.2,3.8,48.6,19.2,64.7c4.1,4.3,11.6-1.4,7.4-5.8c-16.5-17.2-17-52.6-18.7-75.5c-2.1-27,2.7-54.6,7.2-81.1 c4.1-23.9,10.7-47.3,12.1-71.5c1.3-22.1-2.4-44.4-5.9-66.2C158.9,46.1,149.6,47.3,150.6,53.3z"></path><path fill="#194715" d="M93.6,104.8c-26.1-5.8-49.8-3.7-72.7,10.7c-3.9,2.4-1.2,7.5,2.3,8.3c26.9,6.4,31.5,39.9,55.8,49.9 c16.5,6.8,35.7,6.6,50.6-3.8c5-3.5-0.8-10.8-5.7-7.4c-41.2,28.7-59.2-26.6-89.4-43.9c16.5-8,33.7-9.1,52.4-5.8 c21.3,3.7,29,15.4,35.9,31.3c-9.9-4.1-20.4-6.4-31.1-9.3c-5.8-1.5-9.3,7.1-3.5,8.7c14.1,3.7,28.3,6.3,40.9,14.1 c3.8,2.4,9-1,7.1-5.5C126.7,129,120.4,110.8,93.6,104.8z"></path><path fill="#194715" d="M87.1,228c-11.4-0.8-21.3,1.3-32.3,4.1c-17.5,4.4-31.4-2.7-46.6-9.9c-4.3-2-8.2,3.7-5.4,7.2 c15.4,19.8,32.7,43,56.2,53.8c20.4,9.4,38.9,6.7,60.2,1.5c3.2-0.8,5.6-4.6,3.1-7.5c-13.9-15.9-32.1-15.9-51.7-19.6 c-5.9-1.1-7.1,8.2-1.2,9.3c13.8,2.7,28.1,2.5,39.5,10.7c-17.7,3.7-33.5,4.4-50.8-5.5c-14.4-8.2-26-20.8-36.5-33.9 c8.8,3.1,17.5,4.9,28.3,4.3c15-0.8,24.7-8.2,40.8-4c12.4,3.2,21.5,16.6,28.9,26.2c3.7,4.7,11.1-1,7.4-5.8 C117.4,246.8,104.2,229.2,87.1,228z"></path><path fill="#194715" d="M238.7,257.7c-33.2-11.3-64,16.8-77.1,45.2c-1.4,3.1,1.6,7,5,6.4c12.2-2.4,24.6-6.5,33.3-15.8 c4.1-4.4-3.4-10-7.5-5.6c-4.4,4.8-10.8,7.7-17.3,9.8c11.7-19,32.3-36.7,54.7-32.7c-4.1,7.5-6.2,15.6-8.8,24 c-6.4,20.8-32.8,28.2-52.1,26.1c-6-0.6-7.2,8.6-1.2,9.3c17.8,1.9,33.2-2.9,48.1-12.6c16.4-10.6,14.5-32.4,25-47 C242.4,262.5,241.6,258.7,238.7,257.7z"></path><path fill="#194715" d="M227.5,150.4c-32.2,4.2-52.9,21-61.2,52.2c-0.9,3.4,2.1,8.2,6.1,6.1c15.6-8.5,33-11.6,47.6-22.1 c4.9-3.5-0.8-10.9-5.7-7.4c-11,7.9-23.6,11.3-35.7,16.3c7.9-19,21.5-29.4,43.7-34.6c20.5-4.8,38.7-2.1,53,11.9 c-38.2,8.3-61.1,70.2-101.4,43.2c-5-3.3-10.6,4.1-5.6,7.5c52.8,35.3,68.2-44.6,115.9-42.4c4,0.2,6.9-4.1,4.3-7.5 C272.8,153,252.8,147.2,227.5,150.4z"></path><path fill="#194715" d="M208.6,15.5c-11.8,8-19.3,18.8-24.4,32.1c-3.1,8.1-10.6,29.7-5,36.9c1.6,2,4.6,2.4,6.6,0.8 c10.8-8.4,19.8-19.7,22.7-33c1.3-5.9-8-7-9.3-1.2c-1.5,6.6-6.3,13.9-11.7,19.8c1.8-7.9,5.1-19,5.4-19.9c2.8-9.4,8.4-17.6,15.7-23.9 c7.3-6.2,28.4-22,39.2-14.6c-8.9,9.9-14.4,20.7-19.1,33.5c-6.7,18.1-15.9,48.6-41.1,45.5c-6-0.7-7.2,8.6-1.2,9.3 c45.2,5.4,47.7-62.1,70.9-84.8c1.9-1.8,2.4-4.3,0.8-6.6C245.7-7.8,221.9,6.5,208.6,15.5z"></path></g></svg>
