<svg xmlns="http://www.w3.org/2000/svg" xmlns:xlink="http://www.w3.org/1999/xlink" width="20px" viewBox="0 0 289 353">
<path fill="#918633" d="M283.2,174.2c1.3,0,2.5-0.5,3.4-1.4c0.9-0.9,1.4-2.1,1.4-3.4c0-38-15.1-74.5-42-101.3
	c-26.9-26.9-63.3-42-101.3-42s-74.5,15.1-101.3,42c-26.9,26.9-42,63.3-42,101.3s15.1,74.5,42,101.3c26.9,26.9,63.3,42,101.3,42
	c1.3,0,2.5-0.5,3.4-1.4c0.9-0.9,1.4-2.1,1.4-3.4v-34.3c5.1,0.6,10.1,0.9,15.2,0.9c11.5,0,22.9-1.4,34-4.1
	c18.3-4.4,35.6-12.3,50.8-23.4c15.2-11.1,28.1-25.1,37.8-41.2c1.4-2.3,0.7-5.2-1.6-6.6l-41.1-25.1L283.2,174.2z M99.4,247.8
	l7.5-12.3c17.7,9.9,37.6,15.1,57.8,15.2c9.5,0,19.1-1.1,28.3-3.4c29.2-7,54.7-24.8,71.2-49.9l12.3,7.5l0,0
	c-18.7,28.2-47.3,48.3-80.2,56.2C163.6,269.1,128.9,264.4,99.4,247.8L99.4,247.8z M183.9,237.9l-1,1.7c-11.2,1.9-22.6,2-33.8,0.4
	l10.4-17L183.9,237.9z M164.4,214.8l14.9-24.5l24.5,14.9l-14.9,24.5L164.4,214.8z M198.7,235.7l-1.7-1l14.9-24.5l17,10.4
	C219.7,227.2,209.5,232.3,198.7,235.7L198.7,235.7z M236.9,214.3l-20-12.2l14.9-24.5l24.3,14.8l0,0
	C250.7,200.5,244.2,207.9,236.9,214.3L236.9,214.3z M208.7,197.1l-24.5-14.9l14.9-24.5l24.5,14.9L208.7,197.1z M176.1,177.2
	l-24.5-14.9l14.9-24.5l24.5,14.9L176.1,177.2z M146.6,170.4l24.5,14.9l-14.9,24.5l-24.5-14.9L146.6,170.4z M126.7,203l24.5,14.9
	L139,238c-9.5-2.3-18.6-5.9-27.1-10.7L126.7,203z M228.9,164.7l-61.5-37.5c-2.3-1.4-5.2-0.7-6.6,1.6L88.8,247
	c-1.4,2.3-0.7,5.2,1.6,6.6c15.2,9.3,32,15.7,49.6,18.8v6.9c-24.6-1.1-48.2-10.4-66.9-26.6v-2h9.6v-9.6H73v-28.7h19.1v-9.6H73v-28.7
	h28.7v28.7h9.6v-28.7h9.6v-9.6h-9.6V136h19.1v-9.6h-19.1V97.8h28.7V136h9.6V97.8h28.7v23.9h9.6V97.8h28.7v28.7h-19.1v9.6h19.1v14.3
	h9.6V136h23.4c3,9.3,4.7,18.9,5.1,28.7L228.9,164.7z M227.9,97.8c7.4,8.6,13.4,18.2,17.9,28.7h-19.9V97.8H227.9z M216.3,88.3h-28.7
	V68.4c10.4,4.4,20.1,10.5,28.7,17.9V88.3z M178.1,88.3h-28.7V59.7c9.7,0.4,19.4,2.1,28.7,5.1V88.3z M139.9,88.3h-28.7V64.8
	c9.3-3,18.9-4.7,28.7-5.1V88.3z M101.7,88.3H73v-2c8.6-7.4,18.2-13.5,28.7-17.9V88.3z M73,126.5V97.8h28.7v28.7H73z M101.7,136v28.7
	H73V136H101.7z M61.5,97.8h2v28.7H43.6C48.1,116.1,54.1,106.4,61.5,97.8L61.5,97.8z M40,136h23.4v28.7H34.9
	C35.4,155,37.1,145.3,40,136L40,136z M63.5,174.2v28.7H40.1c-3-9.3-4.7-18.9-5.1-28.7H63.5z M63.5,212.5v28.7h-2
	c-7.4-8.6-13.4-18.2-17.9-28.7H63.5z M144.7,50c-31.2,0.1-61,12.5-83.2,34.3c-22.2,21.9-35,51.5-35.6,82.7
	c-0.6,31.2,11,61.3,32.3,84.1c21.3,22.7,50.7,36.2,81.8,37.6v14.4c-34.9-1.2-67.9-16.1-92-41.4c-24.1-25.3-37.4-59-36.9-93.9
	c0.4-34.9,14.5-68.3,39.2-93s58.1-38.8,93-39.2c34.9-0.4,68.6,12.8,93.9,36.9c25.3,24.1,40.1,57.1,41.4,92H264
	c-1.3-30.8-14.4-59.9-36.6-81.3C205.1,62,175.5,50.1,144.7,50L144.7,50z"/>
</svg>
