<svg xmlns="http://www.w3.org/2000/svg" width="20px" viewBox="0 0 289 353"><g><path fill="#EFE8EF" d="M72.2,286.8c-14.6,28.9-21,51.9-22.4,57.4c-1,3.8,1.3,7.6,5.1,8.6c0.6,0.1,1.1,0.2,1.7,0.2 c3.2,0,6.1-2.1,6.9-5.3c2-8,15.1-55.2,50.6-101.4c0.7-0.1,1.4-0.2,2.1-0.4c30.2-11.9,64.5-3.7,64.8-3.7c3.8,0.9,7.6-1.4,8.6-5.2 c0.9-3.8-1.4-7.6-5.2-8.6c-1.3-0.3-26.3-6.3-54.2-1.2c19.5-21.1,44.2-40.8,75.3-55c3.5-1.6,5.1-5.8,3.5-9.4 c-1.6-3.6-5.8-5.1-9.4-3.5c-19.7,9-36.9,20.1-52,32.3l5.4-18.2c1.1-3.7-1-7.7-4.7-8.8c-3.7-1.1-7.7,1-8.8,4.7l-11,36.6 c-0.3,1-0.4,1.9-0.2,2.9c-20.6,20.3-36.2,42.4-47.9,62.7c-9.6-22.1-10.9-46.1-3.4-68.7c8.3-25,26.7-46.1,49.3-56.5 c41.8-19.2,85.9-20.1,138.3-14.5c-5.5,8.6-11.3,18.1-14.7,24.1c-13.1,23.2-19.2,48.8-23.9,70.9c-5.3,25.2-19.6,46.8-39.1,59.2 c-21.2,13.5-47.5,16.7-78.3,9.6c-3.8-0.9-7.6,1.5-8.5,5.3c-0.9,3.8,1.5,7.6,5.3,8.5c10.9,2.5,21.5,3.9,31.6,4 c21.5,0.3,41.1-4.9,57.5-15.4c23.1-14.7,39.2-38.9,45.4-68.2c4.5-21.1,10.2-45.4,22.3-66.9c4.6-8.1,13.9-23,20.4-32.9l6.2-9.5 l-11.3-1.4c-48.2-5.8-104-9.9-157.1,14.4c-26,11.9-47.2,36.2-56.8,64.9c-9.7,29.1-6.7,60.3,8.3,87.9 C72,286.5,72.1,286.7,72.2,286.8z"></path><path fill="#282627" d="M2.8,65c-4.8,24,8.3,54.3,37.5,66.3c3.1,1.3,6.3,2.3,9.7,3.2c2.9,0.7,5.9-1.1,6.6-4c0.7-2.9-1.1-5.9-4-6.6 c-28.7-7-43.4-35-39.1-56.7c2.3-11.8,4.7-25.5,3.1-39.7c-0.3-3-1-7.5-1.7-11.9c24.9,7.8,44.9,17.2,60.3,34.2 C83.7,59,88.1,72.5,87,85.8c-0.6,7.7-3.3,18.1-11.7,27.7c-3.6-20.3-10.7-39.3-21.3-56.8c-1.6-2.6-4.9-3.4-7.5-1.8 c-2.6,1.6-3.4,4.9-1.8,7.5c16.1,26.6,23.6,56.9,22.4,90c-0.1,2.4,1.3,4.4,3.4,5.3c0.6,0.2,1.2,0.4,1.9,0.4c3,0.1,5.6-2.2,5.7-5.3 c0.3-8.8,0.1-17.5-0.8-25.9c12.1-10.4,19.5-24.6,20.8-40.2c1.3-16.3-4.1-32.9-14.5-44.4c-20.9-23-49-32.7-73.7-39.9L1.2,0l1.5,8.7 c1.1,6.1,2.5,15.2,3.1,20C7.2,41.3,5,54,2.8,65z"></path></g></svg>
