<svg xmlns="http://www.w3.org/2000/svg" width="20px" viewBox="0 0 289 353"><path fill="#E8C89E" d="M252.3,191.5c4.3,0.5,7.2-4.9,4.3-8.7C217,127.7,215.1,114,208.4,120l-4.3,3.8L119.3,0L2,104.2l84.9,124.4 l-4.3,3.8c-1,1.1-1.4,2.2-1.9,3.8c0,1.6,0,2.7,1,3.8l42,61.7c2.4,3.8,8.1,2.2,8.6-2.7l0.5-3.8l39.6,57.8L289,248.8L249.4,191 L252.3,191.5z M148.8,173l-15.3-22.4l47.2-42l15.3,22.4L148.8,173z M102.1,104.2l47.2-42l25.7,38.2l-47.2,42L102.1,104.2z M120.7,148.9l-47.2,42l-25.7-38.2l47.2-42L120.7,148.9z M143.6,53.5l-47.2,42L70.6,57.3l47.2-42L143.6,53.5z M62.5,64.4l25.7,38.2 l-47.2,42l-25.7-38.2L62.5,64.4z M79.2,199.7l47.2-42l15.3,22.4l-47.2,42L79.2,199.7z M124,284.8l-31.9-46.9L210.3,132l31.9,46.9 c-4.3-0.5,17.2,2.7-50.1-8.2c-11,88.9-6.7,57.3-8.1,65.5l-52.9-6l-6.7,52.9l0,0L124,284.8z M235.6,188.8l39.6,58.4l-101.6,91.1 L134,280.4l4.8-38.2l52.9,6c10-83.5,7.2-58.9,8.1-65.5L235.6,188.8z"></path></svg>
