<svg xmlns="http://www.w3.org/2000/svg" width="20px" viewBox="0 0 289 353"><path fill="#D8CFD0" d="M288.6,150.8c0-26.3-23.1-47.7-51.5-47.7c-20,0-37.4,10.7-45.9,26.2c-7.2-15-22.6-25.9-40.8-27.9 c0.3-12.2,2.6-38.5,16.8-52.4c6.1-6,13.7-8.9,23-8.9V28.7c-12.8,0-23.6,4.2-32,12.5c-2.9,2.9-5.4,6.1-7.6,9.6 c-2.7-12.4-8.9-23.4-18.4-32.1C117,4.3,95.3-2.1,71.2,0.6l-4.8,0.5l-0.6,4.5c-2.9,22.4,4,42.5,19.4,56.7 c13.1,12.1,30.8,18.5,50.6,18.5c1.4,0,2.8-0.1,4.3-0.1c-1.4,8.2-1.9,15.5-2,20.6c-18.2,2.1-33.5,12.9-40.7,27.9 c-8.5-15.5-25.8-26.2-45.9-26.2C23.1,103.1,0,124.5,0,150.8s23.1,47.7,51.5,47.7c1.3,0,2.5-0.1,3.7-0.2c-6.2,7.9-9.9,17.5-9.9,28 c0,26.3,23.1,47.7,51.5,47.7c3.2,0,6.4-0.3,9.4-0.8c-8.3,8.5-13.3,19.7-13.3,32c0,26.3,23.1,47.7,51.5,47.7s51.5-21.4,51.5-47.7 c0-12-4.8-22.9-12.7-31.3c1.4,0.1,2.8,0.2,4.3,0.2c28.4,0,51.5-21.4,51.5-47.7c0-10.7-3.9-20.6-10.3-28.6c2.8,0.4,5.7,0.7,8.7,0.7 C265.5,198.6,288.6,177.2,288.6,150.8z M139.8,69.3c-18.2,0.9-34.4-4.4-46-15.1C82.3,43.5,76.6,28.5,77.6,11.6 c18.2-0.9,34.4,4.4,46,15.1C135.1,37.4,140.8,52.4,139.8,69.3z M237.1,114.6c21.5,0,39.1,16.3,39.1,36.2s-17.5,36.2-39.1,36.2 S198,170.8,198,150.8S215.6,114.6,237.1,114.6z M144.3,112.5c21.5,0,39.1,16.3,39.1,36.2S165.8,185,144.3,185s-39.1-16.3-39.1-36.2 S122.7,112.5,144.3,112.5z M12.4,150.8c0-20,17.5-36.2,39.1-36.2s39.1,16.3,39.1,36.2S73,187.1,51.5,187.1S12.4,170.8,12.4,150.8z M57.7,226.4c0-20,17.5-36.3,39.1-36.3s39.1,16.3,39.1,36.3c0,20-17.5,36.2-39.1,36.2S57.7,246.4,57.7,226.4z M144.3,341.5 c-21.5,0-39.1-16.3-39.1-36.2s17.5-36.2,39.1-36.2s39.1,16.3,39.1,36.2S165.8,341.5,144.3,341.5z M187.3,262.7 c-21.5,0-39.1-16.3-39.1-36.2c0-20,17.5-36.3,39.1-36.3c21.6,0,39.1,16.3,39.1,36.3C226.4,246.4,208.9,262.7,187.3,262.7z"></path></svg>
